%TF.GenerationSoftware,KiCad,Pcbnew,(7.0.0)*%
%TF.CreationDate,2023-02-21T16:48:07-06:00*%
%TF.ProjectId,stick-and-slip_v1,73746963-6b2d-4616-9e64-2d736c69705f,rev?*%
%TF.SameCoordinates,Original*%
%TF.FileFunction,Copper,L2,Bot*%
%TF.FilePolarity,Positive*%
%FSLAX46Y46*%
G04 Gerber Fmt 4.6, Leading zero omitted, Abs format (unit mm)*
G04 Created by KiCad (PCBNEW (7.0.0)) date 2023-02-21 16:48:07*
%MOMM*%
%LPD*%
G01*
G04 APERTURE LIST*
G04 Aperture macros list*
%AMRoundRect*
0 Rectangle with rounded corners*
0 $1 Rounding radius*
0 $2 $3 $4 $5 $6 $7 $8 $9 X,Y pos of 4 corners*
0 Add a 4 corners polygon primitive as box body*
4,1,4,$2,$3,$4,$5,$6,$7,$8,$9,$2,$3,0*
0 Add four circle primitives for the rounded corners*
1,1,$1+$1,$2,$3*
1,1,$1+$1,$4,$5*
1,1,$1+$1,$6,$7*
1,1,$1+$1,$8,$9*
0 Add four rect primitives between the rounded corners*
20,1,$1+$1,$2,$3,$4,$5,0*
20,1,$1+$1,$4,$5,$6,$7,0*
20,1,$1+$1,$6,$7,$8,$9,0*
20,1,$1+$1,$8,$9,$2,$3,0*%
G04 Aperture macros list end*
%TA.AperFunction,ComponentPad*%
%ADD10O,1.200000X1.750000*%
%TD*%
%TA.AperFunction,ComponentPad*%
%ADD11RoundRect,0.250000X0.350000X0.625000X-0.350000X0.625000X-0.350000X-0.625000X0.350000X-0.625000X0*%
%TD*%
%TA.AperFunction,ViaPad*%
%ADD12C,0.800000*%
%TD*%
%TA.AperFunction,Conductor*%
%ADD13C,0.250000*%
%TD*%
G04 APERTURE END LIST*
D10*
%TO.P,J9,2,Pin_2*%
%TO.N,-BATT*%
X67071999Y-52741999D03*
D11*
%TO.P,J9,1,Pin_1*%
%TO.N,Net-(J9-Pin_1)*%
X69072000Y-52742000D03*
%TD*%
D12*
%TO.N,GND*%
X36449000Y-52197000D03*
X65024000Y-55753000D03*
%TO.N,+3.3V*%
X43434000Y-53594000D03*
X42926000Y-63246000D03*
%TO.N,+BATT*%
X33528000Y-56134000D03*
X36322000Y-61976000D03*
%TO.N,+3.3V*%
X65024000Y-57912000D03*
%TO.N,+BATT*%
X65278000Y-61976000D03*
%TO.N,+3.3V*%
X65278000Y-62992000D03*
X65278000Y-65024000D03*
%TO.N,+BATT*%
X65278000Y-66040000D03*
%TO.N,+3.3V*%
X34544000Y-56896000D03*
%TO.N,GND*%
X35306000Y-59944000D03*
X39116000Y-68326000D03*
X43688000Y-62230000D03*
%TD*%
D13*
%TO.N,GND*%
X32803000Y-62013000D02*
X39116000Y-68326000D01*
X32803000Y-55833695D02*
X32803000Y-62013000D01*
X36439695Y-52197000D02*
X32803000Y-55833695D01*
X36449000Y-52197000D02*
X36439695Y-52197000D01*
X61468000Y-52197000D02*
X65024000Y-55753000D01*
X36449000Y-52197000D02*
X61468000Y-52197000D01*
%TO.N,+3.3V*%
X47752000Y-57912000D02*
X43434000Y-53594000D01*
X65024000Y-57912000D02*
X47752000Y-57912000D01*
X40132000Y-56896000D02*
X34544000Y-56896000D01*
X43434000Y-53594000D02*
X40132000Y-56896000D01*
%TO.N,GND*%
X43651000Y-63791000D02*
X43651000Y-62267000D01*
X39116000Y-68326000D02*
X43651000Y-63791000D01*
X35315305Y-59944000D02*
X39116000Y-63744695D01*
X39116000Y-63744695D02*
X39116000Y-68326000D01*
X35306000Y-59944000D02*
X35315305Y-59944000D01*
%TO.N,+3.3V*%
X40894000Y-63246000D02*
X34544000Y-56896000D01*
X42926000Y-63246000D02*
X40894000Y-63246000D01*
%TO.N,+BATT*%
X36312695Y-61976000D02*
X36322000Y-61976000D01*
X33528000Y-59191305D02*
X36312695Y-61976000D01*
X33528000Y-56134000D02*
X33528000Y-59191305D01*
%TO.N,+3.3V*%
X66003000Y-58891000D02*
X65024000Y-57912000D01*
X66003000Y-62276305D02*
X66003000Y-58891000D01*
X65278000Y-62992000D02*
X65287305Y-62992000D01*
X65287305Y-62992000D02*
X66003000Y-62276305D01*
%TO.N,+BATT*%
X64553000Y-62691695D02*
X65268695Y-61976000D01*
X64553000Y-65324305D02*
X64553000Y-62691695D01*
X65268695Y-61976000D02*
X65278000Y-61976000D01*
X65268695Y-66040000D02*
X64553000Y-65324305D01*
X65278000Y-66040000D02*
X65268695Y-66040000D01*
%TO.N,+3.3V*%
X65278000Y-62992000D02*
X65278000Y-65024000D01*
%TD*%
%TA.AperFunction,Conductor*%
%TO.N,GND*%
G36*
X74487000Y-48784613D02*
G01*
X74532387Y-48830000D01*
X74549000Y-48892000D01*
X74549000Y-73409369D01*
X74532449Y-73471262D01*
X74487213Y-73516633D01*
X74425369Y-73533367D01*
X32001368Y-73659629D01*
X31939213Y-73643141D01*
X31893674Y-73597738D01*
X31877000Y-73535631D01*
X31877000Y-56134000D01*
X32622540Y-56134000D01*
X32623219Y-56140460D01*
X32641646Y-56315795D01*
X32641647Y-56315803D01*
X32642326Y-56322256D01*
X32644331Y-56328428D01*
X32644333Y-56328435D01*
X32698813Y-56496105D01*
X32700821Y-56502284D01*
X32795467Y-56666216D01*
X32799811Y-56671041D01*
X32799813Y-56671043D01*
X32870650Y-56749715D01*
X32894264Y-56788249D01*
X32902500Y-56832687D01*
X32902500Y-59113530D01*
X32901978Y-59124585D01*
X32900327Y-59131972D01*
X32900571Y-59139758D01*
X32900571Y-59139766D01*
X32902439Y-59199178D01*
X32902500Y-59203073D01*
X32902500Y-59230655D01*
X32902988Y-59234524D01*
X32902989Y-59234530D01*
X32903004Y-59234648D01*
X32903918Y-59246271D01*
X32905045Y-59282135D01*
X32905046Y-59282142D01*
X32905291Y-59289932D01*
X32907467Y-59297424D01*
X32907468Y-59297426D01*
X32910879Y-59309167D01*
X32914825Y-59328220D01*
X32917336Y-59348097D01*
X32920206Y-59355347D01*
X32920208Y-59355353D01*
X32933414Y-59388709D01*
X32937197Y-59399756D01*
X32949382Y-59441695D01*
X32953353Y-59448410D01*
X32953354Y-59448412D01*
X32959581Y-59458942D01*
X32968136Y-59476404D01*
X32972642Y-59487785D01*
X32972643Y-59487788D01*
X32975514Y-59495037D01*
X32997440Y-59525217D01*
X33001181Y-59530365D01*
X33007593Y-59540127D01*
X33025856Y-59571007D01*
X33025859Y-59571012D01*
X33029830Y-59577725D01*
X33035345Y-59583240D01*
X33043990Y-59591885D01*
X33056626Y-59606679D01*
X33063819Y-59616580D01*
X33063823Y-59616584D01*
X33068406Y-59622892D01*
X33074415Y-59627863D01*
X33074416Y-59627864D01*
X33102058Y-59650731D01*
X33110699Y-59658594D01*
X35384131Y-61932027D01*
X35408371Y-61966325D01*
X35419771Y-62006746D01*
X35436326Y-62164256D01*
X35438331Y-62170428D01*
X35438333Y-62170435D01*
X35481670Y-62303810D01*
X35494821Y-62344284D01*
X35498068Y-62349908D01*
X35498069Y-62349910D01*
X35564902Y-62465669D01*
X35589467Y-62508216D01*
X35593811Y-62513041D01*
X35593813Y-62513043D01*
X35710348Y-62642468D01*
X35716129Y-62648888D01*
X35869270Y-62760151D01*
X36042197Y-62837144D01*
X36227354Y-62876500D01*
X36410143Y-62876500D01*
X36416646Y-62876500D01*
X36601803Y-62837144D01*
X36774730Y-62760151D01*
X36927871Y-62648888D01*
X37054533Y-62508216D01*
X37149179Y-62344284D01*
X37207674Y-62164256D01*
X37227460Y-61976000D01*
X37207674Y-61787744D01*
X37149179Y-61607716D01*
X37054533Y-61443784D01*
X36927871Y-61303112D01*
X36922613Y-61299292D01*
X36922611Y-61299290D01*
X36779988Y-61195669D01*
X36779987Y-61195668D01*
X36774730Y-61191849D01*
X36768792Y-61189205D01*
X36607745Y-61117501D01*
X36607740Y-61117499D01*
X36601803Y-61114856D01*
X36595444Y-61113504D01*
X36595440Y-61113503D01*
X36423008Y-61076852D01*
X36423005Y-61076851D01*
X36416646Y-61075500D01*
X36410143Y-61075500D01*
X36348148Y-61075500D01*
X36300695Y-61066061D01*
X36260467Y-61039181D01*
X34189819Y-58968533D01*
X34162939Y-58928305D01*
X34153500Y-58880852D01*
X34153500Y-57886741D01*
X34165579Y-57833358D01*
X34199464Y-57790375D01*
X34248553Y-57766167D01*
X34303278Y-57765451D01*
X34449354Y-57796500D01*
X34508548Y-57796500D01*
X34556001Y-57805939D01*
X34596229Y-57832819D01*
X40396707Y-63633298D01*
X40404159Y-63641487D01*
X40408214Y-63647877D01*
X40453802Y-63690687D01*
X40457223Y-63693900D01*
X40460019Y-63696610D01*
X40479529Y-63716120D01*
X40482709Y-63718587D01*
X40491571Y-63726155D01*
X40505020Y-63738785D01*
X40517732Y-63750723D01*
X40517734Y-63750724D01*
X40523418Y-63756062D01*
X40530251Y-63759818D01*
X40530252Y-63759819D01*
X40540973Y-63765713D01*
X40557234Y-63776394D01*
X40573064Y-63788673D01*
X40613155Y-63806021D01*
X40623635Y-63811155D01*
X40661908Y-63832197D01*
X40681316Y-63837180D01*
X40699719Y-63843481D01*
X40710944Y-63848339D01*
X40710946Y-63848339D01*
X40718104Y-63851437D01*
X40761258Y-63858271D01*
X40772644Y-63860629D01*
X40814981Y-63871500D01*
X40835017Y-63871500D01*
X40854415Y-63873027D01*
X40866486Y-63874939D01*
X40866487Y-63874939D01*
X40874196Y-63876160D01*
X40912276Y-63872560D01*
X40917676Y-63872050D01*
X40929345Y-63871500D01*
X42222252Y-63871500D01*
X42272685Y-63882219D01*
X42310781Y-63909895D01*
X42310950Y-63909709D01*
X42312728Y-63911310D01*
X42314398Y-63912523D01*
X42320129Y-63918888D01*
X42473270Y-64030151D01*
X42646197Y-64107144D01*
X42831354Y-64146500D01*
X43014143Y-64146500D01*
X43020646Y-64146500D01*
X43205803Y-64107144D01*
X43378730Y-64030151D01*
X43531871Y-63918888D01*
X43658533Y-63778216D01*
X43753179Y-63614284D01*
X43811674Y-63434256D01*
X43831460Y-63246000D01*
X43811674Y-63057744D01*
X43753179Y-62877716D01*
X43658533Y-62713784D01*
X43603000Y-62652109D01*
X43536220Y-62577942D01*
X43536219Y-62577941D01*
X43531871Y-62573112D01*
X43526613Y-62569292D01*
X43526611Y-62569290D01*
X43383988Y-62465669D01*
X43383987Y-62465668D01*
X43378730Y-62461849D01*
X43372792Y-62459205D01*
X43211745Y-62387501D01*
X43211740Y-62387499D01*
X43205803Y-62384856D01*
X43199444Y-62383504D01*
X43199440Y-62383503D01*
X43027008Y-62346852D01*
X43027005Y-62346851D01*
X43020646Y-62345500D01*
X42831354Y-62345500D01*
X42824995Y-62346851D01*
X42824991Y-62346852D01*
X42652559Y-62383503D01*
X42652552Y-62383505D01*
X42646197Y-62384856D01*
X42640262Y-62387498D01*
X42640254Y-62387501D01*
X42479207Y-62459205D01*
X42479202Y-62459207D01*
X42473270Y-62461849D01*
X42468016Y-62465665D01*
X42468011Y-62465669D01*
X42325388Y-62569290D01*
X42325381Y-62569295D01*
X42320129Y-62573112D01*
X42315780Y-62577941D01*
X42315781Y-62577941D01*
X42314399Y-62579476D01*
X42312728Y-62580689D01*
X42310950Y-62582291D01*
X42310781Y-62582104D01*
X42272685Y-62609781D01*
X42222252Y-62620500D01*
X41204453Y-62620500D01*
X41157000Y-62611061D01*
X41116772Y-62584181D01*
X36265772Y-57733181D01*
X36235522Y-57683818D01*
X36230980Y-57626102D01*
X36253135Y-57572615D01*
X36297158Y-57535015D01*
X36353453Y-57521500D01*
X40054225Y-57521500D01*
X40065280Y-57522021D01*
X40072667Y-57523673D01*
X40139872Y-57521561D01*
X40143768Y-57521500D01*
X40167448Y-57521500D01*
X40171350Y-57521500D01*
X40175313Y-57520999D01*
X40186963Y-57520080D01*
X40230627Y-57518709D01*
X40249861Y-57513119D01*
X40268917Y-57509174D01*
X40288792Y-57506664D01*
X40329395Y-57490587D01*
X40340450Y-57486802D01*
X40382390Y-57474618D01*
X40399629Y-57464422D01*
X40417103Y-57455862D01*
X40428474Y-57451360D01*
X40428476Y-57451358D01*
X40435732Y-57448486D01*
X40471069Y-57422811D01*
X40480824Y-57416403D01*
X40518420Y-57394170D01*
X40532584Y-57380005D01*
X40547379Y-57367368D01*
X40563587Y-57355594D01*
X40591428Y-57321938D01*
X40599279Y-57313309D01*
X43346321Y-54566269D01*
X43401906Y-54534177D01*
X43466094Y-54534177D01*
X43521681Y-54566271D01*
X47254707Y-58299298D01*
X47262159Y-58307487D01*
X47266214Y-58313877D01*
X47315223Y-58359900D01*
X47318020Y-58362611D01*
X47337529Y-58382120D01*
X47340709Y-58384587D01*
X47349571Y-58392155D01*
X47363020Y-58404785D01*
X47375732Y-58416723D01*
X47375734Y-58416724D01*
X47381418Y-58422062D01*
X47388251Y-58425818D01*
X47388252Y-58425819D01*
X47398973Y-58431713D01*
X47415234Y-58442394D01*
X47431064Y-58454673D01*
X47471155Y-58472021D01*
X47481635Y-58477155D01*
X47519908Y-58498197D01*
X47539316Y-58503180D01*
X47557719Y-58509481D01*
X47568944Y-58514339D01*
X47568946Y-58514339D01*
X47576104Y-58517437D01*
X47619258Y-58524271D01*
X47630644Y-58526629D01*
X47672981Y-58537500D01*
X47693017Y-58537500D01*
X47712415Y-58539027D01*
X47724486Y-58540939D01*
X47724487Y-58540939D01*
X47732196Y-58542160D01*
X47770276Y-58538560D01*
X47775676Y-58538050D01*
X47787345Y-58537500D01*
X64320252Y-58537500D01*
X64370685Y-58548219D01*
X64408781Y-58575895D01*
X64408950Y-58575709D01*
X64410728Y-58577310D01*
X64412398Y-58578523D01*
X64418129Y-58584888D01*
X64571270Y-58696151D01*
X64744197Y-58773144D01*
X64929354Y-58812500D01*
X64988548Y-58812500D01*
X65036001Y-58821939D01*
X65076229Y-58848819D01*
X65341181Y-59113772D01*
X65368061Y-59154000D01*
X65377500Y-59201453D01*
X65377500Y-60951500D01*
X65360887Y-61013500D01*
X65315500Y-61058887D01*
X65253500Y-61075500D01*
X65183354Y-61075500D01*
X65176995Y-61076851D01*
X65176991Y-61076852D01*
X65004559Y-61113503D01*
X65004552Y-61113505D01*
X64998197Y-61114856D01*
X64992262Y-61117498D01*
X64992254Y-61117501D01*
X64831207Y-61189205D01*
X64831202Y-61189207D01*
X64825270Y-61191849D01*
X64820016Y-61195665D01*
X64820011Y-61195669D01*
X64677388Y-61299290D01*
X64677381Y-61299295D01*
X64672129Y-61303112D01*
X64667784Y-61307937D01*
X64667779Y-61307942D01*
X64549813Y-61438956D01*
X64549808Y-61438962D01*
X64545467Y-61443784D01*
X64542222Y-61449404D01*
X64542218Y-61449410D01*
X64454069Y-61602089D01*
X64454066Y-61602094D01*
X64450821Y-61607716D01*
X64448815Y-61613888D01*
X64448813Y-61613894D01*
X64394333Y-61781564D01*
X64394331Y-61781573D01*
X64392326Y-61787744D01*
X64391647Y-61794203D01*
X64391647Y-61794204D01*
X64375771Y-61945252D01*
X64364371Y-61985673D01*
X64340131Y-62019971D01*
X64165696Y-62194406D01*
X64157511Y-62201854D01*
X64151123Y-62205909D01*
X64145788Y-62211589D01*
X64145783Y-62211594D01*
X64105096Y-62254920D01*
X64102392Y-62257711D01*
X64085628Y-62274475D01*
X64085621Y-62274482D01*
X64082880Y-62277224D01*
X64080500Y-62280291D01*
X64080489Y-62280304D01*
X64080400Y-62280420D01*
X64072842Y-62289265D01*
X64048280Y-62315422D01*
X64048273Y-62315431D01*
X64042938Y-62321113D01*
X64039182Y-62327944D01*
X64039179Y-62327949D01*
X64033285Y-62338670D01*
X64022609Y-62354922D01*
X64015109Y-62364591D01*
X64015101Y-62364602D01*
X64010327Y-62370759D01*
X64007234Y-62377903D01*
X64007229Y-62377914D01*
X63992974Y-62410855D01*
X63987838Y-62421338D01*
X63970560Y-62452768D01*
X63966803Y-62459603D01*
X63964864Y-62467151D01*
X63964863Y-62467156D01*
X63961822Y-62479002D01*
X63955521Y-62497406D01*
X63950658Y-62508643D01*
X63950656Y-62508647D01*
X63947562Y-62515799D01*
X63946342Y-62523498D01*
X63946342Y-62523500D01*
X63940729Y-62558936D01*
X63938361Y-62570371D01*
X63929438Y-62605123D01*
X63929436Y-62605131D01*
X63927500Y-62612676D01*
X63927500Y-62620472D01*
X63927500Y-62632712D01*
X63925974Y-62652097D01*
X63922840Y-62671891D01*
X63923574Y-62679656D01*
X63923574Y-62679659D01*
X63926950Y-62715371D01*
X63927500Y-62727040D01*
X63927500Y-65246530D01*
X63926978Y-65257585D01*
X63925327Y-65264972D01*
X63925571Y-65272758D01*
X63925571Y-65272766D01*
X63927439Y-65332178D01*
X63927500Y-65336073D01*
X63927500Y-65363655D01*
X63927988Y-65367524D01*
X63927989Y-65367530D01*
X63928004Y-65367648D01*
X63928918Y-65379271D01*
X63930045Y-65415135D01*
X63930046Y-65415142D01*
X63930291Y-65422932D01*
X63932467Y-65430424D01*
X63932468Y-65430426D01*
X63935879Y-65442167D01*
X63939825Y-65461220D01*
X63942336Y-65481097D01*
X63945206Y-65488347D01*
X63945208Y-65488353D01*
X63958414Y-65521709D01*
X63962197Y-65532756D01*
X63974382Y-65574695D01*
X63978353Y-65581410D01*
X63978354Y-65581412D01*
X63984581Y-65591942D01*
X63993136Y-65609404D01*
X63997642Y-65620785D01*
X63997643Y-65620788D01*
X64000514Y-65628037D01*
X64022440Y-65658217D01*
X64026181Y-65663365D01*
X64032593Y-65673127D01*
X64050856Y-65704007D01*
X64050859Y-65704012D01*
X64054830Y-65710725D01*
X64060344Y-65716239D01*
X64060345Y-65716240D01*
X64068990Y-65724885D01*
X64081626Y-65739679D01*
X64088819Y-65749580D01*
X64088823Y-65749584D01*
X64093406Y-65755892D01*
X64099415Y-65760863D01*
X64099416Y-65760864D01*
X64127058Y-65783731D01*
X64135699Y-65791594D01*
X64340131Y-65996026D01*
X64364371Y-66030324D01*
X64375771Y-66070745D01*
X64392326Y-66228256D01*
X64394331Y-66234428D01*
X64394333Y-66234435D01*
X64448813Y-66402105D01*
X64450821Y-66408284D01*
X64545467Y-66572216D01*
X64672129Y-66712888D01*
X64825270Y-66824151D01*
X64998197Y-66901144D01*
X65183354Y-66940500D01*
X65366143Y-66940500D01*
X65372646Y-66940500D01*
X65557803Y-66901144D01*
X65730730Y-66824151D01*
X65883871Y-66712888D01*
X66010533Y-66572216D01*
X66105179Y-66408284D01*
X66163674Y-66228256D01*
X66183460Y-66040000D01*
X66163674Y-65851744D01*
X66105179Y-65671716D01*
X66060308Y-65593997D01*
X66043696Y-65531998D01*
X66060309Y-65469999D01*
X66105179Y-65392284D01*
X66163674Y-65212256D01*
X66183460Y-65024000D01*
X66163674Y-64835744D01*
X66105179Y-64655716D01*
X66010533Y-64491784D01*
X65935349Y-64408284D01*
X65911736Y-64369751D01*
X65903500Y-64325313D01*
X65903500Y-63690687D01*
X65911736Y-63646249D01*
X65935350Y-63607715D01*
X66010533Y-63524216D01*
X66105179Y-63360284D01*
X66163674Y-63180256D01*
X66180229Y-63022741D01*
X66191628Y-62982323D01*
X66215865Y-62948028D01*
X66390306Y-62773587D01*
X66398482Y-62766148D01*
X66404877Y-62762091D01*
X66450933Y-62713045D01*
X66453550Y-62710343D01*
X66473120Y-62690775D01*
X66475565Y-62687621D01*
X66483155Y-62678733D01*
X66513062Y-62646887D01*
X66522709Y-62629337D01*
X66533393Y-62613071D01*
X66545674Y-62597241D01*
X66563018Y-62557156D01*
X66568160Y-62546661D01*
X66589197Y-62508397D01*
X66594179Y-62488994D01*
X66600480Y-62470588D01*
X66608438Y-62452200D01*
X66615269Y-62409061D01*
X66617639Y-62397620D01*
X66620238Y-62387501D01*
X66628500Y-62355324D01*
X66628500Y-62335288D01*
X66630025Y-62315902D01*
X66633160Y-62296109D01*
X66629400Y-62256330D01*
X66629050Y-62252629D01*
X66628500Y-62240960D01*
X66628500Y-58968772D01*
X66629020Y-58957719D01*
X66630672Y-58950333D01*
X66628561Y-58883145D01*
X66628500Y-58879251D01*
X66628500Y-58855545D01*
X66628500Y-58851650D01*
X66627998Y-58847681D01*
X66627080Y-58836024D01*
X66625954Y-58800173D01*
X66625709Y-58792373D01*
X66620120Y-58773140D01*
X66616174Y-58754083D01*
X66614641Y-58741944D01*
X66613664Y-58734208D01*
X66597582Y-58693591D01*
X66593803Y-58682551D01*
X66583795Y-58648102D01*
X66583793Y-58648099D01*
X66581618Y-58640610D01*
X66571417Y-58623360D01*
X66562863Y-58605901D01*
X66555486Y-58587268D01*
X66529808Y-58551925D01*
X66523401Y-58542171D01*
X66523394Y-58542160D01*
X66514214Y-58526636D01*
X66505142Y-58511296D01*
X66505141Y-58511294D01*
X66501170Y-58504580D01*
X66487005Y-58490415D01*
X66474370Y-58475622D01*
X66462594Y-58459413D01*
X66456583Y-58454440D01*
X66456581Y-58454438D01*
X66428941Y-58431573D01*
X66420300Y-58423710D01*
X65962961Y-57966370D01*
X65938721Y-57932072D01*
X65927321Y-57891650D01*
X65910353Y-57730204D01*
X65910352Y-57730203D01*
X65909674Y-57723744D01*
X65851179Y-57543716D01*
X65756533Y-57379784D01*
X65738881Y-57360180D01*
X65634220Y-57243942D01*
X65634219Y-57243941D01*
X65629871Y-57239112D01*
X65624613Y-57235292D01*
X65624611Y-57235290D01*
X65481988Y-57131669D01*
X65481987Y-57131668D01*
X65476730Y-57127849D01*
X65470792Y-57125205D01*
X65309745Y-57053501D01*
X65309740Y-57053499D01*
X65303803Y-57050856D01*
X65297444Y-57049504D01*
X65297440Y-57049503D01*
X65125008Y-57012852D01*
X65125005Y-57012851D01*
X65118646Y-57011500D01*
X64929354Y-57011500D01*
X64922995Y-57012851D01*
X64922991Y-57012852D01*
X64750559Y-57049503D01*
X64750552Y-57049505D01*
X64744197Y-57050856D01*
X64738262Y-57053498D01*
X64738254Y-57053501D01*
X64577207Y-57125205D01*
X64577202Y-57125207D01*
X64571270Y-57127849D01*
X64566016Y-57131665D01*
X64566011Y-57131669D01*
X64423388Y-57235290D01*
X64423381Y-57235295D01*
X64418129Y-57239112D01*
X64413780Y-57243941D01*
X64413781Y-57243941D01*
X64412399Y-57245476D01*
X64410728Y-57246689D01*
X64408950Y-57248291D01*
X64408781Y-57248104D01*
X64370685Y-57275781D01*
X64320252Y-57286500D01*
X48062453Y-57286500D01*
X48015000Y-57277061D01*
X47974772Y-57250181D01*
X44372961Y-53648370D01*
X44348721Y-53614072D01*
X44337321Y-53573650D01*
X44320353Y-53412204D01*
X44320352Y-53412203D01*
X44319674Y-53405744D01*
X44261179Y-53225716D01*
X44170945Y-53069425D01*
X65971500Y-53069425D01*
X65971779Y-53072354D01*
X65971780Y-53072360D01*
X65985886Y-53220089D01*
X65986472Y-53226218D01*
X65988137Y-53231888D01*
X66041082Y-53412204D01*
X66045684Y-53427875D01*
X66141989Y-53614682D01*
X66145642Y-53619327D01*
X66248340Y-53749918D01*
X66271908Y-53779886D01*
X66430744Y-53917519D01*
X66612756Y-54022604D01*
X66811367Y-54091344D01*
X67019398Y-54121254D01*
X67229330Y-54111254D01*
X67433576Y-54061704D01*
X67624753Y-53974396D01*
X67795952Y-53852486D01*
X67893751Y-53749916D01*
X67940697Y-53719106D01*
X67996422Y-53712163D01*
X68049495Y-53730512D01*
X68089031Y-53770389D01*
X68129288Y-53835656D01*
X68253344Y-53959712D01*
X68259485Y-53963500D01*
X68259488Y-53963502D01*
X68281129Y-53976850D01*
X68402666Y-54051814D01*
X68569203Y-54106999D01*
X68671991Y-54117500D01*
X69472008Y-54117499D01*
X69574797Y-54106999D01*
X69741334Y-54051814D01*
X69890656Y-53959712D01*
X70014712Y-53835656D01*
X70106814Y-53686334D01*
X70161999Y-53519797D01*
X70172500Y-53417009D01*
X70172499Y-52066992D01*
X70161999Y-51964203D01*
X70106814Y-51797666D01*
X70014712Y-51648344D01*
X69890656Y-51524288D01*
X69884515Y-51520500D01*
X69884511Y-51520497D01*
X69747480Y-51435977D01*
X69741334Y-51432186D01*
X69707287Y-51420904D01*
X69581225Y-51379131D01*
X69581224Y-51379130D01*
X69574797Y-51377001D01*
X69568064Y-51376313D01*
X69568059Y-51376312D01*
X69475140Y-51366819D01*
X69475123Y-51366818D01*
X69472009Y-51366500D01*
X69468860Y-51366500D01*
X68675141Y-51366500D01*
X68675121Y-51366500D01*
X68671992Y-51366501D01*
X68668860Y-51366820D01*
X68668858Y-51366821D01*
X68575938Y-51376312D01*
X68575928Y-51376313D01*
X68569203Y-51377001D01*
X68562781Y-51379128D01*
X68562776Y-51379130D01*
X68409521Y-51429914D01*
X68409517Y-51429915D01*
X68402666Y-51432186D01*
X68396522Y-51435975D01*
X68396519Y-51435977D01*
X68259488Y-51520497D01*
X68259480Y-51520503D01*
X68253344Y-51524288D01*
X68248242Y-51529389D01*
X68248238Y-51529393D01*
X68134393Y-51643238D01*
X68134389Y-51643242D01*
X68129288Y-51648344D01*
X68125502Y-51654481D01*
X68125498Y-51654487D01*
X68090184Y-51711741D01*
X68048130Y-51753159D01*
X67991692Y-51770443D01*
X67933657Y-51759674D01*
X67887175Y-51723294D01*
X67872092Y-51704114D01*
X67713256Y-51566481D01*
X67531244Y-51461396D01*
X67525660Y-51459463D01*
X67525655Y-51459461D01*
X67338214Y-51394587D01*
X67338208Y-51394585D01*
X67332633Y-51392656D01*
X67326794Y-51391816D01*
X67326788Y-51391815D01*
X67130441Y-51363585D01*
X67130435Y-51363584D01*
X67124602Y-51362746D01*
X67118716Y-51363026D01*
X67118710Y-51363026D01*
X66920567Y-51372465D01*
X66920565Y-51372465D01*
X66914670Y-51372746D01*
X66908942Y-51374135D01*
X66908932Y-51374137D01*
X66716160Y-51420904D01*
X66716155Y-51420905D01*
X66710424Y-51422296D01*
X66705054Y-51424747D01*
X66705052Y-51424749D01*
X66524621Y-51507149D01*
X66524614Y-51507152D01*
X66519247Y-51509604D01*
X66514437Y-51513028D01*
X66514432Y-51513032D01*
X66352865Y-51628083D01*
X66352859Y-51628087D01*
X66348048Y-51631514D01*
X66343974Y-51635786D01*
X66343969Y-51635791D01*
X66207088Y-51779348D01*
X66207082Y-51779355D01*
X66203014Y-51783622D01*
X66199822Y-51788588D01*
X66199821Y-51788590D01*
X66092582Y-51955455D01*
X66092578Y-51955462D01*
X66089387Y-51960428D01*
X66087195Y-51965903D01*
X66087190Y-51965913D01*
X66013469Y-52150060D01*
X66013466Y-52150069D01*
X66011275Y-52155543D01*
X66010158Y-52161334D01*
X66010156Y-52161344D01*
X65972617Y-52356117D01*
X65971500Y-52361915D01*
X65971500Y-53069425D01*
X44170945Y-53069425D01*
X44166533Y-53061784D01*
X44039871Y-52921112D01*
X44034613Y-52917292D01*
X44034611Y-52917290D01*
X43891988Y-52813669D01*
X43891987Y-52813668D01*
X43886730Y-52809849D01*
X43880792Y-52807205D01*
X43719745Y-52735501D01*
X43719740Y-52735499D01*
X43713803Y-52732856D01*
X43707444Y-52731504D01*
X43707440Y-52731503D01*
X43535008Y-52694852D01*
X43535005Y-52694851D01*
X43528646Y-52693500D01*
X43339354Y-52693500D01*
X43332995Y-52694851D01*
X43332991Y-52694852D01*
X43160559Y-52731503D01*
X43160552Y-52731505D01*
X43154197Y-52732856D01*
X43148262Y-52735498D01*
X43148254Y-52735501D01*
X42987207Y-52807205D01*
X42987202Y-52807207D01*
X42981270Y-52809849D01*
X42976016Y-52813665D01*
X42976011Y-52813669D01*
X42833388Y-52917290D01*
X42833381Y-52917295D01*
X42828129Y-52921112D01*
X42823784Y-52925937D01*
X42823779Y-52925942D01*
X42705813Y-53056956D01*
X42705808Y-53056962D01*
X42701467Y-53061784D01*
X42698222Y-53067404D01*
X42698218Y-53067410D01*
X42610069Y-53220089D01*
X42610066Y-53220094D01*
X42606821Y-53225716D01*
X42604815Y-53231888D01*
X42604813Y-53231894D01*
X42550333Y-53399564D01*
X42550331Y-53399573D01*
X42548326Y-53405744D01*
X42547647Y-53412203D01*
X42547647Y-53412204D01*
X42530678Y-53573650D01*
X42519278Y-53614072D01*
X42495038Y-53648369D01*
X39909228Y-56234181D01*
X39869000Y-56261061D01*
X39821547Y-56270500D01*
X35247748Y-56270500D01*
X35197315Y-56259781D01*
X35159218Y-56232104D01*
X35159050Y-56232291D01*
X35157271Y-56230689D01*
X35155601Y-56229476D01*
X35149871Y-56223112D01*
X35144613Y-56219292D01*
X35144611Y-56219290D01*
X35001988Y-56115669D01*
X35001987Y-56115668D01*
X34996730Y-56111849D01*
X34990792Y-56109205D01*
X34829745Y-56037501D01*
X34829740Y-56037499D01*
X34823803Y-56034856D01*
X34817444Y-56033504D01*
X34817440Y-56033503D01*
X34645008Y-55996852D01*
X34645005Y-55996851D01*
X34638646Y-55995500D01*
X34519932Y-55995500D01*
X34469497Y-55984780D01*
X34427782Y-55954472D01*
X34402001Y-55909818D01*
X34357186Y-55771894D01*
X34355179Y-55765716D01*
X34260533Y-55601784D01*
X34133871Y-55461112D01*
X34128613Y-55457292D01*
X34128611Y-55457290D01*
X33985988Y-55353669D01*
X33985987Y-55353668D01*
X33980730Y-55349849D01*
X33974792Y-55347205D01*
X33813745Y-55275501D01*
X33813740Y-55275499D01*
X33807803Y-55272856D01*
X33801444Y-55271504D01*
X33801440Y-55271503D01*
X33629008Y-55234852D01*
X33629005Y-55234851D01*
X33622646Y-55233500D01*
X33433354Y-55233500D01*
X33426995Y-55234851D01*
X33426991Y-55234852D01*
X33254559Y-55271503D01*
X33254552Y-55271505D01*
X33248197Y-55272856D01*
X33242262Y-55275498D01*
X33242254Y-55275501D01*
X33081207Y-55347205D01*
X33081202Y-55347207D01*
X33075270Y-55349849D01*
X33070016Y-55353665D01*
X33070011Y-55353669D01*
X32927388Y-55457290D01*
X32927381Y-55457295D01*
X32922129Y-55461112D01*
X32917784Y-55465937D01*
X32917779Y-55465942D01*
X32799813Y-55596956D01*
X32799808Y-55596962D01*
X32795467Y-55601784D01*
X32792222Y-55607404D01*
X32792218Y-55607410D01*
X32704069Y-55760089D01*
X32704066Y-55760094D01*
X32700821Y-55765716D01*
X32698815Y-55771888D01*
X32698813Y-55771894D01*
X32644333Y-55939564D01*
X32644331Y-55939573D01*
X32642326Y-55945744D01*
X32641648Y-55952194D01*
X32641646Y-55952204D01*
X32636954Y-55996852D01*
X32622540Y-56134000D01*
X31877000Y-56134000D01*
X31877000Y-50123056D01*
X38018500Y-50123056D01*
X38020293Y-50130332D01*
X38020294Y-50130337D01*
X38057415Y-50280944D01*
X38059210Y-50288225D01*
X38062693Y-50294862D01*
X38062695Y-50294866D01*
X38125129Y-50413823D01*
X38138266Y-50438852D01*
X38251071Y-50566183D01*
X38391070Y-50662818D01*
X38550128Y-50723140D01*
X38676628Y-50738500D01*
X38757623Y-50738500D01*
X38761372Y-50738500D01*
X38887872Y-50723140D01*
X39046930Y-50662818D01*
X39186929Y-50566183D01*
X39299734Y-50438852D01*
X39378790Y-50288225D01*
X39419500Y-50123056D01*
X41018500Y-50123056D01*
X41020293Y-50130332D01*
X41020294Y-50130337D01*
X41057415Y-50280944D01*
X41059210Y-50288225D01*
X41062693Y-50294862D01*
X41062695Y-50294866D01*
X41125129Y-50413823D01*
X41138266Y-50438852D01*
X41251071Y-50566183D01*
X41391070Y-50662818D01*
X41550128Y-50723140D01*
X41676628Y-50738500D01*
X41757623Y-50738500D01*
X41761372Y-50738500D01*
X41887872Y-50723140D01*
X42046930Y-50662818D01*
X42186929Y-50566183D01*
X42299734Y-50438852D01*
X42378790Y-50288225D01*
X42419500Y-50123056D01*
X42419500Y-49952944D01*
X42378790Y-49787775D01*
X42299734Y-49637148D01*
X42186929Y-49509817D01*
X42180760Y-49505558D01*
X42180758Y-49505557D01*
X42053106Y-49417445D01*
X42053105Y-49417444D01*
X42046930Y-49413182D01*
X42039915Y-49410521D01*
X42039912Y-49410520D01*
X41894888Y-49355520D01*
X41894882Y-49355518D01*
X41887872Y-49352860D01*
X41880427Y-49351956D01*
X41880423Y-49351955D01*
X41765092Y-49337951D01*
X41765080Y-49337950D01*
X41761372Y-49337500D01*
X41676628Y-49337500D01*
X41672920Y-49337950D01*
X41672907Y-49337951D01*
X41557576Y-49351955D01*
X41557570Y-49351956D01*
X41550128Y-49352860D01*
X41543119Y-49355517D01*
X41543111Y-49355520D01*
X41398087Y-49410520D01*
X41398081Y-49410523D01*
X41391070Y-49413182D01*
X41384897Y-49417442D01*
X41384893Y-49417445D01*
X41257241Y-49505557D01*
X41257235Y-49505562D01*
X41251071Y-49509817D01*
X41246099Y-49515428D01*
X41246098Y-49515430D01*
X41143241Y-49631531D01*
X41143236Y-49631537D01*
X41138266Y-49637148D01*
X41134780Y-49643788D01*
X41134779Y-49643791D01*
X41062695Y-49781133D01*
X41062692Y-49781140D01*
X41059210Y-49787775D01*
X41057416Y-49795050D01*
X41057415Y-49795055D01*
X41020294Y-49945662D01*
X41020293Y-49945668D01*
X41018500Y-49952944D01*
X41018500Y-50123056D01*
X39419500Y-50123056D01*
X39419500Y-49952944D01*
X39378790Y-49787775D01*
X39299734Y-49637148D01*
X39186929Y-49509817D01*
X39180760Y-49505558D01*
X39180758Y-49505557D01*
X39053106Y-49417445D01*
X39053105Y-49417444D01*
X39046930Y-49413182D01*
X39039915Y-49410521D01*
X39039912Y-49410520D01*
X38894888Y-49355520D01*
X38894882Y-49355518D01*
X38887872Y-49352860D01*
X38880427Y-49351956D01*
X38880423Y-49351955D01*
X38765092Y-49337951D01*
X38765080Y-49337950D01*
X38761372Y-49337500D01*
X38676628Y-49337500D01*
X38672920Y-49337950D01*
X38672907Y-49337951D01*
X38557576Y-49351955D01*
X38557570Y-49351956D01*
X38550128Y-49352860D01*
X38543119Y-49355517D01*
X38543111Y-49355520D01*
X38398087Y-49410520D01*
X38398081Y-49410523D01*
X38391070Y-49413182D01*
X38384897Y-49417442D01*
X38384893Y-49417445D01*
X38257241Y-49505557D01*
X38257235Y-49505562D01*
X38251071Y-49509817D01*
X38246099Y-49515428D01*
X38246098Y-49515430D01*
X38143241Y-49631531D01*
X38143236Y-49631537D01*
X38138266Y-49637148D01*
X38134780Y-49643788D01*
X38134779Y-49643791D01*
X38062695Y-49781133D01*
X38062692Y-49781140D01*
X38059210Y-49787775D01*
X38057416Y-49795050D01*
X38057415Y-49795055D01*
X38020294Y-49945662D01*
X38020293Y-49945668D01*
X38018500Y-49952944D01*
X38018500Y-50123056D01*
X31877000Y-50123056D01*
X31877000Y-48892000D01*
X31893613Y-48830000D01*
X31939000Y-48784613D01*
X32001000Y-48768000D01*
X74425000Y-48768000D01*
X74487000Y-48784613D01*
G37*
%TD.AperFunction*%
%TD*%
M02*
