%TF.GenerationSoftware,KiCad,Pcbnew,(7.0.0)*%
%TF.CreationDate,2023-02-21T16:48:07-06:00*%
%TF.ProjectId,stick-and-slip_v1,73746963-6b2d-4616-9e64-2d736c69705f,rev?*%
%TF.SameCoordinates,Original*%
%TF.FileFunction,Copper,L1,Top*%
%TF.FilePolarity,Positive*%
%FSLAX46Y46*%
G04 Gerber Fmt 4.6, Leading zero omitted, Abs format (unit mm)*
G04 Created by KiCad (PCBNEW (7.0.0)) date 2023-02-21 16:48:07*
%MOMM*%
%LPD*%
G01*
G04 APERTURE LIST*
G04 Aperture macros list*
%AMRoundRect*
0 Rectangle with rounded corners*
0 $1 Rounding radius*
0 $2 $3 $4 $5 $6 $7 $8 $9 X,Y pos of 4 corners*
0 Add a 4 corners polygon primitive as box body*
4,1,4,$2,$3,$4,$5,$6,$7,$8,$9,$2,$3,0*
0 Add four circle primitives for the rounded corners*
1,1,$1+$1,$2,$3*
1,1,$1+$1,$4,$5*
1,1,$1+$1,$6,$7*
1,1,$1+$1,$8,$9*
0 Add four rect primitives between the rounded corners*
20,1,$1+$1,$2,$3,$4,$5,0*
20,1,$1+$1,$4,$5,$6,$7,0*
20,1,$1+$1,$6,$7,$8,$9,0*
20,1,$1+$1,$8,$9,$2,$3,0*%
G04 Aperture macros list end*
%TA.AperFunction,SMDPad,CuDef*%
%ADD10R,1.000000X1.000000*%
%TD*%
%TA.AperFunction,SMDPad,CuDef*%
%ADD11RoundRect,1.000000X-0.375000X0.000000X0.375000X0.000000X0.375000X0.000000X-0.375000X0.000000X0*%
%TD*%
%TA.AperFunction,SMDPad,CuDef*%
%ADD12C,1.500000*%
%TD*%
%TA.AperFunction,SMDPad,CuDef*%
%ADD13R,0.700000X1.500000*%
%TD*%
%TA.AperFunction,SMDPad,CuDef*%
%ADD14RoundRect,0.218750X0.218750X0.256250X-0.218750X0.256250X-0.218750X-0.256250X0.218750X-0.256250X0*%
%TD*%
%TA.AperFunction,SMDPad,CuDef*%
%ADD15R,0.500000X0.250000*%
%TD*%
%TA.AperFunction,SMDPad,CuDef*%
%ADD16R,0.900000X1.600000*%
%TD*%
%TA.AperFunction,SMDPad,CuDef*%
%ADD17RoundRect,0.200000X-0.200000X-0.275000X0.200000X-0.275000X0.200000X0.275000X-0.200000X0.275000X0*%
%TD*%
%TA.AperFunction,SMDPad,CuDef*%
%ADD18RoundRect,0.200000X0.200000X0.275000X-0.200000X0.275000X-0.200000X-0.275000X0.200000X-0.275000X0*%
%TD*%
%TA.AperFunction,ComponentPad*%
%ADD19O,1.200000X1.750000*%
%TD*%
%TA.AperFunction,ComponentPad*%
%ADD20RoundRect,0.250000X0.350000X0.625000X-0.350000X0.625000X-0.350000X-0.625000X0.350000X-0.625000X0*%
%TD*%
%TA.AperFunction,SMDPad,CuDef*%
%ADD21RoundRect,0.218750X-0.218750X-0.256250X0.218750X-0.256250X0.218750X0.256250X-0.218750X0.256250X0*%
%TD*%
%TA.AperFunction,SMDPad,CuDef*%
%ADD22RoundRect,0.225000X0.250000X-0.225000X0.250000X0.225000X-0.250000X0.225000X-0.250000X-0.225000X0*%
%TD*%
%TA.AperFunction,SMDPad,CuDef*%
%ADD23RoundRect,0.225000X-0.225000X-0.250000X0.225000X-0.250000X0.225000X0.250000X-0.225000X0.250000X0*%
%TD*%
%TA.AperFunction,ViaPad*%
%ADD24C,0.800000*%
%TD*%
%TA.AperFunction,Conductor*%
%ADD25C,0.250000*%
%TD*%
G04 APERTURE END LIST*
D10*
%TO.P,J4,1,Pin_1*%
%TO.N,-BATT*%
X49529999Y-56514999D03*
%TD*%
%TO.P,J3,1,Pin_1*%
%TO.N,+BATT*%
X49529999Y-58673999D03*
%TD*%
D11*
%TO.P,U1,7,PB08_A6_D6_TX*%
%TO.N,unconnected-(U1-PB08_A6_D6_TX-Pad7)*%
X46321000Y-66913250D03*
%TO.P,U1,6,PA9_A5_D5_SCL*%
%TO.N,/motor-driver-2b*%
X46321000Y-64373250D03*
%TO.P,U1,5,PA8_A4_D4_SDA*%
%TO.N,/motor-driver-2a*%
X46321000Y-61833250D03*
%TO.P,U1,4,PA11_A3_D3*%
%TO.N,/motor-driver-3b*%
X46321000Y-59293250D03*
%TO.P,U1,3,PA10_A2_D2*%
%TO.N,/motor-driver-3a*%
X46321000Y-56753250D03*
%TO.P,U1,2,PA4_A1_D1*%
%TO.N,unconnected-(U1-PA4_A1_D1-Pad2)*%
X46321000Y-54213250D03*
%TO.P,U1,1,PA02_A0_D0*%
%TO.N,unconnected-(U1-PA02_A0_D0-Pad1)*%
X46321000Y-51673250D03*
%TO.P,U1,8,PB09_A7_D7_RX*%
%TO.N,unconnected-(U1-PB09_A7_D7_RX-Pad8)*%
X62486000Y-66913250D03*
%TO.P,U1,9,PA7_A8_D8_SCK*%
%TO.N,/motor-driver-1b*%
X62486000Y-64373250D03*
%TO.P,U1,10,PA5_A9_D9_MISO*%
%TO.N,/motor-driver-1a*%
X62486000Y-61833250D03*
%TO.P,U1,11,PA6_A10_D10_MOSI*%
%TO.N,/BLE-indicator-pin*%
X62486000Y-59293250D03*
%TO.P,U1,12,3V3*%
%TO.N,+3.3V*%
X62486000Y-56753250D03*
%TO.P,U1,13,GND*%
%TO.N,GND*%
X62486000Y-54213250D03*
%TO.P,U1,14,5V*%
%TO.N,unconnected-(U1-5V-Pad14)*%
X62486000Y-51673250D03*
%TD*%
D12*
%TO.P,J1,1,Pin_1*%
%TO.N,/motor-1-green-indicator-led*%
X67570000Y-72136000D03*
%TD*%
D13*
%TO.P,S1,3,3*%
%TO.N,unconnected-(S1-Pad3)*%
X37968999Y-51787999D03*
%TO.P,S1,2,2*%
%TO.N,+BATT*%
X39468999Y-51787999D03*
%TO.P,S1,1,1*%
%TO.N,Net-(J9-Pin_1)*%
X42468999Y-51787999D03*
%TD*%
D14*
%TO.P,D8,1,K*%
%TO.N,GND*%
X41961000Y-58674000D03*
%TO.P,D8,2,A*%
%TO.N,Net-(D8-A)*%
X40386000Y-58674000D03*
%TD*%
D15*
%TO.P,U4,1,VM*%
%TO.N,+BATT*%
X40197999Y-53859999D03*
%TO.P,U4,2,OUT1*%
%TO.N,/motor-3-green-indicator-led*%
X40197999Y-54359999D03*
%TO.P,U4,3,OUT2*%
%TO.N,/motor-3-red-indicator-led*%
X40197999Y-54859999D03*
%TO.P,U4,4,GND*%
%TO.N,GND*%
X40197999Y-55359999D03*
%TO.P,U4,5,IN2*%
%TO.N,/motor-driver-3b*%
X42097999Y-55359999D03*
%TO.P,U4,6,IN1*%
%TO.N,/motor-driver-3a*%
X42097999Y-54859999D03*
%TO.P,U4,7,~{SLEEP}*%
%TO.N,+3.3V*%
X42097999Y-54359999D03*
%TO.P,U4,8,VCC*%
X42097999Y-53859999D03*
D16*
%TO.P,U4,9,GND*%
%TO.N,GND*%
X41147999Y-54609999D03*
%TD*%
D15*
%TO.P,U3,1,VM*%
%TO.N,+BATT*%
X38419999Y-63003999D03*
%TO.P,U3,2,OUT1*%
%TO.N,/motor-2-green-indicator-led*%
X38419999Y-63503999D03*
%TO.P,U3,3,OUT2*%
%TO.N,/motor-2-red-indicator-led*%
X38419999Y-64003999D03*
%TO.P,U3,4,GND*%
%TO.N,GND*%
X38419999Y-64503999D03*
%TO.P,U3,5,IN2*%
%TO.N,/motor-driver-2b*%
X40319999Y-64503999D03*
%TO.P,U3,6,IN1*%
%TO.N,/motor-driver-2a*%
X40319999Y-64003999D03*
%TO.P,U3,7,~{SLEEP}*%
%TO.N,+3.3V*%
X40319999Y-63503999D03*
%TO.P,U3,8,VCC*%
X40319999Y-63003999D03*
D16*
%TO.P,U3,9,GND*%
%TO.N,GND*%
X39369999Y-63753999D03*
%TD*%
D15*
%TO.P,U2,1,VM*%
%TO.N,+BATT*%
X70291999Y-65265999D03*
%TO.P,U2,2,OUT1*%
%TO.N,/motor-1-green-indicator-led*%
X70291999Y-64765999D03*
%TO.P,U2,3,OUT2*%
%TO.N,/motor-1-red-indicator-led*%
X70291999Y-64265999D03*
%TO.P,U2,4,GND*%
%TO.N,GND*%
X70291999Y-63765999D03*
%TO.P,U2,5,IN2*%
%TO.N,/motor-driver-1a*%
X68391999Y-63765999D03*
%TO.P,U2,6,IN1*%
%TO.N,/motor-driver-1b*%
X68391999Y-64265999D03*
%TO.P,U2,7,~{SLEEP}*%
%TO.N,+3.3V*%
X68391999Y-64765999D03*
%TO.P,U2,8,VCC*%
X68391999Y-65265999D03*
D16*
%TO.P,U2,9,GND*%
%TO.N,GND*%
X69341999Y-64515999D03*
%TD*%
D17*
%TO.P,R8,1*%
%TO.N,Net-(D8-A)*%
X40311000Y-56896000D03*
%TO.P,R8,2*%
%TO.N,/motor-3-red-indicator-led*%
X41961000Y-56896000D03*
%TD*%
D18*
%TO.P,R7,1*%
%TO.N,Net-(D7-A)*%
X37897000Y-56896000D03*
%TO.P,R7,2*%
%TO.N,/motor-3-green-indicator-led*%
X36247000Y-56896000D03*
%TD*%
D17*
%TO.P,R6,2*%
%TO.N,/motor-2-red-indicator-led*%
X42290000Y-66548000D03*
%TO.P,R6,1*%
%TO.N,Net-(D6-A)*%
X40640000Y-66548000D03*
%TD*%
D18*
%TO.P,R5,1*%
%TO.N,Net-(D5-A)*%
X37718000Y-66548000D03*
%TO.P,R5,2*%
%TO.N,/motor-2-green-indicator-led*%
X36068000Y-66548000D03*
%TD*%
D17*
%TO.P,R4,2*%
%TO.N,/motor-1-red-indicator-led*%
X71882000Y-67310000D03*
%TO.P,R4,1*%
%TO.N,Net-(D4-A)*%
X70232000Y-67310000D03*
%TD*%
D18*
%TO.P,R3,1*%
%TO.N,Net-(D3-A)*%
X68072000Y-67310000D03*
%TO.P,R3,2*%
%TO.N,/motor-1-green-indicator-led*%
X66422000Y-67310000D03*
%TD*%
%TO.P,R2,2*%
%TO.N,/BLE-indicator-pin*%
X66727000Y-58928000D03*
%TO.P,R2,1*%
%TO.N,Net-(D2-A)*%
X68377000Y-58928000D03*
%TD*%
%TO.P,R1,1*%
%TO.N,Net-(D1-A)*%
X68377000Y-56642000D03*
%TO.P,R1,2*%
%TO.N,+3.3V*%
X66727000Y-56642000D03*
%TD*%
D19*
%TO.P,J9,2,Pin_2*%
%TO.N,-BATT*%
X67071999Y-52741999D03*
D20*
%TO.P,J9,1,Pin_1*%
%TO.N,Net-(J9-Pin_1)*%
X69072000Y-52742000D03*
%TD*%
D12*
%TO.P,J8,1,Pin_1*%
%TO.N,/motor-3-red-indicator-led*%
X41402000Y-72136000D03*
%TD*%
%TO.P,J7,1,Pin_1*%
%TO.N,/motor-3-green-indicator-led*%
X37852000Y-72136000D03*
%TD*%
%TO.P,J6,1,Pin_1*%
%TO.N,/motor-2-red-indicator-led*%
X56642000Y-72136000D03*
%TD*%
%TO.P,J5,1,Pin_1*%
%TO.N,/motor-2-green-indicator-led*%
X53092000Y-72136000D03*
%TD*%
%TO.P,J2,1,Pin_1*%
%TO.N,/motor-1-red-indicator-led*%
X71120000Y-72136000D03*
%TD*%
D21*
%TO.P,D7,2,A*%
%TO.N,Net-(D7-A)*%
X37897000Y-58674000D03*
%TO.P,D7,1,K*%
%TO.N,GND*%
X36322000Y-58674000D03*
%TD*%
D14*
%TO.P,D6,1,K*%
%TO.N,GND*%
X42341000Y-68326000D03*
%TO.P,D6,2,A*%
%TO.N,Net-(D6-A)*%
X40766000Y-68326000D03*
%TD*%
D21*
%TO.P,D5,1,K*%
%TO.N,GND*%
X36143000Y-68326000D03*
%TO.P,D5,2,A*%
%TO.N,Net-(D5-A)*%
X37718000Y-68326000D03*
%TD*%
D14*
%TO.P,D4,1,K*%
%TO.N,GND*%
X71831000Y-69088000D03*
%TO.P,D4,2,A*%
%TO.N,Net-(D4-A)*%
X70256000Y-69088000D03*
%TD*%
D21*
%TO.P,D3,2,A*%
%TO.N,Net-(D3-A)*%
X68072000Y-69088000D03*
%TO.P,D3,1,K*%
%TO.N,GND*%
X66497000Y-69088000D03*
%TD*%
D14*
%TO.P,D2,1,K*%
%TO.N,GND*%
X72136000Y-58928000D03*
%TO.P,D2,2,A*%
%TO.N,Net-(D2-A)*%
X70561000Y-58928000D03*
%TD*%
%TO.P,D1,2,A*%
%TO.N,Net-(D1-A)*%
X70561000Y-56642000D03*
%TO.P,D1,1,K*%
%TO.N,GND*%
X72136000Y-56642000D03*
%TD*%
D22*
%TO.P,C6,1*%
%TO.N,+BATT*%
X35052000Y-55144000D03*
%TO.P,C6,2*%
%TO.N,GND*%
X35052000Y-53594000D03*
%TD*%
%TO.P,C5,1*%
%TO.N,+3.3V*%
X37084000Y-55131000D03*
%TO.P,C5,2*%
%TO.N,GND*%
X37084000Y-53581000D03*
%TD*%
D23*
%TO.P,C4,2*%
%TO.N,GND*%
X39116000Y-60706000D03*
%TO.P,C4,1*%
%TO.N,+BATT*%
X37566000Y-60706000D03*
%TD*%
%TO.P,C3,2*%
%TO.N,GND*%
X42926000Y-60706000D03*
%TO.P,C3,1*%
%TO.N,+3.3V*%
X41376000Y-60706000D03*
%TD*%
%TO.P,C2,2*%
%TO.N,GND*%
X68326000Y-61976000D03*
%TO.P,C2,1*%
%TO.N,+BATT*%
X66776000Y-61976000D03*
%TD*%
%TO.P,C1,2*%
%TO.N,GND*%
X72136000Y-61976000D03*
%TO.P,C1,1*%
%TO.N,+3.3V*%
X70586000Y-61976000D03*
%TD*%
D24*
%TO.N,GND*%
X36449000Y-52197000D03*
X65024000Y-55753000D03*
%TO.N,+3.3V*%
X43434000Y-53594000D03*
X42926000Y-63246000D03*
%TO.N,+BATT*%
X33528000Y-56134000D03*
X36322000Y-61976000D03*
%TO.N,+3.3V*%
X65024000Y-57912000D03*
%TO.N,+BATT*%
X65278000Y-61976000D03*
%TO.N,+3.3V*%
X65278000Y-62992000D03*
X65278000Y-65024000D03*
%TO.N,+BATT*%
X65278000Y-66040000D03*
%TO.N,+3.3V*%
X34544000Y-56896000D03*
%TO.N,GND*%
X35306000Y-59944000D03*
X39116000Y-68326000D03*
X43688000Y-62230000D03*
%TD*%
D25*
%TO.N,GND*%
X69723000Y-73279000D02*
X69977000Y-73533000D01*
X69723000Y-72314000D02*
X69723000Y-73279000D01*
X69977000Y-73533000D02*
X72644000Y-73533000D01*
X69723000Y-72314000D02*
X66497000Y-69088000D01*
X73279000Y-72898000D02*
X72644000Y-73533000D01*
X73279000Y-70536000D02*
X73279000Y-72898000D01*
X71831000Y-69088000D02*
X73279000Y-70536000D01*
X66551720Y-69088000D02*
X66497000Y-69088000D01*
X66497000Y-69088000D02*
X66497000Y-69418000D01*
%TO.N,+BATT*%
X33528000Y-71882000D02*
X33528000Y-56134000D01*
X34857000Y-73211000D02*
X33528000Y-71882000D01*
X58437083Y-73211000D02*
X34857000Y-73211000D01*
X65278000Y-66370083D02*
X58437083Y-73211000D01*
X65278000Y-66040000D02*
X65278000Y-66370083D01*
X63409833Y-68238250D02*
X65278000Y-66370083D01*
X61562167Y-68238250D02*
X63409833Y-68238250D01*
X51997917Y-58674000D02*
X61562167Y-68238250D01*
X49530000Y-58674000D02*
X51997917Y-58674000D01*
%TO.N,GND*%
X36449000Y-52946000D02*
X37084000Y-53581000D01*
X36449000Y-52197000D02*
X36449000Y-52946000D01*
X63484250Y-54213250D02*
X65024000Y-55753000D01*
%TO.N,Net-(J9-Pin_1)*%
X43908750Y-50348250D02*
X42469000Y-51788000D01*
X47244833Y-50348250D02*
X43908750Y-50348250D01*
X48399833Y-51503250D02*
X47244833Y-50348250D01*
X50998778Y-51503250D02*
X48399833Y-51503250D01*
X51181000Y-51321028D02*
X50998778Y-51503250D01*
X51181000Y-49951472D02*
X51181000Y-51321028D01*
X51784222Y-49348250D02*
X51181000Y-49951472D01*
X57094778Y-49348250D02*
X51784222Y-49348250D01*
X57168000Y-49421472D02*
X57094778Y-49348250D01*
X57168000Y-51943000D02*
X57168000Y-49421472D01*
X59195028Y-51943000D02*
X57168000Y-51943000D01*
X61239778Y-49898250D02*
X59195028Y-51943000D01*
X66228250Y-49898250D02*
X61239778Y-49898250D01*
X69072000Y-52742000D02*
X66228250Y-49898250D01*
%TO.N,-BATT*%
X61562167Y-50348250D02*
X60786000Y-51124417D01*
X64678250Y-50348250D02*
X61562167Y-50348250D01*
X60786000Y-54416028D02*
X58560028Y-56642000D01*
X67072000Y-52742000D02*
X64678250Y-50348250D01*
X60786000Y-51124417D02*
X60786000Y-54416028D01*
X58560028Y-56642000D02*
X49657000Y-56642000D01*
%TO.N,/motor-1-red-indicator-led*%
X71068500Y-72084500D02*
X71068500Y-68123500D01*
X71068500Y-68123500D02*
X71882000Y-67310000D01*
%TO.N,/motor-1-green-indicator-led*%
X65734500Y-70300500D02*
X65734500Y-67997500D01*
X67570000Y-72136000D02*
X65734500Y-70300500D01*
X65734500Y-67997500D02*
X66422000Y-67310000D01*
%TO.N,+3.3V*%
X43168000Y-53860000D02*
X43434000Y-53594000D01*
X42098000Y-53860000D02*
X43168000Y-53860000D01*
%TO.N,GND*%
X43688000Y-62230000D02*
X43688000Y-61468000D01*
X43688000Y-61468000D02*
X42926000Y-60706000D01*
%TO.N,+3.3V*%
X42684000Y-63004000D02*
X40320000Y-63004000D01*
X42926000Y-63246000D02*
X42684000Y-63004000D01*
%TO.N,+BATT*%
X33528000Y-56134000D02*
X34518000Y-55144000D01*
X35052000Y-55144000D02*
X34518000Y-55144000D01*
X36296000Y-61976000D02*
X36322000Y-61950000D01*
X36322000Y-61976000D02*
X36296000Y-61976000D01*
X36322000Y-61950000D02*
X36322000Y-61976000D01*
X37566000Y-60706000D02*
X36322000Y-61950000D01*
%TO.N,+3.3V*%
X63865250Y-56753250D02*
X62486000Y-56753250D01*
X65024000Y-57912000D02*
X63865250Y-56753250D01*
X69570000Y-62992000D02*
X70586000Y-61976000D01*
X65278000Y-62992000D02*
X69570000Y-62992000D01*
%TO.N,+BATT*%
X66776000Y-61976000D02*
X65278000Y-61976000D01*
%TO.N,+3.3V*%
X65520000Y-65266000D02*
X65278000Y-65024000D01*
X68392000Y-65266000D02*
X65520000Y-65266000D01*
%TO.N,+BATT*%
X65565538Y-65752462D02*
X65278000Y-66040000D01*
X70005538Y-65752462D02*
X65565538Y-65752462D01*
X70292000Y-65466000D02*
X70005538Y-65752462D01*
X70292000Y-65266000D02*
X70292000Y-65466000D01*
%TO.N,+3.3V*%
X34798000Y-56896000D02*
X34544000Y-56896000D01*
X36563000Y-55131000D02*
X34798000Y-56896000D01*
X37084000Y-55131000D02*
X36563000Y-55131000D01*
%TO.N,+BATT*%
X38180183Y-49213000D02*
X39060726Y-49213000D01*
X34252000Y-53141183D02*
X38180183Y-49213000D01*
X34252000Y-54344000D02*
X34252000Y-53141183D01*
X39060726Y-49213000D02*
X39544000Y-49696274D01*
X35052000Y-55144000D02*
X34252000Y-54344000D01*
X39544000Y-49696274D02*
X39544000Y-51713000D01*
X35840000Y-54356000D02*
X35052000Y-55144000D01*
X37561817Y-54356000D02*
X35840000Y-54356000D01*
X38057817Y-53860000D02*
X37561817Y-54356000D01*
X40198000Y-53860000D02*
X38057817Y-53860000D01*
%TO.N,GND*%
X41148000Y-53848000D02*
X41148000Y-54610000D01*
X37255000Y-53410000D02*
X40710000Y-53410000D01*
X40710000Y-53410000D02*
X41148000Y-53848000D01*
X35052000Y-53594000D02*
X37071000Y-53594000D01*
X36322000Y-58928000D02*
X35306000Y-59944000D01*
X38316000Y-69126000D02*
X36943000Y-69126000D01*
X39116000Y-68326000D02*
X38316000Y-69126000D01*
%TO.N,/motor-3-red-indicator-led*%
X40327000Y-71061000D02*
X41402000Y-72136000D01*
X36771000Y-71061000D02*
X40327000Y-71061000D01*
X34923000Y-69213000D02*
X36771000Y-71061000D01*
X34923000Y-61976000D02*
X34923000Y-69213000D01*
X37209000Y-59690000D02*
X34923000Y-61976000D01*
X38124979Y-59690000D02*
X37209000Y-59690000D01*
X38900000Y-58914979D02*
X38124979Y-59690000D01*
X38900000Y-56096000D02*
X38900000Y-58914979D01*
X41161000Y-56096000D02*
X38900000Y-56096000D01*
X41961000Y-56896000D02*
X41161000Y-56096000D01*
%TO.N,Net-(D8-A)*%
X40311000Y-56896000D02*
X40311000Y-58599000D01*
%TO.N,GND*%
X41961000Y-59741000D02*
X42126000Y-59906000D01*
X41961000Y-58674000D02*
X41961000Y-59741000D01*
X42126000Y-59906000D02*
X42926000Y-60706000D01*
X40923183Y-59906000D02*
X42126000Y-59906000D01*
X40123183Y-60706000D02*
X40923183Y-59906000D01*
X39116000Y-60706000D02*
X40123183Y-60706000D01*
%TO.N,+3.3V*%
X40320000Y-61762000D02*
X41376000Y-60706000D01*
X40320000Y-63004000D02*
X40320000Y-61762000D01*
%TO.N,GND*%
X39370000Y-63754000D02*
X39370000Y-60960000D01*
%TO.N,+BATT*%
X38420000Y-61560000D02*
X37566000Y-60706000D01*
X38420000Y-63004000D02*
X38420000Y-61560000D01*
%TO.N,/motor-3-green-indicator-led*%
X34473000Y-58670000D02*
X36247000Y-56896000D01*
X36791340Y-72136000D02*
X34473000Y-69817660D01*
X37852000Y-72136000D02*
X36791340Y-72136000D01*
X34473000Y-69817660D02*
X34473000Y-58670000D01*
%TO.N,/motor-2-red-indicator-led*%
X38420000Y-64004000D02*
X37895000Y-64004000D01*
X37845000Y-64054000D02*
X37845000Y-64954000D01*
X37895000Y-64004000D02*
X37845000Y-64054000D01*
X37845000Y-64954000D02*
X40696000Y-64954000D01*
X40696000Y-64954000D02*
X42290000Y-66548000D01*
%TO.N,GND*%
X38945000Y-64504000D02*
X38420000Y-64504000D01*
%TO.N,+3.3V*%
X42098000Y-53860000D02*
X42098000Y-54360000D01*
%TO.N,/motor-3-green-indicator-led*%
X38862000Y-55372000D02*
X38138000Y-56096000D01*
X38862000Y-55034604D02*
X38862000Y-55372000D01*
X39536604Y-54360000D02*
X38862000Y-55034604D01*
X38138000Y-56096000D02*
X37047000Y-56096000D01*
X40198000Y-54360000D02*
X39536604Y-54360000D01*
X37047000Y-56096000D02*
X36247000Y-56896000D01*
%TO.N,/motor-3-red-indicator-led*%
X40094000Y-56096000D02*
X41161000Y-56096000D01*
X39623000Y-55625000D02*
X40094000Y-56096000D01*
X39673000Y-54860000D02*
X39623000Y-54910000D01*
X40198000Y-54860000D02*
X39673000Y-54860000D01*
X39623000Y-54910000D02*
X39623000Y-55625000D01*
%TO.N,GND*%
X40198000Y-55360000D02*
X40723000Y-55360000D01*
X40723000Y-55360000D02*
X41148000Y-54935000D01*
%TO.N,/motor-driver-3a*%
X44427750Y-54860000D02*
X42098000Y-54860000D01*
X46321000Y-56753250D02*
X44427750Y-54860000D01*
%TO.N,/motor-driver-3b*%
X42098000Y-55360000D02*
X46031250Y-59293250D01*
%TO.N,Net-(D7-A)*%
X37897000Y-56896000D02*
X37897000Y-58674000D01*
%TO.N,+3.3V*%
X40320000Y-63504000D02*
X40320000Y-63004000D01*
%TO.N,/motor-driver-2a*%
X44150250Y-64004000D02*
X46321000Y-61833250D01*
X40320000Y-64004000D02*
X44150250Y-64004000D01*
%TO.N,/motor-driver-2b*%
X40320000Y-64504000D02*
X46190250Y-64504000D01*
%TO.N,/motor-2-green-indicator-led*%
X36068000Y-65194604D02*
X36068000Y-66548000D01*
X38420000Y-63504000D02*
X37758604Y-63504000D01*
X37758604Y-63504000D02*
X36068000Y-65194604D01*
%TO.N,/motor-2-red-indicator-led*%
X51188396Y-69596000D02*
X49841896Y-68249500D01*
X56642000Y-72136000D02*
X54102000Y-69596000D01*
X54102000Y-69596000D02*
X51188396Y-69596000D01*
X49841896Y-68249500D02*
X43991500Y-68249500D01*
X43991500Y-68249500D02*
X42290000Y-66548000D01*
%TO.N,/motor-2-green-indicator-led*%
X35380500Y-67235500D02*
X36068000Y-66548000D01*
X35380500Y-68807479D02*
X35380500Y-67235500D01*
X36149021Y-69576000D02*
X35380500Y-68807479D01*
X50532000Y-69576000D02*
X36149021Y-69576000D01*
X53092000Y-72136000D02*
X50532000Y-69576000D01*
%TO.N,GND*%
X39370000Y-64079000D02*
X38945000Y-64504000D01*
X41541000Y-69126000D02*
X36943000Y-69126000D01*
X42341000Y-68326000D02*
X41541000Y-69126000D01*
X36943000Y-69126000D02*
X36143000Y-68326000D01*
%TO.N,Net-(D6-A)*%
X40640000Y-66548000D02*
X40640000Y-68200000D01*
%TO.N,Net-(D5-A)*%
X37718000Y-66548000D02*
X37718000Y-68326000D01*
%TO.N,GND*%
X72136000Y-60376000D02*
X71336000Y-61176000D01*
X72136000Y-58928000D02*
X72136000Y-60376000D01*
X72136000Y-56642000D02*
X69707250Y-54213250D01*
X69707250Y-54213250D02*
X62486000Y-54213250D01*
X72136000Y-56642000D02*
X72136000Y-58928000D01*
%TO.N,Net-(D1-A)*%
X68377000Y-56642000D02*
X70561000Y-56642000D01*
%TO.N,Net-(D2-A)*%
X68377000Y-58928000D02*
X70561000Y-58928000D01*
%TO.N,/BLE-indicator-pin*%
X66361750Y-59293250D02*
X66727000Y-58928000D01*
X62486000Y-59293250D02*
X66361750Y-59293250D01*
%TO.N,+3.3V*%
X62486000Y-56753250D02*
X66615750Y-56753250D01*
%TO.N,/motor-driver-1a*%
X64418750Y-63766000D02*
X62486000Y-61833250D01*
X68392000Y-63766000D02*
X64418750Y-63766000D01*
%TO.N,/motor-driver-1b*%
X68392000Y-64266000D02*
X62593250Y-64266000D01*
%TO.N,GND*%
X69126000Y-61176000D02*
X71336000Y-61176000D01*
X71336000Y-61176000D02*
X72136000Y-61976000D01*
X68326000Y-61976000D02*
X69126000Y-61176000D01*
X70953396Y-63158604D02*
X70953396Y-63766000D01*
X72136000Y-61976000D02*
X70953396Y-63158604D01*
%TO.N,+3.3V*%
X68392000Y-65266000D02*
X68392000Y-64766000D01*
%TO.N,GND*%
X72607000Y-68312000D02*
X71831000Y-69088000D01*
X70953396Y-63766000D02*
X72607000Y-65419604D01*
X72607000Y-65419604D02*
X72607000Y-68312000D01*
X70292000Y-63766000D02*
X70953396Y-63766000D01*
X70292000Y-63766000D02*
X69767000Y-63766000D01*
X69767000Y-63766000D02*
X69342000Y-64191000D01*
%TO.N,/motor-1-green-indicator-led*%
X70957000Y-66202462D02*
X67529538Y-66202462D01*
X70957000Y-65042396D02*
X70957000Y-66202462D01*
X70680604Y-64766000D02*
X70957000Y-65042396D01*
X67529538Y-66202462D02*
X66422000Y-67310000D01*
X70292000Y-64766000D02*
X70680604Y-64766000D01*
%TO.N,Net-(D3-A)*%
X68072000Y-67310000D02*
X68072000Y-69088000D01*
%TO.N,Net-(D4-A)*%
X70256000Y-69088000D02*
X70256000Y-67334000D01*
%TO.N,/motor-1-red-indicator-led*%
X71882000Y-67310000D02*
X71882000Y-65331000D01*
X71882000Y-65331000D02*
X70817000Y-64266000D01*
X70817000Y-64266000D02*
X70292000Y-64266000D01*
%TD*%
%TA.AperFunction,Conductor*%
%TO.N,GND*%
G36*
X74395288Y-48659954D02*
G01*
X74476070Y-48713930D01*
X74530046Y-48794712D01*
X74549000Y-48890000D01*
X74549000Y-73284000D01*
X74530046Y-73379288D01*
X74476070Y-73460070D01*
X74395288Y-73514046D01*
X74300000Y-73533000D01*
X72090634Y-73533000D01*
X72005471Y-73517984D01*
X71930580Y-73474745D01*
X71874994Y-73408501D01*
X71845417Y-73327240D01*
X71845417Y-73240763D01*
X71874993Y-73159501D01*
X71926908Y-73097629D01*
X71926877Y-73097598D01*
X71926877Y-73097597D01*
X72081598Y-72942877D01*
X72207102Y-72763639D01*
X72299575Y-72565330D01*
X72356207Y-72353977D01*
X72375277Y-72136000D01*
X72356207Y-71918023D01*
X72299575Y-71706670D01*
X72207102Y-71508362D01*
X72081598Y-71329123D01*
X71926877Y-71174402D01*
X71800178Y-71085686D01*
X71743271Y-71030410D01*
X71706639Y-70960040D01*
X71694000Y-70881718D01*
X71694000Y-68534500D01*
X71712954Y-68439212D01*
X71766930Y-68358430D01*
X71847712Y-68304454D01*
X71943000Y-68285500D01*
X72132980Y-68285500D01*
X72138616Y-68285500D01*
X72209196Y-68279086D01*
X72371606Y-68228478D01*
X72517185Y-68140472D01*
X72637472Y-68020185D01*
X72725478Y-67874606D01*
X72776086Y-67712196D01*
X72782500Y-67641616D01*
X72782500Y-66978384D01*
X72776086Y-66907804D01*
X72725478Y-66745394D01*
X72637472Y-66599815D01*
X72580430Y-66542773D01*
X72526454Y-66461991D01*
X72507500Y-66366703D01*
X72507500Y-65404187D01*
X72507747Y-65398942D01*
X72509672Y-65390332D01*
X72507622Y-65325117D01*
X72507500Y-65317298D01*
X72507500Y-65299471D01*
X72507500Y-65291650D01*
X72506519Y-65283887D01*
X72506381Y-65281689D01*
X72506013Y-65273904D01*
X72504709Y-65232372D01*
X72500335Y-65217321D01*
X72498905Y-65208287D01*
X72496902Y-65198614D01*
X72494627Y-65189756D01*
X72492664Y-65174208D01*
X72478752Y-65139072D01*
X72471155Y-65116881D01*
X72464989Y-65095657D01*
X72464987Y-65095654D01*
X72460617Y-65080610D01*
X72452638Y-65067119D01*
X72449014Y-65058744D01*
X72444644Y-65049823D01*
X72440254Y-65041838D01*
X72434486Y-65027268D01*
X72413573Y-64998483D01*
X72412281Y-64996704D01*
X72399400Y-64977095D01*
X72388147Y-64958067D01*
X72388145Y-64958065D01*
X72380170Y-64944579D01*
X72369092Y-64933501D01*
X72363509Y-64926303D01*
X72357061Y-64918753D01*
X72350805Y-64912091D01*
X72341594Y-64899413D01*
X72312486Y-64875333D01*
X72295144Y-64859553D01*
X71311042Y-63875451D01*
X71307514Y-63871573D01*
X71302786Y-63864123D01*
X71255236Y-63819470D01*
X71249619Y-63814028D01*
X71236997Y-63801406D01*
X71231471Y-63795880D01*
X71225295Y-63791089D01*
X71223629Y-63789620D01*
X71217850Y-63784361D01*
X71199000Y-63766660D01*
X71198999Y-63766659D01*
X71187582Y-63755938D01*
X71173858Y-63748393D01*
X71166508Y-63743053D01*
X71158146Y-63737560D01*
X71150312Y-63732926D01*
X71137936Y-63723327D01*
X71123562Y-63717106D01*
X71123556Y-63717103D01*
X71103253Y-63708317D01*
X71082197Y-63698002D01*
X71062818Y-63687349D01*
X71062819Y-63687349D01*
X71049092Y-63679803D01*
X71033924Y-63675908D01*
X71025447Y-63672552D01*
X71016017Y-63669324D01*
X71007271Y-63666782D01*
X70992896Y-63660562D01*
X70977430Y-63658112D01*
X70977419Y-63658109D01*
X70955572Y-63654649D01*
X70932613Y-63649895D01*
X70911192Y-63644395D01*
X70911187Y-63644394D01*
X70896019Y-63640500D01*
X70880358Y-63640500D01*
X70871310Y-63639357D01*
X70861373Y-63638575D01*
X70852267Y-63638289D01*
X70836804Y-63635840D01*
X70799195Y-63639395D01*
X70775764Y-63640500D01*
X70407229Y-63640500D01*
X70311941Y-63621546D01*
X70231159Y-63567570D01*
X70177183Y-63486788D01*
X70158229Y-63391500D01*
X70177183Y-63296212D01*
X70231159Y-63215430D01*
X70422160Y-63024429D01*
X70502942Y-62970453D01*
X70598230Y-62951499D01*
X70852997Y-62951499D01*
X70859344Y-62951499D01*
X70958708Y-62941349D01*
X71119697Y-62888003D01*
X71264044Y-62798968D01*
X71383968Y-62679044D01*
X71473003Y-62534697D01*
X71526349Y-62373708D01*
X71536500Y-62274345D01*
X71536499Y-61677656D01*
X71526349Y-61578292D01*
X71473003Y-61417303D01*
X71402569Y-61303112D01*
X71391579Y-61285295D01*
X71391578Y-61285294D01*
X71383968Y-61272956D01*
X71264044Y-61153032D01*
X71251707Y-61145422D01*
X71251704Y-61145420D01*
X71132041Y-61071611D01*
X71119697Y-61063997D01*
X71105931Y-61059435D01*
X71105926Y-61059433D01*
X70971615Y-61014928D01*
X70958708Y-61010651D01*
X70945183Y-61009269D01*
X70945182Y-61009269D01*
X70865654Y-61001144D01*
X70865643Y-61001143D01*
X70859345Y-61000500D01*
X70852999Y-61000500D01*
X70319003Y-61000500D01*
X70318983Y-61000500D01*
X70312656Y-61000501D01*
X70306361Y-61001144D01*
X70306342Y-61001145D01*
X70226814Y-61009269D01*
X70226807Y-61009270D01*
X70213292Y-61010651D01*
X70200391Y-61014925D01*
X70200386Y-61014927D01*
X70066073Y-61059433D01*
X70066064Y-61059436D01*
X70052303Y-61063997D01*
X70039961Y-61071609D01*
X70039958Y-61071611D01*
X69920295Y-61145420D01*
X69920288Y-61145425D01*
X69907956Y-61153032D01*
X69897708Y-61163279D01*
X69897704Y-61163283D01*
X69798283Y-61262704D01*
X69798279Y-61262708D01*
X69788032Y-61272956D01*
X69780425Y-61285288D01*
X69780420Y-61285295D01*
X69706611Y-61404958D01*
X69706609Y-61404961D01*
X69698997Y-61417303D01*
X69694436Y-61431064D01*
X69694433Y-61431073D01*
X69649928Y-61565384D01*
X69645651Y-61578292D01*
X69644269Y-61591814D01*
X69644269Y-61591817D01*
X69636144Y-61671345D01*
X69636144Y-61671349D01*
X69635500Y-61677655D01*
X69635500Y-61684000D01*
X69635500Y-61938769D01*
X69616546Y-62034057D01*
X69562570Y-62114838D01*
X69383840Y-62293569D01*
X69332270Y-62333140D01*
X69272216Y-62358015D01*
X69207770Y-62366500D01*
X67975500Y-62366500D01*
X67880212Y-62347546D01*
X67799431Y-62293570D01*
X67745454Y-62212789D01*
X67726500Y-62117501D01*
X67726499Y-61684003D01*
X67726499Y-61684000D01*
X67726499Y-61677656D01*
X67716349Y-61578292D01*
X67663003Y-61417303D01*
X67592569Y-61303112D01*
X67581579Y-61285295D01*
X67581578Y-61285294D01*
X67573968Y-61272956D01*
X67454044Y-61153032D01*
X67441707Y-61145422D01*
X67441704Y-61145420D01*
X67322041Y-61071611D01*
X67309697Y-61063997D01*
X67295931Y-61059435D01*
X67295926Y-61059433D01*
X67161615Y-61014928D01*
X67148708Y-61010651D01*
X67135183Y-61009269D01*
X67135182Y-61009269D01*
X67055654Y-61001144D01*
X67055643Y-61001143D01*
X67049345Y-61000500D01*
X67042999Y-61000500D01*
X66509003Y-61000500D01*
X66508983Y-61000500D01*
X66502656Y-61000501D01*
X66496361Y-61001144D01*
X66496342Y-61001145D01*
X66416814Y-61009269D01*
X66416807Y-61009270D01*
X66403292Y-61010651D01*
X66390391Y-61014925D01*
X66390386Y-61014927D01*
X66256073Y-61059433D01*
X66256064Y-61059436D01*
X66242303Y-61063997D01*
X66229961Y-61071609D01*
X66229958Y-61071611D01*
X66110295Y-61145420D01*
X66110288Y-61145425D01*
X66097956Y-61153032D01*
X66087711Y-61163276D01*
X66087697Y-61163288D01*
X66071315Y-61179671D01*
X65999492Y-61229727D01*
X65914782Y-61251831D01*
X65827658Y-61243249D01*
X65748889Y-61205042D01*
X65741288Y-61199519D01*
X65741282Y-61199515D01*
X65730730Y-61191849D01*
X65703378Y-61179671D01*
X65569728Y-61120165D01*
X65569724Y-61120163D01*
X65557803Y-61114856D01*
X65545041Y-61112143D01*
X65545037Y-61112142D01*
X65385407Y-61078212D01*
X65385403Y-61078211D01*
X65372646Y-61075500D01*
X65183354Y-61075500D01*
X65170597Y-61078211D01*
X65170592Y-61078212D01*
X65010962Y-61112142D01*
X65010955Y-61112144D01*
X64998197Y-61114856D01*
X64986278Y-61120162D01*
X64986271Y-61120165D01*
X64837193Y-61186540D01*
X64837189Y-61186542D01*
X64825270Y-61191849D01*
X64814716Y-61199516D01*
X64814714Y-61199518D01*
X64682681Y-61295445D01*
X64682677Y-61295447D01*
X64672129Y-61303112D01*
X64663406Y-61312799D01*
X64663398Y-61312807D01*
X64658180Y-61318603D01*
X64592150Y-61370704D01*
X64512541Y-61397849D01*
X64428436Y-61396940D01*
X64349432Y-61368081D01*
X64284543Y-61314566D01*
X64241174Y-61242499D01*
X64232899Y-61221293D01*
X64213656Y-61171977D01*
X64086366Y-60958356D01*
X63925650Y-60768600D01*
X63917789Y-60761942D01*
X63917786Y-60761939D01*
X63907533Y-60753255D01*
X63852479Y-60687150D01*
X63823206Y-60606255D01*
X63823209Y-60520227D01*
X63852487Y-60439334D01*
X63907541Y-60373237D01*
X63925650Y-60357900D01*
X64086366Y-60168144D01*
X64120156Y-60111437D01*
X64162551Y-60040290D01*
X64218160Y-59975543D01*
X64292368Y-59933378D01*
X64376455Y-59918750D01*
X66288551Y-59918750D01*
X66293804Y-59918997D01*
X66302417Y-59920923D01*
X66367650Y-59918872D01*
X66375471Y-59918750D01*
X66393267Y-59918750D01*
X66401100Y-59918750D01*
X66408877Y-59917767D01*
X66411023Y-59917632D01*
X66418825Y-59917264D01*
X66460377Y-59915959D01*
X66475429Y-59911585D01*
X66490898Y-59909135D01*
X66491079Y-59910277D01*
X66538696Y-59903500D01*
X66977980Y-59903500D01*
X66983616Y-59903500D01*
X67054196Y-59897086D01*
X67216606Y-59846478D01*
X67362185Y-59758472D01*
X67375930Y-59744726D01*
X67381744Y-59740841D01*
X67384693Y-59738532D01*
X67384867Y-59738755D01*
X67456712Y-59690751D01*
X67552000Y-59671797D01*
X67647288Y-59690751D01*
X67719132Y-59738755D01*
X67719307Y-59738532D01*
X67722255Y-59740841D01*
X67728070Y-59744727D01*
X67741815Y-59758472D01*
X67887394Y-59846478D01*
X68049804Y-59897086D01*
X68120384Y-59903500D01*
X68627980Y-59903500D01*
X68633616Y-59903500D01*
X68704196Y-59897086D01*
X68866606Y-59846478D01*
X69012185Y-59758472D01*
X69132472Y-59638185D01*
X69132808Y-59638521D01*
X69176300Y-59597579D01*
X69243671Y-59564775D01*
X69317751Y-59553500D01*
X69592645Y-59553500D01*
X69666369Y-59564664D01*
X69733482Y-59597156D01*
X69773274Y-59634335D01*
X69774219Y-59633391D01*
X69893109Y-59752281D01*
X70036213Y-59840549D01*
X70195815Y-59893436D01*
X70294326Y-59903500D01*
X70821329Y-59903500D01*
X70827674Y-59903500D01*
X70926185Y-59893436D01*
X71085787Y-59840549D01*
X71228891Y-59752281D01*
X71347781Y-59633391D01*
X71436049Y-59490287D01*
X71488936Y-59330685D01*
X71499000Y-59232174D01*
X71499000Y-58623826D01*
X71488936Y-58525315D01*
X71436049Y-58365713D01*
X71369864Y-58258411D01*
X71355392Y-58234948D01*
X71355391Y-58234946D01*
X71347781Y-58222609D01*
X71228891Y-58103719D01*
X71216554Y-58096109D01*
X71216551Y-58096107D01*
X71098130Y-58023064D01*
X71098128Y-58023063D01*
X71085787Y-58015451D01*
X71072018Y-58010888D01*
X71071552Y-58010671D01*
X70995667Y-57955875D01*
X70945376Y-57876933D01*
X70927783Y-57785000D01*
X70945376Y-57693067D01*
X70995667Y-57614125D01*
X71071552Y-57559329D01*
X71072018Y-57559111D01*
X71085787Y-57554549D01*
X71228891Y-57466281D01*
X71347781Y-57347391D01*
X71436049Y-57204287D01*
X71488936Y-57044685D01*
X71499000Y-56946174D01*
X71499000Y-56337826D01*
X71488936Y-56239315D01*
X71436049Y-56079713D01*
X71347781Y-55936609D01*
X71228891Y-55817719D01*
X71216554Y-55810109D01*
X71216551Y-55810107D01*
X71132743Y-55758414D01*
X71085787Y-55729451D01*
X71072027Y-55724891D01*
X71072022Y-55724889D01*
X70939089Y-55680840D01*
X70926185Y-55676564D01*
X70912666Y-55675182D01*
X70912662Y-55675182D01*
X70833983Y-55667144D01*
X70833972Y-55667143D01*
X70827674Y-55666500D01*
X70294326Y-55666500D01*
X70288028Y-55667143D01*
X70288016Y-55667144D01*
X70209337Y-55675182D01*
X70209331Y-55675183D01*
X70195815Y-55676564D01*
X70182912Y-55680839D01*
X70182910Y-55680840D01*
X70049977Y-55724889D01*
X70049969Y-55724892D01*
X70036213Y-55729451D01*
X70023871Y-55737063D01*
X70023870Y-55737064D01*
X69905448Y-55810107D01*
X69905441Y-55810112D01*
X69893109Y-55817719D01*
X69882863Y-55827964D01*
X69882859Y-55827968D01*
X69774219Y-55936609D01*
X69773274Y-55935664D01*
X69733482Y-55972844D01*
X69666369Y-56005336D01*
X69592645Y-56016500D01*
X69317751Y-56016500D01*
X69243671Y-56005225D01*
X69176300Y-55972421D01*
X69132808Y-55931478D01*
X69132472Y-55931815D01*
X69012185Y-55811528D01*
X68901738Y-55744760D01*
X68879496Y-55731314D01*
X68879493Y-55731313D01*
X68866606Y-55723522D01*
X68852226Y-55719041D01*
X68716775Y-55676833D01*
X68716768Y-55676831D01*
X68704196Y-55672914D01*
X68691075Y-55671721D01*
X68691072Y-55671721D01*
X68639230Y-55667010D01*
X68639226Y-55667009D01*
X68633616Y-55666500D01*
X68120384Y-55666500D01*
X68114774Y-55667009D01*
X68114769Y-55667010D01*
X68062927Y-55671721D01*
X68062922Y-55671721D01*
X68049804Y-55672914D01*
X68037232Y-55676831D01*
X68037224Y-55676833D01*
X67901773Y-55719041D01*
X67901770Y-55719042D01*
X67887394Y-55723522D01*
X67874508Y-55731311D01*
X67874503Y-55731314D01*
X67783153Y-55786538D01*
X67741815Y-55811528D01*
X67731169Y-55822173D01*
X67731165Y-55822177D01*
X67728070Y-55825273D01*
X67722255Y-55829158D01*
X67719307Y-55831468D01*
X67719132Y-55831244D01*
X67647288Y-55879249D01*
X67552000Y-55898203D01*
X67456712Y-55879249D01*
X67384867Y-55831244D01*
X67384693Y-55831468D01*
X67381744Y-55829158D01*
X67375930Y-55825273D01*
X67372834Y-55822177D01*
X67372833Y-55822176D01*
X67362185Y-55811528D01*
X67251738Y-55744760D01*
X67229496Y-55731314D01*
X67229493Y-55731313D01*
X67216606Y-55723522D01*
X67202226Y-55719041D01*
X67066775Y-55676833D01*
X67066768Y-55676831D01*
X67054196Y-55672914D01*
X67041075Y-55671721D01*
X67041072Y-55671721D01*
X66989230Y-55667010D01*
X66989226Y-55667009D01*
X66983616Y-55666500D01*
X66470384Y-55666500D01*
X66464774Y-55667009D01*
X66464769Y-55667010D01*
X66412927Y-55671721D01*
X66412922Y-55671721D01*
X66399804Y-55672914D01*
X66387232Y-55676831D01*
X66387224Y-55676833D01*
X66251773Y-55719041D01*
X66251770Y-55719042D01*
X66237394Y-55723522D01*
X66224508Y-55731311D01*
X66224503Y-55731314D01*
X66133153Y-55786538D01*
X66091815Y-55811528D01*
X66081169Y-55822173D01*
X66081165Y-55822177D01*
X65982177Y-55921165D01*
X65982173Y-55921169D01*
X65971528Y-55931815D01*
X65926555Y-56006210D01*
X65925733Y-56007569D01*
X65870122Y-56071627D01*
X65796234Y-56113300D01*
X65712644Y-56127750D01*
X64376455Y-56127750D01*
X64292368Y-56113122D01*
X64218160Y-56070957D01*
X64162551Y-56006210D01*
X64091641Y-55887208D01*
X64091638Y-55887204D01*
X64086366Y-55878356D01*
X63925650Y-55688600D01*
X63735894Y-55527884D01*
X63522273Y-55400594D01*
X63290614Y-55310200D01*
X63280536Y-55308087D01*
X63280530Y-55308085D01*
X63056064Y-55261019D01*
X63056052Y-55261017D01*
X63047237Y-55259169D01*
X63038247Y-55258610D01*
X63038241Y-55258610D01*
X62947695Y-55252989D01*
X62947688Y-55252988D01*
X62943842Y-55252750D01*
X62028158Y-55252750D01*
X62024312Y-55252988D01*
X62024304Y-55252989D01*
X61933758Y-55258610D01*
X61933750Y-55258611D01*
X61924763Y-55259169D01*
X61915949Y-55261017D01*
X61915935Y-55261019D01*
X61691469Y-55308085D01*
X61691459Y-55308087D01*
X61681386Y-55310200D01*
X61671794Y-55313942D01*
X61671790Y-55313944D01*
X61459316Y-55396852D01*
X61459312Y-55396853D01*
X61449727Y-55400594D01*
X61440890Y-55405859D01*
X61440879Y-55405865D01*
X61276020Y-55504099D01*
X61192081Y-55535362D01*
X61102510Y-55534898D01*
X61018898Y-55502769D01*
X60952066Y-55443132D01*
X60910660Y-55363705D01*
X60900041Y-55274764D01*
X60921580Y-55187821D01*
X60972489Y-55114127D01*
X61176551Y-54910065D01*
X61180420Y-54906545D01*
X61187877Y-54901814D01*
X61232595Y-54854193D01*
X61237975Y-54848641D01*
X61256120Y-54830498D01*
X61260926Y-54824301D01*
X61262331Y-54822708D01*
X61267582Y-54816936D01*
X61296062Y-54786610D01*
X61303612Y-54772874D01*
X61308979Y-54765488D01*
X61314416Y-54757211D01*
X61319066Y-54749347D01*
X61328673Y-54736964D01*
X61343681Y-54702280D01*
X61353996Y-54681224D01*
X61372197Y-54648120D01*
X61376094Y-54632937D01*
X61379457Y-54624446D01*
X61382670Y-54615061D01*
X61385213Y-54606306D01*
X61391438Y-54591923D01*
X61397347Y-54554603D01*
X61402106Y-54531629D01*
X61407604Y-54510219D01*
X61407603Y-54510219D01*
X61411500Y-54495047D01*
X61411500Y-54479378D01*
X61412641Y-54470346D01*
X61413424Y-54460401D01*
X61413709Y-54451303D01*
X61416160Y-54435832D01*
X61412604Y-54398223D01*
X61411500Y-54374792D01*
X61411500Y-53366335D01*
X61427069Y-53279669D01*
X61471829Y-53203841D01*
X61540183Y-53148333D01*
X61623583Y-53120087D01*
X61711598Y-53122634D01*
X61924763Y-53167331D01*
X62028158Y-53173750D01*
X62939973Y-53173750D01*
X62943842Y-53173750D01*
X63047237Y-53167331D01*
X63290614Y-53116300D01*
X63522273Y-53025906D01*
X63735894Y-52898616D01*
X63925650Y-52737900D01*
X64086366Y-52548144D01*
X64213656Y-52334523D01*
X64304050Y-52102864D01*
X64355081Y-51859487D01*
X64361500Y-51756092D01*
X64361500Y-51590408D01*
X64357645Y-51528329D01*
X64367103Y-51443261D01*
X64404807Y-51366421D01*
X64466304Y-51306889D01*
X64544328Y-51271698D01*
X64629658Y-51265008D01*
X64712212Y-51287607D01*
X64782237Y-51336827D01*
X65898570Y-52453160D01*
X65952546Y-52533942D01*
X65971500Y-52629230D01*
X65971500Y-53069425D01*
X65972063Y-53075323D01*
X65972064Y-53075339D01*
X65984335Y-53203841D01*
X65986472Y-53226218D01*
X65989810Y-53237587D01*
X65989812Y-53237596D01*
X66026291Y-53361830D01*
X66045684Y-53427875D01*
X66051116Y-53438412D01*
X66051117Y-53438414D01*
X66109662Y-53551977D01*
X66141989Y-53614682D01*
X66271908Y-53779886D01*
X66280867Y-53787649D01*
X66280869Y-53787651D01*
X66296059Y-53800813D01*
X66430744Y-53917519D01*
X66612756Y-54022604D01*
X66811367Y-54091344D01*
X67019398Y-54121254D01*
X67229330Y-54111254D01*
X67433576Y-54061704D01*
X67624753Y-53974396D01*
X67795952Y-53852486D01*
X67804144Y-53843893D01*
X67807549Y-53840944D01*
X67887771Y-53794307D01*
X67979498Y-53780281D01*
X68069992Y-53800813D01*
X68146684Y-53853052D01*
X68253344Y-53959712D01*
X68265683Y-53967323D01*
X68265686Y-53967325D01*
X68377040Y-54036008D01*
X68402666Y-54051814D01*
X68569203Y-54106999D01*
X68671991Y-54117500D01*
X69472008Y-54117499D01*
X69574797Y-54106999D01*
X69741334Y-54051814D01*
X69890656Y-53959712D01*
X70014712Y-53835656D01*
X70106814Y-53686334D01*
X70161999Y-53519797D01*
X70172500Y-53417009D01*
X70172499Y-52066992D01*
X70161999Y-51964203D01*
X70106814Y-51797666D01*
X70076895Y-51749159D01*
X70022325Y-51660686D01*
X70022323Y-51660683D01*
X70014712Y-51648344D01*
X69890656Y-51524288D01*
X69878317Y-51516677D01*
X69878313Y-51516674D01*
X69753679Y-51439800D01*
X69753676Y-51439798D01*
X69741334Y-51432186D01*
X69727568Y-51427624D01*
X69727563Y-51427622D01*
X69587705Y-51381278D01*
X69587702Y-51381277D01*
X69574797Y-51377001D01*
X69561272Y-51375619D01*
X69561271Y-51375619D01*
X69478316Y-51367144D01*
X69478309Y-51367143D01*
X69472009Y-51366500D01*
X69465665Y-51366500D01*
X68684231Y-51366500D01*
X68588943Y-51347546D01*
X68508161Y-51293570D01*
X66722292Y-49507701D01*
X66718764Y-49503823D01*
X66714036Y-49496373D01*
X66666486Y-49451720D01*
X66660869Y-49446278D01*
X66648247Y-49433656D01*
X66642721Y-49428130D01*
X66636545Y-49423339D01*
X66634879Y-49421870D01*
X66629100Y-49416611D01*
X66610250Y-49398910D01*
X66610249Y-49398909D01*
X66598832Y-49388188D01*
X66585108Y-49380643D01*
X66577758Y-49375303D01*
X66569396Y-49369810D01*
X66561562Y-49365176D01*
X66549186Y-49355577D01*
X66534812Y-49349356D01*
X66534806Y-49349353D01*
X66514503Y-49340567D01*
X66493447Y-49330252D01*
X66474068Y-49319599D01*
X66474069Y-49319599D01*
X66460342Y-49312053D01*
X66445174Y-49308158D01*
X66436697Y-49304802D01*
X66427267Y-49301574D01*
X66418521Y-49299032D01*
X66404146Y-49292812D01*
X66388680Y-49290362D01*
X66388669Y-49290359D01*
X66366822Y-49286899D01*
X66343863Y-49282145D01*
X66322442Y-49276645D01*
X66322437Y-49276644D01*
X66307269Y-49272750D01*
X66291608Y-49272750D01*
X66282560Y-49271607D01*
X66272623Y-49270825D01*
X66263517Y-49270539D01*
X66248054Y-49268090D01*
X66210445Y-49271645D01*
X66187014Y-49272750D01*
X61312965Y-49272750D01*
X61307720Y-49272502D01*
X61299110Y-49270578D01*
X61283449Y-49271070D01*
X61233896Y-49272627D01*
X61226076Y-49272750D01*
X61200428Y-49272750D01*
X61192678Y-49273728D01*
X61190438Y-49273869D01*
X61182649Y-49274236D01*
X61156809Y-49275048D01*
X61156803Y-49275048D01*
X61141151Y-49275541D01*
X61126109Y-49279910D01*
X61117100Y-49281338D01*
X61107333Y-49283360D01*
X61098514Y-49285624D01*
X61082986Y-49287586D01*
X61068427Y-49293349D01*
X61068419Y-49293352D01*
X61047848Y-49301496D01*
X61025674Y-49309088D01*
X61004434Y-49315259D01*
X61004423Y-49315263D01*
X60989388Y-49319632D01*
X60975912Y-49327601D01*
X60967557Y-49331217D01*
X60958587Y-49335612D01*
X60950608Y-49339998D01*
X60936046Y-49345764D01*
X60923375Y-49354969D01*
X60923369Y-49354973D01*
X60905480Y-49367970D01*
X60885886Y-49380841D01*
X60866839Y-49392105D01*
X60866830Y-49392111D01*
X60853357Y-49400080D01*
X60842285Y-49411151D01*
X60835110Y-49416717D01*
X60827491Y-49423224D01*
X60820859Y-49429451D01*
X60808191Y-49438656D01*
X60798211Y-49450719D01*
X60798204Y-49450726D01*
X60784112Y-49467761D01*
X60768329Y-49485105D01*
X60008070Y-50245366D01*
X59940037Y-50293638D01*
X59859879Y-50316731D01*
X59776592Y-50312054D01*
X59699524Y-50280131D01*
X59637324Y-50224546D01*
X59596973Y-50151537D01*
X59583000Y-50069297D01*
X59583000Y-48890000D01*
X59601954Y-48794712D01*
X59655930Y-48713930D01*
X59736712Y-48659954D01*
X59832000Y-48641000D01*
X74300000Y-48641000D01*
X74395288Y-48659954D01*
G37*
%TD.AperFunction*%
%TA.AperFunction,Conductor*%
G36*
X67054294Y-68250640D02*
G01*
X67128386Y-68302602D01*
X67179014Y-68377613D01*
X67199490Y-68465764D01*
X67187110Y-68555410D01*
X67155310Y-68651377D01*
X67144064Y-68685315D01*
X67142683Y-68698831D01*
X67142682Y-68698837D01*
X67134644Y-68777516D01*
X67134643Y-68777528D01*
X67134000Y-68783826D01*
X67134000Y-69392174D01*
X67134643Y-69398472D01*
X67134644Y-69398483D01*
X67135540Y-69407250D01*
X67144064Y-69490685D01*
X67148340Y-69503589D01*
X67192389Y-69636522D01*
X67192391Y-69636527D01*
X67196951Y-69650287D01*
X67204564Y-69662629D01*
X67277607Y-69781051D01*
X67277609Y-69781054D01*
X67285219Y-69793391D01*
X67404109Y-69912281D01*
X67547213Y-70000549D01*
X67706815Y-70053436D01*
X67805326Y-70063500D01*
X68332329Y-70063500D01*
X68338674Y-70063500D01*
X68437185Y-70053436D01*
X68596787Y-70000549D01*
X68739891Y-69912281D01*
X68858781Y-69793391D01*
X68947049Y-69650287D01*
X68948367Y-69651100D01*
X68993125Y-69589119D01*
X69072067Y-69538827D01*
X69164000Y-69521234D01*
X69255933Y-69538827D01*
X69334875Y-69589119D01*
X69379632Y-69651100D01*
X69380951Y-69650287D01*
X69461607Y-69781051D01*
X69461609Y-69781054D01*
X69469219Y-69793391D01*
X69588109Y-69912281D01*
X69731213Y-70000549D01*
X69890815Y-70053436D01*
X69989326Y-70063500D01*
X70194000Y-70063500D01*
X70289288Y-70082454D01*
X70370070Y-70136430D01*
X70424046Y-70217212D01*
X70443000Y-70312500D01*
X70443000Y-70953840D01*
X70430362Y-71032161D01*
X70393729Y-71102532D01*
X70336822Y-71157808D01*
X70322028Y-71168166D01*
X70322022Y-71168170D01*
X70313123Y-71174402D01*
X70305442Y-71182082D01*
X70305436Y-71182088D01*
X70166088Y-71321436D01*
X70166082Y-71321442D01*
X70158402Y-71329123D01*
X70152171Y-71338020D01*
X70152164Y-71338030D01*
X70039132Y-71499457D01*
X70039125Y-71499467D01*
X70032898Y-71508362D01*
X70028305Y-71518210D01*
X70028303Y-71518215D01*
X69945021Y-71696812D01*
X69945017Y-71696820D01*
X69940425Y-71706670D01*
X69937613Y-71717162D01*
X69937609Y-71717175D01*
X69886606Y-71907522D01*
X69886604Y-71907530D01*
X69883793Y-71918023D01*
X69882847Y-71928835D01*
X69882845Y-71928847D01*
X69869199Y-72084837D01*
X69864723Y-72136000D01*
X69865670Y-72146825D01*
X69882845Y-72343152D01*
X69882846Y-72343162D01*
X69883793Y-72353977D01*
X69886605Y-72364471D01*
X69886606Y-72364477D01*
X69926288Y-72512570D01*
X69940425Y-72565330D01*
X70032898Y-72763639D01*
X70158402Y-72942877D01*
X70312764Y-73097239D01*
X70313123Y-73097598D01*
X70313091Y-73097629D01*
X70365007Y-73159501D01*
X70394583Y-73240763D01*
X70394583Y-73327240D01*
X70365006Y-73408501D01*
X70309420Y-73474745D01*
X70234529Y-73517984D01*
X70149366Y-73533000D01*
X68540634Y-73533000D01*
X68455471Y-73517984D01*
X68380580Y-73474745D01*
X68324994Y-73408501D01*
X68295417Y-73327240D01*
X68295417Y-73240763D01*
X68324993Y-73159501D01*
X68376908Y-73097629D01*
X68376877Y-73097598D01*
X68376877Y-73097597D01*
X68531598Y-72942877D01*
X68657102Y-72763639D01*
X68749575Y-72565330D01*
X68806207Y-72353977D01*
X68825277Y-72136000D01*
X68806207Y-71918023D01*
X68749575Y-71706670D01*
X68657102Y-71508362D01*
X68531598Y-71329123D01*
X68376877Y-71174402D01*
X68250179Y-71085687D01*
X68206538Y-71055129D01*
X68206536Y-71055128D01*
X68197639Y-71048898D01*
X68187794Y-71044307D01*
X68187792Y-71044306D01*
X68009182Y-70961019D01*
X68009181Y-70961018D01*
X67999330Y-70956425D01*
X67988826Y-70953610D01*
X67988825Y-70953610D01*
X67798477Y-70902606D01*
X67798471Y-70902605D01*
X67787977Y-70899793D01*
X67777162Y-70898846D01*
X67777152Y-70898845D01*
X67580825Y-70881670D01*
X67570000Y-70880723D01*
X67559175Y-70881670D01*
X67352023Y-70899793D01*
X67351896Y-70898352D01*
X67287554Y-70899287D01*
X67211893Y-70875431D01*
X67147576Y-70828986D01*
X66802513Y-70483923D01*
X66432930Y-70114339D01*
X66378954Y-70033558D01*
X66360000Y-69938270D01*
X66360000Y-68534500D01*
X66378954Y-68439212D01*
X66432930Y-68358430D01*
X66513712Y-68304454D01*
X66609000Y-68285500D01*
X66672980Y-68285500D01*
X66678616Y-68285500D01*
X66749196Y-68279086D01*
X66876672Y-68239363D01*
X66966523Y-68228589D01*
X67054294Y-68250640D01*
G37*
%TD.AperFunction*%
%TA.AperFunction,Conductor*%
G36*
X41949817Y-67513085D02*
G01*
X41950223Y-67513165D01*
X41962804Y-67517086D01*
X42033384Y-67523500D01*
X42277770Y-67523500D01*
X42342216Y-67531984D01*
X42402270Y-67556860D01*
X42453840Y-67596431D01*
X43382839Y-68525431D01*
X43436815Y-68606212D01*
X43455769Y-68701500D01*
X43436815Y-68796788D01*
X43382839Y-68877570D01*
X43302057Y-68931546D01*
X43206769Y-68950500D01*
X41947010Y-68950500D01*
X41865260Y-68936698D01*
X41792572Y-68896820D01*
X41737007Y-68835289D01*
X41704722Y-68758926D01*
X41699299Y-68676196D01*
X41703355Y-68636488D01*
X41703355Y-68636487D01*
X41704000Y-68630174D01*
X41704000Y-68021826D01*
X41693936Y-67923315D01*
X41664876Y-67835618D01*
X41652335Y-67750362D01*
X41669608Y-67665930D01*
X41714628Y-67592444D01*
X41782001Y-67538705D01*
X41863658Y-67511152D01*
X41949817Y-67513085D01*
G37*
%TD.AperFunction*%
%TA.AperFunction,Conductor*%
G36*
X39685145Y-65594804D02*
G01*
X39760529Y-65638834D01*
X39816081Y-65706179D01*
X39844973Y-65788560D01*
X39843653Y-65875850D01*
X39812286Y-65957317D01*
X39796522Y-65983394D01*
X39792042Y-65997770D01*
X39792041Y-65997773D01*
X39749833Y-66133224D01*
X39749831Y-66133232D01*
X39745914Y-66145804D01*
X39739500Y-66216384D01*
X39739500Y-66879616D01*
X39740009Y-66885226D01*
X39740010Y-66885230D01*
X39742061Y-66907804D01*
X39745914Y-66950196D01*
X39749831Y-66962768D01*
X39749833Y-66962775D01*
X39760215Y-66996092D01*
X39796522Y-67112606D01*
X39884528Y-67258185D01*
X39895177Y-67268834D01*
X39941570Y-67315227D01*
X39995546Y-67396009D01*
X40014500Y-67491297D01*
X40014500Y-67492794D01*
X40005053Y-67560731D01*
X39977430Y-67623509D01*
X39890951Y-67763713D01*
X39886392Y-67777469D01*
X39886389Y-67777477D01*
X39849933Y-67887496D01*
X39838064Y-67923315D01*
X39836683Y-67936831D01*
X39836682Y-67936837D01*
X39828644Y-68015516D01*
X39828643Y-68015528D01*
X39828000Y-68021826D01*
X39828000Y-68630174D01*
X39828642Y-68636467D01*
X39828644Y-68636488D01*
X39832701Y-68676196D01*
X39827278Y-68758926D01*
X39794993Y-68835289D01*
X39739428Y-68896820D01*
X39666740Y-68936698D01*
X39584990Y-68950500D01*
X38899010Y-68950500D01*
X38817260Y-68936698D01*
X38744572Y-68896820D01*
X38689007Y-68835289D01*
X38656722Y-68758926D01*
X38651299Y-68676196D01*
X38655355Y-68636488D01*
X38655355Y-68636487D01*
X38656000Y-68630174D01*
X38656000Y-68021826D01*
X38645936Y-67923315D01*
X38593049Y-67763713D01*
X38504781Y-67620609D01*
X38482707Y-67598535D01*
X38431713Y-67524657D01*
X38410231Y-67437496D01*
X38421053Y-67348383D01*
X38462772Y-67268898D01*
X38462819Y-67268837D01*
X38473472Y-67258185D01*
X38561478Y-67112606D01*
X38612086Y-66950196D01*
X38618500Y-66879616D01*
X38618500Y-66216384D01*
X38612086Y-66145804D01*
X38561478Y-65983394D01*
X38545713Y-65957317D01*
X38514347Y-65875850D01*
X38513027Y-65788560D01*
X38541919Y-65706179D01*
X38597471Y-65638834D01*
X38672855Y-65594804D01*
X38758803Y-65579500D01*
X39599197Y-65579500D01*
X39685145Y-65594804D01*
G37*
%TD.AperFunction*%
%TA.AperFunction,Conductor*%
G36*
X36700294Y-67488640D02*
G01*
X36774386Y-67540602D01*
X36825014Y-67615613D01*
X36845490Y-67703764D01*
X36833110Y-67793410D01*
X36801933Y-67887496D01*
X36790064Y-67923315D01*
X36788683Y-67936831D01*
X36788682Y-67936837D01*
X36780644Y-68015516D01*
X36780643Y-68015528D01*
X36780000Y-68021826D01*
X36780000Y-68630174D01*
X36780642Y-68636467D01*
X36780644Y-68636488D01*
X36784701Y-68676196D01*
X36779278Y-68758926D01*
X36746993Y-68835289D01*
X36691428Y-68896820D01*
X36618740Y-68936698D01*
X36536990Y-68950500D01*
X36511250Y-68950500D01*
X36446804Y-68942015D01*
X36386750Y-68917140D01*
X36335180Y-68877569D01*
X36078930Y-68621318D01*
X36024954Y-68540537D01*
X36006000Y-68445249D01*
X36006000Y-67772500D01*
X36024954Y-67677212D01*
X36078930Y-67596430D01*
X36159712Y-67542454D01*
X36255000Y-67523500D01*
X36318980Y-67523500D01*
X36324616Y-67523500D01*
X36395196Y-67517086D01*
X36522672Y-67477363D01*
X36612523Y-67466589D01*
X36700294Y-67488640D01*
G37*
%TD.AperFunction*%
%TA.AperFunction,Conductor*%
G36*
X43136938Y-57309527D02*
G01*
X43216332Y-57362922D01*
X43833636Y-57980227D01*
X44448010Y-58594601D01*
X44501315Y-58673779D01*
X44520916Y-58767195D01*
X44507130Y-58843426D01*
X44509633Y-58844171D01*
X44506695Y-58854038D01*
X44502950Y-58863636D01*
X44500837Y-58873711D01*
X44500834Y-58873723D01*
X44453769Y-59098185D01*
X44453767Y-59098199D01*
X44451919Y-59107013D01*
X44451361Y-59116000D01*
X44451360Y-59116008D01*
X44446738Y-59190467D01*
X44445500Y-59210408D01*
X44445500Y-59376092D01*
X44445738Y-59379938D01*
X44445739Y-59379945D01*
X44451360Y-59470491D01*
X44451360Y-59470497D01*
X44451919Y-59479487D01*
X44453767Y-59488302D01*
X44453769Y-59488314D01*
X44500835Y-59712780D01*
X44500837Y-59712786D01*
X44502950Y-59722864D01*
X44593344Y-59954523D01*
X44720634Y-60168144D01*
X44881350Y-60357900D01*
X44899460Y-60373239D01*
X44954514Y-60439338D01*
X44983790Y-60520228D01*
X44983793Y-60606254D01*
X44954522Y-60687146D01*
X44899471Y-60753251D01*
X44889214Y-60761938D01*
X44889204Y-60761947D01*
X44881350Y-60768600D01*
X44874697Y-60776454D01*
X44874692Y-60776460D01*
X44816779Y-60844838D01*
X44720634Y-60958356D01*
X44715361Y-60967203D01*
X44715361Y-60967205D01*
X44598612Y-61163135D01*
X44598608Y-61163141D01*
X44593344Y-61171977D01*
X44589603Y-61181562D01*
X44589602Y-61181566D01*
X44508802Y-61388639D01*
X44502950Y-61403636D01*
X44500837Y-61413709D01*
X44500835Y-61413719D01*
X44453769Y-61638185D01*
X44453767Y-61638199D01*
X44451919Y-61647013D01*
X44451361Y-61656000D01*
X44451360Y-61656008D01*
X44449251Y-61689984D01*
X44445500Y-61750408D01*
X44445500Y-61916092D01*
X44445738Y-61919938D01*
X44445739Y-61919945D01*
X44451360Y-62010491D01*
X44451360Y-62010497D01*
X44451919Y-62019487D01*
X44453767Y-62028302D01*
X44453769Y-62028314D01*
X44500835Y-62252780D01*
X44500837Y-62252786D01*
X44502950Y-62262864D01*
X44506694Y-62272459D01*
X44585233Y-62473737D01*
X44602243Y-62567682D01*
X44582651Y-62661122D01*
X44529337Y-62740321D01*
X44197147Y-63072511D01*
X44128274Y-63121185D01*
X44047104Y-63144077D01*
X43962949Y-63138561D01*
X43885461Y-63105270D01*
X43823532Y-63048022D01*
X43784264Y-62973385D01*
X43757214Y-62890133D01*
X43757212Y-62890129D01*
X43753179Y-62877716D01*
X43658533Y-62713784D01*
X43531871Y-62573112D01*
X43378730Y-62461849D01*
X43323501Y-62437259D01*
X43217728Y-62390165D01*
X43217724Y-62390163D01*
X43205803Y-62384856D01*
X43193041Y-62382143D01*
X43193037Y-62382142D01*
X43033407Y-62348212D01*
X43033403Y-62348211D01*
X43020646Y-62345500D01*
X42831354Y-62345500D01*
X42818595Y-62348211D01*
X42818585Y-62348213D01*
X42707435Y-62371838D01*
X42679120Y-62376172D01*
X42666214Y-62377393D01*
X42642762Y-62378500D01*
X41194500Y-62378500D01*
X41099212Y-62359546D01*
X41018430Y-62305570D01*
X40964454Y-62224788D01*
X40945500Y-62129500D01*
X40945500Y-62124229D01*
X40964454Y-62028941D01*
X41018430Y-61948160D01*
X41212159Y-61754430D01*
X41263729Y-61714859D01*
X41323783Y-61689984D01*
X41388229Y-61681499D01*
X41642997Y-61681499D01*
X41649344Y-61681499D01*
X41748708Y-61671349D01*
X41909697Y-61618003D01*
X42054044Y-61528968D01*
X42173968Y-61409044D01*
X42263003Y-61264697D01*
X42316349Y-61103708D01*
X42326500Y-61004345D01*
X42326499Y-60407656D01*
X42316349Y-60308292D01*
X42263003Y-60147303D01*
X42173968Y-60002956D01*
X42054044Y-59883032D01*
X42041707Y-59875422D01*
X42041704Y-59875420D01*
X41922041Y-59801611D01*
X41909697Y-59793997D01*
X41895931Y-59789435D01*
X41895926Y-59789433D01*
X41761615Y-59744928D01*
X41748708Y-59740651D01*
X41735183Y-59739269D01*
X41735182Y-59739269D01*
X41655654Y-59731144D01*
X41655643Y-59731143D01*
X41649345Y-59730500D01*
X41643000Y-59730500D01*
X41402355Y-59730500D01*
X41316058Y-59715068D01*
X41240459Y-59670684D01*
X41184926Y-59602850D01*
X41156345Y-59519974D01*
X41158258Y-59432329D01*
X41190425Y-59350784D01*
X41261049Y-59236287D01*
X41313936Y-59076685D01*
X41324000Y-58978174D01*
X41324000Y-58369826D01*
X41313936Y-58271315D01*
X41279525Y-58167471D01*
X41267145Y-58077828D01*
X41287620Y-57989676D01*
X41338248Y-57914665D01*
X41412340Y-57862702D01*
X41500111Y-57840651D01*
X41589962Y-57851424D01*
X41633804Y-57865086D01*
X41704384Y-57871500D01*
X42211980Y-57871500D01*
X42217616Y-57871500D01*
X42288196Y-57865086D01*
X42450606Y-57814478D01*
X42596185Y-57726472D01*
X42716472Y-57606185D01*
X42804478Y-57460606D01*
X42808960Y-57446219D01*
X42813198Y-57436805D01*
X42868497Y-57358723D01*
X42949157Y-57307259D01*
X43043270Y-57290011D01*
X43136938Y-57309527D01*
G37*
%TD.AperFunction*%
%TA.AperFunction,Conductor*%
G36*
X39554985Y-59361963D02*
G01*
X39635767Y-59415939D01*
X39718109Y-59498281D01*
X39861213Y-59586549D01*
X40020815Y-59639436D01*
X40119326Y-59649500D01*
X40125671Y-59649500D01*
X40349904Y-59649500D01*
X40436200Y-59664932D01*
X40511800Y-59709316D01*
X40567332Y-59777150D01*
X40595914Y-59860025D01*
X40594001Y-59947670D01*
X40561832Y-60029220D01*
X40496611Y-60134958D01*
X40496609Y-60134961D01*
X40488997Y-60147303D01*
X40484436Y-60161064D01*
X40484433Y-60161073D01*
X40468105Y-60210350D01*
X40435651Y-60308292D01*
X40434269Y-60321814D01*
X40434269Y-60321817D01*
X40426144Y-60401345D01*
X40426143Y-60401357D01*
X40425500Y-60407655D01*
X40425500Y-60414000D01*
X40425500Y-60668768D01*
X40417016Y-60733214D01*
X40392140Y-60793268D01*
X40352569Y-60844838D01*
X39929452Y-61267954D01*
X39925567Y-61271488D01*
X39918123Y-61276214D01*
X39907404Y-61287627D01*
X39907398Y-61287633D01*
X39873451Y-61323782D01*
X39868022Y-61329385D01*
X39855407Y-61342000D01*
X39855394Y-61342014D01*
X39849880Y-61347529D01*
X39845100Y-61353689D01*
X39843600Y-61355391D01*
X39838361Y-61361148D01*
X39820661Y-61379998D01*
X39820658Y-61380001D01*
X39809938Y-61391418D01*
X39802394Y-61405139D01*
X39797053Y-61412491D01*
X39791551Y-61420867D01*
X39786923Y-61428691D01*
X39777327Y-61441064D01*
X39771107Y-61455435D01*
X39771102Y-61455445D01*
X39762320Y-61475739D01*
X39752008Y-61496790D01*
X39741347Y-61516182D01*
X39741342Y-61516192D01*
X39733803Y-61529908D01*
X39729910Y-61545069D01*
X39726554Y-61553546D01*
X39723318Y-61562999D01*
X39720779Y-61571735D01*
X39714562Y-61586104D01*
X39712113Y-61601564D01*
X39712110Y-61601575D01*
X39708648Y-61623434D01*
X39703895Y-61646384D01*
X39698396Y-61667802D01*
X39698394Y-61667810D01*
X39694500Y-61682981D01*
X39694500Y-61698644D01*
X39693357Y-61707692D01*
X39692575Y-61717626D01*
X39692289Y-61726732D01*
X39689840Y-61742196D01*
X39691313Y-61757788D01*
X39691314Y-61757788D01*
X39693395Y-61779802D01*
X39694500Y-61803236D01*
X39694500Y-62462561D01*
X39681758Y-62541195D01*
X39644835Y-62611780D01*
X39636876Y-62622411D01*
X39636871Y-62622418D01*
X39626204Y-62636669D01*
X39619984Y-62653345D01*
X39619981Y-62653351D01*
X39603301Y-62698075D01*
X39559835Y-62772191D01*
X39493766Y-62827121D01*
X39412961Y-62856325D01*
X39327039Y-62856325D01*
X39246234Y-62827121D01*
X39180165Y-62772191D01*
X39136699Y-62698075D01*
X39120018Y-62653351D01*
X39120017Y-62653350D01*
X39113796Y-62636669D01*
X39103123Y-62622411D01*
X39095165Y-62611780D01*
X39058242Y-62541195D01*
X39045500Y-62462561D01*
X39045500Y-61633187D01*
X39045747Y-61627942D01*
X39047672Y-61619332D01*
X39045622Y-61554117D01*
X39045500Y-61546298D01*
X39045500Y-61528471D01*
X39045500Y-61520650D01*
X39044519Y-61512887D01*
X39044381Y-61510689D01*
X39044013Y-61502904D01*
X39042709Y-61461372D01*
X39038335Y-61446321D01*
X39036905Y-61437287D01*
X39034902Y-61427614D01*
X39032627Y-61418756D01*
X39030664Y-61403208D01*
X39016752Y-61368072D01*
X39009155Y-61345881D01*
X39002989Y-61324657D01*
X39002987Y-61324654D01*
X38998617Y-61309610D01*
X38990638Y-61296119D01*
X38987014Y-61287744D01*
X38982644Y-61278823D01*
X38978254Y-61270838D01*
X38972486Y-61256268D01*
X38963274Y-61243588D01*
X38950281Y-61225704D01*
X38937400Y-61206095D01*
X38926147Y-61187067D01*
X38926145Y-61187065D01*
X38918170Y-61173579D01*
X38907092Y-61162501D01*
X38901509Y-61155303D01*
X38895061Y-61147753D01*
X38888805Y-61141091D01*
X38879594Y-61128413D01*
X38850486Y-61104333D01*
X38833144Y-61088553D01*
X38589429Y-60844838D01*
X38535453Y-60764056D01*
X38516499Y-60668768D01*
X38516499Y-60414003D01*
X38516499Y-60414000D01*
X38516499Y-60407656D01*
X38508032Y-60324767D01*
X38510024Y-60259176D01*
X38529082Y-60196383D01*
X38563879Y-60140753D01*
X38580656Y-60120472D01*
X38596416Y-60103151D01*
X39283635Y-59415932D01*
X39364409Y-59361963D01*
X39459697Y-59343009D01*
X39554985Y-59361963D01*
G37*
%TD.AperFunction*%
%TA.AperFunction,Conductor*%
G36*
X36879294Y-57836640D02*
G01*
X36953386Y-57888602D01*
X37004014Y-57963613D01*
X37024490Y-58051764D01*
X37012110Y-58141410D01*
X36983593Y-58227470D01*
X36969064Y-58271315D01*
X36967683Y-58284831D01*
X36967682Y-58284837D01*
X36959644Y-58363516D01*
X36959643Y-58363528D01*
X36959000Y-58369826D01*
X36959000Y-58376171D01*
X36959000Y-58969123D01*
X36944280Y-59053467D01*
X36901861Y-59127838D01*
X36848071Y-59173780D01*
X36848439Y-59174255D01*
X36838383Y-59182054D01*
X36836757Y-59183444D01*
X36836064Y-59183853D01*
X36836053Y-59183860D01*
X36822579Y-59191830D01*
X36811507Y-59202901D01*
X36804332Y-59208467D01*
X36796713Y-59214974D01*
X36790081Y-59221201D01*
X36777413Y-59230406D01*
X36767433Y-59242469D01*
X36767426Y-59242476D01*
X36753334Y-59259511D01*
X36737551Y-59276855D01*
X35523570Y-60490838D01*
X35455537Y-60539110D01*
X35375379Y-60562203D01*
X35292092Y-60557526D01*
X35215024Y-60525603D01*
X35152824Y-60470018D01*
X35112473Y-60397009D01*
X35098500Y-60314769D01*
X35098500Y-59032230D01*
X35106984Y-58967784D01*
X35131860Y-58907730D01*
X35171431Y-58856160D01*
X36083162Y-57944430D01*
X36163943Y-57890454D01*
X36259231Y-57871500D01*
X36497980Y-57871500D01*
X36503616Y-57871500D01*
X36574196Y-57865086D01*
X36701672Y-57825363D01*
X36791523Y-57814589D01*
X36879294Y-57836640D01*
G37*
%TD.AperFunction*%
%TA.AperFunction,Conductor*%
G36*
X36964788Y-51530365D02*
G01*
X37045569Y-51584341D01*
X37099546Y-51665123D01*
X37118500Y-51760411D01*
X37118500Y-52579211D01*
X37118500Y-52579229D01*
X37118501Y-52585872D01*
X37119211Y-52592481D01*
X37119212Y-52592491D01*
X37123243Y-52629993D01*
X37123244Y-52629998D01*
X37124909Y-52645483D01*
X37175204Y-52780331D01*
X37185872Y-52794582D01*
X37185874Y-52794585D01*
X37250778Y-52881285D01*
X37261454Y-52895546D01*
X37275714Y-52906221D01*
X37354615Y-52965287D01*
X37376669Y-52981796D01*
X37393350Y-52988017D01*
X37393351Y-52988018D01*
X37504074Y-53029315D01*
X37584585Y-53078400D01*
X37641072Y-53153903D01*
X37665434Y-53244996D01*
X37654176Y-53338616D01*
X37608914Y-53421337D01*
X37602155Y-53429507D01*
X37586369Y-53446855D01*
X37375656Y-53657569D01*
X37324086Y-53697140D01*
X37264032Y-53722015D01*
X37199586Y-53730500D01*
X35913187Y-53730500D01*
X35907942Y-53730252D01*
X35899332Y-53728328D01*
X35883671Y-53728820D01*
X35834118Y-53730377D01*
X35826298Y-53730500D01*
X35800650Y-53730500D01*
X35792900Y-53731478D01*
X35790660Y-53731619D01*
X35782871Y-53731986D01*
X35757031Y-53732798D01*
X35757025Y-53732798D01*
X35741373Y-53733291D01*
X35726333Y-53737659D01*
X35717355Y-53739082D01*
X35707529Y-53741116D01*
X35698734Y-53743374D01*
X35683208Y-53745336D01*
X35668656Y-53751097D01*
X35668642Y-53751101D01*
X35648061Y-53759250D01*
X35625883Y-53766844D01*
X35605255Y-53772837D01*
X35589610Y-53777383D01*
X35576128Y-53785355D01*
X35567778Y-53788969D01*
X35558783Y-53793375D01*
X35550823Y-53797750D01*
X35536268Y-53803514D01*
X35523601Y-53812716D01*
X35523595Y-53812720D01*
X35505695Y-53825725D01*
X35486099Y-53838597D01*
X35467065Y-53849853D01*
X35467058Y-53849858D01*
X35453579Y-53857830D01*
X35442503Y-53868905D01*
X35435319Y-53874478D01*
X35427713Y-53880974D01*
X35421081Y-53887201D01*
X35408413Y-53896406D01*
X35398433Y-53908469D01*
X35398426Y-53908476D01*
X35384334Y-53925511D01*
X35368552Y-53942854D01*
X35302571Y-54008836D01*
X35234539Y-54057109D01*
X35154380Y-54080202D01*
X35071093Y-54075525D01*
X34994025Y-54043603D01*
X34931824Y-53988017D01*
X34891473Y-53915008D01*
X34877500Y-53832768D01*
X34877500Y-53503413D01*
X34896454Y-53408125D01*
X34950430Y-53327344D01*
X36693430Y-51584342D01*
X36774212Y-51530365D01*
X36869500Y-51511411D01*
X36964788Y-51530365D01*
G37*
%TD.AperFunction*%
%TA.AperFunction,Conductor*%
G36*
X49015288Y-48659954D02*
G01*
X49096070Y-48713930D01*
X49150046Y-48794712D01*
X49169000Y-48890000D01*
X49169000Y-50628750D01*
X49150046Y-50724038D01*
X49096070Y-50804820D01*
X49015288Y-50858796D01*
X48920000Y-50877750D01*
X48762062Y-50877750D01*
X48697616Y-50869266D01*
X48637562Y-50844390D01*
X48585992Y-50804819D01*
X48185389Y-50404216D01*
X47738880Y-49957706D01*
X47735346Y-49953822D01*
X47730619Y-49946373D01*
X47683069Y-49901720D01*
X47677452Y-49896278D01*
X47664830Y-49883656D01*
X47664829Y-49883655D01*
X47659304Y-49878130D01*
X47653128Y-49873339D01*
X47651462Y-49871870D01*
X47645683Y-49866611D01*
X47626833Y-49848910D01*
X47626832Y-49848909D01*
X47615415Y-49838188D01*
X47601691Y-49830643D01*
X47594341Y-49825303D01*
X47585979Y-49819810D01*
X47578145Y-49815176D01*
X47565769Y-49805577D01*
X47551395Y-49799356D01*
X47551389Y-49799353D01*
X47531086Y-49790567D01*
X47510030Y-49780252D01*
X47490651Y-49769599D01*
X47490652Y-49769599D01*
X47476925Y-49762053D01*
X47461757Y-49758158D01*
X47453280Y-49754802D01*
X47443850Y-49751574D01*
X47435104Y-49749032D01*
X47420729Y-49742812D01*
X47405263Y-49740362D01*
X47405252Y-49740359D01*
X47383405Y-49736899D01*
X47360446Y-49732145D01*
X47339025Y-49726645D01*
X47339020Y-49726644D01*
X47323852Y-49722750D01*
X47308191Y-49722750D01*
X47299143Y-49721607D01*
X47289206Y-49720825D01*
X47280100Y-49720539D01*
X47264637Y-49718090D01*
X47227028Y-49721645D01*
X47203597Y-49722750D01*
X43981949Y-49722750D01*
X43976695Y-49722502D01*
X43968083Y-49720577D01*
X43952424Y-49721069D01*
X43902850Y-49722627D01*
X43895029Y-49722750D01*
X43869400Y-49722750D01*
X43861641Y-49723729D01*
X43859424Y-49723869D01*
X43851628Y-49724236D01*
X43825780Y-49725048D01*
X43825773Y-49725048D01*
X43810123Y-49725541D01*
X43795082Y-49729910D01*
X43786072Y-49731338D01*
X43776305Y-49733360D01*
X43767486Y-49735624D01*
X43751958Y-49737586D01*
X43737399Y-49743349D01*
X43737391Y-49743352D01*
X43716820Y-49751496D01*
X43694646Y-49759088D01*
X43673403Y-49765260D01*
X43673393Y-49765264D01*
X43658360Y-49769632D01*
X43644883Y-49777601D01*
X43636551Y-49781207D01*
X43627520Y-49785631D01*
X43619569Y-49790001D01*
X43605018Y-49795764D01*
X43574439Y-49817979D01*
X43554855Y-49830844D01*
X43535816Y-49842103D01*
X43535809Y-49842107D01*
X43522330Y-49850080D01*
X43511255Y-49861153D01*
X43504059Y-49866736D01*
X43496466Y-49873221D01*
X43489831Y-49879451D01*
X43477163Y-49888656D01*
X43467179Y-49900724D01*
X43467174Y-49900729D01*
X43453085Y-49917760D01*
X43437302Y-49935105D01*
X42907839Y-50464569D01*
X42856269Y-50504140D01*
X42796215Y-50529016D01*
X42731769Y-50537500D01*
X42635174Y-50537500D01*
X42546877Y-50521319D01*
X42470056Y-50474879D01*
X42414695Y-50404216D01*
X42387989Y-50318513D01*
X42393410Y-50228910D01*
X42415894Y-50137685D01*
X42419500Y-50123056D01*
X42419500Y-49952944D01*
X42378790Y-49787775D01*
X42299734Y-49637148D01*
X42186929Y-49509817D01*
X42046930Y-49413182D01*
X42032847Y-49407841D01*
X41901959Y-49358202D01*
X41901955Y-49358201D01*
X41887872Y-49352860D01*
X41872920Y-49351044D01*
X41872914Y-49351043D01*
X41768839Y-49338406D01*
X41768828Y-49338405D01*
X41761372Y-49337500D01*
X41676628Y-49337500D01*
X41669172Y-49338405D01*
X41669160Y-49338406D01*
X41565085Y-49351043D01*
X41565077Y-49351044D01*
X41550128Y-49352860D01*
X41536046Y-49358200D01*
X41536040Y-49358202D01*
X41405152Y-49407841D01*
X41405148Y-49407842D01*
X41391070Y-49413182D01*
X41378678Y-49421734D01*
X41378677Y-49421736D01*
X41263464Y-49501262D01*
X41263460Y-49501265D01*
X41251071Y-49509817D01*
X41241087Y-49521086D01*
X41241082Y-49521091D01*
X41148257Y-49625870D01*
X41138266Y-49637148D01*
X41131268Y-49650480D01*
X41131264Y-49650487D01*
X41066207Y-49774442D01*
X41066204Y-49774447D01*
X41059210Y-49787775D01*
X41055608Y-49802385D01*
X41055606Y-49802393D01*
X41022104Y-49938319D01*
X41022103Y-49938324D01*
X41018500Y-49952944D01*
X41018500Y-50123056D01*
X41022103Y-50137676D01*
X41022104Y-50137680D01*
X41055606Y-50273606D01*
X41055608Y-50273611D01*
X41059210Y-50288225D01*
X41066206Y-50301555D01*
X41066207Y-50301557D01*
X41131264Y-50425512D01*
X41131266Y-50425515D01*
X41138266Y-50438852D01*
X41251071Y-50566183D01*
X41391070Y-50662818D01*
X41463564Y-50690311D01*
X41534023Y-50731302D01*
X41587468Y-50792852D01*
X41618171Y-50868364D01*
X41622841Y-50949746D01*
X41619213Y-50983487D01*
X41619212Y-50983503D01*
X41618500Y-50990127D01*
X41618500Y-50996788D01*
X41618500Y-50996797D01*
X41618500Y-52579211D01*
X41618500Y-52579229D01*
X41618501Y-52585872D01*
X41619211Y-52592481D01*
X41619212Y-52592491D01*
X41623243Y-52629993D01*
X41623244Y-52629998D01*
X41624909Y-52645483D01*
X41675204Y-52780331D01*
X41685872Y-52794582D01*
X41685874Y-52794585D01*
X41759653Y-52893141D01*
X41800210Y-52975628D01*
X41808076Y-53067209D01*
X41782180Y-53155404D01*
X41726051Y-53228195D01*
X41647337Y-53275662D01*
X41622353Y-53284980D01*
X41622345Y-53284984D01*
X41605669Y-53291204D01*
X41591420Y-53301870D01*
X41591414Y-53301874D01*
X41504714Y-53366778D01*
X41504710Y-53366781D01*
X41490454Y-53377454D01*
X41479781Y-53391710D01*
X41479778Y-53391714D01*
X41414874Y-53478414D01*
X41414870Y-53478420D01*
X41404204Y-53492669D01*
X41397984Y-53509345D01*
X41397981Y-53509351D01*
X41381301Y-53554075D01*
X41337835Y-53628191D01*
X41271766Y-53683121D01*
X41190961Y-53712325D01*
X41105039Y-53712325D01*
X41024234Y-53683121D01*
X40958165Y-53628191D01*
X40914699Y-53554075D01*
X40898018Y-53509351D01*
X40898017Y-53509350D01*
X40891796Y-53492669D01*
X40856836Y-53445969D01*
X40816221Y-53391714D01*
X40805546Y-53377454D01*
X40761616Y-53344568D01*
X40704585Y-53301874D01*
X40704582Y-53301872D01*
X40690331Y-53291204D01*
X40639514Y-53272250D01*
X40570073Y-53246350D01*
X40570067Y-53246348D01*
X40555483Y-53240909D01*
X40539998Y-53239244D01*
X40502507Y-53235213D01*
X40502502Y-53235212D01*
X40495873Y-53234500D01*
X40489202Y-53234500D01*
X40420247Y-53234500D01*
X40330460Y-53217748D01*
X40252754Y-53169747D01*
X40197584Y-53096956D01*
X40172374Y-53009167D01*
X40180516Y-52918195D01*
X40220914Y-52836278D01*
X40233592Y-52819342D01*
X40262796Y-52780331D01*
X40313091Y-52645483D01*
X40319500Y-52585873D01*
X40319499Y-50990128D01*
X40313091Y-50930517D01*
X40262796Y-50795669D01*
X40219164Y-50737384D01*
X40182243Y-50666801D01*
X40169500Y-50588166D01*
X40169500Y-49769474D01*
X40169747Y-49764219D01*
X40171673Y-49755607D01*
X40169622Y-49690360D01*
X40169500Y-49682541D01*
X40169500Y-49664750D01*
X40169500Y-49656924D01*
X40168518Y-49649155D01*
X40168383Y-49647004D01*
X40168015Y-49639208D01*
X40166710Y-49597647D01*
X40162337Y-49582599D01*
X40160910Y-49573583D01*
X40158899Y-49563873D01*
X40156627Y-49555025D01*
X40154664Y-49539482D01*
X40140753Y-49504347D01*
X40133159Y-49482168D01*
X40122618Y-49445884D01*
X40114645Y-49432402D01*
X40111029Y-49424046D01*
X40106642Y-49415091D01*
X40102253Y-49407107D01*
X40096486Y-49392542D01*
X40074270Y-49361965D01*
X40061403Y-49342377D01*
X40042170Y-49309854D01*
X40031093Y-49298777D01*
X40025510Y-49291579D01*
X40019048Y-49284012D01*
X40012801Y-49277360D01*
X40003594Y-49264687D01*
X39991522Y-49254700D01*
X39991520Y-49254698D01*
X39974491Y-49240611D01*
X39957139Y-49224823D01*
X39798386Y-49066070D01*
X39744410Y-48985288D01*
X39725456Y-48890000D01*
X39744410Y-48794712D01*
X39798386Y-48713930D01*
X39879168Y-48659954D01*
X39974456Y-48641000D01*
X48920000Y-48641000D01*
X49015288Y-48659954D01*
G37*
%TD.AperFunction*%
%TD*%
M02*
