%TF.GenerationSoftware,KiCad,Pcbnew,(7.0.0)*%
%TF.CreationDate,2023-02-21T16:48:07-06:00*%
%TF.ProjectId,stick-and-slip_v1,73746963-6b2d-4616-9e64-2d736c69705f,rev?*%
%TF.SameCoordinates,Original*%
%TF.FileFunction,Legend,Top*%
%TF.FilePolarity,Positive*%
%FSLAX46Y46*%
G04 Gerber Fmt 4.6, Leading zero omitted, Abs format (unit mm)*
G04 Created by KiCad (PCBNEW (7.0.0)) date 2023-02-21 16:48:07*
%MOMM*%
%LPD*%
G01*
G04 APERTURE LIST*
%ADD10C,0.150000*%
%ADD11C,0.120000*%
%ADD12C,0.127000*%
%ADD13C,0.254000*%
G04 APERTURE END LIST*
D10*
%TO.C,J4*%
X51228666Y-56009380D02*
X51228666Y-56723666D01*
X51228666Y-56723666D02*
X51181047Y-56866523D01*
X51181047Y-56866523D02*
X51085809Y-56961761D01*
X51085809Y-56961761D02*
X50942952Y-57009380D01*
X50942952Y-57009380D02*
X50847714Y-57009380D01*
X52133428Y-56342714D02*
X52133428Y-57009380D01*
X51895333Y-55961761D02*
X51657238Y-56676047D01*
X51657238Y-56676047D02*
X52276285Y-56676047D01*
%TO.C,J3*%
X51101666Y-58168380D02*
X51101666Y-58882666D01*
X51101666Y-58882666D02*
X51054047Y-59025523D01*
X51054047Y-59025523D02*
X50958809Y-59120761D01*
X50958809Y-59120761D02*
X50815952Y-59168380D01*
X50815952Y-59168380D02*
X50720714Y-59168380D01*
X51482619Y-58168380D02*
X52101666Y-58168380D01*
X52101666Y-58168380D02*
X51768333Y-58549333D01*
X51768333Y-58549333D02*
X51911190Y-58549333D01*
X51911190Y-58549333D02*
X52006428Y-58596952D01*
X52006428Y-58596952D02*
X52054047Y-58644571D01*
X52054047Y-58644571D02*
X52101666Y-58739809D01*
X52101666Y-58739809D02*
X52101666Y-58977904D01*
X52101666Y-58977904D02*
X52054047Y-59073142D01*
X52054047Y-59073142D02*
X52006428Y-59120761D01*
X52006428Y-59120761D02*
X51911190Y-59168380D01*
X51911190Y-59168380D02*
X51625476Y-59168380D01*
X51625476Y-59168380D02*
X51530238Y-59120761D01*
X51530238Y-59120761D02*
X51482619Y-59073142D01*
%TO.C,U1*%
X48133095Y-49786380D02*
X48133095Y-50595904D01*
X48133095Y-50595904D02*
X48180714Y-50691142D01*
X48180714Y-50691142D02*
X48228333Y-50738761D01*
X48228333Y-50738761D02*
X48323571Y-50786380D01*
X48323571Y-50786380D02*
X48514047Y-50786380D01*
X48514047Y-50786380D02*
X48609285Y-50738761D01*
X48609285Y-50738761D02*
X48656904Y-50691142D01*
X48656904Y-50691142D02*
X48704523Y-50595904D01*
X48704523Y-50595904D02*
X48704523Y-49786380D01*
X49704523Y-50786380D02*
X49133095Y-50786380D01*
X49418809Y-50786380D02*
X49418809Y-49786380D01*
X49418809Y-49786380D02*
X49323571Y-49929238D01*
X49323571Y-49929238D02*
X49228333Y-50024476D01*
X49228333Y-50024476D02*
X49133095Y-50072095D01*
%TO.C,J1*%
X65198666Y-71503380D02*
X65198666Y-72217666D01*
X65198666Y-72217666D02*
X65151047Y-72360523D01*
X65151047Y-72360523D02*
X65055809Y-72455761D01*
X65055809Y-72455761D02*
X64912952Y-72503380D01*
X64912952Y-72503380D02*
X64817714Y-72503380D01*
X66198666Y-72503380D02*
X65627238Y-72503380D01*
X65912952Y-72503380D02*
X65912952Y-71503380D01*
X65912952Y-71503380D02*
X65817714Y-71646238D01*
X65817714Y-71646238D02*
X65722476Y-71741476D01*
X65722476Y-71741476D02*
X65627238Y-71789095D01*
%TO.C,S1*%
X34798095Y-50416761D02*
X34940952Y-50464380D01*
X34940952Y-50464380D02*
X35179047Y-50464380D01*
X35179047Y-50464380D02*
X35274285Y-50416761D01*
X35274285Y-50416761D02*
X35321904Y-50369142D01*
X35321904Y-50369142D02*
X35369523Y-50273904D01*
X35369523Y-50273904D02*
X35369523Y-50178666D01*
X35369523Y-50178666D02*
X35321904Y-50083428D01*
X35321904Y-50083428D02*
X35274285Y-50035809D01*
X35274285Y-50035809D02*
X35179047Y-49988190D01*
X35179047Y-49988190D02*
X34988571Y-49940571D01*
X34988571Y-49940571D02*
X34893333Y-49892952D01*
X34893333Y-49892952D02*
X34845714Y-49845333D01*
X34845714Y-49845333D02*
X34798095Y-49750095D01*
X34798095Y-49750095D02*
X34798095Y-49654857D01*
X34798095Y-49654857D02*
X34845714Y-49559619D01*
X34845714Y-49559619D02*
X34893333Y-49512000D01*
X34893333Y-49512000D02*
X34988571Y-49464380D01*
X34988571Y-49464380D02*
X35226666Y-49464380D01*
X35226666Y-49464380D02*
X35369523Y-49512000D01*
X36321904Y-50464380D02*
X35750476Y-50464380D01*
X36036190Y-50464380D02*
X36036190Y-49464380D01*
X36036190Y-49464380D02*
X35940952Y-49607238D01*
X35940952Y-49607238D02*
X35845714Y-49702476D01*
X35845714Y-49702476D02*
X35750476Y-49750095D01*
%TO.C,D8*%
X42949905Y-59168380D02*
X42949905Y-58168380D01*
X42949905Y-58168380D02*
X43188000Y-58168380D01*
X43188000Y-58168380D02*
X43330857Y-58216000D01*
X43330857Y-58216000D02*
X43426095Y-58311238D01*
X43426095Y-58311238D02*
X43473714Y-58406476D01*
X43473714Y-58406476D02*
X43521333Y-58596952D01*
X43521333Y-58596952D02*
X43521333Y-58739809D01*
X43521333Y-58739809D02*
X43473714Y-58930285D01*
X43473714Y-58930285D02*
X43426095Y-59025523D01*
X43426095Y-59025523D02*
X43330857Y-59120761D01*
X43330857Y-59120761D02*
X43188000Y-59168380D01*
X43188000Y-59168380D02*
X42949905Y-59168380D01*
X44092762Y-58596952D02*
X43997524Y-58549333D01*
X43997524Y-58549333D02*
X43949905Y-58501714D01*
X43949905Y-58501714D02*
X43902286Y-58406476D01*
X43902286Y-58406476D02*
X43902286Y-58358857D01*
X43902286Y-58358857D02*
X43949905Y-58263619D01*
X43949905Y-58263619D02*
X43997524Y-58216000D01*
X43997524Y-58216000D02*
X44092762Y-58168380D01*
X44092762Y-58168380D02*
X44283238Y-58168380D01*
X44283238Y-58168380D02*
X44378476Y-58216000D01*
X44378476Y-58216000D02*
X44426095Y-58263619D01*
X44426095Y-58263619D02*
X44473714Y-58358857D01*
X44473714Y-58358857D02*
X44473714Y-58406476D01*
X44473714Y-58406476D02*
X44426095Y-58501714D01*
X44426095Y-58501714D02*
X44378476Y-58549333D01*
X44378476Y-58549333D02*
X44283238Y-58596952D01*
X44283238Y-58596952D02*
X44092762Y-58596952D01*
X44092762Y-58596952D02*
X43997524Y-58644571D01*
X43997524Y-58644571D02*
X43949905Y-58692190D01*
X43949905Y-58692190D02*
X43902286Y-58787428D01*
X43902286Y-58787428D02*
X43902286Y-58977904D01*
X43902286Y-58977904D02*
X43949905Y-59073142D01*
X43949905Y-59073142D02*
X43997524Y-59120761D01*
X43997524Y-59120761D02*
X44092762Y-59168380D01*
X44092762Y-59168380D02*
X44283238Y-59168380D01*
X44283238Y-59168380D02*
X44378476Y-59120761D01*
X44378476Y-59120761D02*
X44426095Y-59073142D01*
X44426095Y-59073142D02*
X44473714Y-58977904D01*
X44473714Y-58977904D02*
X44473714Y-58787428D01*
X44473714Y-58787428D02*
X44426095Y-58692190D01*
X44426095Y-58692190D02*
X44378476Y-58644571D01*
X44378476Y-58644571D02*
X44283238Y-58596952D01*
%TO.C,U4*%
X42926095Y-54485380D02*
X42926095Y-55294904D01*
X42926095Y-55294904D02*
X42973714Y-55390142D01*
X42973714Y-55390142D02*
X43021333Y-55437761D01*
X43021333Y-55437761D02*
X43116571Y-55485380D01*
X43116571Y-55485380D02*
X43307047Y-55485380D01*
X43307047Y-55485380D02*
X43402285Y-55437761D01*
X43402285Y-55437761D02*
X43449904Y-55390142D01*
X43449904Y-55390142D02*
X43497523Y-55294904D01*
X43497523Y-55294904D02*
X43497523Y-54485380D01*
X44402285Y-54818714D02*
X44402285Y-55485380D01*
X44164190Y-54437761D02*
X43926095Y-55152047D01*
X43926095Y-55152047D02*
X44545142Y-55152047D01*
%TO.C,U3*%
X35687095Y-63375380D02*
X35687095Y-64184904D01*
X35687095Y-64184904D02*
X35734714Y-64280142D01*
X35734714Y-64280142D02*
X35782333Y-64327761D01*
X35782333Y-64327761D02*
X35877571Y-64375380D01*
X35877571Y-64375380D02*
X36068047Y-64375380D01*
X36068047Y-64375380D02*
X36163285Y-64327761D01*
X36163285Y-64327761D02*
X36210904Y-64280142D01*
X36210904Y-64280142D02*
X36258523Y-64184904D01*
X36258523Y-64184904D02*
X36258523Y-63375380D01*
X36639476Y-63375380D02*
X37258523Y-63375380D01*
X37258523Y-63375380D02*
X36925190Y-63756333D01*
X36925190Y-63756333D02*
X37068047Y-63756333D01*
X37068047Y-63756333D02*
X37163285Y-63803952D01*
X37163285Y-63803952D02*
X37210904Y-63851571D01*
X37210904Y-63851571D02*
X37258523Y-63946809D01*
X37258523Y-63946809D02*
X37258523Y-64184904D01*
X37258523Y-64184904D02*
X37210904Y-64280142D01*
X37210904Y-64280142D02*
X37163285Y-64327761D01*
X37163285Y-64327761D02*
X37068047Y-64375380D01*
X37068047Y-64375380D02*
X36782333Y-64375380D01*
X36782333Y-64375380D02*
X36687095Y-64327761D01*
X36687095Y-64327761D02*
X36639476Y-64280142D01*
%TO.C,U2*%
X71374095Y-64010380D02*
X71374095Y-64819904D01*
X71374095Y-64819904D02*
X71421714Y-64915142D01*
X71421714Y-64915142D02*
X71469333Y-64962761D01*
X71469333Y-64962761D02*
X71564571Y-65010380D01*
X71564571Y-65010380D02*
X71755047Y-65010380D01*
X71755047Y-65010380D02*
X71850285Y-64962761D01*
X71850285Y-64962761D02*
X71897904Y-64915142D01*
X71897904Y-64915142D02*
X71945523Y-64819904D01*
X71945523Y-64819904D02*
X71945523Y-64010380D01*
X72374095Y-64105619D02*
X72421714Y-64058000D01*
X72421714Y-64058000D02*
X72516952Y-64010380D01*
X72516952Y-64010380D02*
X72755047Y-64010380D01*
X72755047Y-64010380D02*
X72850285Y-64058000D01*
X72850285Y-64058000D02*
X72897904Y-64105619D01*
X72897904Y-64105619D02*
X72945523Y-64200857D01*
X72945523Y-64200857D02*
X72945523Y-64296095D01*
X72945523Y-64296095D02*
X72897904Y-64438952D01*
X72897904Y-64438952D02*
X72326476Y-65010380D01*
X72326476Y-65010380D02*
X72945523Y-65010380D01*
%TO.C,R8*%
X43521333Y-57517380D02*
X43188000Y-57041190D01*
X42949905Y-57517380D02*
X42949905Y-56517380D01*
X42949905Y-56517380D02*
X43330857Y-56517380D01*
X43330857Y-56517380D02*
X43426095Y-56565000D01*
X43426095Y-56565000D02*
X43473714Y-56612619D01*
X43473714Y-56612619D02*
X43521333Y-56707857D01*
X43521333Y-56707857D02*
X43521333Y-56850714D01*
X43521333Y-56850714D02*
X43473714Y-56945952D01*
X43473714Y-56945952D02*
X43426095Y-56993571D01*
X43426095Y-56993571D02*
X43330857Y-57041190D01*
X43330857Y-57041190D02*
X42949905Y-57041190D01*
X44092762Y-56945952D02*
X43997524Y-56898333D01*
X43997524Y-56898333D02*
X43949905Y-56850714D01*
X43949905Y-56850714D02*
X43902286Y-56755476D01*
X43902286Y-56755476D02*
X43902286Y-56707857D01*
X43902286Y-56707857D02*
X43949905Y-56612619D01*
X43949905Y-56612619D02*
X43997524Y-56565000D01*
X43997524Y-56565000D02*
X44092762Y-56517380D01*
X44092762Y-56517380D02*
X44283238Y-56517380D01*
X44283238Y-56517380D02*
X44378476Y-56565000D01*
X44378476Y-56565000D02*
X44426095Y-56612619D01*
X44426095Y-56612619D02*
X44473714Y-56707857D01*
X44473714Y-56707857D02*
X44473714Y-56755476D01*
X44473714Y-56755476D02*
X44426095Y-56850714D01*
X44426095Y-56850714D02*
X44378476Y-56898333D01*
X44378476Y-56898333D02*
X44283238Y-56945952D01*
X44283238Y-56945952D02*
X44092762Y-56945952D01*
X44092762Y-56945952D02*
X43997524Y-56993571D01*
X43997524Y-56993571D02*
X43949905Y-57041190D01*
X43949905Y-57041190D02*
X43902286Y-57136428D01*
X43902286Y-57136428D02*
X43902286Y-57326904D01*
X43902286Y-57326904D02*
X43949905Y-57422142D01*
X43949905Y-57422142D02*
X43997524Y-57469761D01*
X43997524Y-57469761D02*
X44092762Y-57517380D01*
X44092762Y-57517380D02*
X44283238Y-57517380D01*
X44283238Y-57517380D02*
X44378476Y-57469761D01*
X44378476Y-57469761D02*
X44426095Y-57422142D01*
X44426095Y-57422142D02*
X44473714Y-57326904D01*
X44473714Y-57326904D02*
X44473714Y-57136428D01*
X44473714Y-57136428D02*
X44426095Y-57041190D01*
X44426095Y-57041190D02*
X44378476Y-56993571D01*
X44378476Y-56993571D02*
X44283238Y-56945952D01*
%TO.C,R7*%
X33107333Y-57644380D02*
X32774000Y-57168190D01*
X32535905Y-57644380D02*
X32535905Y-56644380D01*
X32535905Y-56644380D02*
X32916857Y-56644380D01*
X32916857Y-56644380D02*
X33012095Y-56692000D01*
X33012095Y-56692000D02*
X33059714Y-56739619D01*
X33059714Y-56739619D02*
X33107333Y-56834857D01*
X33107333Y-56834857D02*
X33107333Y-56977714D01*
X33107333Y-56977714D02*
X33059714Y-57072952D01*
X33059714Y-57072952D02*
X33012095Y-57120571D01*
X33012095Y-57120571D02*
X32916857Y-57168190D01*
X32916857Y-57168190D02*
X32535905Y-57168190D01*
X33440667Y-56644380D02*
X34107333Y-56644380D01*
X34107333Y-56644380D02*
X33678762Y-57644380D01*
%TO.C,R6*%
X43648333Y-67042380D02*
X43315000Y-66566190D01*
X43076905Y-67042380D02*
X43076905Y-66042380D01*
X43076905Y-66042380D02*
X43457857Y-66042380D01*
X43457857Y-66042380D02*
X43553095Y-66090000D01*
X43553095Y-66090000D02*
X43600714Y-66137619D01*
X43600714Y-66137619D02*
X43648333Y-66232857D01*
X43648333Y-66232857D02*
X43648333Y-66375714D01*
X43648333Y-66375714D02*
X43600714Y-66470952D01*
X43600714Y-66470952D02*
X43553095Y-66518571D01*
X43553095Y-66518571D02*
X43457857Y-66566190D01*
X43457857Y-66566190D02*
X43076905Y-66566190D01*
X44505476Y-66042380D02*
X44315000Y-66042380D01*
X44315000Y-66042380D02*
X44219762Y-66090000D01*
X44219762Y-66090000D02*
X44172143Y-66137619D01*
X44172143Y-66137619D02*
X44076905Y-66280476D01*
X44076905Y-66280476D02*
X44029286Y-66470952D01*
X44029286Y-66470952D02*
X44029286Y-66851904D01*
X44029286Y-66851904D02*
X44076905Y-66947142D01*
X44076905Y-66947142D02*
X44124524Y-66994761D01*
X44124524Y-66994761D02*
X44219762Y-67042380D01*
X44219762Y-67042380D02*
X44410238Y-67042380D01*
X44410238Y-67042380D02*
X44505476Y-66994761D01*
X44505476Y-66994761D02*
X44553095Y-66947142D01*
X44553095Y-66947142D02*
X44600714Y-66851904D01*
X44600714Y-66851904D02*
X44600714Y-66613809D01*
X44600714Y-66613809D02*
X44553095Y-66518571D01*
X44553095Y-66518571D02*
X44505476Y-66470952D01*
X44505476Y-66470952D02*
X44410238Y-66423333D01*
X44410238Y-66423333D02*
X44219762Y-66423333D01*
X44219762Y-66423333D02*
X44124524Y-66470952D01*
X44124524Y-66470952D02*
X44076905Y-66518571D01*
X44076905Y-66518571D02*
X44029286Y-66613809D01*
%TO.C,R5*%
X34250333Y-67042380D02*
X33917000Y-66566190D01*
X33678905Y-67042380D02*
X33678905Y-66042380D01*
X33678905Y-66042380D02*
X34059857Y-66042380D01*
X34059857Y-66042380D02*
X34155095Y-66090000D01*
X34155095Y-66090000D02*
X34202714Y-66137619D01*
X34202714Y-66137619D02*
X34250333Y-66232857D01*
X34250333Y-66232857D02*
X34250333Y-66375714D01*
X34250333Y-66375714D02*
X34202714Y-66470952D01*
X34202714Y-66470952D02*
X34155095Y-66518571D01*
X34155095Y-66518571D02*
X34059857Y-66566190D01*
X34059857Y-66566190D02*
X33678905Y-66566190D01*
X35155095Y-66042380D02*
X34678905Y-66042380D01*
X34678905Y-66042380D02*
X34631286Y-66518571D01*
X34631286Y-66518571D02*
X34678905Y-66470952D01*
X34678905Y-66470952D02*
X34774143Y-66423333D01*
X34774143Y-66423333D02*
X35012238Y-66423333D01*
X35012238Y-66423333D02*
X35107476Y-66470952D01*
X35107476Y-66470952D02*
X35155095Y-66518571D01*
X35155095Y-66518571D02*
X35202714Y-66613809D01*
X35202714Y-66613809D02*
X35202714Y-66851904D01*
X35202714Y-66851904D02*
X35155095Y-66947142D01*
X35155095Y-66947142D02*
X35107476Y-66994761D01*
X35107476Y-66994761D02*
X35012238Y-67042380D01*
X35012238Y-67042380D02*
X34774143Y-67042380D01*
X34774143Y-67042380D02*
X34678905Y-66994761D01*
X34678905Y-66994761D02*
X34631286Y-66947142D01*
%TO.C,R4*%
X73366333Y-67804380D02*
X73033000Y-67328190D01*
X72794905Y-67804380D02*
X72794905Y-66804380D01*
X72794905Y-66804380D02*
X73175857Y-66804380D01*
X73175857Y-66804380D02*
X73271095Y-66852000D01*
X73271095Y-66852000D02*
X73318714Y-66899619D01*
X73318714Y-66899619D02*
X73366333Y-66994857D01*
X73366333Y-66994857D02*
X73366333Y-67137714D01*
X73366333Y-67137714D02*
X73318714Y-67232952D01*
X73318714Y-67232952D02*
X73271095Y-67280571D01*
X73271095Y-67280571D02*
X73175857Y-67328190D01*
X73175857Y-67328190D02*
X72794905Y-67328190D01*
X74223476Y-67137714D02*
X74223476Y-67804380D01*
X73985381Y-66756761D02*
X73747286Y-67471047D01*
X73747286Y-67471047D02*
X74366333Y-67471047D01*
%TO.C,R3*%
X64603333Y-67804380D02*
X64270000Y-67328190D01*
X64031905Y-67804380D02*
X64031905Y-66804380D01*
X64031905Y-66804380D02*
X64412857Y-66804380D01*
X64412857Y-66804380D02*
X64508095Y-66852000D01*
X64508095Y-66852000D02*
X64555714Y-66899619D01*
X64555714Y-66899619D02*
X64603333Y-66994857D01*
X64603333Y-66994857D02*
X64603333Y-67137714D01*
X64603333Y-67137714D02*
X64555714Y-67232952D01*
X64555714Y-67232952D02*
X64508095Y-67280571D01*
X64508095Y-67280571D02*
X64412857Y-67328190D01*
X64412857Y-67328190D02*
X64031905Y-67328190D01*
X64936667Y-66804380D02*
X65555714Y-66804380D01*
X65555714Y-66804380D02*
X65222381Y-67185333D01*
X65222381Y-67185333D02*
X65365238Y-67185333D01*
X65365238Y-67185333D02*
X65460476Y-67232952D01*
X65460476Y-67232952D02*
X65508095Y-67280571D01*
X65508095Y-67280571D02*
X65555714Y-67375809D01*
X65555714Y-67375809D02*
X65555714Y-67613904D01*
X65555714Y-67613904D02*
X65508095Y-67709142D01*
X65508095Y-67709142D02*
X65460476Y-67756761D01*
X65460476Y-67756761D02*
X65365238Y-67804380D01*
X65365238Y-67804380D02*
X65079524Y-67804380D01*
X65079524Y-67804380D02*
X64984286Y-67756761D01*
X64984286Y-67756761D02*
X64936667Y-67709142D01*
%TO.C,R2*%
X64984333Y-59549380D02*
X64651000Y-59073190D01*
X64412905Y-59549380D02*
X64412905Y-58549380D01*
X64412905Y-58549380D02*
X64793857Y-58549380D01*
X64793857Y-58549380D02*
X64889095Y-58597000D01*
X64889095Y-58597000D02*
X64936714Y-58644619D01*
X64936714Y-58644619D02*
X64984333Y-58739857D01*
X64984333Y-58739857D02*
X64984333Y-58882714D01*
X64984333Y-58882714D02*
X64936714Y-58977952D01*
X64936714Y-58977952D02*
X64889095Y-59025571D01*
X64889095Y-59025571D02*
X64793857Y-59073190D01*
X64793857Y-59073190D02*
X64412905Y-59073190D01*
X65365286Y-58644619D02*
X65412905Y-58597000D01*
X65412905Y-58597000D02*
X65508143Y-58549380D01*
X65508143Y-58549380D02*
X65746238Y-58549380D01*
X65746238Y-58549380D02*
X65841476Y-58597000D01*
X65841476Y-58597000D02*
X65889095Y-58644619D01*
X65889095Y-58644619D02*
X65936714Y-58739857D01*
X65936714Y-58739857D02*
X65936714Y-58835095D01*
X65936714Y-58835095D02*
X65889095Y-58977952D01*
X65889095Y-58977952D02*
X65317667Y-59549380D01*
X65317667Y-59549380D02*
X65936714Y-59549380D01*
%TO.C,R1*%
X64857333Y-57263380D02*
X64524000Y-56787190D01*
X64285905Y-57263380D02*
X64285905Y-56263380D01*
X64285905Y-56263380D02*
X64666857Y-56263380D01*
X64666857Y-56263380D02*
X64762095Y-56311000D01*
X64762095Y-56311000D02*
X64809714Y-56358619D01*
X64809714Y-56358619D02*
X64857333Y-56453857D01*
X64857333Y-56453857D02*
X64857333Y-56596714D01*
X64857333Y-56596714D02*
X64809714Y-56691952D01*
X64809714Y-56691952D02*
X64762095Y-56739571D01*
X64762095Y-56739571D02*
X64666857Y-56787190D01*
X64666857Y-56787190D02*
X64285905Y-56787190D01*
X65809714Y-57263380D02*
X65238286Y-57263380D01*
X65524000Y-57263380D02*
X65524000Y-56263380D01*
X65524000Y-56263380D02*
X65428762Y-56406238D01*
X65428762Y-56406238D02*
X65333524Y-56501476D01*
X65333524Y-56501476D02*
X65238286Y-56549095D01*
%TO.C,J9*%
X72183666Y-53596380D02*
X72183666Y-54310666D01*
X72183666Y-54310666D02*
X72136047Y-54453523D01*
X72136047Y-54453523D02*
X72040809Y-54548761D01*
X72040809Y-54548761D02*
X71897952Y-54596380D01*
X71897952Y-54596380D02*
X71802714Y-54596380D01*
X72707476Y-54596380D02*
X72897952Y-54596380D01*
X72897952Y-54596380D02*
X72993190Y-54548761D01*
X72993190Y-54548761D02*
X73040809Y-54501142D01*
X73040809Y-54501142D02*
X73136047Y-54358285D01*
X73136047Y-54358285D02*
X73183666Y-54167809D01*
X73183666Y-54167809D02*
X73183666Y-53786857D01*
X73183666Y-53786857D02*
X73136047Y-53691619D01*
X73136047Y-53691619D02*
X73088428Y-53644000D01*
X73088428Y-53644000D02*
X72993190Y-53596380D01*
X72993190Y-53596380D02*
X72802714Y-53596380D01*
X72802714Y-53596380D02*
X72707476Y-53644000D01*
X72707476Y-53644000D02*
X72659857Y-53691619D01*
X72659857Y-53691619D02*
X72612238Y-53786857D01*
X72612238Y-53786857D02*
X72612238Y-54024952D01*
X72612238Y-54024952D02*
X72659857Y-54120190D01*
X72659857Y-54120190D02*
X72707476Y-54167809D01*
X72707476Y-54167809D02*
X72802714Y-54215428D01*
X72802714Y-54215428D02*
X72993190Y-54215428D01*
X72993190Y-54215428D02*
X73088428Y-54167809D01*
X73088428Y-54167809D02*
X73136047Y-54120190D01*
X73136047Y-54120190D02*
X73183666Y-54024952D01*
%TO.C,J8*%
X43100666Y-71630380D02*
X43100666Y-72344666D01*
X43100666Y-72344666D02*
X43053047Y-72487523D01*
X43053047Y-72487523D02*
X42957809Y-72582761D01*
X42957809Y-72582761D02*
X42814952Y-72630380D01*
X42814952Y-72630380D02*
X42719714Y-72630380D01*
X43719714Y-72058952D02*
X43624476Y-72011333D01*
X43624476Y-72011333D02*
X43576857Y-71963714D01*
X43576857Y-71963714D02*
X43529238Y-71868476D01*
X43529238Y-71868476D02*
X43529238Y-71820857D01*
X43529238Y-71820857D02*
X43576857Y-71725619D01*
X43576857Y-71725619D02*
X43624476Y-71678000D01*
X43624476Y-71678000D02*
X43719714Y-71630380D01*
X43719714Y-71630380D02*
X43910190Y-71630380D01*
X43910190Y-71630380D02*
X44005428Y-71678000D01*
X44005428Y-71678000D02*
X44053047Y-71725619D01*
X44053047Y-71725619D02*
X44100666Y-71820857D01*
X44100666Y-71820857D02*
X44100666Y-71868476D01*
X44100666Y-71868476D02*
X44053047Y-71963714D01*
X44053047Y-71963714D02*
X44005428Y-72011333D01*
X44005428Y-72011333D02*
X43910190Y-72058952D01*
X43910190Y-72058952D02*
X43719714Y-72058952D01*
X43719714Y-72058952D02*
X43624476Y-72106571D01*
X43624476Y-72106571D02*
X43576857Y-72154190D01*
X43576857Y-72154190D02*
X43529238Y-72249428D01*
X43529238Y-72249428D02*
X43529238Y-72439904D01*
X43529238Y-72439904D02*
X43576857Y-72535142D01*
X43576857Y-72535142D02*
X43624476Y-72582761D01*
X43624476Y-72582761D02*
X43719714Y-72630380D01*
X43719714Y-72630380D02*
X43910190Y-72630380D01*
X43910190Y-72630380D02*
X44005428Y-72582761D01*
X44005428Y-72582761D02*
X44053047Y-72535142D01*
X44053047Y-72535142D02*
X44100666Y-72439904D01*
X44100666Y-72439904D02*
X44100666Y-72249428D01*
X44100666Y-72249428D02*
X44053047Y-72154190D01*
X44053047Y-72154190D02*
X44005428Y-72106571D01*
X44005428Y-72106571D02*
X43910190Y-72058952D01*
%TO.C,J7*%
X35226666Y-71503380D02*
X35226666Y-72217666D01*
X35226666Y-72217666D02*
X35179047Y-72360523D01*
X35179047Y-72360523D02*
X35083809Y-72455761D01*
X35083809Y-72455761D02*
X34940952Y-72503380D01*
X34940952Y-72503380D02*
X34845714Y-72503380D01*
X35607619Y-71503380D02*
X36274285Y-71503380D01*
X36274285Y-71503380D02*
X35845714Y-72503380D01*
%TO.C,J6*%
X58340666Y-71503380D02*
X58340666Y-72217666D01*
X58340666Y-72217666D02*
X58293047Y-72360523D01*
X58293047Y-72360523D02*
X58197809Y-72455761D01*
X58197809Y-72455761D02*
X58054952Y-72503380D01*
X58054952Y-72503380D02*
X57959714Y-72503380D01*
X59245428Y-71503380D02*
X59054952Y-71503380D01*
X59054952Y-71503380D02*
X58959714Y-71551000D01*
X58959714Y-71551000D02*
X58912095Y-71598619D01*
X58912095Y-71598619D02*
X58816857Y-71741476D01*
X58816857Y-71741476D02*
X58769238Y-71931952D01*
X58769238Y-71931952D02*
X58769238Y-72312904D01*
X58769238Y-72312904D02*
X58816857Y-72408142D01*
X58816857Y-72408142D02*
X58864476Y-72455761D01*
X58864476Y-72455761D02*
X58959714Y-72503380D01*
X58959714Y-72503380D02*
X59150190Y-72503380D01*
X59150190Y-72503380D02*
X59245428Y-72455761D01*
X59245428Y-72455761D02*
X59293047Y-72408142D01*
X59293047Y-72408142D02*
X59340666Y-72312904D01*
X59340666Y-72312904D02*
X59340666Y-72074809D01*
X59340666Y-72074809D02*
X59293047Y-71979571D01*
X59293047Y-71979571D02*
X59245428Y-71931952D01*
X59245428Y-71931952D02*
X59150190Y-71884333D01*
X59150190Y-71884333D02*
X58959714Y-71884333D01*
X58959714Y-71884333D02*
X58864476Y-71931952D01*
X58864476Y-71931952D02*
X58816857Y-71979571D01*
X58816857Y-71979571D02*
X58769238Y-72074809D01*
%TO.C,J5*%
X50720666Y-71376380D02*
X50720666Y-72090666D01*
X50720666Y-72090666D02*
X50673047Y-72233523D01*
X50673047Y-72233523D02*
X50577809Y-72328761D01*
X50577809Y-72328761D02*
X50434952Y-72376380D01*
X50434952Y-72376380D02*
X50339714Y-72376380D01*
X51673047Y-71376380D02*
X51196857Y-71376380D01*
X51196857Y-71376380D02*
X51149238Y-71852571D01*
X51149238Y-71852571D02*
X51196857Y-71804952D01*
X51196857Y-71804952D02*
X51292095Y-71757333D01*
X51292095Y-71757333D02*
X51530190Y-71757333D01*
X51530190Y-71757333D02*
X51625428Y-71804952D01*
X51625428Y-71804952D02*
X51673047Y-71852571D01*
X51673047Y-71852571D02*
X51720666Y-71947809D01*
X51720666Y-71947809D02*
X51720666Y-72185904D01*
X51720666Y-72185904D02*
X51673047Y-72281142D01*
X51673047Y-72281142D02*
X51625428Y-72328761D01*
X51625428Y-72328761D02*
X51530190Y-72376380D01*
X51530190Y-72376380D02*
X51292095Y-72376380D01*
X51292095Y-72376380D02*
X51196857Y-72328761D01*
X51196857Y-72328761D02*
X51149238Y-72281142D01*
%TO.C,J2*%
X72945666Y-71630380D02*
X72945666Y-72344666D01*
X72945666Y-72344666D02*
X72898047Y-72487523D01*
X72898047Y-72487523D02*
X72802809Y-72582761D01*
X72802809Y-72582761D02*
X72659952Y-72630380D01*
X72659952Y-72630380D02*
X72564714Y-72630380D01*
X73374238Y-71725619D02*
X73421857Y-71678000D01*
X73421857Y-71678000D02*
X73517095Y-71630380D01*
X73517095Y-71630380D02*
X73755190Y-71630380D01*
X73755190Y-71630380D02*
X73850428Y-71678000D01*
X73850428Y-71678000D02*
X73898047Y-71725619D01*
X73898047Y-71725619D02*
X73945666Y-71820857D01*
X73945666Y-71820857D02*
X73945666Y-71916095D01*
X73945666Y-71916095D02*
X73898047Y-72058952D01*
X73898047Y-72058952D02*
X73326619Y-72630380D01*
X73326619Y-72630380D02*
X73945666Y-72630380D01*
%TO.C,D7*%
X33424905Y-59295380D02*
X33424905Y-58295380D01*
X33424905Y-58295380D02*
X33663000Y-58295380D01*
X33663000Y-58295380D02*
X33805857Y-58343000D01*
X33805857Y-58343000D02*
X33901095Y-58438238D01*
X33901095Y-58438238D02*
X33948714Y-58533476D01*
X33948714Y-58533476D02*
X33996333Y-58723952D01*
X33996333Y-58723952D02*
X33996333Y-58866809D01*
X33996333Y-58866809D02*
X33948714Y-59057285D01*
X33948714Y-59057285D02*
X33901095Y-59152523D01*
X33901095Y-59152523D02*
X33805857Y-59247761D01*
X33805857Y-59247761D02*
X33663000Y-59295380D01*
X33663000Y-59295380D02*
X33424905Y-59295380D01*
X34329667Y-58295380D02*
X34996333Y-58295380D01*
X34996333Y-58295380D02*
X34567762Y-59295380D01*
%TO.C,D6*%
X43330905Y-68820380D02*
X43330905Y-67820380D01*
X43330905Y-67820380D02*
X43569000Y-67820380D01*
X43569000Y-67820380D02*
X43711857Y-67868000D01*
X43711857Y-67868000D02*
X43807095Y-67963238D01*
X43807095Y-67963238D02*
X43854714Y-68058476D01*
X43854714Y-68058476D02*
X43902333Y-68248952D01*
X43902333Y-68248952D02*
X43902333Y-68391809D01*
X43902333Y-68391809D02*
X43854714Y-68582285D01*
X43854714Y-68582285D02*
X43807095Y-68677523D01*
X43807095Y-68677523D02*
X43711857Y-68772761D01*
X43711857Y-68772761D02*
X43569000Y-68820380D01*
X43569000Y-68820380D02*
X43330905Y-68820380D01*
X44759476Y-67820380D02*
X44569000Y-67820380D01*
X44569000Y-67820380D02*
X44473762Y-67868000D01*
X44473762Y-67868000D02*
X44426143Y-67915619D01*
X44426143Y-67915619D02*
X44330905Y-68058476D01*
X44330905Y-68058476D02*
X44283286Y-68248952D01*
X44283286Y-68248952D02*
X44283286Y-68629904D01*
X44283286Y-68629904D02*
X44330905Y-68725142D01*
X44330905Y-68725142D02*
X44378524Y-68772761D01*
X44378524Y-68772761D02*
X44473762Y-68820380D01*
X44473762Y-68820380D02*
X44664238Y-68820380D01*
X44664238Y-68820380D02*
X44759476Y-68772761D01*
X44759476Y-68772761D02*
X44807095Y-68725142D01*
X44807095Y-68725142D02*
X44854714Y-68629904D01*
X44854714Y-68629904D02*
X44854714Y-68391809D01*
X44854714Y-68391809D02*
X44807095Y-68296571D01*
X44807095Y-68296571D02*
X44759476Y-68248952D01*
X44759476Y-68248952D02*
X44664238Y-68201333D01*
X44664238Y-68201333D02*
X44473762Y-68201333D01*
X44473762Y-68201333D02*
X44378524Y-68248952D01*
X44378524Y-68248952D02*
X44330905Y-68296571D01*
X44330905Y-68296571D02*
X44283286Y-68391809D01*
%TO.C,D5*%
X33678905Y-68820380D02*
X33678905Y-67820380D01*
X33678905Y-67820380D02*
X33917000Y-67820380D01*
X33917000Y-67820380D02*
X34059857Y-67868000D01*
X34059857Y-67868000D02*
X34155095Y-67963238D01*
X34155095Y-67963238D02*
X34202714Y-68058476D01*
X34202714Y-68058476D02*
X34250333Y-68248952D01*
X34250333Y-68248952D02*
X34250333Y-68391809D01*
X34250333Y-68391809D02*
X34202714Y-68582285D01*
X34202714Y-68582285D02*
X34155095Y-68677523D01*
X34155095Y-68677523D02*
X34059857Y-68772761D01*
X34059857Y-68772761D02*
X33917000Y-68820380D01*
X33917000Y-68820380D02*
X33678905Y-68820380D01*
X35155095Y-67820380D02*
X34678905Y-67820380D01*
X34678905Y-67820380D02*
X34631286Y-68296571D01*
X34631286Y-68296571D02*
X34678905Y-68248952D01*
X34678905Y-68248952D02*
X34774143Y-68201333D01*
X34774143Y-68201333D02*
X35012238Y-68201333D01*
X35012238Y-68201333D02*
X35107476Y-68248952D01*
X35107476Y-68248952D02*
X35155095Y-68296571D01*
X35155095Y-68296571D02*
X35202714Y-68391809D01*
X35202714Y-68391809D02*
X35202714Y-68629904D01*
X35202714Y-68629904D02*
X35155095Y-68725142D01*
X35155095Y-68725142D02*
X35107476Y-68772761D01*
X35107476Y-68772761D02*
X35012238Y-68820380D01*
X35012238Y-68820380D02*
X34774143Y-68820380D01*
X34774143Y-68820380D02*
X34678905Y-68772761D01*
X34678905Y-68772761D02*
X34631286Y-68725142D01*
%TO.C,D4*%
X72794905Y-69582380D02*
X72794905Y-68582380D01*
X72794905Y-68582380D02*
X73033000Y-68582380D01*
X73033000Y-68582380D02*
X73175857Y-68630000D01*
X73175857Y-68630000D02*
X73271095Y-68725238D01*
X73271095Y-68725238D02*
X73318714Y-68820476D01*
X73318714Y-68820476D02*
X73366333Y-69010952D01*
X73366333Y-69010952D02*
X73366333Y-69153809D01*
X73366333Y-69153809D02*
X73318714Y-69344285D01*
X73318714Y-69344285D02*
X73271095Y-69439523D01*
X73271095Y-69439523D02*
X73175857Y-69534761D01*
X73175857Y-69534761D02*
X73033000Y-69582380D01*
X73033000Y-69582380D02*
X72794905Y-69582380D01*
X74223476Y-68915714D02*
X74223476Y-69582380D01*
X73985381Y-68534761D02*
X73747286Y-69249047D01*
X73747286Y-69249047D02*
X74366333Y-69249047D01*
%TO.C,D3*%
X64031905Y-69582380D02*
X64031905Y-68582380D01*
X64031905Y-68582380D02*
X64270000Y-68582380D01*
X64270000Y-68582380D02*
X64412857Y-68630000D01*
X64412857Y-68630000D02*
X64508095Y-68725238D01*
X64508095Y-68725238D02*
X64555714Y-68820476D01*
X64555714Y-68820476D02*
X64603333Y-69010952D01*
X64603333Y-69010952D02*
X64603333Y-69153809D01*
X64603333Y-69153809D02*
X64555714Y-69344285D01*
X64555714Y-69344285D02*
X64508095Y-69439523D01*
X64508095Y-69439523D02*
X64412857Y-69534761D01*
X64412857Y-69534761D02*
X64270000Y-69582380D01*
X64270000Y-69582380D02*
X64031905Y-69582380D01*
X64936667Y-68582380D02*
X65555714Y-68582380D01*
X65555714Y-68582380D02*
X65222381Y-68963333D01*
X65222381Y-68963333D02*
X65365238Y-68963333D01*
X65365238Y-68963333D02*
X65460476Y-69010952D01*
X65460476Y-69010952D02*
X65508095Y-69058571D01*
X65508095Y-69058571D02*
X65555714Y-69153809D01*
X65555714Y-69153809D02*
X65555714Y-69391904D01*
X65555714Y-69391904D02*
X65508095Y-69487142D01*
X65508095Y-69487142D02*
X65460476Y-69534761D01*
X65460476Y-69534761D02*
X65365238Y-69582380D01*
X65365238Y-69582380D02*
X65079524Y-69582380D01*
X65079524Y-69582380D02*
X64984286Y-69534761D01*
X64984286Y-69534761D02*
X64936667Y-69487142D01*
%TO.C,D2*%
X73048905Y-59422380D02*
X73048905Y-58422380D01*
X73048905Y-58422380D02*
X73287000Y-58422380D01*
X73287000Y-58422380D02*
X73429857Y-58470000D01*
X73429857Y-58470000D02*
X73525095Y-58565238D01*
X73525095Y-58565238D02*
X73572714Y-58660476D01*
X73572714Y-58660476D02*
X73620333Y-58850952D01*
X73620333Y-58850952D02*
X73620333Y-58993809D01*
X73620333Y-58993809D02*
X73572714Y-59184285D01*
X73572714Y-59184285D02*
X73525095Y-59279523D01*
X73525095Y-59279523D02*
X73429857Y-59374761D01*
X73429857Y-59374761D02*
X73287000Y-59422380D01*
X73287000Y-59422380D02*
X73048905Y-59422380D01*
X74001286Y-58517619D02*
X74048905Y-58470000D01*
X74048905Y-58470000D02*
X74144143Y-58422380D01*
X74144143Y-58422380D02*
X74382238Y-58422380D01*
X74382238Y-58422380D02*
X74477476Y-58470000D01*
X74477476Y-58470000D02*
X74525095Y-58517619D01*
X74525095Y-58517619D02*
X74572714Y-58612857D01*
X74572714Y-58612857D02*
X74572714Y-58708095D01*
X74572714Y-58708095D02*
X74525095Y-58850952D01*
X74525095Y-58850952D02*
X73953667Y-59422380D01*
X73953667Y-59422380D02*
X74572714Y-59422380D01*
%TO.C,D1*%
X73048905Y-57136380D02*
X73048905Y-56136380D01*
X73048905Y-56136380D02*
X73287000Y-56136380D01*
X73287000Y-56136380D02*
X73429857Y-56184000D01*
X73429857Y-56184000D02*
X73525095Y-56279238D01*
X73525095Y-56279238D02*
X73572714Y-56374476D01*
X73572714Y-56374476D02*
X73620333Y-56564952D01*
X73620333Y-56564952D02*
X73620333Y-56707809D01*
X73620333Y-56707809D02*
X73572714Y-56898285D01*
X73572714Y-56898285D02*
X73525095Y-56993523D01*
X73525095Y-56993523D02*
X73429857Y-57088761D01*
X73429857Y-57088761D02*
X73287000Y-57136380D01*
X73287000Y-57136380D02*
X73048905Y-57136380D01*
X74572714Y-57136380D02*
X74001286Y-57136380D01*
X74287000Y-57136380D02*
X74287000Y-56136380D01*
X74287000Y-56136380D02*
X74191762Y-56279238D01*
X74191762Y-56279238D02*
X74096524Y-56374476D01*
X74096524Y-56374476D02*
X74001286Y-56422095D01*
%TO.C,C6*%
X33234333Y-54755142D02*
X33186714Y-54802761D01*
X33186714Y-54802761D02*
X33043857Y-54850380D01*
X33043857Y-54850380D02*
X32948619Y-54850380D01*
X32948619Y-54850380D02*
X32805762Y-54802761D01*
X32805762Y-54802761D02*
X32710524Y-54707523D01*
X32710524Y-54707523D02*
X32662905Y-54612285D01*
X32662905Y-54612285D02*
X32615286Y-54421809D01*
X32615286Y-54421809D02*
X32615286Y-54278952D01*
X32615286Y-54278952D02*
X32662905Y-54088476D01*
X32662905Y-54088476D02*
X32710524Y-53993238D01*
X32710524Y-53993238D02*
X32805762Y-53898000D01*
X32805762Y-53898000D02*
X32948619Y-53850380D01*
X32948619Y-53850380D02*
X33043857Y-53850380D01*
X33043857Y-53850380D02*
X33186714Y-53898000D01*
X33186714Y-53898000D02*
X33234333Y-53945619D01*
X34091476Y-53850380D02*
X33901000Y-53850380D01*
X33901000Y-53850380D02*
X33805762Y-53898000D01*
X33805762Y-53898000D02*
X33758143Y-53945619D01*
X33758143Y-53945619D02*
X33662905Y-54088476D01*
X33662905Y-54088476D02*
X33615286Y-54278952D01*
X33615286Y-54278952D02*
X33615286Y-54659904D01*
X33615286Y-54659904D02*
X33662905Y-54755142D01*
X33662905Y-54755142D02*
X33710524Y-54802761D01*
X33710524Y-54802761D02*
X33805762Y-54850380D01*
X33805762Y-54850380D02*
X33996238Y-54850380D01*
X33996238Y-54850380D02*
X34091476Y-54802761D01*
X34091476Y-54802761D02*
X34139095Y-54755142D01*
X34139095Y-54755142D02*
X34186714Y-54659904D01*
X34186714Y-54659904D02*
X34186714Y-54421809D01*
X34186714Y-54421809D02*
X34139095Y-54326571D01*
X34139095Y-54326571D02*
X34091476Y-54278952D01*
X34091476Y-54278952D02*
X33996238Y-54231333D01*
X33996238Y-54231333D02*
X33805762Y-54231333D01*
X33805762Y-54231333D02*
X33710524Y-54278952D01*
X33710524Y-54278952D02*
X33662905Y-54326571D01*
X33662905Y-54326571D02*
X33615286Y-54421809D01*
%TO.C,C5*%
X38441333Y-55009142D02*
X38393714Y-55056761D01*
X38393714Y-55056761D02*
X38250857Y-55104380D01*
X38250857Y-55104380D02*
X38155619Y-55104380D01*
X38155619Y-55104380D02*
X38012762Y-55056761D01*
X38012762Y-55056761D02*
X37917524Y-54961523D01*
X37917524Y-54961523D02*
X37869905Y-54866285D01*
X37869905Y-54866285D02*
X37822286Y-54675809D01*
X37822286Y-54675809D02*
X37822286Y-54532952D01*
X37822286Y-54532952D02*
X37869905Y-54342476D01*
X37869905Y-54342476D02*
X37917524Y-54247238D01*
X37917524Y-54247238D02*
X38012762Y-54152000D01*
X38012762Y-54152000D02*
X38155619Y-54104380D01*
X38155619Y-54104380D02*
X38250857Y-54104380D01*
X38250857Y-54104380D02*
X38393714Y-54152000D01*
X38393714Y-54152000D02*
X38441333Y-54199619D01*
X39346095Y-54104380D02*
X38869905Y-54104380D01*
X38869905Y-54104380D02*
X38822286Y-54580571D01*
X38822286Y-54580571D02*
X38869905Y-54532952D01*
X38869905Y-54532952D02*
X38965143Y-54485333D01*
X38965143Y-54485333D02*
X39203238Y-54485333D01*
X39203238Y-54485333D02*
X39298476Y-54532952D01*
X39298476Y-54532952D02*
X39346095Y-54580571D01*
X39346095Y-54580571D02*
X39393714Y-54675809D01*
X39393714Y-54675809D02*
X39393714Y-54913904D01*
X39393714Y-54913904D02*
X39346095Y-55009142D01*
X39346095Y-55009142D02*
X39298476Y-55056761D01*
X39298476Y-55056761D02*
X39203238Y-55104380D01*
X39203238Y-55104380D02*
X38965143Y-55104380D01*
X38965143Y-55104380D02*
X38869905Y-55056761D01*
X38869905Y-55056761D02*
X38822286Y-55009142D01*
%TO.C,C4*%
X35520333Y-61359142D02*
X35472714Y-61406761D01*
X35472714Y-61406761D02*
X35329857Y-61454380D01*
X35329857Y-61454380D02*
X35234619Y-61454380D01*
X35234619Y-61454380D02*
X35091762Y-61406761D01*
X35091762Y-61406761D02*
X34996524Y-61311523D01*
X34996524Y-61311523D02*
X34948905Y-61216285D01*
X34948905Y-61216285D02*
X34901286Y-61025809D01*
X34901286Y-61025809D02*
X34901286Y-60882952D01*
X34901286Y-60882952D02*
X34948905Y-60692476D01*
X34948905Y-60692476D02*
X34996524Y-60597238D01*
X34996524Y-60597238D02*
X35091762Y-60502000D01*
X35091762Y-60502000D02*
X35234619Y-60454380D01*
X35234619Y-60454380D02*
X35329857Y-60454380D01*
X35329857Y-60454380D02*
X35472714Y-60502000D01*
X35472714Y-60502000D02*
X35520333Y-60549619D01*
X36377476Y-60787714D02*
X36377476Y-61454380D01*
X36139381Y-60406761D02*
X35901286Y-61121047D01*
X35901286Y-61121047D02*
X36520333Y-61121047D01*
%TO.C,C3*%
X41870333Y-62629142D02*
X41822714Y-62676761D01*
X41822714Y-62676761D02*
X41679857Y-62724380D01*
X41679857Y-62724380D02*
X41584619Y-62724380D01*
X41584619Y-62724380D02*
X41441762Y-62676761D01*
X41441762Y-62676761D02*
X41346524Y-62581523D01*
X41346524Y-62581523D02*
X41298905Y-62486285D01*
X41298905Y-62486285D02*
X41251286Y-62295809D01*
X41251286Y-62295809D02*
X41251286Y-62152952D01*
X41251286Y-62152952D02*
X41298905Y-61962476D01*
X41298905Y-61962476D02*
X41346524Y-61867238D01*
X41346524Y-61867238D02*
X41441762Y-61772000D01*
X41441762Y-61772000D02*
X41584619Y-61724380D01*
X41584619Y-61724380D02*
X41679857Y-61724380D01*
X41679857Y-61724380D02*
X41822714Y-61772000D01*
X41822714Y-61772000D02*
X41870333Y-61819619D01*
X42203667Y-61724380D02*
X42822714Y-61724380D01*
X42822714Y-61724380D02*
X42489381Y-62105333D01*
X42489381Y-62105333D02*
X42632238Y-62105333D01*
X42632238Y-62105333D02*
X42727476Y-62152952D01*
X42727476Y-62152952D02*
X42775095Y-62200571D01*
X42775095Y-62200571D02*
X42822714Y-62295809D01*
X42822714Y-62295809D02*
X42822714Y-62533904D01*
X42822714Y-62533904D02*
X42775095Y-62629142D01*
X42775095Y-62629142D02*
X42727476Y-62676761D01*
X42727476Y-62676761D02*
X42632238Y-62724380D01*
X42632238Y-62724380D02*
X42346524Y-62724380D01*
X42346524Y-62724380D02*
X42251286Y-62676761D01*
X42251286Y-62676761D02*
X42203667Y-62629142D01*
%TO.C,C2*%
X64984333Y-61232142D02*
X64936714Y-61279761D01*
X64936714Y-61279761D02*
X64793857Y-61327380D01*
X64793857Y-61327380D02*
X64698619Y-61327380D01*
X64698619Y-61327380D02*
X64555762Y-61279761D01*
X64555762Y-61279761D02*
X64460524Y-61184523D01*
X64460524Y-61184523D02*
X64412905Y-61089285D01*
X64412905Y-61089285D02*
X64365286Y-60898809D01*
X64365286Y-60898809D02*
X64365286Y-60755952D01*
X64365286Y-60755952D02*
X64412905Y-60565476D01*
X64412905Y-60565476D02*
X64460524Y-60470238D01*
X64460524Y-60470238D02*
X64555762Y-60375000D01*
X64555762Y-60375000D02*
X64698619Y-60327380D01*
X64698619Y-60327380D02*
X64793857Y-60327380D01*
X64793857Y-60327380D02*
X64936714Y-60375000D01*
X64936714Y-60375000D02*
X64984333Y-60422619D01*
X65365286Y-60422619D02*
X65412905Y-60375000D01*
X65412905Y-60375000D02*
X65508143Y-60327380D01*
X65508143Y-60327380D02*
X65746238Y-60327380D01*
X65746238Y-60327380D02*
X65841476Y-60375000D01*
X65841476Y-60375000D02*
X65889095Y-60422619D01*
X65889095Y-60422619D02*
X65936714Y-60517857D01*
X65936714Y-60517857D02*
X65936714Y-60613095D01*
X65936714Y-60613095D02*
X65889095Y-60755952D01*
X65889095Y-60755952D02*
X65317667Y-61327380D01*
X65317667Y-61327380D02*
X65936714Y-61327380D01*
%TO.C,C1*%
X73620333Y-62248142D02*
X73572714Y-62295761D01*
X73572714Y-62295761D02*
X73429857Y-62343380D01*
X73429857Y-62343380D02*
X73334619Y-62343380D01*
X73334619Y-62343380D02*
X73191762Y-62295761D01*
X73191762Y-62295761D02*
X73096524Y-62200523D01*
X73096524Y-62200523D02*
X73048905Y-62105285D01*
X73048905Y-62105285D02*
X73001286Y-61914809D01*
X73001286Y-61914809D02*
X73001286Y-61771952D01*
X73001286Y-61771952D02*
X73048905Y-61581476D01*
X73048905Y-61581476D02*
X73096524Y-61486238D01*
X73096524Y-61486238D02*
X73191762Y-61391000D01*
X73191762Y-61391000D02*
X73334619Y-61343380D01*
X73334619Y-61343380D02*
X73429857Y-61343380D01*
X73429857Y-61343380D02*
X73572714Y-61391000D01*
X73572714Y-61391000D02*
X73620333Y-61438619D01*
X74572714Y-62343380D02*
X74001286Y-62343380D01*
X74287000Y-62343380D02*
X74287000Y-61343380D01*
X74287000Y-61343380D02*
X74191762Y-61486238D01*
X74191762Y-61486238D02*
X74096524Y-61581476D01*
X74096524Y-61581476D02*
X74001286Y-61629095D01*
D11*
%TO.C,J4*%
X48830000Y-57215000D02*
X48830000Y-55815000D01*
X50230000Y-55815000D02*
X50230000Y-57215000D01*
X48830000Y-55815000D02*
X50230000Y-55815000D01*
X50230000Y-57215000D02*
X48830000Y-57215000D01*
%TO.C,J3*%
X48830000Y-59374000D02*
X48830000Y-57974000D01*
X50230000Y-57974000D02*
X50230000Y-59374000D01*
X48830000Y-57974000D02*
X50230000Y-57974000D01*
X50230000Y-59374000D02*
X48830000Y-59374000D01*
D12*
%TO.C,U1*%
X45486000Y-69793250D02*
X63286000Y-69793250D01*
X63286000Y-69793250D02*
X63286000Y-48793250D01*
X63286000Y-48793250D02*
X46157541Y-48793250D01*
X46157541Y-48793250D02*
X45486000Y-49464750D01*
X45486000Y-49464750D02*
X45486000Y-69793250D01*
X49886000Y-47369250D02*
X58881000Y-47369250D01*
X58881000Y-47369250D02*
X58881000Y-54721250D01*
X58881000Y-54721250D02*
X49882000Y-54721250D01*
X49882000Y-54721250D02*
X49882000Y-47368250D01*
D11*
%TO.C,J1*%
X68520000Y-72136000D02*
G75*
G03*
X68520000Y-72136000I-950000J0D01*
G01*
D13*
%TO.C,S1*%
X43293330Y-52676670D02*
G75*
G03*
X43293330Y-52676670I-54000J0D01*
G01*
X41922670Y-51338000D02*
X40073670Y-51338000D01*
X38819000Y-47238000D02*
X38819000Y-48738000D01*
X40119000Y-47238000D02*
X38819000Y-47238000D01*
X40119000Y-48738000D02*
X40119000Y-47238000D01*
X43569000Y-48738000D02*
X43569000Y-51338000D01*
X36869000Y-48738000D02*
X43569000Y-48738000D01*
X36869000Y-51338000D02*
X36869000Y-48738000D01*
D11*
%TO.C,D8*%
X42658500Y-57939000D02*
X40373500Y-57939000D01*
X42658500Y-59409000D02*
X42658500Y-57939000D01*
X40373500Y-59409000D02*
X42658500Y-59409000D01*
%TO.C,U4*%
X39648000Y-53490000D02*
X41648000Y-53490000D01*
X41648000Y-55730000D02*
X40648000Y-55730000D01*
%TO.C,U3*%
X37870000Y-62634000D02*
X39870000Y-62634000D01*
X39870000Y-64874000D02*
X38870000Y-64874000D01*
%TO.C,U2*%
X70842000Y-65636000D02*
X68842000Y-65636000D01*
X68842000Y-63396000D02*
X69842000Y-63396000D01*
%TO.C,R8*%
X40898742Y-57418500D02*
X41373258Y-57418500D01*
X40898742Y-56373500D02*
X41373258Y-56373500D01*
%TO.C,R7*%
X37309258Y-56373500D02*
X36834742Y-56373500D01*
X37309258Y-57418500D02*
X36834742Y-57418500D01*
%TO.C,R6*%
X41227742Y-66025500D02*
X41702258Y-66025500D01*
X41227742Y-67070500D02*
X41702258Y-67070500D01*
%TO.C,R5*%
X37130258Y-66025500D02*
X36655742Y-66025500D01*
X37130258Y-67070500D02*
X36655742Y-67070500D01*
%TO.C,R4*%
X70819742Y-66787500D02*
X71294258Y-66787500D01*
X70819742Y-67832500D02*
X71294258Y-67832500D01*
%TO.C,R3*%
X67484258Y-66787500D02*
X67009742Y-66787500D01*
X67484258Y-67832500D02*
X67009742Y-67832500D01*
%TO.C,R2*%
X67789258Y-59450500D02*
X67314742Y-59450500D01*
X67789258Y-58405500D02*
X67314742Y-58405500D01*
%TO.C,R1*%
X67789258Y-56119500D02*
X67314742Y-56119500D01*
X67789258Y-57164500D02*
X67314742Y-57164500D01*
%TO.C,J9*%
X65932000Y-54202000D02*
X65932000Y-52602000D01*
X65012000Y-54202000D02*
X65932000Y-54202000D01*
X66772000Y-50242000D02*
X65772000Y-50242000D01*
X65772000Y-50242000D02*
X65772000Y-48642000D01*
X71132000Y-52602000D02*
X70212000Y-52602000D01*
X68572000Y-50742000D02*
X67572000Y-50742000D01*
X70372000Y-50242000D02*
X70372000Y-48642000D01*
X65772000Y-48642000D02*
X66772000Y-48642000D01*
X69932000Y-52602000D02*
X70212000Y-52602000D01*
X70212000Y-52602000D02*
X70212000Y-54202000D01*
X69372000Y-50242000D02*
X70372000Y-50242000D01*
X70212000Y-54202000D02*
X71132000Y-54202000D01*
X69872000Y-48642000D02*
X69872000Y-46382000D01*
X70372000Y-48642000D02*
X69372000Y-48642000D01*
X71132000Y-46382000D02*
X65012000Y-46382000D01*
X65932000Y-52602000D02*
X66212000Y-52602000D01*
X67572000Y-50742000D02*
X67572000Y-46382000D01*
X65012000Y-52602000D02*
X65932000Y-52602000D01*
X66772000Y-48642000D02*
X66772000Y-50242000D01*
X71132000Y-54202000D02*
X71132000Y-46382000D01*
X65012000Y-46382000D02*
X65012000Y-54202000D01*
X69932000Y-52602000D02*
X69932000Y-53817000D01*
X69372000Y-48642000D02*
X69372000Y-50242000D01*
X69372000Y-48642000D02*
X69372000Y-46382000D01*
X68572000Y-46382000D02*
X68572000Y-50742000D01*
%TO.C,J8*%
X42352000Y-72136000D02*
G75*
G03*
X42352000Y-72136000I-950000J0D01*
G01*
%TO.C,J7*%
X38802000Y-72136000D02*
G75*
G03*
X38802000Y-72136000I-950000J0D01*
G01*
%TO.C,J6*%
X57592000Y-72136000D02*
G75*
G03*
X57592000Y-72136000I-950000J0D01*
G01*
%TO.C,J5*%
X54042000Y-72136000D02*
G75*
G03*
X54042000Y-72136000I-950000J0D01*
G01*
%TO.C,J2*%
X72070000Y-72136000D02*
G75*
G03*
X72070000Y-72136000I-950000J0D01*
G01*
%TO.C,D7*%
X37909500Y-57939000D02*
X35624500Y-57939000D01*
X35624500Y-57939000D02*
X35624500Y-59409000D01*
X35624500Y-59409000D02*
X37909500Y-59409000D01*
%TO.C,D6*%
X43038500Y-67591000D02*
X40753500Y-67591000D01*
X43038500Y-69061000D02*
X43038500Y-67591000D01*
X40753500Y-69061000D02*
X43038500Y-69061000D01*
%TO.C,D5*%
X35445500Y-69061000D02*
X37730500Y-69061000D01*
X35445500Y-67591000D02*
X35445500Y-69061000D01*
X37730500Y-67591000D02*
X35445500Y-67591000D01*
%TO.C,D4*%
X72528500Y-68353000D02*
X70243500Y-68353000D01*
X72528500Y-69823000D02*
X72528500Y-68353000D01*
X70243500Y-69823000D02*
X72528500Y-69823000D01*
%TO.C,D3*%
X68084500Y-68353000D02*
X65799500Y-68353000D01*
X65799500Y-68353000D02*
X65799500Y-69823000D01*
X65799500Y-69823000D02*
X68084500Y-69823000D01*
%TO.C,D2*%
X72833500Y-58193000D02*
X70548500Y-58193000D01*
X72833500Y-59663000D02*
X72833500Y-58193000D01*
X70548500Y-59663000D02*
X72833500Y-59663000D01*
%TO.C,D1*%
X70548500Y-57377000D02*
X72833500Y-57377000D01*
X72833500Y-57377000D02*
X72833500Y-55907000D01*
X72833500Y-55907000D02*
X70548500Y-55907000D01*
%TO.C,C6*%
X35562000Y-54509580D02*
X35562000Y-54228420D01*
X34542000Y-54509580D02*
X34542000Y-54228420D01*
%TO.C,C5*%
X37594000Y-54496580D02*
X37594000Y-54215420D01*
X36574000Y-54496580D02*
X36574000Y-54215420D01*
%TO.C,C4*%
X38200420Y-60196000D02*
X38481580Y-60196000D01*
X38200420Y-61216000D02*
X38481580Y-61216000D01*
%TO.C,C3*%
X42010420Y-60196000D02*
X42291580Y-60196000D01*
X42010420Y-61216000D02*
X42291580Y-61216000D01*
%TO.C,C2*%
X67410420Y-61466000D02*
X67691580Y-61466000D01*
X67410420Y-62486000D02*
X67691580Y-62486000D01*
%TO.C,C1*%
X71220420Y-61466000D02*
X71501580Y-61466000D01*
X71220420Y-62486000D02*
X71501580Y-62486000D01*
%TD*%
M02*
