%TF.GenerationSoftware,KiCad,Pcbnew,(7.0.0)*%
%TF.CreationDate,2023-03-10T16:09:33-06:00*%
%TF.ProjectId,stick-and-slip_v2_2-channel,73746963-6b2d-4616-9e64-2d736c69705f,rev?*%
%TF.SameCoordinates,Original*%
%TF.FileFunction,Legend,Top*%
%TF.FilePolarity,Positive*%
%FSLAX46Y46*%
G04 Gerber Fmt 4.6, Leading zero omitted, Abs format (unit mm)*
G04 Created by KiCad (PCBNEW (7.0.0)) date 2023-03-10 16:09:33*
%MOMM*%
%LPD*%
G01*
G04 APERTURE LIST*
G04 Aperture macros list*
%AMRoundRect*
0 Rectangle with rounded corners*
0 $1 Rounding radius*
0 $2 $3 $4 $5 $6 $7 $8 $9 X,Y pos of 4 corners*
0 Add a 4 corners polygon primitive as box body*
4,1,4,$2,$3,$4,$5,$6,$7,$8,$9,$2,$3,0*
0 Add four circle primitives for the rounded corners*
1,1,$1+$1,$2,$3*
1,1,$1+$1,$4,$5*
1,1,$1+$1,$6,$7*
1,1,$1+$1,$8,$9*
0 Add four rect primitives between the rounded corners*
20,1,$1+$1,$2,$3,$4,$5,0*
20,1,$1+$1,$4,$5,$6,$7,0*
20,1,$1+$1,$6,$7,$8,$9,0*
20,1,$1+$1,$8,$9,$2,$3,0*%
G04 Aperture macros list end*
%ADD10C,0.150000*%
%ADD11C,0.120000*%
%ADD12C,0.127000*%
%ADD13C,0.254000*%
%ADD14RoundRect,0.218750X0.218750X0.256250X-0.218750X0.256250X-0.218750X-0.256250X0.218750X-0.256250X0*%
%ADD15RoundRect,0.218750X-0.256250X0.218750X-0.256250X-0.218750X0.256250X-0.218750X0.256250X0.218750X0*%
%ADD16RoundRect,0.200000X0.200000X0.275000X-0.200000X0.275000X-0.200000X-0.275000X0.200000X-0.275000X0*%
%ADD17C,2.000000*%
%ADD18RoundRect,0.218750X-0.218750X-0.256250X0.218750X-0.256250X0.218750X0.256250X-0.218750X0.256250X0*%
%ADD19RoundRect,0.250000X-0.625000X0.350000X-0.625000X-0.350000X0.625000X-0.350000X0.625000X0.350000X0*%
%ADD20O,1.750000X1.200000*%
%ADD21RoundRect,0.200000X-0.275000X0.200000X-0.275000X-0.200000X0.275000X-0.200000X0.275000X0.200000X0*%
%ADD22RoundRect,0.225000X0.250000X-0.225000X0.250000X0.225000X-0.250000X0.225000X-0.250000X-0.225000X0*%
%ADD23RoundRect,0.200000X-0.200000X-0.275000X0.200000X-0.275000X0.200000X0.275000X-0.200000X0.275000X0*%
%ADD24R,1.000000X1.000000*%
%ADD25R,0.500000X0.250000*%
%ADD26R,0.900000X1.600000*%
%ADD27RoundRect,1.000000X-0.375000X0.000000X0.375000X0.000000X0.375000X0.000000X-0.375000X0.000000X0*%
%ADD28C,0.900000*%
%ADD29R,1.500000X0.700000*%
G04 APERTURE END LIST*
D10*
X53900380Y-62341190D02*
X54614666Y-62341190D01*
X54614666Y-62341190D02*
X54757523Y-62388809D01*
X54757523Y-62388809D02*
X54852761Y-62484047D01*
X54852761Y-62484047D02*
X54900380Y-62626904D01*
X54900380Y-62626904D02*
X54900380Y-62722142D01*
X54900380Y-61388809D02*
X54900380Y-61864999D01*
X54900380Y-61864999D02*
X53900380Y-61864999D01*
X54805142Y-60484047D02*
X54852761Y-60531666D01*
X54852761Y-60531666D02*
X54900380Y-60674523D01*
X54900380Y-60674523D02*
X54900380Y-60769761D01*
X54900380Y-60769761D02*
X54852761Y-60912618D01*
X54852761Y-60912618D02*
X54757523Y-61007856D01*
X54757523Y-61007856D02*
X54662285Y-61055475D01*
X54662285Y-61055475D02*
X54471809Y-61103094D01*
X54471809Y-61103094D02*
X54328952Y-61103094D01*
X54328952Y-61103094D02*
X54138476Y-61055475D01*
X54138476Y-61055475D02*
X54043238Y-61007856D01*
X54043238Y-61007856D02*
X53948000Y-60912618D01*
X53948000Y-60912618D02*
X53900380Y-60769761D01*
X53900380Y-60769761D02*
X53900380Y-60674523D01*
X53900380Y-60674523D02*
X53948000Y-60531666D01*
X53948000Y-60531666D02*
X53995619Y-60484047D01*
X53900380Y-59769761D02*
X54614666Y-59769761D01*
X54614666Y-59769761D02*
X54757523Y-59817380D01*
X54757523Y-59817380D02*
X54852761Y-59912618D01*
X54852761Y-59912618D02*
X54900380Y-60055475D01*
X54900380Y-60055475D02*
X54900380Y-60150713D01*
X54900380Y-58817380D02*
X54900380Y-59293570D01*
X54900380Y-59293570D02*
X53900380Y-59293570D01*
X54805142Y-57912618D02*
X54852761Y-57960237D01*
X54852761Y-57960237D02*
X54900380Y-58103094D01*
X54900380Y-58103094D02*
X54900380Y-58198332D01*
X54900380Y-58198332D02*
X54852761Y-58341189D01*
X54852761Y-58341189D02*
X54757523Y-58436427D01*
X54757523Y-58436427D02*
X54662285Y-58484046D01*
X54662285Y-58484046D02*
X54471809Y-58531665D01*
X54471809Y-58531665D02*
X54328952Y-58531665D01*
X54328952Y-58531665D02*
X54138476Y-58484046D01*
X54138476Y-58484046D02*
X54043238Y-58436427D01*
X54043238Y-58436427D02*
X53948000Y-58341189D01*
X53948000Y-58341189D02*
X53900380Y-58198332D01*
X53900380Y-58198332D02*
X53900380Y-58103094D01*
X53900380Y-58103094D02*
X53948000Y-57960237D01*
X53948000Y-57960237D02*
X53995619Y-57912618D01*
X53900380Y-57198332D02*
X54614666Y-57198332D01*
X54614666Y-57198332D02*
X54757523Y-57245951D01*
X54757523Y-57245951D02*
X54852761Y-57341189D01*
X54852761Y-57341189D02*
X54900380Y-57484046D01*
X54900380Y-57484046D02*
X54900380Y-57579284D01*
X54900380Y-56245951D02*
X54900380Y-56722141D01*
X54900380Y-56722141D02*
X53900380Y-56722141D01*
X54805142Y-55341189D02*
X54852761Y-55388808D01*
X54852761Y-55388808D02*
X54900380Y-55531665D01*
X54900380Y-55531665D02*
X54900380Y-55626903D01*
X54900380Y-55626903D02*
X54852761Y-55769760D01*
X54852761Y-55769760D02*
X54757523Y-55864998D01*
X54757523Y-55864998D02*
X54662285Y-55912617D01*
X54662285Y-55912617D02*
X54471809Y-55960236D01*
X54471809Y-55960236D02*
X54328952Y-55960236D01*
X54328952Y-55960236D02*
X54138476Y-55912617D01*
X54138476Y-55912617D02*
X54043238Y-55864998D01*
X54043238Y-55864998D02*
X53948000Y-55769760D01*
X53948000Y-55769760D02*
X53900380Y-55626903D01*
X53900380Y-55626903D02*
X53900380Y-55531665D01*
X53900380Y-55531665D02*
X53948000Y-55388808D01*
X53948000Y-55388808D02*
X53995619Y-55341189D01*
X53900380Y-54626903D02*
X54614666Y-54626903D01*
X54614666Y-54626903D02*
X54757523Y-54674522D01*
X54757523Y-54674522D02*
X54852761Y-54769760D01*
X54852761Y-54769760D02*
X54900380Y-54912617D01*
X54900380Y-54912617D02*
X54900380Y-55007855D01*
X54900380Y-53674522D02*
X54900380Y-54150712D01*
X54900380Y-54150712D02*
X53900380Y-54150712D01*
X54805142Y-52769760D02*
X54852761Y-52817379D01*
X54852761Y-52817379D02*
X54900380Y-52960236D01*
X54900380Y-52960236D02*
X54900380Y-53055474D01*
X54900380Y-53055474D02*
X54852761Y-53198331D01*
X54852761Y-53198331D02*
X54757523Y-53293569D01*
X54757523Y-53293569D02*
X54662285Y-53341188D01*
X54662285Y-53341188D02*
X54471809Y-53388807D01*
X54471809Y-53388807D02*
X54328952Y-53388807D01*
X54328952Y-53388807D02*
X54138476Y-53341188D01*
X54138476Y-53341188D02*
X54043238Y-53293569D01*
X54043238Y-53293569D02*
X53948000Y-53198331D01*
X53948000Y-53198331D02*
X53900380Y-53055474D01*
X53900380Y-53055474D02*
X53900380Y-52960236D01*
X53900380Y-52960236D02*
X53948000Y-52817379D01*
X53948000Y-52817379D02*
X53995619Y-52769760D01*
%TO.C,D4*%
X64234905Y-88886380D02*
X64234905Y-87886380D01*
X64234905Y-87886380D02*
X64473000Y-87886380D01*
X64473000Y-87886380D02*
X64615857Y-87934000D01*
X64615857Y-87934000D02*
X64711095Y-88029238D01*
X64711095Y-88029238D02*
X64758714Y-88124476D01*
X64758714Y-88124476D02*
X64806333Y-88314952D01*
X64806333Y-88314952D02*
X64806333Y-88457809D01*
X64806333Y-88457809D02*
X64758714Y-88648285D01*
X64758714Y-88648285D02*
X64711095Y-88743523D01*
X64711095Y-88743523D02*
X64615857Y-88838761D01*
X64615857Y-88838761D02*
X64473000Y-88886380D01*
X64473000Y-88886380D02*
X64234905Y-88886380D01*
X65663476Y-88219714D02*
X65663476Y-88886380D01*
X65425381Y-87838761D02*
X65187286Y-88553047D01*
X65187286Y-88553047D02*
X65806333Y-88553047D01*
%TO.C,D1*%
X51675380Y-74398094D02*
X50675380Y-74398094D01*
X50675380Y-74398094D02*
X50675380Y-74159999D01*
X50675380Y-74159999D02*
X50723000Y-74017142D01*
X50723000Y-74017142D02*
X50818238Y-73921904D01*
X50818238Y-73921904D02*
X50913476Y-73874285D01*
X50913476Y-73874285D02*
X51103952Y-73826666D01*
X51103952Y-73826666D02*
X51246809Y-73826666D01*
X51246809Y-73826666D02*
X51437285Y-73874285D01*
X51437285Y-73874285D02*
X51532523Y-73921904D01*
X51532523Y-73921904D02*
X51627761Y-74017142D01*
X51627761Y-74017142D02*
X51675380Y-74159999D01*
X51675380Y-74159999D02*
X51675380Y-74398094D01*
X51675380Y-72874285D02*
X51675380Y-73445713D01*
X51675380Y-73159999D02*
X50675380Y-73159999D01*
X50675380Y-73159999D02*
X50818238Y-73255237D01*
X50818238Y-73255237D02*
X50913476Y-73350475D01*
X50913476Y-73350475D02*
X50961095Y-73445713D01*
%TO.C,R3*%
X56043333Y-87108380D02*
X55710000Y-86632190D01*
X55471905Y-87108380D02*
X55471905Y-86108380D01*
X55471905Y-86108380D02*
X55852857Y-86108380D01*
X55852857Y-86108380D02*
X55948095Y-86156000D01*
X55948095Y-86156000D02*
X55995714Y-86203619D01*
X55995714Y-86203619D02*
X56043333Y-86298857D01*
X56043333Y-86298857D02*
X56043333Y-86441714D01*
X56043333Y-86441714D02*
X55995714Y-86536952D01*
X55995714Y-86536952D02*
X55948095Y-86584571D01*
X55948095Y-86584571D02*
X55852857Y-86632190D01*
X55852857Y-86632190D02*
X55471905Y-86632190D01*
X56376667Y-86108380D02*
X56995714Y-86108380D01*
X56995714Y-86108380D02*
X56662381Y-86489333D01*
X56662381Y-86489333D02*
X56805238Y-86489333D01*
X56805238Y-86489333D02*
X56900476Y-86536952D01*
X56900476Y-86536952D02*
X56948095Y-86584571D01*
X56948095Y-86584571D02*
X56995714Y-86679809D01*
X56995714Y-86679809D02*
X56995714Y-86917904D01*
X56995714Y-86917904D02*
X56948095Y-87013142D01*
X56948095Y-87013142D02*
X56900476Y-87060761D01*
X56900476Y-87060761D02*
X56805238Y-87108380D01*
X56805238Y-87108380D02*
X56519524Y-87108380D01*
X56519524Y-87108380D02*
X56424286Y-87060761D01*
X56424286Y-87060761D02*
X56376667Y-87013142D01*
%TO.C,J5*%
X44522666Y-91315380D02*
X44522666Y-92029666D01*
X44522666Y-92029666D02*
X44475047Y-92172523D01*
X44475047Y-92172523D02*
X44379809Y-92267761D01*
X44379809Y-92267761D02*
X44236952Y-92315380D01*
X44236952Y-92315380D02*
X44141714Y-92315380D01*
X45475047Y-91315380D02*
X44998857Y-91315380D01*
X44998857Y-91315380D02*
X44951238Y-91791571D01*
X44951238Y-91791571D02*
X44998857Y-91743952D01*
X44998857Y-91743952D02*
X45094095Y-91696333D01*
X45094095Y-91696333D02*
X45332190Y-91696333D01*
X45332190Y-91696333D02*
X45427428Y-91743952D01*
X45427428Y-91743952D02*
X45475047Y-91791571D01*
X45475047Y-91791571D02*
X45522666Y-91886809D01*
X45522666Y-91886809D02*
X45522666Y-92124904D01*
X45522666Y-92124904D02*
X45475047Y-92220142D01*
X45475047Y-92220142D02*
X45427428Y-92267761D01*
X45427428Y-92267761D02*
X45332190Y-92315380D01*
X45332190Y-92315380D02*
X45094095Y-92315380D01*
X45094095Y-92315380D02*
X44998857Y-92267761D01*
X44998857Y-92267761D02*
X44951238Y-92220142D01*
%TO.C,D3*%
X55471905Y-88886380D02*
X55471905Y-87886380D01*
X55471905Y-87886380D02*
X55710000Y-87886380D01*
X55710000Y-87886380D02*
X55852857Y-87934000D01*
X55852857Y-87934000D02*
X55948095Y-88029238D01*
X55948095Y-88029238D02*
X55995714Y-88124476D01*
X55995714Y-88124476D02*
X56043333Y-88314952D01*
X56043333Y-88314952D02*
X56043333Y-88457809D01*
X56043333Y-88457809D02*
X55995714Y-88648285D01*
X55995714Y-88648285D02*
X55948095Y-88743523D01*
X55948095Y-88743523D02*
X55852857Y-88838761D01*
X55852857Y-88838761D02*
X55710000Y-88886380D01*
X55710000Y-88886380D02*
X55471905Y-88886380D01*
X56376667Y-87886380D02*
X56995714Y-87886380D01*
X56995714Y-87886380D02*
X56662381Y-88267333D01*
X56662381Y-88267333D02*
X56805238Y-88267333D01*
X56805238Y-88267333D02*
X56900476Y-88314952D01*
X56900476Y-88314952D02*
X56948095Y-88362571D01*
X56948095Y-88362571D02*
X56995714Y-88457809D01*
X56995714Y-88457809D02*
X56995714Y-88695904D01*
X56995714Y-88695904D02*
X56948095Y-88791142D01*
X56948095Y-88791142D02*
X56900476Y-88838761D01*
X56900476Y-88838761D02*
X56805238Y-88886380D01*
X56805238Y-88886380D02*
X56519524Y-88886380D01*
X56519524Y-88886380D02*
X56424286Y-88838761D01*
X56424286Y-88838761D02*
X56376667Y-88791142D01*
%TO.C,D2*%
X61835380Y-74271094D02*
X60835380Y-74271094D01*
X60835380Y-74271094D02*
X60835380Y-74032999D01*
X60835380Y-74032999D02*
X60883000Y-73890142D01*
X60883000Y-73890142D02*
X60978238Y-73794904D01*
X60978238Y-73794904D02*
X61073476Y-73747285D01*
X61073476Y-73747285D02*
X61263952Y-73699666D01*
X61263952Y-73699666D02*
X61406809Y-73699666D01*
X61406809Y-73699666D02*
X61597285Y-73747285D01*
X61597285Y-73747285D02*
X61692523Y-73794904D01*
X61692523Y-73794904D02*
X61787761Y-73890142D01*
X61787761Y-73890142D02*
X61835380Y-74032999D01*
X61835380Y-74032999D02*
X61835380Y-74271094D01*
X60930619Y-73318713D02*
X60883000Y-73271094D01*
X60883000Y-73271094D02*
X60835380Y-73175856D01*
X60835380Y-73175856D02*
X60835380Y-72937761D01*
X60835380Y-72937761D02*
X60883000Y-72842523D01*
X60883000Y-72842523D02*
X60930619Y-72794904D01*
X60930619Y-72794904D02*
X61025857Y-72747285D01*
X61025857Y-72747285D02*
X61121095Y-72747285D01*
X61121095Y-72747285D02*
X61263952Y-72794904D01*
X61263952Y-72794904D02*
X61835380Y-73366332D01*
X61835380Y-73366332D02*
X61835380Y-72747285D01*
%TO.C,J9*%
X49024380Y-82724333D02*
X49738666Y-82724333D01*
X49738666Y-82724333D02*
X49881523Y-82771952D01*
X49881523Y-82771952D02*
X49976761Y-82867190D01*
X49976761Y-82867190D02*
X50024380Y-83010047D01*
X50024380Y-83010047D02*
X50024380Y-83105285D01*
X50024380Y-82200523D02*
X50024380Y-82010047D01*
X50024380Y-82010047D02*
X49976761Y-81914809D01*
X49976761Y-81914809D02*
X49929142Y-81867190D01*
X49929142Y-81867190D02*
X49786285Y-81771952D01*
X49786285Y-81771952D02*
X49595809Y-81724333D01*
X49595809Y-81724333D02*
X49214857Y-81724333D01*
X49214857Y-81724333D02*
X49119619Y-81771952D01*
X49119619Y-81771952D02*
X49072000Y-81819571D01*
X49072000Y-81819571D02*
X49024380Y-81914809D01*
X49024380Y-81914809D02*
X49024380Y-82105285D01*
X49024380Y-82105285D02*
X49072000Y-82200523D01*
X49072000Y-82200523D02*
X49119619Y-82248142D01*
X49119619Y-82248142D02*
X49214857Y-82295761D01*
X49214857Y-82295761D02*
X49452952Y-82295761D01*
X49452952Y-82295761D02*
X49548190Y-82248142D01*
X49548190Y-82248142D02*
X49595809Y-82200523D01*
X49595809Y-82200523D02*
X49643428Y-82105285D01*
X49643428Y-82105285D02*
X49643428Y-81914809D01*
X49643428Y-81914809D02*
X49595809Y-81819571D01*
X49595809Y-81819571D02*
X49548190Y-81771952D01*
X49548190Y-81771952D02*
X49452952Y-81724333D01*
%TO.C,D6*%
X53617905Y-88886380D02*
X53617905Y-87886380D01*
X53617905Y-87886380D02*
X53856000Y-87886380D01*
X53856000Y-87886380D02*
X53998857Y-87934000D01*
X53998857Y-87934000D02*
X54094095Y-88029238D01*
X54094095Y-88029238D02*
X54141714Y-88124476D01*
X54141714Y-88124476D02*
X54189333Y-88314952D01*
X54189333Y-88314952D02*
X54189333Y-88457809D01*
X54189333Y-88457809D02*
X54141714Y-88648285D01*
X54141714Y-88648285D02*
X54094095Y-88743523D01*
X54094095Y-88743523D02*
X53998857Y-88838761D01*
X53998857Y-88838761D02*
X53856000Y-88886380D01*
X53856000Y-88886380D02*
X53617905Y-88886380D01*
X55046476Y-87886380D02*
X54856000Y-87886380D01*
X54856000Y-87886380D02*
X54760762Y-87934000D01*
X54760762Y-87934000D02*
X54713143Y-87981619D01*
X54713143Y-87981619D02*
X54617905Y-88124476D01*
X54617905Y-88124476D02*
X54570286Y-88314952D01*
X54570286Y-88314952D02*
X54570286Y-88695904D01*
X54570286Y-88695904D02*
X54617905Y-88791142D01*
X54617905Y-88791142D02*
X54665524Y-88838761D01*
X54665524Y-88838761D02*
X54760762Y-88886380D01*
X54760762Y-88886380D02*
X54951238Y-88886380D01*
X54951238Y-88886380D02*
X55046476Y-88838761D01*
X55046476Y-88838761D02*
X55094095Y-88791142D01*
X55094095Y-88791142D02*
X55141714Y-88695904D01*
X55141714Y-88695904D02*
X55141714Y-88457809D01*
X55141714Y-88457809D02*
X55094095Y-88362571D01*
X55094095Y-88362571D02*
X55046476Y-88314952D01*
X55046476Y-88314952D02*
X54951238Y-88267333D01*
X54951238Y-88267333D02*
X54760762Y-88267333D01*
X54760762Y-88267333D02*
X54665524Y-88314952D01*
X54665524Y-88314952D02*
X54617905Y-88362571D01*
X54617905Y-88362571D02*
X54570286Y-88457809D01*
%TO.C,J2*%
X64842666Y-91315380D02*
X64842666Y-92029666D01*
X64842666Y-92029666D02*
X64795047Y-92172523D01*
X64795047Y-92172523D02*
X64699809Y-92267761D01*
X64699809Y-92267761D02*
X64556952Y-92315380D01*
X64556952Y-92315380D02*
X64461714Y-92315380D01*
X65271238Y-91410619D02*
X65318857Y-91363000D01*
X65318857Y-91363000D02*
X65414095Y-91315380D01*
X65414095Y-91315380D02*
X65652190Y-91315380D01*
X65652190Y-91315380D02*
X65747428Y-91363000D01*
X65747428Y-91363000D02*
X65795047Y-91410619D01*
X65795047Y-91410619D02*
X65842666Y-91505857D01*
X65842666Y-91505857D02*
X65842666Y-91601095D01*
X65842666Y-91601095D02*
X65795047Y-91743952D01*
X65795047Y-91743952D02*
X65223619Y-92315380D01*
X65223619Y-92315380D02*
X65842666Y-92315380D01*
%TO.C,J6*%
X53768666Y-91315380D02*
X53768666Y-92029666D01*
X53768666Y-92029666D02*
X53721047Y-92172523D01*
X53721047Y-92172523D02*
X53625809Y-92267761D01*
X53625809Y-92267761D02*
X53482952Y-92315380D01*
X53482952Y-92315380D02*
X53387714Y-92315380D01*
X54673428Y-91315380D02*
X54482952Y-91315380D01*
X54482952Y-91315380D02*
X54387714Y-91363000D01*
X54387714Y-91363000D02*
X54340095Y-91410619D01*
X54340095Y-91410619D02*
X54244857Y-91553476D01*
X54244857Y-91553476D02*
X54197238Y-91743952D01*
X54197238Y-91743952D02*
X54197238Y-92124904D01*
X54197238Y-92124904D02*
X54244857Y-92220142D01*
X54244857Y-92220142D02*
X54292476Y-92267761D01*
X54292476Y-92267761D02*
X54387714Y-92315380D01*
X54387714Y-92315380D02*
X54578190Y-92315380D01*
X54578190Y-92315380D02*
X54673428Y-92267761D01*
X54673428Y-92267761D02*
X54721047Y-92220142D01*
X54721047Y-92220142D02*
X54768666Y-92124904D01*
X54768666Y-92124904D02*
X54768666Y-91886809D01*
X54768666Y-91886809D02*
X54721047Y-91791571D01*
X54721047Y-91791571D02*
X54673428Y-91743952D01*
X54673428Y-91743952D02*
X54578190Y-91696333D01*
X54578190Y-91696333D02*
X54387714Y-91696333D01*
X54387714Y-91696333D02*
X54292476Y-91743952D01*
X54292476Y-91743952D02*
X54244857Y-91791571D01*
X54244857Y-91791571D02*
X54197238Y-91886809D01*
%TO.C,R1*%
X53199380Y-75223666D02*
X52723190Y-75556999D01*
X53199380Y-75795094D02*
X52199380Y-75795094D01*
X52199380Y-75795094D02*
X52199380Y-75414142D01*
X52199380Y-75414142D02*
X52247000Y-75318904D01*
X52247000Y-75318904D02*
X52294619Y-75271285D01*
X52294619Y-75271285D02*
X52389857Y-75223666D01*
X52389857Y-75223666D02*
X52532714Y-75223666D01*
X52532714Y-75223666D02*
X52627952Y-75271285D01*
X52627952Y-75271285D02*
X52675571Y-75318904D01*
X52675571Y-75318904D02*
X52723190Y-75414142D01*
X52723190Y-75414142D02*
X52723190Y-75795094D01*
X53199380Y-74271285D02*
X53199380Y-74842713D01*
X53199380Y-74556999D02*
X52199380Y-74556999D01*
X52199380Y-74556999D02*
X52342238Y-74652237D01*
X52342238Y-74652237D02*
X52437476Y-74747475D01*
X52437476Y-74747475D02*
X52485095Y-74842713D01*
%TO.C,C2*%
X58380333Y-77742142D02*
X58332714Y-77789761D01*
X58332714Y-77789761D02*
X58189857Y-77837380D01*
X58189857Y-77837380D02*
X58094619Y-77837380D01*
X58094619Y-77837380D02*
X57951762Y-77789761D01*
X57951762Y-77789761D02*
X57856524Y-77694523D01*
X57856524Y-77694523D02*
X57808905Y-77599285D01*
X57808905Y-77599285D02*
X57761286Y-77408809D01*
X57761286Y-77408809D02*
X57761286Y-77265952D01*
X57761286Y-77265952D02*
X57808905Y-77075476D01*
X57808905Y-77075476D02*
X57856524Y-76980238D01*
X57856524Y-76980238D02*
X57951762Y-76885000D01*
X57951762Y-76885000D02*
X58094619Y-76837380D01*
X58094619Y-76837380D02*
X58189857Y-76837380D01*
X58189857Y-76837380D02*
X58332714Y-76885000D01*
X58332714Y-76885000D02*
X58380333Y-76932619D01*
X58761286Y-76932619D02*
X58808905Y-76885000D01*
X58808905Y-76885000D02*
X58904143Y-76837380D01*
X58904143Y-76837380D02*
X59142238Y-76837380D01*
X59142238Y-76837380D02*
X59237476Y-76885000D01*
X59237476Y-76885000D02*
X59285095Y-76932619D01*
X59285095Y-76932619D02*
X59332714Y-77027857D01*
X59332714Y-77027857D02*
X59332714Y-77123095D01*
X59332714Y-77123095D02*
X59285095Y-77265952D01*
X59285095Y-77265952D02*
X58713667Y-77837380D01*
X58713667Y-77837380D02*
X59332714Y-77837380D01*
%TO.C,R6*%
X53935333Y-87108380D02*
X53602000Y-86632190D01*
X53363905Y-87108380D02*
X53363905Y-86108380D01*
X53363905Y-86108380D02*
X53744857Y-86108380D01*
X53744857Y-86108380D02*
X53840095Y-86156000D01*
X53840095Y-86156000D02*
X53887714Y-86203619D01*
X53887714Y-86203619D02*
X53935333Y-86298857D01*
X53935333Y-86298857D02*
X53935333Y-86441714D01*
X53935333Y-86441714D02*
X53887714Y-86536952D01*
X53887714Y-86536952D02*
X53840095Y-86584571D01*
X53840095Y-86584571D02*
X53744857Y-86632190D01*
X53744857Y-86632190D02*
X53363905Y-86632190D01*
X54792476Y-86108380D02*
X54602000Y-86108380D01*
X54602000Y-86108380D02*
X54506762Y-86156000D01*
X54506762Y-86156000D02*
X54459143Y-86203619D01*
X54459143Y-86203619D02*
X54363905Y-86346476D01*
X54363905Y-86346476D02*
X54316286Y-86536952D01*
X54316286Y-86536952D02*
X54316286Y-86917904D01*
X54316286Y-86917904D02*
X54363905Y-87013142D01*
X54363905Y-87013142D02*
X54411524Y-87060761D01*
X54411524Y-87060761D02*
X54506762Y-87108380D01*
X54506762Y-87108380D02*
X54697238Y-87108380D01*
X54697238Y-87108380D02*
X54792476Y-87060761D01*
X54792476Y-87060761D02*
X54840095Y-87013142D01*
X54840095Y-87013142D02*
X54887714Y-86917904D01*
X54887714Y-86917904D02*
X54887714Y-86679809D01*
X54887714Y-86679809D02*
X54840095Y-86584571D01*
X54840095Y-86584571D02*
X54792476Y-86536952D01*
X54792476Y-86536952D02*
X54697238Y-86489333D01*
X54697238Y-86489333D02*
X54506762Y-86489333D01*
X54506762Y-86489333D02*
X54411524Y-86536952D01*
X54411524Y-86536952D02*
X54363905Y-86584571D01*
X54363905Y-86584571D02*
X54316286Y-86679809D01*
%TO.C,J4*%
X51228666Y-56009380D02*
X51228666Y-56723666D01*
X51228666Y-56723666D02*
X51181047Y-56866523D01*
X51181047Y-56866523D02*
X51085809Y-56961761D01*
X51085809Y-56961761D02*
X50942952Y-57009380D01*
X50942952Y-57009380D02*
X50847714Y-57009380D01*
X52133428Y-56342714D02*
X52133428Y-57009380D01*
X51895333Y-55961761D02*
X51657238Y-56676047D01*
X51657238Y-56676047D02*
X52276285Y-56676047D01*
%TO.C,C1*%
X60920333Y-76345142D02*
X60872714Y-76392761D01*
X60872714Y-76392761D02*
X60729857Y-76440380D01*
X60729857Y-76440380D02*
X60634619Y-76440380D01*
X60634619Y-76440380D02*
X60491762Y-76392761D01*
X60491762Y-76392761D02*
X60396524Y-76297523D01*
X60396524Y-76297523D02*
X60348905Y-76202285D01*
X60348905Y-76202285D02*
X60301286Y-76011809D01*
X60301286Y-76011809D02*
X60301286Y-75868952D01*
X60301286Y-75868952D02*
X60348905Y-75678476D01*
X60348905Y-75678476D02*
X60396524Y-75583238D01*
X60396524Y-75583238D02*
X60491762Y-75488000D01*
X60491762Y-75488000D02*
X60634619Y-75440380D01*
X60634619Y-75440380D02*
X60729857Y-75440380D01*
X60729857Y-75440380D02*
X60872714Y-75488000D01*
X60872714Y-75488000D02*
X60920333Y-75535619D01*
X61872714Y-76440380D02*
X61301286Y-76440380D01*
X61587000Y-76440380D02*
X61587000Y-75440380D01*
X61587000Y-75440380D02*
X61491762Y-75583238D01*
X61491762Y-75583238D02*
X61396524Y-75678476D01*
X61396524Y-75678476D02*
X61301286Y-75726095D01*
%TO.C,U2*%
X57465095Y-81663380D02*
X57465095Y-82472904D01*
X57465095Y-82472904D02*
X57512714Y-82568142D01*
X57512714Y-82568142D02*
X57560333Y-82615761D01*
X57560333Y-82615761D02*
X57655571Y-82663380D01*
X57655571Y-82663380D02*
X57846047Y-82663380D01*
X57846047Y-82663380D02*
X57941285Y-82615761D01*
X57941285Y-82615761D02*
X57988904Y-82568142D01*
X57988904Y-82568142D02*
X58036523Y-82472904D01*
X58036523Y-82472904D02*
X58036523Y-81663380D01*
X58465095Y-81758619D02*
X58512714Y-81711000D01*
X58512714Y-81711000D02*
X58607952Y-81663380D01*
X58607952Y-81663380D02*
X58846047Y-81663380D01*
X58846047Y-81663380D02*
X58941285Y-81711000D01*
X58941285Y-81711000D02*
X58988904Y-81758619D01*
X58988904Y-81758619D02*
X59036523Y-81853857D01*
X59036523Y-81853857D02*
X59036523Y-81949095D01*
X59036523Y-81949095D02*
X58988904Y-82091952D01*
X58988904Y-82091952D02*
X58417476Y-82663380D01*
X58417476Y-82663380D02*
X59036523Y-82663380D01*
%TO.C,J1*%
X55698666Y-91315380D02*
X55698666Y-92029666D01*
X55698666Y-92029666D02*
X55651047Y-92172523D01*
X55651047Y-92172523D02*
X55555809Y-92267761D01*
X55555809Y-92267761D02*
X55412952Y-92315380D01*
X55412952Y-92315380D02*
X55317714Y-92315380D01*
X56698666Y-92315380D02*
X56127238Y-92315380D01*
X56412952Y-92315380D02*
X56412952Y-91315380D01*
X56412952Y-91315380D02*
X56317714Y-91458238D01*
X56317714Y-91458238D02*
X56222476Y-91553476D01*
X56222476Y-91553476D02*
X56127238Y-91601095D01*
%TO.C,C3*%
X49769142Y-77649666D02*
X49816761Y-77697285D01*
X49816761Y-77697285D02*
X49864380Y-77840142D01*
X49864380Y-77840142D02*
X49864380Y-77935380D01*
X49864380Y-77935380D02*
X49816761Y-78078237D01*
X49816761Y-78078237D02*
X49721523Y-78173475D01*
X49721523Y-78173475D02*
X49626285Y-78221094D01*
X49626285Y-78221094D02*
X49435809Y-78268713D01*
X49435809Y-78268713D02*
X49292952Y-78268713D01*
X49292952Y-78268713D02*
X49102476Y-78221094D01*
X49102476Y-78221094D02*
X49007238Y-78173475D01*
X49007238Y-78173475D02*
X48912000Y-78078237D01*
X48912000Y-78078237D02*
X48864380Y-77935380D01*
X48864380Y-77935380D02*
X48864380Y-77840142D01*
X48864380Y-77840142D02*
X48912000Y-77697285D01*
X48912000Y-77697285D02*
X48959619Y-77649666D01*
X48864380Y-77316332D02*
X48864380Y-76697285D01*
X48864380Y-76697285D02*
X49245333Y-77030618D01*
X49245333Y-77030618D02*
X49245333Y-76887761D01*
X49245333Y-76887761D02*
X49292952Y-76792523D01*
X49292952Y-76792523D02*
X49340571Y-76744904D01*
X49340571Y-76744904D02*
X49435809Y-76697285D01*
X49435809Y-76697285D02*
X49673904Y-76697285D01*
X49673904Y-76697285D02*
X49769142Y-76744904D01*
X49769142Y-76744904D02*
X49816761Y-76792523D01*
X49816761Y-76792523D02*
X49864380Y-76887761D01*
X49864380Y-76887761D02*
X49864380Y-77173475D01*
X49864380Y-77173475D02*
X49816761Y-77268713D01*
X49816761Y-77268713D02*
X49769142Y-77316332D01*
%TO.C,D5*%
X43965905Y-88886380D02*
X43965905Y-87886380D01*
X43965905Y-87886380D02*
X44204000Y-87886380D01*
X44204000Y-87886380D02*
X44346857Y-87934000D01*
X44346857Y-87934000D02*
X44442095Y-88029238D01*
X44442095Y-88029238D02*
X44489714Y-88124476D01*
X44489714Y-88124476D02*
X44537333Y-88314952D01*
X44537333Y-88314952D02*
X44537333Y-88457809D01*
X44537333Y-88457809D02*
X44489714Y-88648285D01*
X44489714Y-88648285D02*
X44442095Y-88743523D01*
X44442095Y-88743523D02*
X44346857Y-88838761D01*
X44346857Y-88838761D02*
X44204000Y-88886380D01*
X44204000Y-88886380D02*
X43965905Y-88886380D01*
X45442095Y-87886380D02*
X44965905Y-87886380D01*
X44965905Y-87886380D02*
X44918286Y-88362571D01*
X44918286Y-88362571D02*
X44965905Y-88314952D01*
X44965905Y-88314952D02*
X45061143Y-88267333D01*
X45061143Y-88267333D02*
X45299238Y-88267333D01*
X45299238Y-88267333D02*
X45394476Y-88314952D01*
X45394476Y-88314952D02*
X45442095Y-88362571D01*
X45442095Y-88362571D02*
X45489714Y-88457809D01*
X45489714Y-88457809D02*
X45489714Y-88695904D01*
X45489714Y-88695904D02*
X45442095Y-88791142D01*
X45442095Y-88791142D02*
X45394476Y-88838761D01*
X45394476Y-88838761D02*
X45299238Y-88886380D01*
X45299238Y-88886380D02*
X45061143Y-88886380D01*
X45061143Y-88886380D02*
X44965905Y-88838761D01*
X44965905Y-88838761D02*
X44918286Y-88791142D01*
%TO.C,U3*%
X54737095Y-81663380D02*
X54737095Y-82472904D01*
X54737095Y-82472904D02*
X54784714Y-82568142D01*
X54784714Y-82568142D02*
X54832333Y-82615761D01*
X54832333Y-82615761D02*
X54927571Y-82663380D01*
X54927571Y-82663380D02*
X55118047Y-82663380D01*
X55118047Y-82663380D02*
X55213285Y-82615761D01*
X55213285Y-82615761D02*
X55260904Y-82568142D01*
X55260904Y-82568142D02*
X55308523Y-82472904D01*
X55308523Y-82472904D02*
X55308523Y-81663380D01*
X55689476Y-81663380D02*
X56308523Y-81663380D01*
X56308523Y-81663380D02*
X55975190Y-82044333D01*
X55975190Y-82044333D02*
X56118047Y-82044333D01*
X56118047Y-82044333D02*
X56213285Y-82091952D01*
X56213285Y-82091952D02*
X56260904Y-82139571D01*
X56260904Y-82139571D02*
X56308523Y-82234809D01*
X56308523Y-82234809D02*
X56308523Y-82472904D01*
X56308523Y-82472904D02*
X56260904Y-82568142D01*
X56260904Y-82568142D02*
X56213285Y-82615761D01*
X56213285Y-82615761D02*
X56118047Y-82663380D01*
X56118047Y-82663380D02*
X55832333Y-82663380D01*
X55832333Y-82663380D02*
X55737095Y-82615761D01*
X55737095Y-82615761D02*
X55689476Y-82568142D01*
%TO.C,U1*%
X48133095Y-49786380D02*
X48133095Y-50595904D01*
X48133095Y-50595904D02*
X48180714Y-50691142D01*
X48180714Y-50691142D02*
X48228333Y-50738761D01*
X48228333Y-50738761D02*
X48323571Y-50786380D01*
X48323571Y-50786380D02*
X48514047Y-50786380D01*
X48514047Y-50786380D02*
X48609285Y-50738761D01*
X48609285Y-50738761D02*
X48656904Y-50691142D01*
X48656904Y-50691142D02*
X48704523Y-50595904D01*
X48704523Y-50595904D02*
X48704523Y-49786380D01*
X49704523Y-50786380D02*
X49133095Y-50786380D01*
X49418809Y-50786380D02*
X49418809Y-49786380D01*
X49418809Y-49786380D02*
X49323571Y-49929238D01*
X49323571Y-49929238D02*
X49228333Y-50024476D01*
X49228333Y-50024476D02*
X49133095Y-50072095D01*
%TO.C,S1*%
X43408430Y-78333761D02*
X43551287Y-78381380D01*
X43551287Y-78381380D02*
X43789382Y-78381380D01*
X43789382Y-78381380D02*
X43884620Y-78333761D01*
X43884620Y-78333761D02*
X43932239Y-78286142D01*
X43932239Y-78286142D02*
X43979858Y-78190904D01*
X43979858Y-78190904D02*
X43979858Y-78095666D01*
X43979858Y-78095666D02*
X43932239Y-78000428D01*
X43932239Y-78000428D02*
X43884620Y-77952809D01*
X43884620Y-77952809D02*
X43789382Y-77905190D01*
X43789382Y-77905190D02*
X43598906Y-77857571D01*
X43598906Y-77857571D02*
X43503668Y-77809952D01*
X43503668Y-77809952D02*
X43456049Y-77762333D01*
X43456049Y-77762333D02*
X43408430Y-77667095D01*
X43408430Y-77667095D02*
X43408430Y-77571857D01*
X43408430Y-77571857D02*
X43456049Y-77476619D01*
X43456049Y-77476619D02*
X43503668Y-77429000D01*
X43503668Y-77429000D02*
X43598906Y-77381380D01*
X43598906Y-77381380D02*
X43837001Y-77381380D01*
X43837001Y-77381380D02*
X43979858Y-77429000D01*
X44932239Y-78381380D02*
X44360811Y-78381380D01*
X44646525Y-78381380D02*
X44646525Y-77381380D01*
X44646525Y-77381380D02*
X44551287Y-77524238D01*
X44551287Y-77524238D02*
X44456049Y-77619476D01*
X44456049Y-77619476D02*
X44360811Y-77667095D01*
%TO.C,R2*%
X64883380Y-76874666D02*
X64407190Y-77207999D01*
X64883380Y-77446094D02*
X63883380Y-77446094D01*
X63883380Y-77446094D02*
X63883380Y-77065142D01*
X63883380Y-77065142D02*
X63931000Y-76969904D01*
X63931000Y-76969904D02*
X63978619Y-76922285D01*
X63978619Y-76922285D02*
X64073857Y-76874666D01*
X64073857Y-76874666D02*
X64216714Y-76874666D01*
X64216714Y-76874666D02*
X64311952Y-76922285D01*
X64311952Y-76922285D02*
X64359571Y-76969904D01*
X64359571Y-76969904D02*
X64407190Y-77065142D01*
X64407190Y-77065142D02*
X64407190Y-77446094D01*
X63978619Y-76493713D02*
X63931000Y-76446094D01*
X63931000Y-76446094D02*
X63883380Y-76350856D01*
X63883380Y-76350856D02*
X63883380Y-76112761D01*
X63883380Y-76112761D02*
X63931000Y-76017523D01*
X63931000Y-76017523D02*
X63978619Y-75969904D01*
X63978619Y-75969904D02*
X64073857Y-75922285D01*
X64073857Y-75922285D02*
X64169095Y-75922285D01*
X64169095Y-75922285D02*
X64311952Y-75969904D01*
X64311952Y-75969904D02*
X64883380Y-76541332D01*
X64883380Y-76541332D02*
X64883380Y-75922285D01*
%TO.C,C4*%
X55586333Y-77742142D02*
X55538714Y-77789761D01*
X55538714Y-77789761D02*
X55395857Y-77837380D01*
X55395857Y-77837380D02*
X55300619Y-77837380D01*
X55300619Y-77837380D02*
X55157762Y-77789761D01*
X55157762Y-77789761D02*
X55062524Y-77694523D01*
X55062524Y-77694523D02*
X55014905Y-77599285D01*
X55014905Y-77599285D02*
X54967286Y-77408809D01*
X54967286Y-77408809D02*
X54967286Y-77265952D01*
X54967286Y-77265952D02*
X55014905Y-77075476D01*
X55014905Y-77075476D02*
X55062524Y-76980238D01*
X55062524Y-76980238D02*
X55157762Y-76885000D01*
X55157762Y-76885000D02*
X55300619Y-76837380D01*
X55300619Y-76837380D02*
X55395857Y-76837380D01*
X55395857Y-76837380D02*
X55538714Y-76885000D01*
X55538714Y-76885000D02*
X55586333Y-76932619D01*
X56443476Y-77170714D02*
X56443476Y-77837380D01*
X56205381Y-76789761D02*
X55967286Y-77504047D01*
X55967286Y-77504047D02*
X56586333Y-77504047D01*
%TO.C,R5*%
X44537333Y-87108380D02*
X44204000Y-86632190D01*
X43965905Y-87108380D02*
X43965905Y-86108380D01*
X43965905Y-86108380D02*
X44346857Y-86108380D01*
X44346857Y-86108380D02*
X44442095Y-86156000D01*
X44442095Y-86156000D02*
X44489714Y-86203619D01*
X44489714Y-86203619D02*
X44537333Y-86298857D01*
X44537333Y-86298857D02*
X44537333Y-86441714D01*
X44537333Y-86441714D02*
X44489714Y-86536952D01*
X44489714Y-86536952D02*
X44442095Y-86584571D01*
X44442095Y-86584571D02*
X44346857Y-86632190D01*
X44346857Y-86632190D02*
X43965905Y-86632190D01*
X45442095Y-86108380D02*
X44965905Y-86108380D01*
X44965905Y-86108380D02*
X44918286Y-86584571D01*
X44918286Y-86584571D02*
X44965905Y-86536952D01*
X44965905Y-86536952D02*
X45061143Y-86489333D01*
X45061143Y-86489333D02*
X45299238Y-86489333D01*
X45299238Y-86489333D02*
X45394476Y-86536952D01*
X45394476Y-86536952D02*
X45442095Y-86584571D01*
X45442095Y-86584571D02*
X45489714Y-86679809D01*
X45489714Y-86679809D02*
X45489714Y-86917904D01*
X45489714Y-86917904D02*
X45442095Y-87013142D01*
X45442095Y-87013142D02*
X45394476Y-87060761D01*
X45394476Y-87060761D02*
X45299238Y-87108380D01*
X45299238Y-87108380D02*
X45061143Y-87108380D01*
X45061143Y-87108380D02*
X44965905Y-87060761D01*
X44965905Y-87060761D02*
X44918286Y-87013142D01*
%TO.C,R4*%
X64806333Y-87108380D02*
X64473000Y-86632190D01*
X64234905Y-87108380D02*
X64234905Y-86108380D01*
X64234905Y-86108380D02*
X64615857Y-86108380D01*
X64615857Y-86108380D02*
X64711095Y-86156000D01*
X64711095Y-86156000D02*
X64758714Y-86203619D01*
X64758714Y-86203619D02*
X64806333Y-86298857D01*
X64806333Y-86298857D02*
X64806333Y-86441714D01*
X64806333Y-86441714D02*
X64758714Y-86536952D01*
X64758714Y-86536952D02*
X64711095Y-86584571D01*
X64711095Y-86584571D02*
X64615857Y-86632190D01*
X64615857Y-86632190D02*
X64234905Y-86632190D01*
X65663476Y-86441714D02*
X65663476Y-87108380D01*
X65425381Y-86060761D02*
X65187286Y-86775047D01*
X65187286Y-86775047D02*
X65806333Y-86775047D01*
%TO.C,J3*%
X51228666Y-58168380D02*
X51228666Y-58882666D01*
X51228666Y-58882666D02*
X51181047Y-59025523D01*
X51181047Y-59025523D02*
X51085809Y-59120761D01*
X51085809Y-59120761D02*
X50942952Y-59168380D01*
X50942952Y-59168380D02*
X50847714Y-59168380D01*
X51609619Y-58168380D02*
X52228666Y-58168380D01*
X52228666Y-58168380D02*
X51895333Y-58549333D01*
X51895333Y-58549333D02*
X52038190Y-58549333D01*
X52038190Y-58549333D02*
X52133428Y-58596952D01*
X52133428Y-58596952D02*
X52181047Y-58644571D01*
X52181047Y-58644571D02*
X52228666Y-58739809D01*
X52228666Y-58739809D02*
X52228666Y-58977904D01*
X52228666Y-58977904D02*
X52181047Y-59073142D01*
X52181047Y-59073142D02*
X52133428Y-59120761D01*
X52133428Y-59120761D02*
X52038190Y-59168380D01*
X52038190Y-59168380D02*
X51752476Y-59168380D01*
X51752476Y-59168380D02*
X51657238Y-59120761D01*
X51657238Y-59120761D02*
X51609619Y-59073142D01*
D11*
%TO.C,D4*%
X63968500Y-89127000D02*
X63968500Y-87657000D01*
X63968500Y-87657000D02*
X61683500Y-87657000D01*
X61683500Y-89127000D02*
X63968500Y-89127000D01*
%TO.C,D1*%
X53567000Y-70854500D02*
X52097000Y-70854500D01*
X52097000Y-70854500D02*
X52097000Y-73139500D01*
X53567000Y-73139500D02*
X53567000Y-70854500D01*
%TO.C,R3*%
X58924258Y-87136500D02*
X58449742Y-87136500D01*
X58924258Y-86091500D02*
X58449742Y-86091500D01*
%TO.C,J5*%
X49150000Y-91694000D02*
G75*
G03*
X49150000Y-91694000I-1500000J0D01*
G01*
%TO.C,D3*%
X57239500Y-87657000D02*
X57239500Y-89127000D01*
X57239500Y-89127000D02*
X59524500Y-89127000D01*
X59524500Y-87657000D02*
X57239500Y-87657000D01*
%TO.C,D2*%
X63727000Y-71006500D02*
X62257000Y-71006500D01*
X62257000Y-71006500D02*
X62257000Y-73291500D01*
X63727000Y-73291500D02*
X63727000Y-71006500D01*
%TO.C,J9*%
X48450000Y-78966000D02*
X40630000Y-78966000D01*
X46850000Y-78966000D02*
X46850000Y-79886000D01*
X40630000Y-78966000D02*
X40630000Y-85086000D01*
X44490000Y-79726000D02*
X42890000Y-79726000D01*
X42890000Y-79726000D02*
X42890000Y-80726000D01*
X48450000Y-79886000D02*
X48450000Y-78966000D01*
X46850000Y-79886000D02*
X48450000Y-79886000D01*
X46850000Y-80166000D02*
X46850000Y-79886000D01*
X46850000Y-80166000D02*
X48065000Y-80166000D01*
X42890000Y-80226000D02*
X40630000Y-80226000D01*
X44490000Y-80726000D02*
X44490000Y-79726000D01*
X42890000Y-80726000D02*
X44490000Y-80726000D01*
X42890000Y-80726000D02*
X40630000Y-80726000D01*
X44990000Y-81526000D02*
X44990000Y-82526000D01*
X40630000Y-81526000D02*
X44990000Y-81526000D01*
X44990000Y-82526000D02*
X40630000Y-82526000D01*
X44490000Y-83326000D02*
X44490000Y-84326000D01*
X42890000Y-83326000D02*
X44490000Y-83326000D01*
X48450000Y-84166000D02*
X46850000Y-84166000D01*
X46850000Y-84166000D02*
X46850000Y-83886000D01*
X44490000Y-84326000D02*
X42890000Y-84326000D01*
X42890000Y-84326000D02*
X42890000Y-83326000D01*
X48450000Y-85086000D02*
X48450000Y-84166000D01*
X46850000Y-85086000D02*
X46850000Y-84166000D01*
X40630000Y-85086000D02*
X48450000Y-85086000D01*
%TO.C,D6*%
X53325500Y-89127000D02*
X53325500Y-87657000D01*
X53325500Y-87657000D02*
X51040500Y-87657000D01*
X51040500Y-89127000D02*
X53325500Y-89127000D01*
%TO.C,J2*%
X64009000Y-91694000D02*
G75*
G03*
X64009000Y-91694000I-1500000J0D01*
G01*
%TO.C,J6*%
X52960000Y-91694000D02*
G75*
G03*
X52960000Y-91694000I-1500000J0D01*
G01*
%TO.C,R1*%
X53354500Y-77232742D02*
X53354500Y-77707258D01*
X52309500Y-77232742D02*
X52309500Y-77707258D01*
%TO.C,C2*%
X58037000Y-79629580D02*
X58037000Y-79348420D01*
X59057000Y-79629580D02*
X59057000Y-79348420D01*
%TO.C,R6*%
X51514742Y-86091500D02*
X51989258Y-86091500D01*
X51514742Y-87136500D02*
X51989258Y-87136500D01*
%TO.C,J4*%
X48830000Y-55815000D02*
X50230000Y-55815000D01*
X48830000Y-57215000D02*
X48830000Y-55815000D01*
X50230000Y-55815000D02*
X50230000Y-57215000D01*
X50230000Y-57215000D02*
X48830000Y-57215000D01*
%TO.C,C1*%
X60450000Y-78359580D02*
X60450000Y-78078420D01*
X61470000Y-78359580D02*
X61470000Y-78078420D01*
%TO.C,U2*%
X59521000Y-80537000D02*
X61521000Y-80537000D01*
X61521000Y-82777000D02*
X60521000Y-82777000D01*
%TO.C,J1*%
X60199000Y-91694000D02*
G75*
G03*
X60199000Y-91694000I-1500000J0D01*
G01*
%TO.C,C3*%
X50417000Y-77623580D02*
X50417000Y-77342420D01*
X51437000Y-77623580D02*
X51437000Y-77342420D01*
%TO.C,D5*%
X45732500Y-87657000D02*
X45732500Y-89127000D01*
X45732500Y-89127000D02*
X48017500Y-89127000D01*
X48017500Y-87657000D02*
X45732500Y-87657000D01*
%TO.C,U3*%
X54205000Y-82927000D02*
X52205000Y-82927000D01*
X52205000Y-80687000D02*
X53205000Y-80687000D01*
D12*
%TO.C,U1*%
X63286000Y-69793250D02*
X63286000Y-48793250D01*
X63286000Y-48793250D02*
X46157541Y-48793250D01*
X58881000Y-54721250D02*
X49882000Y-54721250D01*
X58881000Y-47369250D02*
X58881000Y-54721250D01*
X49886000Y-47369250D02*
X58881000Y-47369250D01*
X49882000Y-54721250D02*
X49882000Y-47368250D01*
X46157541Y-48793250D02*
X45486000Y-49464750D01*
X45486000Y-69793250D02*
X63286000Y-69793250D01*
X45486000Y-49464750D02*
X45486000Y-69793250D01*
D13*
%TO.C,S1*%
X43432000Y-70219000D02*
X46032000Y-70219000D01*
X46032000Y-71865330D02*
X46032000Y-73714330D01*
X43432000Y-73669000D02*
X41932000Y-73669000D01*
X41932000Y-73669000D02*
X41932000Y-74969000D01*
X41932000Y-74969000D02*
X43432000Y-74969000D01*
X46032000Y-76919000D02*
X43432000Y-76919000D01*
X43432000Y-76919000D02*
X43432000Y-70219000D01*
X47424670Y-70548670D02*
G75*
G03*
X47424670Y-70548670I-54000J0D01*
G01*
D11*
%TO.C,R2*%
X63514500Y-76483742D02*
X63514500Y-76958258D01*
X62469500Y-76483742D02*
X62469500Y-76958258D01*
%TO.C,C4*%
X55243000Y-79629580D02*
X55243000Y-79348420D01*
X56263000Y-79629580D02*
X56263000Y-79348420D01*
%TO.C,R5*%
X47417258Y-87136500D02*
X46942742Y-87136500D01*
X47417258Y-86091500D02*
X46942742Y-86091500D01*
%TO.C,R4*%
X62259742Y-86091500D02*
X62734258Y-86091500D01*
X62259742Y-87136500D02*
X62734258Y-87136500D01*
%TO.C,J3*%
X48830000Y-57974000D02*
X50230000Y-57974000D01*
X48830000Y-59374000D02*
X48830000Y-57974000D01*
X50230000Y-57974000D02*
X50230000Y-59374000D01*
X50230000Y-59374000D02*
X48830000Y-59374000D01*
%TD*%
%LPC*%
D14*
%TO.C,D4*%
X63271000Y-88392000D03*
X61696000Y-88392000D03*
%TD*%
D15*
%TO.C,D1*%
X52832000Y-71552000D03*
X52832000Y-73127000D03*
%TD*%
D16*
%TO.C,R3*%
X59512000Y-86614000D03*
X57862000Y-86614000D03*
%TD*%
D17*
%TO.C,J5*%
X47650000Y-91694000D03*
%TD*%
D18*
%TO.C,D3*%
X57937000Y-88392000D03*
X59512000Y-88392000D03*
%TD*%
D15*
%TO.C,D2*%
X62992000Y-71704000D03*
X62992000Y-73279000D03*
%TD*%
D19*
%TO.C,J9*%
X46990000Y-81026000D03*
D20*
X46989999Y-83025999D03*
%TD*%
D14*
%TO.C,D6*%
X52628000Y-88392000D03*
X51053000Y-88392000D03*
%TD*%
D17*
%TO.C,J2*%
X62509000Y-91694000D03*
%TD*%
%TO.C,J6*%
X51460000Y-91694000D03*
%TD*%
D21*
%TO.C,R1*%
X52832000Y-76645000D03*
X52832000Y-78295000D03*
%TD*%
D22*
%TO.C,C2*%
X58547000Y-80264000D03*
X58547000Y-78714000D03*
%TD*%
D23*
%TO.C,R6*%
X50927000Y-86614000D03*
X52577000Y-86614000D03*
%TD*%
D24*
%TO.C,J4*%
X49529999Y-56514999D03*
%TD*%
D22*
%TO.C,C1*%
X60960000Y-78994000D03*
X60960000Y-77444000D03*
%TD*%
D25*
%TO.C,U2*%
X60070999Y-80906999D03*
X60070999Y-81406999D03*
X60070999Y-81906999D03*
X60070999Y-82406999D03*
X61970999Y-82406999D03*
X61970999Y-81906999D03*
X61970999Y-81406999D03*
X61970999Y-80906999D03*
D26*
X61020999Y-81656999D03*
%TD*%
D17*
%TO.C,J1*%
X58699000Y-91694000D03*
%TD*%
D22*
%TO.C,C3*%
X50927000Y-78258000D03*
X50927000Y-76708000D03*
%TD*%
D18*
%TO.C,D5*%
X46430000Y-88392000D03*
X48005000Y-88392000D03*
%TD*%
D25*
%TO.C,U3*%
X53654999Y-82556999D03*
X53654999Y-82056999D03*
X53654999Y-81556999D03*
X53654999Y-81056999D03*
X51754999Y-81056999D03*
X51754999Y-81556999D03*
X51754999Y-82056999D03*
X51754999Y-82556999D03*
D26*
X52704999Y-81806999D03*
%TD*%
D27*
%TO.C,U1*%
X62486000Y-51673250D03*
X62486000Y-54213250D03*
X62486000Y-56753250D03*
X62486000Y-59293250D03*
X62486000Y-61833250D03*
X62486000Y-64373250D03*
X62486000Y-66913250D03*
X46321000Y-66913250D03*
X46321000Y-64373250D03*
X46321000Y-61833250D03*
X46321000Y-59293250D03*
X46321000Y-56753250D03*
X46321000Y-54213250D03*
X46321000Y-51673250D03*
%TD*%
D28*
%TO.C,S1*%
X44732000Y-72069000D03*
X44732000Y-75069000D03*
D29*
X46481999Y-71318999D03*
X46481999Y-74318999D03*
X46481999Y-75818999D03*
%TD*%
D21*
%TO.C,R2*%
X62992000Y-75896000D03*
X62992000Y-77546000D03*
%TD*%
D22*
%TO.C,C4*%
X55753000Y-80264000D03*
X55753000Y-78714000D03*
%TD*%
D16*
%TO.C,R5*%
X48005000Y-86614000D03*
X46355000Y-86614000D03*
%TD*%
D23*
%TO.C,R4*%
X61672000Y-86614000D03*
X63322000Y-86614000D03*
%TD*%
D24*
%TO.C,J3*%
X49529999Y-58673999D03*
%TD*%
M02*
