%TF.GenerationSoftware,KiCad,Pcbnew,(7.0.0)*%
%TF.CreationDate,2023-03-10T16:09:33-06:00*%
%TF.ProjectId,stick-and-slip_v2_2-channel,73746963-6b2d-4616-9e64-2d736c69705f,rev?*%
%TF.SameCoordinates,Original*%
%TF.FileFunction,Paste,Top*%
%TF.FilePolarity,Positive*%
%FSLAX46Y46*%
G04 Gerber Fmt 4.6, Leading zero omitted, Abs format (unit mm)*
G04 Created by KiCad (PCBNEW (7.0.0)) date 2023-03-10 16:09:33*
%MOMM*%
%LPD*%
G01*
G04 APERTURE LIST*
G04 Aperture macros list*
%AMRoundRect*
0 Rectangle with rounded corners*
0 $1 Rounding radius*
0 $2 $3 $4 $5 $6 $7 $8 $9 X,Y pos of 4 corners*
0 Add a 4 corners polygon primitive as box body*
4,1,4,$2,$3,$4,$5,$6,$7,$8,$9,$2,$3,0*
0 Add four circle primitives for the rounded corners*
1,1,$1+$1,$2,$3*
1,1,$1+$1,$4,$5*
1,1,$1+$1,$6,$7*
1,1,$1+$1,$8,$9*
0 Add four rect primitives between the rounded corners*
20,1,$1+$1,$2,$3,$4,$5,0*
20,1,$1+$1,$4,$5,$6,$7,0*
20,1,$1+$1,$6,$7,$8,$9,0*
20,1,$1+$1,$8,$9,$2,$3,0*%
G04 Aperture macros list end*
%ADD10RoundRect,0.218750X0.218750X0.256250X-0.218750X0.256250X-0.218750X-0.256250X0.218750X-0.256250X0*%
%ADD11RoundRect,0.218750X-0.256250X0.218750X-0.256250X-0.218750X0.256250X-0.218750X0.256250X0.218750X0*%
%ADD12RoundRect,0.200000X0.200000X0.275000X-0.200000X0.275000X-0.200000X-0.275000X0.200000X-0.275000X0*%
%ADD13RoundRect,0.218750X-0.218750X-0.256250X0.218750X-0.256250X0.218750X0.256250X-0.218750X0.256250X0*%
%ADD14RoundRect,0.200000X-0.275000X0.200000X-0.275000X-0.200000X0.275000X-0.200000X0.275000X0.200000X0*%
%ADD15RoundRect,0.225000X0.250000X-0.225000X0.250000X0.225000X-0.250000X0.225000X-0.250000X-0.225000X0*%
%ADD16RoundRect,0.200000X-0.200000X-0.275000X0.200000X-0.275000X0.200000X0.275000X-0.200000X0.275000X0*%
%ADD17R,0.750000X0.650000*%
%ADD18R,0.500000X0.250000*%
%ADD19RoundRect,1.000000X-0.375000X0.000000X0.375000X0.000000X0.375000X0.000000X-0.375000X0.000000X0*%
%ADD20R,1.500000X0.700000*%
G04 APERTURE END LIST*
D10*
%TO.C,D4*%
X63271000Y-88392000D03*
X61696000Y-88392000D03*
%TD*%
D11*
%TO.C,D1*%
X52832000Y-71552000D03*
X52832000Y-73127000D03*
%TD*%
D12*
%TO.C,R3*%
X59512000Y-86614000D03*
X57862000Y-86614000D03*
%TD*%
D13*
%TO.C,D3*%
X57937000Y-88392000D03*
X59512000Y-88392000D03*
%TD*%
D11*
%TO.C,D2*%
X62992000Y-71704000D03*
X62992000Y-73279000D03*
%TD*%
D10*
%TO.C,D6*%
X52628000Y-88392000D03*
X51053000Y-88392000D03*
%TD*%
D14*
%TO.C,R1*%
X52832000Y-76645000D03*
X52832000Y-78295000D03*
%TD*%
D15*
%TO.C,C2*%
X58547000Y-80264000D03*
X58547000Y-78714000D03*
%TD*%
D16*
%TO.C,R6*%
X50927000Y-86614000D03*
X52577000Y-86614000D03*
%TD*%
D15*
%TO.C,C1*%
X60960000Y-78994000D03*
X60960000Y-77444000D03*
%TD*%
D17*
%TO.C,U2*%
X61020999Y-81256999D03*
X61020999Y-82056999D03*
D18*
X60070999Y-80906999D03*
X60070999Y-81406999D03*
X60070999Y-81906999D03*
X60070999Y-82406999D03*
X61970999Y-82406999D03*
X61970999Y-81906999D03*
X61970999Y-81406999D03*
X61970999Y-80906999D03*
%TD*%
D15*
%TO.C,C3*%
X50927000Y-78258000D03*
X50927000Y-76708000D03*
%TD*%
D13*
%TO.C,D5*%
X46430000Y-88392000D03*
X48005000Y-88392000D03*
%TD*%
D17*
%TO.C,U3*%
X52704999Y-82206999D03*
X52704999Y-81406999D03*
D18*
X53654999Y-82556999D03*
X53654999Y-82056999D03*
X53654999Y-81556999D03*
X53654999Y-81056999D03*
X51754999Y-81056999D03*
X51754999Y-81556999D03*
X51754999Y-82056999D03*
X51754999Y-82556999D03*
%TD*%
D19*
%TO.C,U1*%
X62486000Y-51673250D03*
X62486000Y-54213250D03*
X62486000Y-56753250D03*
X62486000Y-59293250D03*
X62486000Y-61833250D03*
X62486000Y-64373250D03*
X62486000Y-66913250D03*
X46321000Y-66913250D03*
X46321000Y-64373250D03*
X46321000Y-61833250D03*
X46321000Y-59293250D03*
X46321000Y-56753250D03*
X46321000Y-54213250D03*
X46321000Y-51673250D03*
%TD*%
D20*
%TO.C,S1*%
X46481999Y-71318999D03*
X46481999Y-74318999D03*
X46481999Y-75818999D03*
%TD*%
D14*
%TO.C,R2*%
X62992000Y-75896000D03*
X62992000Y-77546000D03*
%TD*%
D15*
%TO.C,C4*%
X55753000Y-80264000D03*
X55753000Y-78714000D03*
%TD*%
D12*
%TO.C,R5*%
X48005000Y-86614000D03*
X46355000Y-86614000D03*
%TD*%
D16*
%TO.C,R4*%
X61672000Y-86614000D03*
X63322000Y-86614000D03*
%TD*%
M02*
