%TF.GenerationSoftware,KiCad,Pcbnew,(7.0.0)*%
%TF.CreationDate,2023-03-10T16:09:33-06:00*%
%TF.ProjectId,stick-and-slip_v2_2-channel,73746963-6b2d-4616-9e64-2d736c69705f,rev?*%
%TF.SameCoordinates,Original*%
%TF.FileFunction,Copper,L1,Top*%
%TF.FilePolarity,Positive*%
%FSLAX46Y46*%
G04 Gerber Fmt 4.6, Leading zero omitted, Abs format (unit mm)*
G04 Created by KiCad (PCBNEW (7.0.0)) date 2023-03-10 16:09:33*
%MOMM*%
%LPD*%
G01*
G04 APERTURE LIST*
G04 Aperture macros list*
%AMRoundRect*
0 Rectangle with rounded corners*
0 $1 Rounding radius*
0 $2 $3 $4 $5 $6 $7 $8 $9 X,Y pos of 4 corners*
0 Add a 4 corners polygon primitive as box body*
4,1,4,$2,$3,$4,$5,$6,$7,$8,$9,$2,$3,0*
0 Add four circle primitives for the rounded corners*
1,1,$1+$1,$2,$3*
1,1,$1+$1,$4,$5*
1,1,$1+$1,$6,$7*
1,1,$1+$1,$8,$9*
0 Add four rect primitives between the rounded corners*
20,1,$1+$1,$2,$3,$4,$5,0*
20,1,$1+$1,$4,$5,$6,$7,0*
20,1,$1+$1,$6,$7,$8,$9,0*
20,1,$1+$1,$8,$9,$2,$3,0*%
G04 Aperture macros list end*
%TA.AperFunction,SMDPad,CuDef*%
%ADD10RoundRect,0.218750X0.218750X0.256250X-0.218750X0.256250X-0.218750X-0.256250X0.218750X-0.256250X0*%
%TD*%
%TA.AperFunction,SMDPad,CuDef*%
%ADD11RoundRect,0.218750X-0.256250X0.218750X-0.256250X-0.218750X0.256250X-0.218750X0.256250X0.218750X0*%
%TD*%
%TA.AperFunction,SMDPad,CuDef*%
%ADD12RoundRect,0.200000X0.200000X0.275000X-0.200000X0.275000X-0.200000X-0.275000X0.200000X-0.275000X0*%
%TD*%
%TA.AperFunction,ComponentPad*%
%ADD13C,2.000000*%
%TD*%
%TA.AperFunction,SMDPad,CuDef*%
%ADD14RoundRect,0.218750X-0.218750X-0.256250X0.218750X-0.256250X0.218750X0.256250X-0.218750X0.256250X0*%
%TD*%
%TA.AperFunction,ComponentPad*%
%ADD15RoundRect,0.250000X-0.625000X0.350000X-0.625000X-0.350000X0.625000X-0.350000X0.625000X0.350000X0*%
%TD*%
%TA.AperFunction,ComponentPad*%
%ADD16O,1.750000X1.200000*%
%TD*%
%TA.AperFunction,SMDPad,CuDef*%
%ADD17RoundRect,0.200000X-0.275000X0.200000X-0.275000X-0.200000X0.275000X-0.200000X0.275000X0.200000X0*%
%TD*%
%TA.AperFunction,SMDPad,CuDef*%
%ADD18RoundRect,0.225000X0.250000X-0.225000X0.250000X0.225000X-0.250000X0.225000X-0.250000X-0.225000X0*%
%TD*%
%TA.AperFunction,SMDPad,CuDef*%
%ADD19RoundRect,0.200000X-0.200000X-0.275000X0.200000X-0.275000X0.200000X0.275000X-0.200000X0.275000X0*%
%TD*%
%TA.AperFunction,SMDPad,CuDef*%
%ADD20R,1.000000X1.000000*%
%TD*%
%TA.AperFunction,SMDPad,CuDef*%
%ADD21R,0.500000X0.250000*%
%TD*%
%TA.AperFunction,SMDPad,CuDef*%
%ADD22R,0.900000X1.600000*%
%TD*%
%TA.AperFunction,SMDPad,CuDef*%
%ADD23RoundRect,1.000000X-0.375000X0.000000X0.375000X0.000000X0.375000X0.000000X-0.375000X0.000000X0*%
%TD*%
%TA.AperFunction,SMDPad,CuDef*%
%ADD24R,1.500000X0.700000*%
%TD*%
%TA.AperFunction,ViaPad*%
%ADD25C,0.800000*%
%TD*%
%TA.AperFunction,ViaPad*%
%ADD26C,0.600000*%
%TD*%
%TA.AperFunction,Conductor*%
%ADD27C,0.500000*%
%TD*%
%TA.AperFunction,Conductor*%
%ADD28C,0.250000*%
%TD*%
G04 APERTURE END LIST*
D10*
%TO.P,D4,1,K*%
%TO.N,GND*%
X63271000Y-88392000D03*
%TO.P,D4,2,A*%
%TO.N,Net-(D4-A)*%
X61696000Y-88392000D03*
%TD*%
D11*
%TO.P,D1,1,K*%
%TO.N,GND*%
X52832000Y-71552000D03*
%TO.P,D1,2,A*%
%TO.N,Net-(D1-A)*%
X52832000Y-73127000D03*
%TD*%
D12*
%TO.P,R3,1*%
%TO.N,Net-(D3-A)*%
X59512000Y-86614000D03*
%TO.P,R3,2*%
%TO.N,/motor-1-green-indicator-led*%
X57862000Y-86614000D03*
%TD*%
D13*
%TO.P,J5,1,Pin_1*%
%TO.N,/motor-2-green-indicator-led*%
X47650000Y-91694000D03*
%TD*%
D14*
%TO.P,D3,1,K*%
%TO.N,GND*%
X57937000Y-88392000D03*
%TO.P,D3,2,A*%
%TO.N,Net-(D3-A)*%
X59512000Y-88392000D03*
%TD*%
D11*
%TO.P,D2,1,K*%
%TO.N,GND*%
X62992000Y-71704000D03*
%TO.P,D2,2,A*%
%TO.N,Net-(D2-A)*%
X62992000Y-73279000D03*
%TD*%
D15*
%TO.P,J9,1,Pin_1*%
%TO.N,Net-(J9-Pin_1)*%
X46990000Y-81026000D03*
D16*
%TO.P,J9,2,Pin_2*%
%TO.N,GND*%
X46989999Y-83025999D03*
%TD*%
D10*
%TO.P,D6,1,K*%
%TO.N,GND*%
X52628000Y-88392000D03*
%TO.P,D6,2,A*%
%TO.N,Net-(D6-A)*%
X51053000Y-88392000D03*
%TD*%
D13*
%TO.P,J2,1,Pin_1*%
%TO.N,/motor-1-red-indicator-led*%
X62509000Y-91694000D03*
%TD*%
%TO.P,J6,1,Pin_1*%
%TO.N,/motor-2-red-indicator-led*%
X51460000Y-91694000D03*
%TD*%
D17*
%TO.P,R1,1*%
%TO.N,Net-(D1-A)*%
X52832000Y-76645000D03*
%TO.P,R1,2*%
%TO.N,+3.3V*%
X52832000Y-78295000D03*
%TD*%
D18*
%TO.P,C2,1*%
%TO.N,+BATT*%
X58547000Y-80264000D03*
%TO.P,C2,2*%
%TO.N,GND*%
X58547000Y-78714000D03*
%TD*%
D19*
%TO.P,R6,1*%
%TO.N,Net-(D6-A)*%
X50927000Y-86614000D03*
%TO.P,R6,2*%
%TO.N,/motor-2-red-indicator-led*%
X52577000Y-86614000D03*
%TD*%
D20*
%TO.P,J4,1,Pin_1*%
%TO.N,GND*%
X49529999Y-56514999D03*
%TD*%
D18*
%TO.P,C1,1*%
%TO.N,+3.3V*%
X60960000Y-78994000D03*
%TO.P,C1,2*%
%TO.N,GND*%
X60960000Y-77444000D03*
%TD*%
D21*
%TO.P,U2,1,VM*%
%TO.N,+BATT*%
X60070999Y-80906999D03*
%TO.P,U2,2,OUT1*%
%TO.N,/motor-1-green-indicator-led*%
X60070999Y-81406999D03*
%TO.P,U2,3,OUT2*%
%TO.N,/motor-1-red-indicator-led*%
X60070999Y-81906999D03*
%TO.P,U2,4,GND*%
%TO.N,GND*%
X60070999Y-82406999D03*
%TO.P,U2,5,IN2*%
%TO.N,/motor-driver-1a*%
X61970999Y-82406999D03*
%TO.P,U2,6,IN1*%
%TO.N,/motor-driver-1b*%
X61970999Y-81906999D03*
%TO.P,U2,7,~{SLEEP}*%
%TO.N,+3.3V*%
X61970999Y-81406999D03*
%TO.P,U2,8,VCC*%
X61970999Y-80906999D03*
D22*
%TO.P,U2,9,GND*%
%TO.N,GND*%
X61020999Y-81656999D03*
%TD*%
D13*
%TO.P,J1,1,Pin_1*%
%TO.N,/motor-1-green-indicator-led*%
X58699000Y-91694000D03*
%TD*%
D18*
%TO.P,C3,1*%
%TO.N,+3.3V*%
X50927000Y-78258000D03*
%TO.P,C3,2*%
%TO.N,GND*%
X50927000Y-76708000D03*
%TD*%
D14*
%TO.P,D5,1,K*%
%TO.N,GND*%
X46430000Y-88392000D03*
%TO.P,D5,2,A*%
%TO.N,Net-(D5-A)*%
X48005000Y-88392000D03*
%TD*%
D21*
%TO.P,U3,1,VM*%
%TO.N,+BATT*%
X53654999Y-82556999D03*
%TO.P,U3,2,OUT1*%
%TO.N,/motor-2-green-indicator-led*%
X53654999Y-82056999D03*
%TO.P,U3,3,OUT2*%
%TO.N,/motor-2-red-indicator-led*%
X53654999Y-81556999D03*
%TO.P,U3,4,GND*%
%TO.N,GND*%
X53654999Y-81056999D03*
%TO.P,U3,5,IN2*%
%TO.N,/motor-driver-2b*%
X51754999Y-81056999D03*
%TO.P,U3,6,IN1*%
%TO.N,/motor-driver-2a*%
X51754999Y-81556999D03*
%TO.P,U3,7,~{SLEEP}*%
%TO.N,+3.3V*%
X51754999Y-82056999D03*
%TO.P,U3,8,VCC*%
X51754999Y-82556999D03*
D22*
%TO.P,U3,9,GND*%
%TO.N,GND*%
X52704999Y-81806999D03*
%TD*%
D23*
%TO.P,U1,14,5V*%
%TO.N,unconnected-(U1-5V-Pad14)*%
X62486000Y-51673250D03*
%TO.P,U1,13,GND*%
%TO.N,GND*%
X62486000Y-54213250D03*
%TO.P,U1,12,3V3*%
%TO.N,+3.3V*%
X62486000Y-56753250D03*
%TO.P,U1,11,PA6_A10_D10_MOSI*%
%TO.N,/BLE-indicator-pin*%
X62486000Y-59293250D03*
%TO.P,U1,10,PA5_A9_D9_MISO*%
%TO.N,/motor-driver-1a*%
X62486000Y-61833250D03*
%TO.P,U1,9,PA7_A8_D8_SCK*%
%TO.N,/motor-driver-1b*%
X62486000Y-64373250D03*
%TO.P,U1,8,PB09_A7_D7_RX*%
%TO.N,unconnected-(U1-PB09_A7_D7_RX-Pad8)*%
X62486000Y-66913250D03*
%TO.P,U1,7,PB08_A6_D6_TX*%
%TO.N,unconnected-(U1-PB08_A6_D6_TX-Pad7)*%
X46321000Y-66913250D03*
%TO.P,U1,6,PA9_A5_D5_SCL*%
%TO.N,/motor-driver-2b*%
X46321000Y-64373250D03*
%TO.P,U1,5,PA8_A4_D4_SDA*%
%TO.N,/motor-driver-2a*%
X46321000Y-61833250D03*
%TO.P,U1,4,PA11_A3_D3*%
%TO.N,unconnected-(U1-PA11_A3_D3-Pad4)*%
X46321000Y-59293250D03*
%TO.P,U1,3,PA10_A2_D2*%
%TO.N,unconnected-(U1-PA10_A2_D2-Pad3)*%
X46321000Y-56753250D03*
%TO.P,U1,2,PA4_A1_D1*%
%TO.N,unconnected-(U1-PA4_A1_D1-Pad2)*%
X46321000Y-54213250D03*
%TO.P,U1,1,PA02_A0_D0*%
%TO.N,unconnected-(U1-PA02_A0_D0-Pad1)*%
X46321000Y-51673250D03*
%TD*%
D24*
%TO.P,S1,1,1*%
%TO.N,Net-(J9-Pin_1)*%
X46481999Y-71318999D03*
%TO.P,S1,2,2*%
%TO.N,+BATT*%
X46481999Y-74318999D03*
%TO.P,S1,3,3*%
%TO.N,unconnected-(S1-Pad3)*%
X46481999Y-75818999D03*
%TD*%
D17*
%TO.P,R2,1*%
%TO.N,Net-(D2-A)*%
X62992000Y-75896000D03*
%TO.P,R2,2*%
%TO.N,/BLE-indicator-pin*%
X62992000Y-77546000D03*
%TD*%
D18*
%TO.P,C4,1*%
%TO.N,+BATT*%
X55753000Y-80264000D03*
%TO.P,C4,2*%
%TO.N,GND*%
X55753000Y-78714000D03*
%TD*%
D12*
%TO.P,R5,1*%
%TO.N,Net-(D5-A)*%
X48005000Y-86614000D03*
%TO.P,R5,2*%
%TO.N,/motor-2-green-indicator-led*%
X46355000Y-86614000D03*
%TD*%
D19*
%TO.P,R4,1*%
%TO.N,Net-(D4-A)*%
X61672000Y-86614000D03*
%TO.P,R4,2*%
%TO.N,/motor-1-red-indicator-led*%
X63322000Y-86614000D03*
%TD*%
D20*
%TO.P,J3,1,Pin_1*%
%TO.N,+BATT*%
X49529999Y-58673999D03*
%TD*%
D25*
%TO.N,+BATT*%
X50927000Y-85089500D03*
D26*
X55753000Y-81788000D03*
D25*
%TO.N,/BLE-indicator-pin*%
X65532000Y-79121000D03*
X62992000Y-79121000D03*
%TO.N,GND*%
X49530000Y-90043000D03*
X50927000Y-72009000D03*
X60325000Y-70866000D03*
X61722000Y-83820000D03*
X60706000Y-90170000D03*
%TO.N,/motor-driver-2a*%
X51562000Y-80010000D03*
X44069000Y-63500000D03*
%TO.N,/motor-driver-2b*%
X52705000Y-80010000D03*
X44069000Y-65786000D03*
%TD*%
D27*
%TO.N,+BATT*%
X43904503Y-72898000D02*
X43782000Y-72898000D01*
X59428000Y-80264000D02*
X59996000Y-80832000D01*
X45466000Y-85217000D02*
X43782000Y-83533000D01*
X45301503Y-74295000D02*
X43904503Y-72898000D01*
X47625000Y-69723000D02*
X48830000Y-68518000D01*
X51497500Y-85089500D02*
X53655000Y-82932000D01*
X44704000Y-69723000D02*
X47625000Y-69723000D01*
X48830000Y-59374000D02*
X49530000Y-58674000D01*
X46482000Y-74319000D02*
X46458000Y-74295000D01*
X59996000Y-80832000D02*
X60071000Y-80832000D01*
X58547000Y-80264000D02*
X59428000Y-80264000D01*
X50927000Y-85089500D02*
X51497500Y-85089500D01*
X55753000Y-80264000D02*
X58547000Y-80264000D01*
X43782000Y-83533000D02*
X43782000Y-70645000D01*
X53655000Y-82932000D02*
X53655000Y-82677000D01*
X48830000Y-68518000D02*
X48830000Y-59374000D01*
X43782000Y-70645000D02*
X44704000Y-69723000D01*
X46458000Y-74295000D02*
X45301503Y-74295000D01*
X50799500Y-85217000D02*
X45466000Y-85217000D01*
X50927000Y-85089500D02*
X50799500Y-85217000D01*
X55753000Y-81788000D02*
X55753000Y-80264000D01*
D28*
%TO.N,Net-(D1-A)*%
X52832000Y-73127000D02*
X52832000Y-76645000D01*
%TO.N,Net-(D2-A)*%
X62992000Y-73279000D02*
X62992000Y-75896000D01*
D27*
%TO.N,Net-(D3-A)*%
X59512000Y-86614000D02*
X59512000Y-88392000D01*
D28*
%TO.N,/motor-driver-1b*%
X62496000Y-81907000D02*
X61971000Y-81907000D01*
X64186000Y-80217000D02*
X62496000Y-81907000D01*
X62486000Y-64373250D02*
X64186000Y-66073250D01*
X64186000Y-66073250D02*
X64186000Y-80217000D01*
%TO.N,/motor-driver-1a*%
X61971000Y-82407000D02*
X62632396Y-82407000D01*
X64643000Y-63990250D02*
X62486000Y-61833250D01*
X62632396Y-82407000D02*
X64643000Y-80396396D01*
X64643000Y-80396396D02*
X64643000Y-63990250D01*
%TO.N,/BLE-indicator-pin*%
X62992000Y-77546000D02*
X62992000Y-79121000D01*
X65532000Y-62339250D02*
X62486000Y-59293250D01*
X65532000Y-79121000D02*
X65532000Y-62339250D01*
%TO.N,+3.3V*%
X50927000Y-78258000D02*
X52795000Y-78258000D01*
D27*
X60071000Y-67183000D02*
X60071000Y-58801000D01*
D28*
X61976000Y-76200000D02*
X61976000Y-77978000D01*
X50730000Y-81718000D02*
X50730000Y-78455000D01*
X56515000Y-70739000D02*
X61976000Y-76200000D01*
D27*
X56515000Y-70739000D02*
X60071000Y-67183000D01*
D28*
X60960000Y-78994000D02*
X61971000Y-80005000D01*
X62486000Y-56753250D02*
X62118750Y-56753250D01*
X61971000Y-81407000D02*
X61971000Y-80907000D01*
X54356000Y-72898000D02*
X56515000Y-70739000D01*
X52832000Y-78295000D02*
X54356000Y-76771000D01*
X61971000Y-80005000D02*
X61971000Y-80907000D01*
X52795000Y-78258000D02*
X52832000Y-78295000D01*
X51569000Y-82557000D02*
X51755000Y-82557000D01*
X51755000Y-82057000D02*
X51755000Y-82557000D01*
X50730000Y-78455000D02*
X50927000Y-78258000D01*
X61976000Y-77978000D02*
X60960000Y-78994000D01*
X50730000Y-81718000D02*
X51569000Y-82557000D01*
X54356000Y-76771000D02*
X54356000Y-72898000D01*
D27*
X60071000Y-58801000D02*
X62118750Y-56753250D01*
D28*
%TO.N,GND*%
X60596000Y-82407000D02*
X61021000Y-81982000D01*
X62814000Y-71882000D02*
X62992000Y-71704000D01*
D27*
X46430000Y-88392000D02*
X48081000Y-90043000D01*
D28*
X58547000Y-78714000D02*
X58903000Y-78714000D01*
X53655000Y-81057000D02*
X53655000Y-79954116D01*
D27*
X50977000Y-90043000D02*
X49530000Y-90043000D01*
D28*
X53655000Y-81057000D02*
X53130000Y-81057000D01*
D27*
X52628000Y-88392000D02*
X50977000Y-90043000D01*
X48081000Y-90043000D02*
X49530000Y-90043000D01*
D28*
X53130000Y-81057000D02*
X52705000Y-81482000D01*
X61021000Y-81982000D02*
X61021000Y-81657000D01*
X61021000Y-80832000D02*
X61021000Y-81657000D01*
D27*
X57937000Y-88392000D02*
X59715000Y-90170000D01*
X61493000Y-90170000D02*
X60706000Y-90170000D01*
D28*
X55753000Y-78714000D02*
X58547000Y-78714000D01*
X54895116Y-78714000D02*
X55753000Y-78714000D01*
D27*
X59715000Y-90170000D02*
X60706000Y-90170000D01*
X61021000Y-81657000D02*
X61021000Y-83119000D01*
X63271000Y-88392000D02*
X61493000Y-90170000D01*
D28*
X59817000Y-77444000D02*
X58547000Y-78714000D01*
X58903000Y-78714000D02*
X61021000Y-80832000D01*
X60071000Y-82407000D02*
X60596000Y-82407000D01*
X53655000Y-79954116D02*
X54895116Y-78714000D01*
D27*
X61021000Y-83119000D02*
X61722000Y-83820000D01*
D28*
X60960000Y-77444000D02*
X59817000Y-77444000D01*
D27*
%TO.N,Net-(D4-A)*%
X61672000Y-88368000D02*
X61696000Y-88392000D01*
X61672000Y-86614000D02*
X61672000Y-88368000D01*
%TO.N,Net-(D5-A)*%
X48005000Y-86614000D02*
X48005000Y-88392000D01*
%TO.N,Net-(D6-A)*%
X50927000Y-86614000D02*
X50927000Y-88266000D01*
X50927000Y-88266000D02*
X51053000Y-88392000D01*
D28*
%TO.N,/motor-1-green-indicator-led*%
X57049500Y-90044500D02*
X57049500Y-87426500D01*
X57049500Y-87426500D02*
X57862000Y-86614000D01*
X58699000Y-91694000D02*
X57049500Y-90044500D01*
X59409604Y-81407000D02*
X57862000Y-82954604D01*
X60071000Y-81407000D02*
X59409604Y-81407000D01*
X57862000Y-82954604D02*
X57862000Y-86614000D01*
%TO.N,/motor-1-red-indicator-led*%
X64158500Y-87450500D02*
X63322000Y-86614000D01*
X62509000Y-91694000D02*
X64158500Y-90044500D01*
X59436000Y-82728000D02*
X63322000Y-86614000D01*
X59546000Y-81907000D02*
X59436000Y-82017000D01*
X59436000Y-82017000D02*
X59436000Y-82728000D01*
X60071000Y-81907000D02*
X59546000Y-81907000D01*
X64158500Y-90044500D02*
X64158500Y-87450500D01*
%TO.N,/motor-2-green-indicator-led*%
X47155000Y-85814000D02*
X46355000Y-86614000D01*
X45542500Y-87426500D02*
X46355000Y-86614000D01*
X53655000Y-82057000D02*
X54180000Y-82057000D01*
X54180000Y-82057000D02*
X54230000Y-82107000D01*
X45542500Y-89586500D02*
X45542500Y-87426500D01*
X47650000Y-91694000D02*
X45542500Y-89586500D01*
X54230000Y-83184000D02*
X51600000Y-85814000D01*
X51600000Y-85814000D02*
X47155000Y-85814000D01*
X54230000Y-82107000D02*
X54230000Y-83184000D01*
%TO.N,/motor-2-red-indicator-led*%
X53848000Y-89306000D02*
X51460000Y-91694000D01*
X54316396Y-81557000D02*
X54680000Y-81920604D01*
X54680000Y-84511000D02*
X52577000Y-86614000D01*
X54680000Y-81920604D02*
X54680000Y-84511000D01*
X53655000Y-81557000D02*
X54316396Y-81557000D01*
X53848000Y-88011000D02*
X53848000Y-89306000D01*
X52577000Y-86614000D02*
X52577000Y-86740000D01*
X52577000Y-86740000D02*
X53848000Y-88011000D01*
%TO.N,/motor-driver-2a*%
X51331000Y-81557000D02*
X51755000Y-81557000D01*
X46321000Y-61833250D02*
X45735750Y-61833250D01*
X51180000Y-80392000D02*
X51180000Y-81406000D01*
X51562000Y-80010000D02*
X51180000Y-80392000D01*
X45735750Y-61833250D02*
X44069000Y-63500000D01*
X51180000Y-81406000D02*
X51331000Y-81557000D01*
%TO.N,/motor-driver-2b*%
X46321000Y-64373250D02*
X45481750Y-64373250D01*
X52705000Y-80010000D02*
X51755000Y-80960000D01*
X51755000Y-80960000D02*
X51755000Y-81057000D01*
X45481750Y-64373250D02*
X44069000Y-65786000D01*
D27*
%TO.N,Net-(J9-Pin_1)*%
X47682000Y-80334000D02*
X47682000Y-72519000D01*
X46990000Y-81026000D02*
X47682000Y-80334000D01*
X47682000Y-72519000D02*
X46482000Y-71319000D01*
%TD*%
%TA.AperFunction,Conductor*%
%TO.N,GND*%
G36*
X60456845Y-79899407D02*
G01*
X60562292Y-79934349D01*
X60661655Y-79944500D01*
X60974546Y-79944499D01*
X61021999Y-79953938D01*
X61062227Y-79980818D01*
X61270011Y-80188602D01*
X61302105Y-80244189D01*
X61302105Y-80308377D01*
X61276537Y-80352659D01*
X61271000Y-80373326D01*
X61271000Y-80533931D01*
X61263182Y-80577264D01*
X61229620Y-80667247D01*
X61229620Y-80667249D01*
X61226909Y-80674517D01*
X61226079Y-80682227D01*
X61226079Y-80682232D01*
X61220855Y-80730819D01*
X61220854Y-80730831D01*
X61220500Y-80734127D01*
X61220500Y-80737448D01*
X61220500Y-80737449D01*
X61220500Y-81076560D01*
X61220500Y-81076578D01*
X61220501Y-81079872D01*
X61220853Y-81083150D01*
X61220854Y-81083161D01*
X61226909Y-81139483D01*
X61225306Y-81139655D01*
X61225307Y-81174344D01*
X61226909Y-81174517D01*
X61220855Y-81230819D01*
X61220854Y-81230831D01*
X61220500Y-81234127D01*
X61220500Y-81237448D01*
X61220500Y-81237449D01*
X61220500Y-81576560D01*
X61220500Y-81576578D01*
X61220501Y-81579872D01*
X61220853Y-81583150D01*
X61220854Y-81583161D01*
X61226909Y-81639483D01*
X61225306Y-81639655D01*
X61225307Y-81674344D01*
X61226909Y-81674517D01*
X61220855Y-81730819D01*
X61220854Y-81730831D01*
X61220500Y-81734127D01*
X61220500Y-81737448D01*
X61220500Y-81737449D01*
X61220500Y-82076560D01*
X61220500Y-82076578D01*
X61220501Y-82079872D01*
X61220853Y-82083150D01*
X61220854Y-82083161D01*
X61226909Y-82139483D01*
X61225306Y-82139655D01*
X61225307Y-82174344D01*
X61226909Y-82174517D01*
X61220855Y-82230819D01*
X61220854Y-82230831D01*
X61220500Y-82234127D01*
X61220500Y-82237448D01*
X61220500Y-82237449D01*
X61220500Y-82576560D01*
X61220500Y-82576578D01*
X61220501Y-82579872D01*
X61220853Y-82583150D01*
X61220854Y-82583161D01*
X61226079Y-82631768D01*
X61226080Y-82631773D01*
X61226909Y-82639483D01*
X61229619Y-82646749D01*
X61229620Y-82646753D01*
X61263182Y-82736736D01*
X61271000Y-82780069D01*
X61271000Y-82940674D01*
X61274450Y-82953549D01*
X61287326Y-82957000D01*
X61415232Y-82957000D01*
X61473391Y-82971845D01*
X61478669Y-82975796D01*
X61613517Y-83026091D01*
X61673127Y-83032500D01*
X61891980Y-83032499D01*
X61891981Y-83032500D01*
X62554621Y-83032500D01*
X62565676Y-83033021D01*
X62573063Y-83034673D01*
X62640268Y-83032561D01*
X62644164Y-83032500D01*
X62667844Y-83032500D01*
X62671746Y-83032500D01*
X62675709Y-83031999D01*
X62687359Y-83031080D01*
X62731023Y-83029709D01*
X62750257Y-83024119D01*
X62769313Y-83020174D01*
X62789188Y-83017664D01*
X62829791Y-83001587D01*
X62840846Y-82997802D01*
X62882786Y-82985618D01*
X62900025Y-82975422D01*
X62917499Y-82966862D01*
X62928870Y-82962360D01*
X62928872Y-82962358D01*
X62936128Y-82959486D01*
X62971465Y-82933811D01*
X62981220Y-82927403D01*
X63018816Y-82905170D01*
X63032980Y-82891005D01*
X63047775Y-82878368D01*
X63063983Y-82866594D01*
X63091824Y-82832938D01*
X63099675Y-82824309D01*
X65030311Y-80893674D01*
X65038481Y-80886240D01*
X65044877Y-80882182D01*
X65090918Y-80833152D01*
X65093535Y-80830450D01*
X65113120Y-80810867D01*
X65115585Y-80807688D01*
X65123167Y-80798812D01*
X65124953Y-80796910D01*
X65153062Y-80766978D01*
X65162713Y-80749419D01*
X65173390Y-80733166D01*
X65185673Y-80717332D01*
X65203018Y-80677248D01*
X65208151Y-80666767D01*
X65229197Y-80628488D01*
X65234179Y-80609080D01*
X65240482Y-80590672D01*
X65248437Y-80572292D01*
X65255271Y-80529140D01*
X65257633Y-80517734D01*
X65268500Y-80475415D01*
X65268500Y-80455379D01*
X65270027Y-80435981D01*
X65271939Y-80423909D01*
X65271938Y-80423909D01*
X65273160Y-80416200D01*
X65269050Y-80372720D01*
X65268500Y-80361051D01*
X65268500Y-80138736D01*
X65280579Y-80085353D01*
X65314464Y-80042370D01*
X65363552Y-80018162D01*
X65418280Y-80017446D01*
X65430988Y-80020147D01*
X65430989Y-80020147D01*
X65437354Y-80021500D01*
X65620143Y-80021500D01*
X65626646Y-80021500D01*
X65811803Y-79982144D01*
X65964464Y-79914173D01*
X66024628Y-79903835D01*
X66082435Y-79923458D01*
X66123873Y-79968285D01*
X66138900Y-80027453D01*
X66138900Y-92186743D01*
X66138584Y-92195589D01*
X66133965Y-92260171D01*
X66133899Y-92261053D01*
X66121396Y-92419927D01*
X66118944Y-92436556D01*
X66098422Y-92530898D01*
X66097830Y-92533489D01*
X66068419Y-92655993D01*
X66064027Y-92670378D01*
X66028053Y-92766830D01*
X66026432Y-92770949D01*
X65980667Y-92881438D01*
X65974939Y-92893412D01*
X65924422Y-92985929D01*
X65921316Y-92991293D01*
X65860077Y-93091226D01*
X65853617Y-93100746D01*
X65789808Y-93185985D01*
X65784832Y-93192206D01*
X65709306Y-93280636D01*
X65702696Y-93287786D01*
X65627186Y-93363296D01*
X65620036Y-93369906D01*
X65531606Y-93445432D01*
X65525385Y-93450408D01*
X65440146Y-93514217D01*
X65430626Y-93520677D01*
X65330693Y-93581916D01*
X65325329Y-93585022D01*
X65232812Y-93635539D01*
X65220838Y-93641267D01*
X65110349Y-93687032D01*
X65106230Y-93688653D01*
X65009778Y-93724627D01*
X64995393Y-93729019D01*
X64872889Y-93758430D01*
X64870298Y-93759022D01*
X64775956Y-93779544D01*
X64759327Y-93781996D01*
X64600453Y-93794499D01*
X64599570Y-93794565D01*
X64534964Y-93799185D01*
X64526172Y-93799501D01*
X44846281Y-93807897D01*
X44837383Y-93807581D01*
X44772763Y-93802960D01*
X44771878Y-93802894D01*
X44615615Y-93790595D01*
X44598990Y-93788144D01*
X44505473Y-93767803D01*
X44502881Y-93767210D01*
X44382034Y-93738197D01*
X44367648Y-93733805D01*
X44272136Y-93698181D01*
X44268018Y-93696561D01*
X44204383Y-93670203D01*
X44158954Y-93651386D01*
X44146988Y-93645661D01*
X44055409Y-93595655D01*
X44050047Y-93592551D01*
X43951381Y-93532089D01*
X43941864Y-93525632D01*
X43857490Y-93462470D01*
X43851270Y-93457494D01*
X43763954Y-93382919D01*
X43756817Y-93376321D01*
X43682077Y-93301581D01*
X43675482Y-93294447D01*
X43600897Y-93207120D01*
X43595928Y-93200908D01*
X43591131Y-93194500D01*
X43532761Y-93116525D01*
X43526309Y-93107017D01*
X43516632Y-93091226D01*
X43465847Y-93008351D01*
X43462743Y-93002989D01*
X43412729Y-92911393D01*
X43407020Y-92899461D01*
X43361831Y-92790365D01*
X43360217Y-92786262D01*
X43348562Y-92755013D01*
X43324590Y-92690741D01*
X43320203Y-92676371D01*
X43291175Y-92555463D01*
X43290612Y-92553003D01*
X43270253Y-92459406D01*
X43267803Y-92442783D01*
X43267313Y-92436556D01*
X43255471Y-92286088D01*
X43255470Y-92286084D01*
X43250816Y-92220988D01*
X43250500Y-92212146D01*
X43250500Y-84362230D01*
X43264015Y-84305935D01*
X43301615Y-84261912D01*
X43355102Y-84239757D01*
X43412818Y-84244299D01*
X43462181Y-84274549D01*
X44890267Y-85702634D01*
X44902049Y-85716267D01*
X44912077Y-85729738D01*
X44912081Y-85729742D01*
X44916390Y-85735530D01*
X44954352Y-85767384D01*
X44962313Y-85774680D01*
X44966224Y-85778591D01*
X44969051Y-85780826D01*
X44990542Y-85797819D01*
X44993337Y-85800096D01*
X45050786Y-85848302D01*
X45057245Y-85851545D01*
X45060134Y-85853446D01*
X45060413Y-85853648D01*
X45060713Y-85853815D01*
X45063655Y-85855629D01*
X45069323Y-85860111D01*
X45075870Y-85863164D01*
X45075872Y-85863165D01*
X45137314Y-85891816D01*
X45140528Y-85893371D01*
X45207567Y-85927040D01*
X45214606Y-85928708D01*
X45217827Y-85929880D01*
X45218171Y-85930023D01*
X45218496Y-85930115D01*
X45221779Y-85931202D01*
X45228328Y-85934257D01*
X45301852Y-85949437D01*
X45305286Y-85950199D01*
X45348078Y-85960342D01*
X45371245Y-85965833D01*
X45371246Y-85965833D01*
X45378279Y-85967500D01*
X45384011Y-85967500D01*
X45434255Y-85985043D01*
X45472843Y-86022840D01*
X45491700Y-86073457D01*
X45487249Y-86127288D01*
X45462865Y-86205539D01*
X45462862Y-86205549D01*
X45460914Y-86211804D01*
X45454500Y-86282384D01*
X45454500Y-86285203D01*
X45454500Y-86578547D01*
X45445061Y-86626000D01*
X45418183Y-86666225D01*
X45159856Y-86924551D01*
X45155196Y-86929212D01*
X45147011Y-86936659D01*
X45140623Y-86940714D01*
X45135288Y-86946394D01*
X45135283Y-86946399D01*
X45094596Y-86989725D01*
X45091892Y-86992516D01*
X45075128Y-87009280D01*
X45075121Y-87009287D01*
X45072380Y-87012029D01*
X45070000Y-87015096D01*
X45069989Y-87015109D01*
X45069900Y-87015225D01*
X45062342Y-87024070D01*
X45037780Y-87050227D01*
X45037773Y-87050236D01*
X45032438Y-87055918D01*
X45028682Y-87062749D01*
X45028679Y-87062754D01*
X45022785Y-87073475D01*
X45012109Y-87089727D01*
X45004609Y-87099396D01*
X45004601Y-87099407D01*
X44999827Y-87105564D01*
X44996734Y-87112708D01*
X44996729Y-87112719D01*
X44982474Y-87145660D01*
X44977338Y-87156143D01*
X44962644Y-87182873D01*
X44956303Y-87194408D01*
X44954364Y-87201956D01*
X44954363Y-87201961D01*
X44951322Y-87213807D01*
X44945021Y-87232211D01*
X44940158Y-87243448D01*
X44940156Y-87243452D01*
X44937062Y-87250604D01*
X44935842Y-87258303D01*
X44935842Y-87258305D01*
X44930229Y-87293741D01*
X44927861Y-87305176D01*
X44918938Y-87339928D01*
X44918936Y-87339936D01*
X44917000Y-87347481D01*
X44917000Y-87355277D01*
X44917000Y-87367517D01*
X44915474Y-87386902D01*
X44912340Y-87406696D01*
X44913074Y-87414461D01*
X44913074Y-87414464D01*
X44916450Y-87450176D01*
X44917000Y-87461845D01*
X44917000Y-89508725D01*
X44916478Y-89519780D01*
X44914827Y-89527167D01*
X44915071Y-89534953D01*
X44915071Y-89534961D01*
X44916939Y-89594373D01*
X44917000Y-89598268D01*
X44917000Y-89625850D01*
X44917488Y-89629719D01*
X44917489Y-89629725D01*
X44917504Y-89629843D01*
X44918418Y-89641466D01*
X44919545Y-89677330D01*
X44919546Y-89677337D01*
X44919791Y-89685127D01*
X44921967Y-89692619D01*
X44921968Y-89692621D01*
X44925379Y-89704362D01*
X44929325Y-89723415D01*
X44931836Y-89743292D01*
X44934706Y-89750542D01*
X44934708Y-89750548D01*
X44947914Y-89783904D01*
X44951697Y-89794951D01*
X44952328Y-89797121D01*
X44963882Y-89836890D01*
X44967853Y-89843605D01*
X44967854Y-89843607D01*
X44974081Y-89854137D01*
X44982636Y-89871599D01*
X44987142Y-89882980D01*
X44987143Y-89882983D01*
X44990014Y-89890232D01*
X45011940Y-89920412D01*
X45015681Y-89925560D01*
X45022093Y-89935322D01*
X45040356Y-89966202D01*
X45040359Y-89966207D01*
X45044330Y-89972920D01*
X45049845Y-89978435D01*
X45058490Y-89987080D01*
X45071126Y-90001874D01*
X45078319Y-90011775D01*
X45078323Y-90011779D01*
X45082906Y-90018087D01*
X45088915Y-90023058D01*
X45088916Y-90023059D01*
X45116558Y-90045926D01*
X45125199Y-90053789D01*
X46186338Y-91114928D01*
X46218208Y-91169691D01*
X46218863Y-91233049D01*
X46166151Y-91441203D01*
X46166148Y-91441215D01*
X46164892Y-91446179D01*
X46164468Y-91451288D01*
X46164467Y-91451298D01*
X46144781Y-91688883D01*
X46144357Y-91694000D01*
X46144781Y-91699117D01*
X46164467Y-91936701D01*
X46164468Y-91936709D01*
X46164892Y-91941821D01*
X46166149Y-91946788D01*
X46166151Y-91946795D01*
X46224678Y-92177910D01*
X46225937Y-92182881D01*
X46231511Y-92195589D01*
X46323766Y-92405910D01*
X46323769Y-92405916D01*
X46325827Y-92410607D01*
X46328627Y-92414893D01*
X46328631Y-92414900D01*
X46420466Y-92555463D01*
X46461836Y-92618785D01*
X46465310Y-92622559D01*
X46465311Y-92622560D01*
X46626784Y-92797967D01*
X46626787Y-92797970D01*
X46630256Y-92801738D01*
X46826491Y-92954474D01*
X46884615Y-92985929D01*
X47022790Y-93060706D01*
X47045190Y-93072828D01*
X47280386Y-93153571D01*
X47525665Y-93194500D01*
X47769201Y-93194500D01*
X47774335Y-93194500D01*
X48019614Y-93153571D01*
X48254810Y-93072828D01*
X48473509Y-92954474D01*
X48669744Y-92801738D01*
X48838164Y-92618785D01*
X48974173Y-92410607D01*
X49074063Y-92182881D01*
X49135108Y-91941821D01*
X49155643Y-91694000D01*
X49135108Y-91446179D01*
X49074063Y-91205119D01*
X48974173Y-90977393D01*
X48838164Y-90769215D01*
X48669744Y-90586262D01*
X48496191Y-90451180D01*
X48477559Y-90436678D01*
X48477557Y-90436676D01*
X48473509Y-90433526D01*
X48449942Y-90420772D01*
X48259316Y-90317610D01*
X48259310Y-90317607D01*
X48254810Y-90315172D01*
X48249969Y-90313510D01*
X48249962Y-90313507D01*
X48024465Y-90236094D01*
X48024461Y-90236093D01*
X48019614Y-90234429D01*
X47978426Y-90227556D01*
X47779398Y-90194344D01*
X47779387Y-90194343D01*
X47774335Y-90193500D01*
X47525665Y-90193500D01*
X47520613Y-90194343D01*
X47520601Y-90194344D01*
X47285440Y-90233585D01*
X47285432Y-90233586D01*
X47280386Y-90234429D01*
X47275546Y-90236090D01*
X47275536Y-90236093D01*
X47200711Y-90261780D01*
X47132500Y-90265307D01*
X47072769Y-90232179D01*
X46216319Y-89375728D01*
X46189439Y-89335500D01*
X46180000Y-89288047D01*
X46180000Y-88266000D01*
X46196613Y-88204000D01*
X46242000Y-88158613D01*
X46304000Y-88142000D01*
X46556000Y-88142000D01*
X46618000Y-88158613D01*
X46663387Y-88204000D01*
X46680000Y-88266000D01*
X46680000Y-89350673D01*
X46683450Y-89363548D01*
X46695873Y-89366877D01*
X46699775Y-89366678D01*
X46788346Y-89357631D01*
X46801509Y-89354813D01*
X46947720Y-89306364D01*
X46960719Y-89300302D01*
X47091429Y-89219679D01*
X47102690Y-89210775D01*
X47129466Y-89184000D01*
X47185053Y-89151906D01*
X47249241Y-89151906D01*
X47304827Y-89183999D01*
X47337109Y-89216281D01*
X47480213Y-89304549D01*
X47639815Y-89357436D01*
X47738326Y-89367500D01*
X48268525Y-89367500D01*
X48271674Y-89367500D01*
X48370185Y-89357436D01*
X48529787Y-89304549D01*
X48672891Y-89216281D01*
X48791781Y-89097391D01*
X48880049Y-88954287D01*
X48932936Y-88794685D01*
X48943000Y-88696174D01*
X48943000Y-88087826D01*
X48932936Y-87989315D01*
X48880049Y-87829713D01*
X48791781Y-87686609D01*
X48786670Y-87681498D01*
X48782232Y-87675885D01*
X48762374Y-87639687D01*
X48755500Y-87598976D01*
X48755500Y-87366978D01*
X48773383Y-87302828D01*
X48800298Y-87258305D01*
X48848478Y-87178606D01*
X48899086Y-87016196D01*
X48905500Y-86945616D01*
X48905500Y-86563500D01*
X48922113Y-86501500D01*
X48967500Y-86456113D01*
X49029500Y-86439500D01*
X49902500Y-86439500D01*
X49964500Y-86456113D01*
X50009887Y-86501500D01*
X50026500Y-86563500D01*
X50026500Y-86945616D01*
X50026754Y-86948419D01*
X50026755Y-86948425D01*
X50032320Y-87009661D01*
X50032914Y-87016196D01*
X50034862Y-87022448D01*
X50034864Y-87022457D01*
X50062591Y-87111436D01*
X50083522Y-87178606D01*
X50087399Y-87185020D01*
X50087400Y-87185021D01*
X50158617Y-87302828D01*
X50176500Y-87366978D01*
X50176500Y-87814082D01*
X50170206Y-87853086D01*
X50130918Y-87971650D01*
X50125064Y-87989315D01*
X50124376Y-87996045D01*
X50124375Y-87996052D01*
X50115319Y-88084694D01*
X50115318Y-88084712D01*
X50115000Y-88087826D01*
X50115000Y-88696174D01*
X50115318Y-88699288D01*
X50115319Y-88699305D01*
X50124375Y-88787947D01*
X50124376Y-88787952D01*
X50125064Y-88794685D01*
X50177951Y-88954287D01*
X50266219Y-89097391D01*
X50385109Y-89216281D01*
X50528213Y-89304549D01*
X50687815Y-89357436D01*
X50786326Y-89367500D01*
X51316525Y-89367500D01*
X51319674Y-89367500D01*
X51418185Y-89357436D01*
X51577787Y-89304549D01*
X51720891Y-89216281D01*
X51753172Y-89183999D01*
X51808759Y-89151906D01*
X51872947Y-89151906D01*
X51928534Y-89184000D01*
X51955309Y-89210775D01*
X51966570Y-89219679D01*
X52097280Y-89300302D01*
X52110279Y-89306364D01*
X52256487Y-89354812D01*
X52269654Y-89357631D01*
X52358226Y-89366680D01*
X52362125Y-89366878D01*
X52374549Y-89363549D01*
X52378000Y-89350674D01*
X52378000Y-88266000D01*
X52394613Y-88204000D01*
X52440000Y-88158613D01*
X52502000Y-88142000D01*
X52754000Y-88142000D01*
X52816000Y-88158613D01*
X52861387Y-88204000D01*
X52878000Y-88266000D01*
X52878000Y-89340047D01*
X52868561Y-89387500D01*
X52841681Y-89427728D01*
X52037228Y-90232179D01*
X51977497Y-90265307D01*
X51909285Y-90261780D01*
X51834458Y-90236092D01*
X51829614Y-90234429D01*
X51788426Y-90227556D01*
X51589398Y-90194344D01*
X51589387Y-90194343D01*
X51584335Y-90193500D01*
X51335665Y-90193500D01*
X51330613Y-90194343D01*
X51330601Y-90194344D01*
X51095443Y-90233585D01*
X51095441Y-90233585D01*
X51090386Y-90234429D01*
X51085541Y-90236092D01*
X51085534Y-90236094D01*
X50860037Y-90313507D01*
X50860026Y-90313511D01*
X50855190Y-90315172D01*
X50850693Y-90317605D01*
X50850683Y-90317610D01*
X50641002Y-90431084D01*
X50640995Y-90431088D01*
X50636491Y-90433526D01*
X50632448Y-90436672D01*
X50632440Y-90436678D01*
X50444304Y-90583111D01*
X50440256Y-90586262D01*
X50436793Y-90590023D01*
X50436784Y-90590032D01*
X50275311Y-90765439D01*
X50275305Y-90765446D01*
X50271836Y-90769215D01*
X50269031Y-90773506D01*
X50269028Y-90773512D01*
X50138631Y-90973099D01*
X50138624Y-90973111D01*
X50135827Y-90977393D01*
X50133772Y-90982077D01*
X50133766Y-90982089D01*
X50037997Y-91200422D01*
X50035937Y-91205119D01*
X50034679Y-91210084D01*
X50034678Y-91210089D01*
X49976151Y-91441204D01*
X49976149Y-91441213D01*
X49974892Y-91446179D01*
X49974468Y-91451288D01*
X49974467Y-91451298D01*
X49954781Y-91688883D01*
X49954357Y-91694000D01*
X49954781Y-91699117D01*
X49974467Y-91936701D01*
X49974468Y-91936709D01*
X49974892Y-91941821D01*
X49976149Y-91946788D01*
X49976151Y-91946795D01*
X50034678Y-92177910D01*
X50035937Y-92182881D01*
X50041511Y-92195589D01*
X50133766Y-92405910D01*
X50133769Y-92405916D01*
X50135827Y-92410607D01*
X50138627Y-92414893D01*
X50138631Y-92414900D01*
X50230466Y-92555463D01*
X50271836Y-92618785D01*
X50275310Y-92622559D01*
X50275311Y-92622560D01*
X50436784Y-92797967D01*
X50436787Y-92797970D01*
X50440256Y-92801738D01*
X50636491Y-92954474D01*
X50694615Y-92985929D01*
X50832790Y-93060706D01*
X50855190Y-93072828D01*
X51090386Y-93153571D01*
X51335665Y-93194500D01*
X51579201Y-93194500D01*
X51584335Y-93194500D01*
X51829614Y-93153571D01*
X52064810Y-93072828D01*
X52283509Y-92954474D01*
X52479744Y-92801738D01*
X52648164Y-92618785D01*
X52784173Y-92410607D01*
X52884063Y-92182881D01*
X52945108Y-91941821D01*
X52965643Y-91694000D01*
X52945108Y-91446179D01*
X52891136Y-91233049D01*
X52891790Y-91169691D01*
X52923658Y-91114930D01*
X54235311Y-89803278D01*
X54243481Y-89795844D01*
X54249877Y-89791786D01*
X54295918Y-89742756D01*
X54298535Y-89740054D01*
X54318120Y-89720471D01*
X54320585Y-89717292D01*
X54328167Y-89708416D01*
X54331974Y-89704362D01*
X54358062Y-89676582D01*
X54367713Y-89659023D01*
X54378390Y-89642770D01*
X54390673Y-89626936D01*
X54408026Y-89586832D01*
X54413158Y-89576361D01*
X54430435Y-89544935D01*
X54430435Y-89544934D01*
X54434197Y-89538092D01*
X54439177Y-89518691D01*
X54445481Y-89500281D01*
X54453438Y-89481896D01*
X54460272Y-89438741D01*
X54462638Y-89427321D01*
X54466628Y-89411784D01*
X54473500Y-89385019D01*
X54473500Y-89364983D01*
X54475025Y-89345597D01*
X54478160Y-89325804D01*
X54474050Y-89282324D01*
X54473500Y-89270655D01*
X54473500Y-88088771D01*
X54474020Y-88077718D01*
X54475672Y-88070332D01*
X54473561Y-88003144D01*
X54473500Y-87999250D01*
X54473500Y-87975545D01*
X54473500Y-87971650D01*
X54472998Y-87967681D01*
X54472080Y-87956024D01*
X54470954Y-87920172D01*
X54470709Y-87912372D01*
X54465120Y-87893139D01*
X54461174Y-87874082D01*
X54459641Y-87861946D01*
X54458664Y-87854208D01*
X54442581Y-87813587D01*
X54438799Y-87802540D01*
X54428793Y-87768101D01*
X54426617Y-87760610D01*
X54422644Y-87753892D01*
X54416422Y-87743370D01*
X54407860Y-87725892D01*
X54403360Y-87714527D01*
X54403359Y-87714526D01*
X54400486Y-87707268D01*
X54374812Y-87671931D01*
X54368409Y-87662184D01*
X54346170Y-87624579D01*
X54332006Y-87610415D01*
X54319368Y-87595618D01*
X54312184Y-87585729D01*
X54312178Y-87585723D01*
X54307594Y-87579413D01*
X54273946Y-87551577D01*
X54265305Y-87543714D01*
X53513819Y-86792228D01*
X53486939Y-86752000D01*
X53477500Y-86704547D01*
X53477500Y-86649452D01*
X53486939Y-86601999D01*
X53513819Y-86561771D01*
X54286759Y-85788831D01*
X55067311Y-85008278D01*
X55075481Y-85000844D01*
X55081877Y-84996786D01*
X55127918Y-84947756D01*
X55130535Y-84945054D01*
X55150120Y-84925471D01*
X55152585Y-84922292D01*
X55160167Y-84913416D01*
X55190062Y-84881582D01*
X55199713Y-84864023D01*
X55210390Y-84847770D01*
X55222673Y-84831936D01*
X55240018Y-84791852D01*
X55245151Y-84781371D01*
X55266197Y-84743092D01*
X55271179Y-84723684D01*
X55277482Y-84705276D01*
X55285437Y-84686896D01*
X55292271Y-84643744D01*
X55294633Y-84632338D01*
X55305500Y-84590019D01*
X55305500Y-84569983D01*
X55307027Y-84550585D01*
X55308939Y-84538513D01*
X55308938Y-84538513D01*
X55310160Y-84530804D01*
X55306050Y-84487324D01*
X55305500Y-84475655D01*
X55305500Y-82654267D01*
X55319333Y-82597353D01*
X55357745Y-82553137D01*
X55412166Y-82531485D01*
X55470455Y-82537226D01*
X55567167Y-82571067D01*
X55567173Y-82571068D01*
X55573745Y-82573368D01*
X55753000Y-82593565D01*
X55932255Y-82573368D01*
X56102522Y-82513789D01*
X56255262Y-82417816D01*
X56382816Y-82290262D01*
X56478789Y-82137522D01*
X56538368Y-81967255D01*
X56558565Y-81788000D01*
X56538368Y-81608745D01*
X56510457Y-81528982D01*
X56503500Y-81488028D01*
X56503500Y-81138500D01*
X56520113Y-81076500D01*
X56565500Y-81031113D01*
X56627500Y-81014500D01*
X57745126Y-81014500D01*
X57792579Y-81023939D01*
X57832807Y-81050819D01*
X57843956Y-81061968D01*
X57988303Y-81151003D01*
X58149292Y-81204349D01*
X58248655Y-81214500D01*
X58418152Y-81214499D01*
X58474445Y-81228014D01*
X58518469Y-81265613D01*
X58540624Y-81319101D01*
X58536082Y-81376817D01*
X58505832Y-81426180D01*
X57474696Y-82457315D01*
X57466511Y-82464763D01*
X57460123Y-82468818D01*
X57454788Y-82474498D01*
X57454783Y-82474503D01*
X57414096Y-82517829D01*
X57411392Y-82520620D01*
X57394628Y-82537384D01*
X57394621Y-82537391D01*
X57391880Y-82540133D01*
X57389500Y-82543200D01*
X57389489Y-82543213D01*
X57389400Y-82543329D01*
X57381842Y-82552174D01*
X57357280Y-82578331D01*
X57357273Y-82578340D01*
X57351938Y-82584022D01*
X57348182Y-82590853D01*
X57348179Y-82590858D01*
X57342285Y-82601579D01*
X57331609Y-82617831D01*
X57324109Y-82627500D01*
X57324101Y-82627511D01*
X57319327Y-82633668D01*
X57316234Y-82640812D01*
X57316229Y-82640823D01*
X57301974Y-82673764D01*
X57296838Y-82684247D01*
X57275803Y-82722512D01*
X57273864Y-82730060D01*
X57273863Y-82730065D01*
X57270822Y-82741911D01*
X57264521Y-82760315D01*
X57259658Y-82771552D01*
X57259656Y-82771556D01*
X57256562Y-82778708D01*
X57255342Y-82786407D01*
X57255342Y-82786409D01*
X57249729Y-82821845D01*
X57247361Y-82833280D01*
X57238438Y-82868032D01*
X57238436Y-82868040D01*
X57236500Y-82875585D01*
X57236500Y-82883381D01*
X57236500Y-82895621D01*
X57234974Y-82915006D01*
X57231840Y-82934800D01*
X57232574Y-82942565D01*
X57232574Y-82942568D01*
X57235950Y-82978280D01*
X57236500Y-82989949D01*
X57236500Y-85722481D01*
X57227061Y-85769934D01*
X57200181Y-85810162D01*
X57111831Y-85898511D01*
X57111827Y-85898515D01*
X57106528Y-85903815D01*
X57102651Y-85910227D01*
X57102648Y-85910232D01*
X57022400Y-86042978D01*
X57022398Y-86042982D01*
X57018522Y-86049394D01*
X57016292Y-86056548D01*
X57016292Y-86056550D01*
X56969864Y-86205542D01*
X56969861Y-86205553D01*
X56967914Y-86211804D01*
X56961500Y-86282384D01*
X56961500Y-86285203D01*
X56961500Y-86578547D01*
X56952061Y-86626000D01*
X56925183Y-86666225D01*
X56666856Y-86924551D01*
X56662196Y-86929212D01*
X56654011Y-86936659D01*
X56647623Y-86940714D01*
X56642288Y-86946394D01*
X56642283Y-86946399D01*
X56601596Y-86989725D01*
X56598892Y-86992516D01*
X56582128Y-87009280D01*
X56582121Y-87009287D01*
X56579380Y-87012029D01*
X56577000Y-87015096D01*
X56576989Y-87015109D01*
X56576900Y-87015225D01*
X56569342Y-87024070D01*
X56544780Y-87050227D01*
X56544773Y-87050236D01*
X56539438Y-87055918D01*
X56535682Y-87062749D01*
X56535679Y-87062754D01*
X56529785Y-87073475D01*
X56519109Y-87089727D01*
X56511609Y-87099396D01*
X56511601Y-87099407D01*
X56506827Y-87105564D01*
X56503734Y-87112708D01*
X56503729Y-87112719D01*
X56489474Y-87145660D01*
X56484338Y-87156143D01*
X56469644Y-87182873D01*
X56463303Y-87194408D01*
X56461364Y-87201956D01*
X56461363Y-87201961D01*
X56458322Y-87213807D01*
X56452021Y-87232211D01*
X56447158Y-87243448D01*
X56447156Y-87243452D01*
X56444062Y-87250604D01*
X56442842Y-87258303D01*
X56442842Y-87258305D01*
X56437229Y-87293741D01*
X56434861Y-87305176D01*
X56425938Y-87339928D01*
X56425936Y-87339936D01*
X56424000Y-87347481D01*
X56424000Y-87355277D01*
X56424000Y-87367517D01*
X56422474Y-87386902D01*
X56419340Y-87406696D01*
X56420074Y-87414461D01*
X56420074Y-87414464D01*
X56423450Y-87450176D01*
X56424000Y-87461845D01*
X56424000Y-89966725D01*
X56423478Y-89977780D01*
X56421827Y-89985167D01*
X56422071Y-89992953D01*
X56422071Y-89992961D01*
X56423939Y-90052373D01*
X56424000Y-90056268D01*
X56424000Y-90083850D01*
X56424488Y-90087719D01*
X56424489Y-90087725D01*
X56424504Y-90087843D01*
X56425418Y-90099466D01*
X56426545Y-90135330D01*
X56426546Y-90135337D01*
X56426791Y-90143127D01*
X56428967Y-90150619D01*
X56428968Y-90150621D01*
X56432379Y-90162362D01*
X56436325Y-90181415D01*
X56438836Y-90201292D01*
X56441706Y-90208542D01*
X56441708Y-90208548D01*
X56454914Y-90241904D01*
X56458697Y-90252951D01*
X56470882Y-90294890D01*
X56474853Y-90301605D01*
X56474854Y-90301607D01*
X56481081Y-90312137D01*
X56489636Y-90329599D01*
X56494142Y-90340980D01*
X56494143Y-90340983D01*
X56497014Y-90348232D01*
X56513988Y-90371595D01*
X56522681Y-90383560D01*
X56529093Y-90393322D01*
X56547356Y-90424202D01*
X56547359Y-90424207D01*
X56551330Y-90430920D01*
X56556845Y-90436435D01*
X56565490Y-90445080D01*
X56578126Y-90459874D01*
X56585319Y-90469775D01*
X56585323Y-90469779D01*
X56589906Y-90476087D01*
X56595915Y-90481058D01*
X56595916Y-90481059D01*
X56623558Y-90503926D01*
X56632199Y-90511789D01*
X57235338Y-91114928D01*
X57267208Y-91169691D01*
X57267863Y-91233049D01*
X57215151Y-91441203D01*
X57215148Y-91441215D01*
X57213892Y-91446179D01*
X57213468Y-91451288D01*
X57213467Y-91451298D01*
X57193781Y-91688883D01*
X57193357Y-91694000D01*
X57193781Y-91699117D01*
X57213467Y-91936701D01*
X57213468Y-91936709D01*
X57213892Y-91941821D01*
X57215149Y-91946788D01*
X57215151Y-91946795D01*
X57273678Y-92177910D01*
X57274937Y-92182881D01*
X57280511Y-92195589D01*
X57372766Y-92405910D01*
X57372769Y-92405916D01*
X57374827Y-92410607D01*
X57377627Y-92414893D01*
X57377631Y-92414900D01*
X57469466Y-92555463D01*
X57510836Y-92618785D01*
X57514310Y-92622559D01*
X57514311Y-92622560D01*
X57675784Y-92797967D01*
X57675787Y-92797970D01*
X57679256Y-92801738D01*
X57875491Y-92954474D01*
X57933615Y-92985929D01*
X58071790Y-93060706D01*
X58094190Y-93072828D01*
X58329386Y-93153571D01*
X58574665Y-93194500D01*
X58818201Y-93194500D01*
X58823335Y-93194500D01*
X59068614Y-93153571D01*
X59303810Y-93072828D01*
X59522509Y-92954474D01*
X59718744Y-92801738D01*
X59887164Y-92618785D01*
X60023173Y-92410607D01*
X60123063Y-92182881D01*
X60184108Y-91941821D01*
X60204643Y-91694000D01*
X60184108Y-91446179D01*
X60123063Y-91205119D01*
X60023173Y-90977393D01*
X59887164Y-90769215D01*
X59718744Y-90586262D01*
X59545191Y-90451180D01*
X59526559Y-90436678D01*
X59526557Y-90436676D01*
X59522509Y-90433526D01*
X59498942Y-90420772D01*
X59308316Y-90317610D01*
X59308310Y-90317607D01*
X59303810Y-90315172D01*
X59298969Y-90313510D01*
X59298962Y-90313507D01*
X59073465Y-90236094D01*
X59073461Y-90236093D01*
X59068614Y-90234429D01*
X59027426Y-90227556D01*
X58828398Y-90194344D01*
X58828387Y-90194343D01*
X58823335Y-90193500D01*
X58574665Y-90193500D01*
X58569613Y-90194343D01*
X58569601Y-90194344D01*
X58334446Y-90233584D01*
X58334438Y-90233585D01*
X58329386Y-90234429D01*
X58249711Y-90261781D01*
X58181502Y-90265308D01*
X58121771Y-90232180D01*
X57711319Y-89821728D01*
X57684439Y-89781500D01*
X57675000Y-89734047D01*
X57675000Y-89411784D01*
X57679225Y-89379690D01*
X57687000Y-89350674D01*
X57687000Y-88266000D01*
X57703613Y-88204000D01*
X57749000Y-88158613D01*
X57811000Y-88142000D01*
X58063000Y-88142000D01*
X58125000Y-88158613D01*
X58170387Y-88204000D01*
X58187000Y-88266000D01*
X58187000Y-89350673D01*
X58190450Y-89363548D01*
X58202873Y-89366877D01*
X58206775Y-89366678D01*
X58295346Y-89357631D01*
X58308509Y-89354813D01*
X58454720Y-89306364D01*
X58467719Y-89300302D01*
X58598429Y-89219679D01*
X58609690Y-89210775D01*
X58636466Y-89184000D01*
X58692053Y-89151906D01*
X58756241Y-89151906D01*
X58811827Y-89183999D01*
X58844109Y-89216281D01*
X58987213Y-89304549D01*
X59146815Y-89357436D01*
X59245326Y-89367500D01*
X59775525Y-89367500D01*
X59778674Y-89367500D01*
X59877185Y-89357436D01*
X60036787Y-89304549D01*
X60179891Y-89216281D01*
X60298781Y-89097391D01*
X60387049Y-88954287D01*
X60439936Y-88794685D01*
X60450000Y-88696174D01*
X60450000Y-88087826D01*
X60439936Y-87989315D01*
X60387049Y-87829713D01*
X60298781Y-87686609D01*
X60293670Y-87681498D01*
X60289232Y-87675885D01*
X60269374Y-87639687D01*
X60262500Y-87598976D01*
X60262500Y-87366978D01*
X60280383Y-87302828D01*
X60307298Y-87258305D01*
X60355478Y-87178606D01*
X60406086Y-87016196D01*
X60412500Y-86945616D01*
X60412500Y-86282384D01*
X60406086Y-86211804D01*
X60355478Y-86049394D01*
X60267472Y-85903815D01*
X60147185Y-85783528D01*
X60139018Y-85778591D01*
X60008021Y-85699400D01*
X60008020Y-85699399D01*
X60001606Y-85695522D01*
X59972500Y-85686452D01*
X59845457Y-85646864D01*
X59845448Y-85646862D01*
X59839196Y-85644914D01*
X59832662Y-85644320D01*
X59832661Y-85644320D01*
X59771425Y-85638755D01*
X59771419Y-85638754D01*
X59768616Y-85638500D01*
X59255384Y-85638500D01*
X59252581Y-85638754D01*
X59252574Y-85638755D01*
X59191338Y-85644320D01*
X59191335Y-85644320D01*
X59184804Y-85644914D01*
X59178553Y-85646861D01*
X59178542Y-85646864D01*
X59029563Y-85693288D01*
X59022394Y-85695522D01*
X59015982Y-85699398D01*
X59015978Y-85699400D01*
X58883232Y-85779648D01*
X58883227Y-85779651D01*
X58876815Y-85783528D01*
X58871515Y-85788827D01*
X58871511Y-85788831D01*
X58774681Y-85885662D01*
X58719094Y-85917756D01*
X58654906Y-85917756D01*
X58599319Y-85885662D01*
X58523819Y-85810162D01*
X58496939Y-85769934D01*
X58487500Y-85722481D01*
X58487500Y-83265056D01*
X58496939Y-83217604D01*
X58523816Y-83177377D01*
X58691526Y-83009667D01*
X58739958Y-82979726D01*
X58796673Y-82974589D01*
X58849703Y-82995344D01*
X58882935Y-83032154D01*
X58883515Y-83031733D01*
X58893051Y-83044858D01*
X58909181Y-83067060D01*
X58915593Y-83076822D01*
X58933856Y-83107702D01*
X58933859Y-83107707D01*
X58937830Y-83114420D01*
X58943345Y-83119935D01*
X58951990Y-83128580D01*
X58964626Y-83143374D01*
X58971819Y-83153275D01*
X58971823Y-83153279D01*
X58976406Y-83159587D01*
X58982415Y-83164558D01*
X58982416Y-83164559D01*
X59010058Y-83187426D01*
X59018699Y-83195289D01*
X61293934Y-85470525D01*
X61325699Y-85524908D01*
X61326650Y-85587881D01*
X61296542Y-85643199D01*
X61243143Y-85676591D01*
X61189557Y-85693288D01*
X61189542Y-85693294D01*
X61182394Y-85695522D01*
X61175982Y-85699398D01*
X61175978Y-85699400D01*
X61043232Y-85779648D01*
X61043227Y-85779651D01*
X61036815Y-85783528D01*
X61031515Y-85788827D01*
X61031511Y-85788831D01*
X60921831Y-85898511D01*
X60921827Y-85898515D01*
X60916528Y-85903815D01*
X60912651Y-85910227D01*
X60912648Y-85910232D01*
X60832400Y-86042978D01*
X60832398Y-86042982D01*
X60828522Y-86049394D01*
X60826292Y-86056548D01*
X60826292Y-86056550D01*
X60779864Y-86205542D01*
X60779861Y-86205553D01*
X60777914Y-86211804D01*
X60771500Y-86282384D01*
X60771500Y-86945616D01*
X60771754Y-86948419D01*
X60771755Y-86948425D01*
X60777320Y-87009661D01*
X60777914Y-87016196D01*
X60779862Y-87022448D01*
X60779864Y-87022457D01*
X60807591Y-87111436D01*
X60828522Y-87178606D01*
X60832399Y-87185020D01*
X60832400Y-87185021D01*
X60903617Y-87302828D01*
X60921500Y-87366978D01*
X60921500Y-87631533D01*
X60903038Y-87696629D01*
X60897832Y-87705070D01*
X60824743Y-87823564D01*
X60824740Y-87823569D01*
X60820951Y-87829713D01*
X60818680Y-87836564D01*
X60818679Y-87836568D01*
X60772627Y-87975545D01*
X60768064Y-87989315D01*
X60767376Y-87996045D01*
X60767375Y-87996052D01*
X60758319Y-88084694D01*
X60758318Y-88084712D01*
X60758000Y-88087826D01*
X60758000Y-88696174D01*
X60758318Y-88699288D01*
X60758319Y-88699305D01*
X60767375Y-88787947D01*
X60767376Y-88787952D01*
X60768064Y-88794685D01*
X60820951Y-88954287D01*
X60909219Y-89097391D01*
X61028109Y-89216281D01*
X61171213Y-89304549D01*
X61330815Y-89357436D01*
X61429326Y-89367500D01*
X61959525Y-89367500D01*
X61962674Y-89367500D01*
X62061185Y-89357436D01*
X62220787Y-89304549D01*
X62363891Y-89216281D01*
X62396172Y-89183999D01*
X62451759Y-89151906D01*
X62515947Y-89151906D01*
X62571534Y-89184000D01*
X62598309Y-89210775D01*
X62609570Y-89219679D01*
X62740280Y-89300302D01*
X62753279Y-89306364D01*
X62899487Y-89354812D01*
X62912654Y-89357631D01*
X63001226Y-89366680D01*
X63005125Y-89366878D01*
X63017549Y-89363549D01*
X63021000Y-89350674D01*
X63021000Y-88266000D01*
X63037613Y-88204000D01*
X63083000Y-88158613D01*
X63145000Y-88142000D01*
X63397000Y-88142000D01*
X63459000Y-88158613D01*
X63504387Y-88204000D01*
X63521000Y-88266000D01*
X63521000Y-89350673D01*
X63528775Y-89379689D01*
X63533000Y-89411783D01*
X63533000Y-89734047D01*
X63523561Y-89781500D01*
X63496681Y-89821728D01*
X63086228Y-90232179D01*
X63026497Y-90265307D01*
X62958285Y-90261780D01*
X62883458Y-90236092D01*
X62878614Y-90234429D01*
X62837426Y-90227556D01*
X62638398Y-90194344D01*
X62638387Y-90194343D01*
X62633335Y-90193500D01*
X62384665Y-90193500D01*
X62379613Y-90194343D01*
X62379601Y-90194344D01*
X62144443Y-90233585D01*
X62144441Y-90233585D01*
X62139386Y-90234429D01*
X62134541Y-90236092D01*
X62134534Y-90236094D01*
X61909037Y-90313507D01*
X61909026Y-90313511D01*
X61904190Y-90315172D01*
X61899693Y-90317605D01*
X61899683Y-90317610D01*
X61690002Y-90431084D01*
X61689995Y-90431088D01*
X61685491Y-90433526D01*
X61681448Y-90436672D01*
X61681440Y-90436678D01*
X61493304Y-90583111D01*
X61489256Y-90586262D01*
X61485793Y-90590023D01*
X61485784Y-90590032D01*
X61324311Y-90765439D01*
X61324305Y-90765446D01*
X61320836Y-90769215D01*
X61318031Y-90773506D01*
X61318028Y-90773512D01*
X61187631Y-90973099D01*
X61187624Y-90973111D01*
X61184827Y-90977393D01*
X61182772Y-90982077D01*
X61182766Y-90982089D01*
X61086997Y-91200422D01*
X61084937Y-91205119D01*
X61083679Y-91210084D01*
X61083678Y-91210089D01*
X61025151Y-91441204D01*
X61025149Y-91441213D01*
X61023892Y-91446179D01*
X61023468Y-91451288D01*
X61023467Y-91451298D01*
X61003781Y-91688883D01*
X61003357Y-91694000D01*
X61003781Y-91699117D01*
X61023467Y-91936701D01*
X61023468Y-91936709D01*
X61023892Y-91941821D01*
X61025149Y-91946788D01*
X61025151Y-91946795D01*
X61083678Y-92177910D01*
X61084937Y-92182881D01*
X61090511Y-92195589D01*
X61182766Y-92405910D01*
X61182769Y-92405916D01*
X61184827Y-92410607D01*
X61187627Y-92414893D01*
X61187631Y-92414900D01*
X61279466Y-92555463D01*
X61320836Y-92618785D01*
X61324310Y-92622559D01*
X61324311Y-92622560D01*
X61485784Y-92797967D01*
X61485787Y-92797970D01*
X61489256Y-92801738D01*
X61685491Y-92954474D01*
X61743615Y-92985929D01*
X61881790Y-93060706D01*
X61904190Y-93072828D01*
X62139386Y-93153571D01*
X62384665Y-93194500D01*
X62628201Y-93194500D01*
X62633335Y-93194500D01*
X62878614Y-93153571D01*
X63113810Y-93072828D01*
X63332509Y-92954474D01*
X63528744Y-92801738D01*
X63697164Y-92618785D01*
X63833173Y-92410607D01*
X63933063Y-92182881D01*
X63994108Y-91941821D01*
X64014643Y-91694000D01*
X63994108Y-91446179D01*
X63940136Y-91233049D01*
X63940790Y-91169691D01*
X63972658Y-91114930D01*
X64545811Y-90541778D01*
X64553981Y-90534344D01*
X64560377Y-90530286D01*
X64606418Y-90481256D01*
X64609035Y-90478554D01*
X64628620Y-90458971D01*
X64631085Y-90455792D01*
X64638667Y-90446916D01*
X64640391Y-90445080D01*
X64668562Y-90415082D01*
X64678213Y-90397523D01*
X64688890Y-90381270D01*
X64701173Y-90365436D01*
X64718518Y-90325352D01*
X64723651Y-90314871D01*
X64744697Y-90276592D01*
X64749679Y-90257184D01*
X64755982Y-90238776D01*
X64763937Y-90220396D01*
X64770771Y-90177244D01*
X64773133Y-90165838D01*
X64784000Y-90123519D01*
X64784000Y-90103483D01*
X64785527Y-90084085D01*
X64787439Y-90072013D01*
X64787438Y-90072013D01*
X64788660Y-90064304D01*
X64784550Y-90020824D01*
X64784000Y-90009155D01*
X64784000Y-87528275D01*
X64784521Y-87517219D01*
X64786173Y-87509833D01*
X64784061Y-87442613D01*
X64784000Y-87438719D01*
X64784000Y-87415042D01*
X64784000Y-87411150D01*
X64783498Y-87407183D01*
X64782581Y-87395526D01*
X64781210Y-87351873D01*
X64775618Y-87332628D01*
X64771674Y-87313583D01*
X64769164Y-87293708D01*
X64753079Y-87253083D01*
X64749306Y-87242062D01*
X64737118Y-87200110D01*
X64726917Y-87182860D01*
X64718363Y-87165401D01*
X64710986Y-87146768D01*
X64685308Y-87111425D01*
X64678901Y-87101671D01*
X64660642Y-87070796D01*
X64660641Y-87070794D01*
X64656670Y-87064080D01*
X64642505Y-87049915D01*
X64629870Y-87035122D01*
X64618094Y-87018913D01*
X64612083Y-87013940D01*
X64612081Y-87013938D01*
X64584441Y-86991073D01*
X64575800Y-86983210D01*
X64258819Y-86666229D01*
X64231939Y-86626001D01*
X64222500Y-86578548D01*
X64222500Y-86285203D01*
X64222500Y-86282384D01*
X64216086Y-86211804D01*
X64165478Y-86049394D01*
X64077472Y-85903815D01*
X63957185Y-85783528D01*
X63949018Y-85778591D01*
X63818021Y-85699400D01*
X63818020Y-85699399D01*
X63811606Y-85695522D01*
X63782500Y-85686452D01*
X63655457Y-85646864D01*
X63655448Y-85646862D01*
X63649196Y-85644914D01*
X63642662Y-85644320D01*
X63642661Y-85644320D01*
X63581425Y-85638755D01*
X63581419Y-85638754D01*
X63578616Y-85638500D01*
X63575797Y-85638500D01*
X63282452Y-85638500D01*
X63234999Y-85629061D01*
X63194771Y-85602181D01*
X60744798Y-83152207D01*
X60712696Y-83096587D01*
X60712722Y-83032368D01*
X60744869Y-82976774D01*
X60745770Y-82976254D01*
X60767211Y-82954813D01*
X60771000Y-82940674D01*
X60771000Y-82280069D01*
X60778818Y-82236736D01*
X60788379Y-82211101D01*
X60815091Y-82139483D01*
X60821500Y-82079873D01*
X60821499Y-81734128D01*
X60815091Y-81674517D01*
X60816698Y-81674344D01*
X60816698Y-81639655D01*
X60815091Y-81639483D01*
X60821144Y-81583180D01*
X60821500Y-81579873D01*
X60821499Y-81234128D01*
X60815091Y-81174517D01*
X60816698Y-81174344D01*
X60816698Y-81139655D01*
X60815091Y-81139483D01*
X60815197Y-81138500D01*
X60821500Y-81079873D01*
X60821499Y-80857457D01*
X60821709Y-80850246D01*
X60822703Y-80833189D01*
X60825331Y-80788065D01*
X60823382Y-80777016D01*
X60821499Y-80755485D01*
X60821499Y-80737439D01*
X60821499Y-80734128D01*
X60815091Y-80674517D01*
X60799440Y-80632556D01*
X60796838Y-80624802D01*
X60796118Y-80622399D01*
X60794865Y-80615289D01*
X60782320Y-80586206D01*
X60779989Y-80580405D01*
X60778811Y-80577245D01*
X60771000Y-80533931D01*
X60771000Y-80373326D01*
X60767549Y-80360450D01*
X60754674Y-80357000D01*
X60714014Y-80357000D01*
X60664900Y-80346859D01*
X60624305Y-80318434D01*
X60620610Y-80313470D01*
X60615078Y-80308828D01*
X60491747Y-80205340D01*
X60491742Y-80205337D01*
X60486214Y-80200698D01*
X60479762Y-80197457D01*
X60479758Y-80197455D01*
X60383263Y-80148994D01*
X60351233Y-80125865D01*
X60330163Y-80104795D01*
X60297704Y-80047812D01*
X60298848Y-79982242D01*
X60333277Y-79926426D01*
X60391358Y-79895976D01*
X60456845Y-79899407D01*
G37*
%TD.AperFunction*%
%TA.AperFunction,Conductor*%
G36*
X64484117Y-49090806D02*
G01*
X64550247Y-49095469D01*
X64712840Y-49108086D01*
X64729222Y-49110467D01*
X64825571Y-49131125D01*
X64828004Y-49131673D01*
X64953180Y-49161293D01*
X64967361Y-49165559D01*
X65065981Y-49201784D01*
X65069958Y-49203325D01*
X65183011Y-49249432D01*
X65194824Y-49254993D01*
X65289566Y-49305874D01*
X65294859Y-49308888D01*
X65397336Y-49370614D01*
X65406746Y-49376886D01*
X65489080Y-49437380D01*
X65494264Y-49441189D01*
X65500441Y-49446036D01*
X65591461Y-49522242D01*
X65598566Y-49528674D01*
X65676414Y-49604840D01*
X65683004Y-49611808D01*
X65761176Y-49701142D01*
X65766158Y-49707213D01*
X65832329Y-49793270D01*
X65838821Y-49802565D01*
X65902800Y-49903719D01*
X65905925Y-49908939D01*
X65943085Y-49974649D01*
X65958819Y-50002472D01*
X65964651Y-50014189D01*
X66013238Y-50126264D01*
X66014904Y-50130299D01*
X66053204Y-50227926D01*
X66057785Y-50242033D01*
X66090170Y-50366692D01*
X66090802Y-50369234D01*
X66113485Y-50464799D01*
X66116226Y-50481146D01*
X66132414Y-50643670D01*
X66132498Y-50644539D01*
X66138373Y-50708053D01*
X66138900Y-50719474D01*
X66138900Y-61762197D01*
X66125385Y-61818492D01*
X66087785Y-61862515D01*
X66034298Y-61884670D01*
X65976582Y-61880128D01*
X65927219Y-61849878D01*
X64214023Y-60136682D01*
X64184988Y-60090875D01*
X64178280Y-60037058D01*
X64195182Y-59985526D01*
X64211031Y-59958928D01*
X64213656Y-59954523D01*
X64304050Y-59722864D01*
X64355081Y-59479487D01*
X64361500Y-59376092D01*
X64361500Y-59210408D01*
X64355081Y-59107013D01*
X64304050Y-58863636D01*
X64213656Y-58631977D01*
X64086366Y-58418356D01*
X63925650Y-58228600D01*
X63794912Y-58117870D01*
X63762553Y-58075395D01*
X63751055Y-58023248D01*
X63762553Y-57971102D01*
X63794908Y-57928632D01*
X63925650Y-57817900D01*
X64086366Y-57628144D01*
X64213656Y-57414523D01*
X64304050Y-57182864D01*
X64355081Y-56939487D01*
X64361500Y-56836092D01*
X64361500Y-56670408D01*
X64355081Y-56567013D01*
X64304050Y-56323636D01*
X64213656Y-56091977D01*
X64086366Y-55878356D01*
X63925650Y-55688600D01*
X63794526Y-55577543D01*
X63762166Y-55535068D01*
X63750668Y-55482922D01*
X63762166Y-55430776D01*
X63794527Y-55388300D01*
X63921381Y-55280859D01*
X63928610Y-55273630D01*
X64082645Y-55091762D01*
X64088577Y-55083455D01*
X64210581Y-54878705D01*
X64215069Y-54869525D01*
X64301704Y-54647497D01*
X64304619Y-54637706D01*
X64338360Y-54476787D01*
X64338188Y-54465695D01*
X64327364Y-54463250D01*
X60644636Y-54463250D01*
X60633811Y-54465695D01*
X60633639Y-54476787D01*
X60667380Y-54637706D01*
X60670295Y-54647497D01*
X60756930Y-54869525D01*
X60761418Y-54878705D01*
X60883422Y-55083455D01*
X60889354Y-55091762D01*
X61043389Y-55273630D01*
X61050613Y-55280854D01*
X61177473Y-55388300D01*
X61209833Y-55430776D01*
X61221331Y-55482922D01*
X61209833Y-55535068D01*
X61177473Y-55577543D01*
X61046350Y-55688600D01*
X61043040Y-55692507D01*
X61043034Y-55692514D01*
X60888945Y-55874446D01*
X60888941Y-55874450D01*
X60885634Y-55878356D01*
X60883018Y-55882744D01*
X60883013Y-55882753D01*
X60760967Y-56087574D01*
X60760964Y-56087579D01*
X60758344Y-56091977D01*
X60756483Y-56096743D01*
X60756479Y-56096754D01*
X60669813Y-56318859D01*
X60669809Y-56318869D01*
X60667950Y-56323636D01*
X60666899Y-56328645D01*
X60666898Y-56328651D01*
X60617840Y-56562618D01*
X60617839Y-56562625D01*
X60616919Y-56567013D01*
X60616641Y-56571481D01*
X60616640Y-56571493D01*
X60610619Y-56668481D01*
X60610618Y-56668501D01*
X60610500Y-56670408D01*
X60610500Y-56836092D01*
X60610618Y-56837999D01*
X60610619Y-56838018D01*
X60616640Y-56935006D01*
X60616641Y-56935017D01*
X60616919Y-56939487D01*
X60617838Y-56943871D01*
X60617840Y-56943884D01*
X60647213Y-57083971D01*
X60644697Y-57144799D01*
X60613533Y-57197098D01*
X59585358Y-58225272D01*
X59571730Y-58237050D01*
X59558263Y-58247076D01*
X59558257Y-58247081D01*
X59552470Y-58251390D01*
X59547832Y-58256916D01*
X59547830Y-58256919D01*
X59520633Y-58289330D01*
X59513350Y-58297280D01*
X59511969Y-58298661D01*
X59511955Y-58298676D01*
X59509409Y-58301223D01*
X59507173Y-58304050D01*
X59507171Y-58304053D01*
X59490176Y-58325546D01*
X59487902Y-58328337D01*
X59444339Y-58380254D01*
X59444335Y-58380258D01*
X59439698Y-58385786D01*
X59436460Y-58392230D01*
X59434537Y-58395155D01*
X59434352Y-58395411D01*
X59434192Y-58395698D01*
X59432363Y-58398663D01*
X59427889Y-58404323D01*
X59424839Y-58410862D01*
X59424838Y-58410865D01*
X59396192Y-58472294D01*
X59394623Y-58475536D01*
X59364196Y-58536122D01*
X59364194Y-58536127D01*
X59360960Y-58542567D01*
X59359296Y-58549584D01*
X59358109Y-58552847D01*
X59357977Y-58553163D01*
X59357888Y-58553480D01*
X59356791Y-58556787D01*
X59353743Y-58563327D01*
X59352284Y-58570390D01*
X59352283Y-58570395D01*
X59338574Y-58636787D01*
X59337794Y-58640306D01*
X59322164Y-58706255D01*
X59322163Y-58706260D01*
X59320500Y-58713279D01*
X59320500Y-58720491D01*
X59320097Y-58723939D01*
X59320043Y-58724273D01*
X59320028Y-58724626D01*
X59319726Y-58728070D01*
X59318266Y-58735144D01*
X59318476Y-58742360D01*
X59318476Y-58742361D01*
X59320448Y-58810130D01*
X59320500Y-58813737D01*
X59320500Y-66820771D01*
X59311061Y-66868224D01*
X59284181Y-66908452D01*
X57762681Y-68429951D01*
X57713318Y-68460201D01*
X57655602Y-68464743D01*
X57602115Y-68442588D01*
X57564515Y-68398565D01*
X57551000Y-68342270D01*
X57551000Y-66634576D01*
X57551000Y-66618250D01*
X51836000Y-66618250D01*
X51836000Y-69158250D01*
X56735020Y-69158250D01*
X56791315Y-69171765D01*
X56835338Y-69209365D01*
X56857493Y-69262852D01*
X56852951Y-69320568D01*
X56822701Y-69369931D01*
X55955961Y-70236670D01*
X55955952Y-70236679D01*
X55953409Y-70239223D01*
X55951179Y-70242042D01*
X55951173Y-70242050D01*
X55876366Y-70336659D01*
X55876360Y-70336667D01*
X55871889Y-70342323D01*
X55868838Y-70348864D01*
X55868837Y-70348867D01*
X55800795Y-70494781D01*
X55800793Y-70494784D01*
X55797743Y-70501327D01*
X55796283Y-70508393D01*
X55796282Y-70508399D01*
X55786946Y-70553614D01*
X55774653Y-70587388D01*
X55753189Y-70616218D01*
X53968696Y-72400711D01*
X53960511Y-72408159D01*
X53954123Y-72412214D01*
X53948788Y-72417894D01*
X53948783Y-72417899D01*
X53908096Y-72461225D01*
X53905392Y-72464016D01*
X53888628Y-72480780D01*
X53888621Y-72480787D01*
X53885880Y-72483529D01*
X53883500Y-72486596D01*
X53883489Y-72486609D01*
X53883400Y-72486725D01*
X53875842Y-72495571D01*
X53867790Y-72504146D01*
X53820857Y-72535399D01*
X53764937Y-72542638D01*
X53711593Y-72524366D01*
X53671857Y-72484362D01*
X53656281Y-72459109D01*
X53624000Y-72426828D01*
X53591906Y-72371241D01*
X53591906Y-72307053D01*
X53624000Y-72251466D01*
X53650775Y-72224690D01*
X53659679Y-72213429D01*
X53740302Y-72082719D01*
X53746364Y-72069720D01*
X53794812Y-71923512D01*
X53797631Y-71910345D01*
X53806680Y-71821773D01*
X53806878Y-71817874D01*
X53803549Y-71805450D01*
X53790674Y-71802000D01*
X51873327Y-71802000D01*
X51860451Y-71805450D01*
X51857122Y-71817873D01*
X51857321Y-71821775D01*
X51866368Y-71910346D01*
X51869186Y-71923509D01*
X51917635Y-72069720D01*
X51923697Y-72082719D01*
X52004320Y-72213429D01*
X52013224Y-72224690D01*
X52040000Y-72251466D01*
X52072094Y-72307053D01*
X52072094Y-72371241D01*
X52040000Y-72426828D01*
X52012829Y-72453998D01*
X52012825Y-72454002D01*
X52007719Y-72459109D01*
X52003928Y-72465254D01*
X52003924Y-72465260D01*
X51923243Y-72596064D01*
X51923240Y-72596069D01*
X51919451Y-72602213D01*
X51917180Y-72609064D01*
X51917179Y-72609068D01*
X51869107Y-72754140D01*
X51866564Y-72761815D01*
X51865876Y-72768545D01*
X51865875Y-72768552D01*
X51856819Y-72857194D01*
X51856818Y-72857212D01*
X51856500Y-72860326D01*
X51856500Y-73393674D01*
X51856818Y-73396788D01*
X51856819Y-73396805D01*
X51865875Y-73485447D01*
X51865876Y-73485452D01*
X51866564Y-73492185D01*
X51868693Y-73498612D01*
X51868694Y-73498613D01*
X51884288Y-73545674D01*
X51919451Y-73651787D01*
X52007719Y-73794891D01*
X52126609Y-73913781D01*
X52132754Y-73917571D01*
X52132755Y-73917572D01*
X52147596Y-73926726D01*
X52190777Y-73971833D01*
X52206500Y-74032265D01*
X52206500Y-75768398D01*
X52190506Y-75829314D01*
X52146649Y-75874515D01*
X52128234Y-75885646D01*
X52128225Y-75885652D01*
X52121815Y-75889528D01*
X52116515Y-75894827D01*
X52116511Y-75894831D01*
X52006831Y-76004511D01*
X52006827Y-76004515D01*
X52001528Y-76009815D01*
X51997650Y-76016228D01*
X51997649Y-76016231D01*
X51975624Y-76052664D01*
X51930664Y-76096382D01*
X51870062Y-76112511D01*
X51809318Y-76096924D01*
X51763970Y-76053609D01*
X51753367Y-76036419D01*
X51744462Y-76025157D01*
X51634842Y-75915537D01*
X51623580Y-75906632D01*
X51491633Y-75825246D01*
X51478625Y-75819180D01*
X51331030Y-75770272D01*
X51317874Y-75767456D01*
X51228444Y-75758319D01*
X51222168Y-75758000D01*
X51193326Y-75758000D01*
X51180450Y-75761450D01*
X51177000Y-75774326D01*
X51177000Y-76834000D01*
X51160387Y-76896000D01*
X51115000Y-76941387D01*
X51053000Y-76958000D01*
X49968327Y-76958000D01*
X49955451Y-76961450D01*
X49952001Y-76974326D01*
X49952001Y-76978165D01*
X49952321Y-76984447D01*
X49961455Y-77073867D01*
X49964274Y-77087036D01*
X50013180Y-77234625D01*
X50019246Y-77247633D01*
X50100632Y-77379580D01*
X50109537Y-77390842D01*
X50113659Y-77394964D01*
X50145752Y-77450547D01*
X50145755Y-77514730D01*
X50113668Y-77570317D01*
X50109144Y-77574841D01*
X50109132Y-77574855D01*
X50104032Y-77579956D01*
X50100242Y-77586099D01*
X50100239Y-77586104D01*
X50018789Y-77718154D01*
X50018786Y-77718159D01*
X50014997Y-77724303D01*
X50012726Y-77731154D01*
X50012725Y-77731158D01*
X49986644Y-77809867D01*
X49961651Y-77885292D01*
X49960963Y-77892022D01*
X49960962Y-77892029D01*
X49951819Y-77981523D01*
X49951818Y-77981541D01*
X49951500Y-77984655D01*
X49951500Y-77987802D01*
X49951500Y-77987803D01*
X49951500Y-78528194D01*
X49951500Y-78528213D01*
X49951501Y-78531344D01*
X49951820Y-78534476D01*
X49951821Y-78534477D01*
X49960962Y-78623972D01*
X49960963Y-78623980D01*
X49961651Y-78630708D01*
X50014997Y-78791697D01*
X50086038Y-78906872D01*
X50104500Y-78971968D01*
X50104500Y-81640225D01*
X50103978Y-81651280D01*
X50102327Y-81658667D01*
X50102571Y-81666453D01*
X50102571Y-81666461D01*
X50104439Y-81725873D01*
X50104500Y-81729768D01*
X50104500Y-81757350D01*
X50104988Y-81761219D01*
X50104989Y-81761225D01*
X50105004Y-81761343D01*
X50105918Y-81772966D01*
X50107045Y-81808830D01*
X50107046Y-81808837D01*
X50107291Y-81816627D01*
X50109467Y-81824119D01*
X50109468Y-81824121D01*
X50112879Y-81835862D01*
X50116825Y-81854915D01*
X50119336Y-81874792D01*
X50122206Y-81882042D01*
X50122208Y-81882048D01*
X50135414Y-81915404D01*
X50139197Y-81926451D01*
X50151382Y-81968390D01*
X50155353Y-81975105D01*
X50155354Y-81975107D01*
X50161581Y-81985637D01*
X50170136Y-82003099D01*
X50174642Y-82014480D01*
X50174643Y-82014483D01*
X50177514Y-82021732D01*
X50197161Y-82048774D01*
X50203181Y-82057060D01*
X50209593Y-82066822D01*
X50227856Y-82097702D01*
X50227859Y-82097707D01*
X50231830Y-82104420D01*
X50237345Y-82109935D01*
X50245990Y-82118580D01*
X50258626Y-82133374D01*
X50265819Y-82143275D01*
X50265823Y-82143279D01*
X50270406Y-82149587D01*
X50276415Y-82154558D01*
X50276416Y-82154559D01*
X50304058Y-82177426D01*
X50312699Y-82185289D01*
X51071707Y-82944298D01*
X51079159Y-82952487D01*
X51083214Y-82958877D01*
X51088899Y-82964216D01*
X51090109Y-82965678D01*
X51102667Y-82979720D01*
X51142137Y-83032445D01*
X51142141Y-83032449D01*
X51147454Y-83039546D01*
X51262669Y-83125796D01*
X51397517Y-83176091D01*
X51457127Y-83182500D01*
X51489980Y-83182499D01*
X51489981Y-83182500D01*
X51510017Y-83182500D01*
X51529415Y-83184027D01*
X51541486Y-83185939D01*
X51541487Y-83185939D01*
X51549196Y-83187160D01*
X51587276Y-83183560D01*
X51592676Y-83183050D01*
X51604345Y-83182500D01*
X51684151Y-83182500D01*
X51707386Y-83184696D01*
X51715412Y-83186227D01*
X51770758Y-83182745D01*
X51778545Y-83182500D01*
X51794342Y-83182500D01*
X51794350Y-83182500D01*
X51794352Y-83182499D01*
X51794358Y-83182499D01*
X52043772Y-83182499D01*
X52100067Y-83196014D01*
X52144090Y-83233614D01*
X52166245Y-83287101D01*
X52161703Y-83344817D01*
X52131453Y-83394178D01*
X51916357Y-83609275D01*
X51328280Y-84197351D01*
X51269548Y-84230244D01*
X51206924Y-84227784D01*
X51206803Y-84228356D01*
X51203475Y-84227648D01*
X51203471Y-84227647D01*
X51200450Y-84227005D01*
X51200445Y-84227004D01*
X51028008Y-84190352D01*
X51028005Y-84190351D01*
X51021646Y-84189000D01*
X50832354Y-84189000D01*
X50825995Y-84190351D01*
X50825991Y-84190352D01*
X50653559Y-84227003D01*
X50653552Y-84227005D01*
X50647197Y-84228356D01*
X50641262Y-84230998D01*
X50641254Y-84231001D01*
X50480207Y-84302705D01*
X50480202Y-84302707D01*
X50474270Y-84305349D01*
X50469016Y-84309165D01*
X50469011Y-84309169D01*
X50326388Y-84412790D01*
X50326381Y-84412795D01*
X50321129Y-84416612D01*
X50316781Y-84421440D01*
X50316782Y-84421440D01*
X50313149Y-84425475D01*
X50271435Y-84455780D01*
X50221001Y-84466500D01*
X45828229Y-84466500D01*
X45780776Y-84457061D01*
X45740548Y-84430181D01*
X44588873Y-83278505D01*
X45646927Y-83278505D01*
X45647060Y-83289679D01*
X45669377Y-83381670D01*
X45673225Y-83392788D01*
X45755580Y-83573121D01*
X45761468Y-83583319D01*
X45876463Y-83744806D01*
X45884172Y-83753703D01*
X46027658Y-83890517D01*
X46036899Y-83897784D01*
X46203685Y-84004971D01*
X46214143Y-84010363D01*
X46398201Y-84084049D01*
X46409484Y-84087362D01*
X46604165Y-84124882D01*
X46615866Y-84126000D01*
X46723674Y-84126000D01*
X46736549Y-84122549D01*
X46740000Y-84109674D01*
X47240000Y-84109674D01*
X47243450Y-84122549D01*
X47256326Y-84126000D01*
X47314450Y-84126000D01*
X47320339Y-84125719D01*
X47468242Y-84111596D01*
X47479793Y-84109369D01*
X47670026Y-84053512D01*
X47680932Y-84049146D01*
X47857159Y-83958295D01*
X47867055Y-83951935D01*
X48022894Y-83829382D01*
X48031408Y-83821264D01*
X48161243Y-83671427D01*
X48168062Y-83661850D01*
X48267191Y-83490153D01*
X48272079Y-83479450D01*
X48336924Y-83292095D01*
X48338279Y-83286511D01*
X48337693Y-83278318D01*
X48327036Y-83276000D01*
X47256326Y-83276000D01*
X47243450Y-83279450D01*
X47240000Y-83292326D01*
X47240000Y-84109674D01*
X46740000Y-84109674D01*
X46740000Y-83292326D01*
X46736549Y-83279450D01*
X46723674Y-83276000D01*
X45657819Y-83276000D01*
X45646927Y-83278505D01*
X44588873Y-83278505D01*
X44568819Y-83258451D01*
X44541939Y-83218223D01*
X44532500Y-83170770D01*
X44532500Y-75890388D01*
X44551697Y-75824113D01*
X44603344Y-75778359D01*
X44671446Y-75767292D01*
X44689628Y-75769500D01*
X44770623Y-75769500D01*
X44774372Y-75769500D01*
X44900872Y-75754140D01*
X45059930Y-75693818D01*
X45060607Y-75695604D01*
X45111223Y-75683926D01*
X45171637Y-75701745D01*
X45215502Y-75746948D01*
X45231500Y-75807870D01*
X45231500Y-76213560D01*
X45231500Y-76213578D01*
X45231501Y-76216872D01*
X45231853Y-76220150D01*
X45231854Y-76220161D01*
X45237079Y-76268768D01*
X45237080Y-76268773D01*
X45237909Y-76276483D01*
X45240619Y-76283749D01*
X45240620Y-76283753D01*
X45254737Y-76321601D01*
X45288204Y-76411331D01*
X45374454Y-76526546D01*
X45489669Y-76612796D01*
X45624517Y-76663091D01*
X45684127Y-76669500D01*
X46807500Y-76669499D01*
X46869500Y-76686112D01*
X46914887Y-76731499D01*
X46931500Y-76793499D01*
X46931500Y-79801501D01*
X46914887Y-79863501D01*
X46869500Y-79908888D01*
X46807500Y-79925501D01*
X46314992Y-79925501D01*
X46311860Y-79925820D01*
X46311858Y-79925821D01*
X46218938Y-79935312D01*
X46218928Y-79935313D01*
X46212203Y-79936001D01*
X46205781Y-79938128D01*
X46205776Y-79938130D01*
X46052521Y-79988914D01*
X46052517Y-79988915D01*
X46045666Y-79991186D01*
X46039522Y-79994975D01*
X46039519Y-79994977D01*
X45902488Y-80079497D01*
X45902480Y-80079503D01*
X45896344Y-80083288D01*
X45891242Y-80088389D01*
X45891238Y-80088393D01*
X45777393Y-80202238D01*
X45777389Y-80202242D01*
X45772288Y-80207344D01*
X45768503Y-80213480D01*
X45768497Y-80213488D01*
X45683977Y-80350519D01*
X45680186Y-80356666D01*
X45677915Y-80363517D01*
X45677914Y-80363521D01*
X45633871Y-80496434D01*
X45625001Y-80523203D01*
X45624313Y-80529933D01*
X45624312Y-80529940D01*
X45614819Y-80622859D01*
X45614818Y-80622877D01*
X45614500Y-80625991D01*
X45614500Y-80629138D01*
X45614500Y-80629139D01*
X45614500Y-81422858D01*
X45614500Y-81422877D01*
X45614501Y-81426008D01*
X45614820Y-81429140D01*
X45614821Y-81429141D01*
X45624312Y-81522061D01*
X45624313Y-81522069D01*
X45625001Y-81528797D01*
X45627129Y-81535219D01*
X45627130Y-81535223D01*
X45673288Y-81674517D01*
X45680186Y-81695334D01*
X45683977Y-81701480D01*
X45768497Y-81838511D01*
X45768500Y-81838515D01*
X45772288Y-81844656D01*
X45896344Y-81968712D01*
X45960193Y-82008094D01*
X46001611Y-82050146D01*
X46018896Y-82106584D01*
X46008129Y-82164619D01*
X45971750Y-82211101D01*
X45957103Y-82222619D01*
X45948591Y-82230735D01*
X45818756Y-82380572D01*
X45811937Y-82390149D01*
X45712808Y-82561846D01*
X45707920Y-82572549D01*
X45643075Y-82759904D01*
X45641720Y-82765488D01*
X45642306Y-82773681D01*
X45652964Y-82776000D01*
X48322181Y-82776000D01*
X48333072Y-82773494D01*
X48332939Y-82762320D01*
X48310622Y-82670329D01*
X48306774Y-82659211D01*
X48224419Y-82478878D01*
X48218531Y-82468680D01*
X48103536Y-82307193D01*
X48095828Y-82298297D01*
X47997477Y-82204520D01*
X47966666Y-82157572D01*
X47959723Y-82101847D01*
X47978073Y-82048774D01*
X48017948Y-82009240D01*
X48083656Y-81968712D01*
X48207712Y-81844656D01*
X48299814Y-81695334D01*
X48354999Y-81528797D01*
X48365500Y-81426009D01*
X48365499Y-80674666D01*
X48378687Y-80619019D01*
X48392040Y-80592433D01*
X48393707Y-80585396D01*
X48394879Y-80582177D01*
X48395021Y-80581834D01*
X48395118Y-80581492D01*
X48396199Y-80578227D01*
X48399257Y-80571673D01*
X48414450Y-80498088D01*
X48415186Y-80494771D01*
X48432500Y-80421721D01*
X48432500Y-80414489D01*
X48432900Y-80411067D01*
X48432957Y-80410714D01*
X48432972Y-80410374D01*
X48433273Y-80406931D01*
X48434734Y-80399856D01*
X48432552Y-80324870D01*
X48432500Y-80321263D01*
X48432500Y-76441674D01*
X49952000Y-76441674D01*
X49955450Y-76454549D01*
X49968326Y-76458000D01*
X50660674Y-76458000D01*
X50673549Y-76454549D01*
X50677000Y-76441674D01*
X50677000Y-75774327D01*
X50673549Y-75761451D01*
X50660674Y-75758001D01*
X50631835Y-75758001D01*
X50625552Y-75758321D01*
X50536132Y-75767455D01*
X50522963Y-75770274D01*
X50375374Y-75819180D01*
X50362366Y-75825246D01*
X50230419Y-75906632D01*
X50219157Y-75915537D01*
X50109537Y-76025157D01*
X50100632Y-76036419D01*
X50019246Y-76168366D01*
X50013180Y-76181374D01*
X49964272Y-76328969D01*
X49961456Y-76342125D01*
X49952319Y-76431555D01*
X49952000Y-76437832D01*
X49952000Y-76441674D01*
X48432500Y-76441674D01*
X48432500Y-72582707D01*
X48433809Y-72564736D01*
X48434297Y-72561396D01*
X48437289Y-72540977D01*
X48432971Y-72491633D01*
X48432500Y-72480827D01*
X48432500Y-72478902D01*
X48432500Y-72475291D01*
X48428894Y-72444443D01*
X48428537Y-72440956D01*
X48421998Y-72366203D01*
X48419724Y-72359341D01*
X48419027Y-72355965D01*
X48418970Y-72355613D01*
X48418875Y-72355277D01*
X48418079Y-72351919D01*
X48417241Y-72344745D01*
X48391569Y-72274212D01*
X48390401Y-72270848D01*
X48369086Y-72206521D01*
X48369085Y-72206519D01*
X48366814Y-72199665D01*
X48363022Y-72193518D01*
X48361559Y-72190379D01*
X48361431Y-72190069D01*
X48361257Y-72189758D01*
X48359710Y-72186677D01*
X48357237Y-72179883D01*
X48316005Y-72117194D01*
X48314106Y-72114212D01*
X48278504Y-72056491D01*
X48278501Y-72056488D01*
X48274712Y-72050344D01*
X48269605Y-72045237D01*
X48267459Y-72042523D01*
X48267257Y-72042244D01*
X48267022Y-72041987D01*
X48264796Y-72039334D01*
X48260830Y-72033304D01*
X48206290Y-71981848D01*
X48203703Y-71979335D01*
X47768818Y-71544450D01*
X47741938Y-71504222D01*
X47732499Y-71456769D01*
X47732499Y-71286125D01*
X51857121Y-71286125D01*
X51860450Y-71298549D01*
X51873326Y-71302000D01*
X52565674Y-71302000D01*
X52578549Y-71298549D01*
X52582000Y-71285674D01*
X53082000Y-71285674D01*
X53085450Y-71298549D01*
X53098326Y-71302000D01*
X53790673Y-71302000D01*
X53803548Y-71298549D01*
X53806877Y-71286126D01*
X53806678Y-71282224D01*
X53797631Y-71193653D01*
X53794813Y-71180490D01*
X53746364Y-71034279D01*
X53740302Y-71021280D01*
X53659679Y-70890570D01*
X53650775Y-70879309D01*
X53542190Y-70770724D01*
X53530929Y-70761820D01*
X53400219Y-70681197D01*
X53387220Y-70675135D01*
X53241012Y-70626687D01*
X53227845Y-70623868D01*
X53139273Y-70614819D01*
X53132996Y-70614500D01*
X53098326Y-70614500D01*
X53085450Y-70617950D01*
X53082000Y-70630826D01*
X53082000Y-71285674D01*
X52582000Y-71285674D01*
X52582000Y-70630827D01*
X52578549Y-70617951D01*
X52565674Y-70614501D01*
X52531007Y-70614501D01*
X52524724Y-70614821D01*
X52436153Y-70623868D01*
X52422990Y-70626686D01*
X52276779Y-70675135D01*
X52263780Y-70681197D01*
X52133070Y-70761820D01*
X52121809Y-70770724D01*
X52013224Y-70879309D01*
X52004320Y-70890570D01*
X51923697Y-71021280D01*
X51917635Y-71034279D01*
X51869187Y-71180487D01*
X51866368Y-71193654D01*
X51857319Y-71282226D01*
X51857121Y-71286125D01*
X47732499Y-71286125D01*
X47732499Y-70924439D01*
X47732499Y-70921128D01*
X47726091Y-70861517D01*
X47675796Y-70726669D01*
X47670482Y-70719570D01*
X47670478Y-70719563D01*
X47630376Y-70665995D01*
X47606406Y-70605428D01*
X47616443Y-70541068D01*
X47657716Y-70490675D01*
X47718835Y-70468156D01*
X47777797Y-70462999D01*
X47784653Y-70460726D01*
X47788043Y-70460027D01*
X47788375Y-70459973D01*
X47788728Y-70459873D01*
X47792071Y-70459080D01*
X47799255Y-70458241D01*
X47869760Y-70432579D01*
X47873118Y-70431412D01*
X47944334Y-70407814D01*
X47950486Y-70404018D01*
X47953607Y-70402564D01*
X47953929Y-70402430D01*
X47954238Y-70402258D01*
X47957315Y-70400712D01*
X47964117Y-70398237D01*
X48026837Y-70356984D01*
X48029732Y-70355140D01*
X48093656Y-70315712D01*
X48098763Y-70310603D01*
X48101476Y-70308459D01*
X48101758Y-70308254D01*
X48102029Y-70308007D01*
X48104658Y-70305800D01*
X48110696Y-70301830D01*
X48162186Y-70247252D01*
X48164631Y-70244735D01*
X49315638Y-69093727D01*
X49329262Y-69081953D01*
X49348530Y-69067610D01*
X49380372Y-69029661D01*
X49387686Y-69021681D01*
X49388267Y-69021099D01*
X49391590Y-69017777D01*
X49410836Y-68993433D01*
X49413058Y-68990706D01*
X49461302Y-68933214D01*
X49464547Y-68926751D01*
X49466440Y-68923874D01*
X49466644Y-68923591D01*
X49466821Y-68923274D01*
X49468623Y-68920352D01*
X49473111Y-68914677D01*
X49504816Y-68846682D01*
X49506355Y-68843502D01*
X49540040Y-68776433D01*
X49541706Y-68769398D01*
X49542881Y-68766172D01*
X49543020Y-68765836D01*
X49543118Y-68765491D01*
X49544200Y-68762224D01*
X49547256Y-68755673D01*
X49562434Y-68682157D01*
X49563186Y-68678768D01*
X49580500Y-68605721D01*
X49580500Y-68598490D01*
X49580902Y-68595051D01*
X49580956Y-68594714D01*
X49580972Y-68594360D01*
X49581271Y-68590933D01*
X49582733Y-68583856D01*
X49580552Y-68508889D01*
X49580500Y-68505283D01*
X49580500Y-59798499D01*
X49597113Y-59736499D01*
X49642500Y-59691112D01*
X49704500Y-59674499D01*
X50074561Y-59674499D01*
X50077872Y-59674499D01*
X50137483Y-59668091D01*
X50272331Y-59617796D01*
X50387546Y-59531546D01*
X50473796Y-59416331D01*
X50524091Y-59281483D01*
X50530500Y-59221873D01*
X50530499Y-58490250D01*
X55265000Y-58490250D01*
X55265000Y-61538250D01*
X58296674Y-61538250D01*
X58313000Y-61538250D01*
X58313000Y-58490250D01*
X55265000Y-58490250D01*
X50530499Y-58490250D01*
X50530499Y-58126128D01*
X50524091Y-58066517D01*
X50473796Y-57931669D01*
X50387546Y-57816454D01*
X50272331Y-57730204D01*
X50219274Y-57710415D01*
X50170064Y-57676765D01*
X50142244Y-57624040D01*
X50142244Y-57564425D01*
X50170065Y-57511700D01*
X50219276Y-57478051D01*
X50263775Y-57461453D01*
X50279189Y-57453037D01*
X50380092Y-57377501D01*
X50392501Y-57365092D01*
X50468037Y-57264189D01*
X50476452Y-57248777D01*
X50520888Y-57129641D01*
X50524426Y-57114667D01*
X50529646Y-57066114D01*
X50530000Y-57059518D01*
X50530000Y-56781326D01*
X50526549Y-56768450D01*
X50513674Y-56765000D01*
X48546326Y-56765000D01*
X48533450Y-56768450D01*
X48530000Y-56781326D01*
X48530000Y-57059518D01*
X48530353Y-57066114D01*
X48535573Y-57114667D01*
X48539111Y-57129641D01*
X48583547Y-57248777D01*
X48591962Y-57264189D01*
X48667498Y-57365092D01*
X48679907Y-57377501D01*
X48780810Y-57453037D01*
X48796222Y-57461452D01*
X48840724Y-57478051D01*
X48889934Y-57511700D01*
X48917755Y-57564425D01*
X48917755Y-57624040D01*
X48889935Y-57676765D01*
X48840726Y-57710414D01*
X48795982Y-57727102D01*
X48795973Y-57727106D01*
X48787669Y-57730204D01*
X48780572Y-57735516D01*
X48780568Y-57735519D01*
X48679550Y-57811141D01*
X48679546Y-57811144D01*
X48672454Y-57816454D01*
X48667144Y-57823546D01*
X48667141Y-57823550D01*
X48591519Y-57924568D01*
X48591516Y-57924572D01*
X48586204Y-57931669D01*
X48583104Y-57939978D01*
X48583104Y-57939980D01*
X48538620Y-58059247D01*
X48538619Y-58059250D01*
X48535909Y-58066517D01*
X48535079Y-58074227D01*
X48535079Y-58074232D01*
X48529855Y-58122819D01*
X48529854Y-58122831D01*
X48529500Y-58126127D01*
X48529500Y-58129449D01*
X48529500Y-58561769D01*
X48520061Y-58609222D01*
X48493183Y-58649447D01*
X48418692Y-58723939D01*
X48344358Y-58798273D01*
X48330730Y-58810050D01*
X48317262Y-58820077D01*
X48317257Y-58820080D01*
X48311470Y-58824390D01*
X48307744Y-58828829D01*
X48256027Y-58857888D01*
X48196037Y-58859277D01*
X48142420Y-58832336D01*
X48107732Y-58783375D01*
X48048656Y-58631977D01*
X47921366Y-58418356D01*
X47760650Y-58228600D01*
X47629912Y-58117870D01*
X47597553Y-58075395D01*
X47586055Y-58023248D01*
X47597553Y-57971102D01*
X47629908Y-57928632D01*
X47760650Y-57817900D01*
X47921366Y-57628144D01*
X48048656Y-57414523D01*
X48139050Y-57182864D01*
X48190081Y-56939487D01*
X48196500Y-56836092D01*
X48196500Y-56670408D01*
X48190081Y-56567013D01*
X48139050Y-56323636D01*
X48109800Y-56248674D01*
X48530000Y-56248674D01*
X48533450Y-56261549D01*
X48546326Y-56265000D01*
X50513674Y-56265000D01*
X50526549Y-56261549D01*
X50530000Y-56248674D01*
X50530000Y-55970482D01*
X50529646Y-55963885D01*
X50524426Y-55915332D01*
X50520888Y-55900358D01*
X50476452Y-55781222D01*
X50468037Y-55765810D01*
X50392501Y-55664907D01*
X50381525Y-55653931D01*
X50351275Y-55604568D01*
X50346733Y-55546852D01*
X50368888Y-55493365D01*
X50412911Y-55455765D01*
X50469206Y-55442250D01*
X50930674Y-55442250D01*
X50947000Y-55442250D01*
X50947000Y-52775250D01*
X49169000Y-52775250D01*
X49169000Y-52791576D01*
X49169000Y-55391000D01*
X49152387Y-55453000D01*
X49107000Y-55498387D01*
X49045000Y-55515000D01*
X48985482Y-55515000D01*
X48978885Y-55515353D01*
X48930332Y-55520573D01*
X48915358Y-55524111D01*
X48796222Y-55568547D01*
X48780810Y-55576962D01*
X48679907Y-55652498D01*
X48667498Y-55664907D01*
X48591962Y-55765810D01*
X48583547Y-55781222D01*
X48539111Y-55900358D01*
X48535573Y-55915332D01*
X48530353Y-55963885D01*
X48530000Y-55970482D01*
X48530000Y-56248674D01*
X48109800Y-56248674D01*
X48048656Y-56091977D01*
X47921366Y-55878356D01*
X47760650Y-55688600D01*
X47629913Y-55577871D01*
X47597553Y-55535396D01*
X47586055Y-55483250D01*
X47597553Y-55431104D01*
X47629914Y-55388628D01*
X47760650Y-55277900D01*
X47921366Y-55088144D01*
X48048656Y-54874523D01*
X48139050Y-54642864D01*
X48190081Y-54399487D01*
X48196500Y-54296092D01*
X48196500Y-54130408D01*
X48190081Y-54027013D01*
X48139050Y-53783636D01*
X48048656Y-53551977D01*
X47921366Y-53338356D01*
X47760650Y-53148600D01*
X47629913Y-53037871D01*
X47597553Y-52995396D01*
X47586055Y-52943250D01*
X47597553Y-52891104D01*
X47629914Y-52848628D01*
X47760650Y-52737900D01*
X47921366Y-52548144D01*
X48048656Y-52334523D01*
X48139050Y-52102864D01*
X48190081Y-51859487D01*
X48196500Y-51756092D01*
X48196500Y-51590408D01*
X48190081Y-51487013D01*
X48139050Y-51243636D01*
X48048656Y-51011977D01*
X47921366Y-50798356D01*
X47760650Y-50608600D01*
X47570894Y-50447884D01*
X47566499Y-50445265D01*
X47566496Y-50445263D01*
X47361675Y-50323217D01*
X47361674Y-50323216D01*
X47357273Y-50320594D01*
X47352501Y-50318732D01*
X47352495Y-50318729D01*
X47130390Y-50232063D01*
X47130383Y-50232061D01*
X47125614Y-50230200D01*
X47120600Y-50229148D01*
X47120598Y-50229148D01*
X46886631Y-50180090D01*
X46886626Y-50180089D01*
X46882237Y-50179169D01*
X46877767Y-50178891D01*
X46877756Y-50178890D01*
X46780768Y-50172869D01*
X46780749Y-50172868D01*
X46778842Y-50172750D01*
X45863158Y-50172750D01*
X45861251Y-50172868D01*
X45861231Y-50172869D01*
X45764243Y-50178890D01*
X45764231Y-50178891D01*
X45759763Y-50179169D01*
X45755375Y-50180089D01*
X45755368Y-50180090D01*
X45521401Y-50229148D01*
X45521395Y-50229149D01*
X45516386Y-50230200D01*
X45511619Y-50232059D01*
X45511609Y-50232063D01*
X45289504Y-50318729D01*
X45289493Y-50318733D01*
X45284727Y-50320594D01*
X45280329Y-50323214D01*
X45280324Y-50323217D01*
X45075503Y-50445263D01*
X45075494Y-50445268D01*
X45071106Y-50447884D01*
X45067200Y-50451191D01*
X45067196Y-50451195D01*
X44885264Y-50605284D01*
X44885257Y-50605290D01*
X44881350Y-50608600D01*
X44878040Y-50612507D01*
X44878034Y-50612514D01*
X44723945Y-50794446D01*
X44723941Y-50794450D01*
X44720634Y-50798356D01*
X44718018Y-50802744D01*
X44718013Y-50802753D01*
X44595967Y-51007574D01*
X44595964Y-51007579D01*
X44593344Y-51011977D01*
X44591483Y-51016743D01*
X44591479Y-51016754D01*
X44504813Y-51238859D01*
X44504809Y-51238869D01*
X44502950Y-51243636D01*
X44501899Y-51248645D01*
X44501898Y-51248651D01*
X44452840Y-51482618D01*
X44452839Y-51482625D01*
X44451919Y-51487013D01*
X44451641Y-51491481D01*
X44451640Y-51491493D01*
X44445619Y-51588481D01*
X44445618Y-51588501D01*
X44445500Y-51590408D01*
X44445500Y-51756092D01*
X44445618Y-51757999D01*
X44445619Y-51758018D01*
X44451640Y-51855006D01*
X44451641Y-51855017D01*
X44451919Y-51859487D01*
X44502950Y-52102864D01*
X44504811Y-52107633D01*
X44504813Y-52107640D01*
X44591479Y-52329745D01*
X44591482Y-52329751D01*
X44593344Y-52334523D01*
X44720634Y-52548144D01*
X44881350Y-52737900D01*
X45012086Y-52848628D01*
X45044446Y-52891104D01*
X45055944Y-52943250D01*
X45044446Y-52995396D01*
X45012086Y-53037871D01*
X44881350Y-53148600D01*
X44878040Y-53152507D01*
X44878034Y-53152514D01*
X44723945Y-53334446D01*
X44723941Y-53334450D01*
X44720634Y-53338356D01*
X44718018Y-53342744D01*
X44718013Y-53342753D01*
X44595967Y-53547574D01*
X44595964Y-53547579D01*
X44593344Y-53551977D01*
X44591483Y-53556743D01*
X44591479Y-53556754D01*
X44504813Y-53778859D01*
X44504809Y-53778869D01*
X44502950Y-53783636D01*
X44501899Y-53788645D01*
X44501898Y-53788651D01*
X44452840Y-54022618D01*
X44452839Y-54022625D01*
X44451919Y-54027013D01*
X44451641Y-54031481D01*
X44451640Y-54031493D01*
X44445619Y-54128481D01*
X44445618Y-54128501D01*
X44445500Y-54130408D01*
X44445500Y-54296092D01*
X44445618Y-54297999D01*
X44445619Y-54298018D01*
X44451640Y-54395006D01*
X44451641Y-54395017D01*
X44451919Y-54399487D01*
X44452839Y-54403876D01*
X44452840Y-54403881D01*
X44465801Y-54465695D01*
X44502950Y-54642864D01*
X44504811Y-54647633D01*
X44504813Y-54647640D01*
X44591479Y-54869745D01*
X44591482Y-54869751D01*
X44593344Y-54874523D01*
X44720634Y-55088144D01*
X44723945Y-55092053D01*
X44865485Y-55259169D01*
X44881350Y-55277900D01*
X45012086Y-55388628D01*
X45044446Y-55431104D01*
X45055944Y-55483250D01*
X45044446Y-55535396D01*
X45012086Y-55577871D01*
X44881350Y-55688600D01*
X44878040Y-55692507D01*
X44878034Y-55692514D01*
X44723945Y-55874446D01*
X44723941Y-55874450D01*
X44720634Y-55878356D01*
X44718018Y-55882744D01*
X44718013Y-55882753D01*
X44595967Y-56087574D01*
X44595964Y-56087579D01*
X44593344Y-56091977D01*
X44591483Y-56096743D01*
X44591479Y-56096754D01*
X44504813Y-56318859D01*
X44504809Y-56318869D01*
X44502950Y-56323636D01*
X44501899Y-56328645D01*
X44501898Y-56328651D01*
X44452840Y-56562618D01*
X44452839Y-56562625D01*
X44451919Y-56567013D01*
X44451641Y-56571481D01*
X44451640Y-56571493D01*
X44445619Y-56668481D01*
X44445618Y-56668501D01*
X44445500Y-56670408D01*
X44445500Y-56836092D01*
X44445618Y-56837999D01*
X44445619Y-56838018D01*
X44451640Y-56935006D01*
X44451641Y-56935017D01*
X44451919Y-56939487D01*
X44452839Y-56943876D01*
X44452840Y-56943881D01*
X44495985Y-57149647D01*
X44502950Y-57182864D01*
X44504811Y-57187633D01*
X44504813Y-57187640D01*
X44591479Y-57409745D01*
X44591482Y-57409751D01*
X44593344Y-57414523D01*
X44595966Y-57418924D01*
X44595967Y-57418925D01*
X44621307Y-57461452D01*
X44720634Y-57628144D01*
X44881350Y-57817900D01*
X45012086Y-57928628D01*
X45044446Y-57971102D01*
X45055944Y-58023248D01*
X45044447Y-58075395D01*
X45012086Y-58117871D01*
X44885279Y-58225272D01*
X44881350Y-58228600D01*
X44878040Y-58232507D01*
X44878034Y-58232514D01*
X44723945Y-58414446D01*
X44723941Y-58414450D01*
X44720634Y-58418356D01*
X44718018Y-58422744D01*
X44718013Y-58422753D01*
X44595967Y-58627574D01*
X44595964Y-58627579D01*
X44593344Y-58631977D01*
X44591483Y-58636743D01*
X44591479Y-58636754D01*
X44504813Y-58858859D01*
X44504809Y-58858869D01*
X44502950Y-58863636D01*
X44501899Y-58868645D01*
X44501898Y-58868651D01*
X44452840Y-59102618D01*
X44452839Y-59102625D01*
X44451919Y-59107013D01*
X44451641Y-59111481D01*
X44451640Y-59111493D01*
X44445619Y-59208481D01*
X44445618Y-59208501D01*
X44445500Y-59210408D01*
X44445500Y-59376092D01*
X44445618Y-59377999D01*
X44445619Y-59378018D01*
X44451640Y-59475006D01*
X44451641Y-59475017D01*
X44451919Y-59479487D01*
X44452839Y-59483876D01*
X44452840Y-59483881D01*
X44492809Y-59674499D01*
X44502950Y-59722864D01*
X44504811Y-59727633D01*
X44504813Y-59727640D01*
X44591479Y-59949745D01*
X44591482Y-59949751D01*
X44593344Y-59954523D01*
X44595966Y-59958924D01*
X44595967Y-59958925D01*
X44701886Y-60136682D01*
X44720634Y-60168144D01*
X44881350Y-60357900D01*
X45012086Y-60468628D01*
X45044446Y-60511102D01*
X45055944Y-60563248D01*
X45044447Y-60615395D01*
X45012086Y-60657871D01*
X44885258Y-60765290D01*
X44881350Y-60768600D01*
X44878040Y-60772507D01*
X44878034Y-60772514D01*
X44723945Y-60954446D01*
X44723941Y-60954450D01*
X44720634Y-60958356D01*
X44718018Y-60962744D01*
X44718013Y-60962753D01*
X44595967Y-61167574D01*
X44595964Y-61167579D01*
X44593344Y-61171977D01*
X44591483Y-61176743D01*
X44591479Y-61176754D01*
X44504813Y-61398859D01*
X44504809Y-61398869D01*
X44502950Y-61403636D01*
X44501899Y-61408645D01*
X44501898Y-61408651D01*
X44452840Y-61642618D01*
X44452839Y-61642625D01*
X44451919Y-61647013D01*
X44451641Y-61651481D01*
X44451640Y-61651493D01*
X44445619Y-61748481D01*
X44445618Y-61748501D01*
X44445500Y-61750408D01*
X44445500Y-61916092D01*
X44445618Y-61917999D01*
X44445619Y-61918018D01*
X44451640Y-62015003D01*
X44451641Y-62015011D01*
X44451919Y-62019487D01*
X44452841Y-62023884D01*
X44475068Y-62129892D01*
X44472552Y-62190720D01*
X44441388Y-62243019D01*
X44121225Y-62563183D01*
X44081000Y-62590061D01*
X44033547Y-62599500D01*
X43974354Y-62599500D01*
X43967995Y-62600851D01*
X43967991Y-62600852D01*
X43795559Y-62637503D01*
X43795552Y-62637505D01*
X43789197Y-62638856D01*
X43783262Y-62641498D01*
X43783254Y-62641501D01*
X43622207Y-62713205D01*
X43622202Y-62713207D01*
X43616270Y-62715849D01*
X43611016Y-62719665D01*
X43611011Y-62719669D01*
X43468388Y-62823290D01*
X43468381Y-62823295D01*
X43463129Y-62827112D01*
X43458779Y-62831942D01*
X43457472Y-62833120D01*
X43407846Y-62860402D01*
X43351265Y-62862774D01*
X43299530Y-62839740D01*
X43263432Y-62796105D01*
X43250500Y-62740970D01*
X43250500Y-50662854D01*
X43250816Y-50654011D01*
X43254913Y-50596710D01*
X43255448Y-50589227D01*
X43255483Y-50588761D01*
X43267504Y-50436006D01*
X43269952Y-50419405D01*
X43290062Y-50326951D01*
X43290596Y-50324616D01*
X43319039Y-50206142D01*
X43323422Y-50191786D01*
X43358569Y-50097550D01*
X43360119Y-50093611D01*
X43404436Y-49986621D01*
X43410157Y-49974663D01*
X43459446Y-49884396D01*
X43462491Y-49879136D01*
X43521820Y-49782322D01*
X43528236Y-49772865D01*
X43590495Y-49689695D01*
X43595380Y-49683590D01*
X43668596Y-49597865D01*
X43675157Y-49590768D01*
X43748768Y-49517157D01*
X43755865Y-49510596D01*
X43841590Y-49437380D01*
X43847695Y-49432495D01*
X43930865Y-49370236D01*
X43940322Y-49363820D01*
X44037136Y-49304491D01*
X44042396Y-49301446D01*
X44132663Y-49252157D01*
X44144621Y-49246437D01*
X44148480Y-49244838D01*
X44251611Y-49202119D01*
X44255550Y-49200569D01*
X44349786Y-49165422D01*
X44364142Y-49161039D01*
X44482616Y-49132596D01*
X44484951Y-49132062D01*
X44577405Y-49111952D01*
X44594006Y-49109504D01*
X44746764Y-49097482D01*
X44747064Y-49097459D01*
X44812036Y-49092814D01*
X44820829Y-49092499D01*
X47418448Y-49092235D01*
X49044987Y-49092070D01*
X49106993Y-49108679D01*
X49152385Y-49154066D01*
X49169000Y-49216070D01*
X49169000Y-51378250D01*
X50930674Y-51378250D01*
X50947000Y-51378250D01*
X50947000Y-49473250D01*
X51836000Y-49473250D01*
X51836000Y-56458250D01*
X57026674Y-56458250D01*
X57043000Y-56458250D01*
X57043000Y-52775250D01*
X57805000Y-52775250D01*
X57805000Y-55442250D01*
X59566674Y-55442250D01*
X59583000Y-55442250D01*
X59583000Y-52775250D01*
X57805000Y-52775250D01*
X57043000Y-52775250D01*
X57043000Y-51756092D01*
X60610500Y-51756092D01*
X60610618Y-51757999D01*
X60610619Y-51758018D01*
X60616640Y-51855006D01*
X60616641Y-51855017D01*
X60616919Y-51859487D01*
X60667950Y-52102864D01*
X60669811Y-52107633D01*
X60669813Y-52107640D01*
X60756479Y-52329745D01*
X60756482Y-52329751D01*
X60758344Y-52334523D01*
X60885634Y-52548144D01*
X61046350Y-52737900D01*
X61050263Y-52741214D01*
X61177472Y-52848955D01*
X61209833Y-52891430D01*
X61221331Y-52943577D01*
X61209834Y-52995723D01*
X61177473Y-53038199D01*
X61050613Y-53145645D01*
X61043389Y-53152869D01*
X60889354Y-53334737D01*
X60883422Y-53343044D01*
X60761418Y-53547794D01*
X60756930Y-53556974D01*
X60670295Y-53779002D01*
X60667380Y-53788793D01*
X60633639Y-53949712D01*
X60633811Y-53960804D01*
X60644636Y-53963250D01*
X64327364Y-53963250D01*
X64338188Y-53960804D01*
X64338360Y-53949712D01*
X64304619Y-53788793D01*
X64301704Y-53779002D01*
X64215069Y-53556974D01*
X64210581Y-53547794D01*
X64088577Y-53343044D01*
X64082645Y-53334737D01*
X63928610Y-53152869D01*
X63921386Y-53145645D01*
X63794526Y-53038199D01*
X63762166Y-52995723D01*
X63750668Y-52943577D01*
X63762166Y-52891430D01*
X63794522Y-52848959D01*
X63925650Y-52737900D01*
X64086366Y-52548144D01*
X64213656Y-52334523D01*
X64304050Y-52102864D01*
X64355081Y-51859487D01*
X64361500Y-51756092D01*
X64361500Y-51590408D01*
X64355081Y-51487013D01*
X64304050Y-51243636D01*
X64213656Y-51011977D01*
X64086366Y-50798356D01*
X63925650Y-50608600D01*
X63735894Y-50447884D01*
X63731499Y-50445265D01*
X63731496Y-50445263D01*
X63526675Y-50323217D01*
X63526674Y-50323216D01*
X63522273Y-50320594D01*
X63517501Y-50318732D01*
X63517495Y-50318729D01*
X63295390Y-50232063D01*
X63295383Y-50232061D01*
X63290614Y-50230200D01*
X63285600Y-50229148D01*
X63285598Y-50229148D01*
X63051631Y-50180090D01*
X63051626Y-50180089D01*
X63047237Y-50179169D01*
X63042767Y-50178891D01*
X63042756Y-50178890D01*
X62945768Y-50172869D01*
X62945749Y-50172868D01*
X62943842Y-50172750D01*
X62028158Y-50172750D01*
X62026251Y-50172868D01*
X62026231Y-50172869D01*
X61929243Y-50178890D01*
X61929231Y-50178891D01*
X61924763Y-50179169D01*
X61920375Y-50180089D01*
X61920368Y-50180090D01*
X61686401Y-50229148D01*
X61686395Y-50229149D01*
X61681386Y-50230200D01*
X61676619Y-50232059D01*
X61676609Y-50232063D01*
X61454504Y-50318729D01*
X61454493Y-50318733D01*
X61449727Y-50320594D01*
X61445329Y-50323214D01*
X61445324Y-50323217D01*
X61240503Y-50445263D01*
X61240494Y-50445268D01*
X61236106Y-50447884D01*
X61232200Y-50451191D01*
X61232196Y-50451195D01*
X61050264Y-50605284D01*
X61050257Y-50605290D01*
X61046350Y-50608600D01*
X61043040Y-50612507D01*
X61043034Y-50612514D01*
X60888945Y-50794446D01*
X60888941Y-50794450D01*
X60885634Y-50798356D01*
X60883018Y-50802744D01*
X60883013Y-50802753D01*
X60760967Y-51007574D01*
X60760964Y-51007579D01*
X60758344Y-51011977D01*
X60756483Y-51016743D01*
X60756479Y-51016754D01*
X60669813Y-51238859D01*
X60669809Y-51238869D01*
X60667950Y-51243636D01*
X60666899Y-51248645D01*
X60666898Y-51248651D01*
X60617840Y-51482618D01*
X60617839Y-51482625D01*
X60616919Y-51487013D01*
X60616641Y-51491481D01*
X60616640Y-51491493D01*
X60610619Y-51588481D01*
X60610618Y-51588501D01*
X60610500Y-51590408D01*
X60610500Y-51756092D01*
X57043000Y-51756092D01*
X57043000Y-49473250D01*
X51836000Y-49473250D01*
X50947000Y-49473250D01*
X50947000Y-49215863D01*
X50963611Y-49153867D01*
X51008993Y-49108480D01*
X51070985Y-49091863D01*
X54386972Y-49091526D01*
X57680987Y-49091192D01*
X57742993Y-49107801D01*
X57788385Y-49153188D01*
X57805000Y-49215192D01*
X57805000Y-51378250D01*
X59566674Y-51378250D01*
X59583000Y-51378250D01*
X59583000Y-49214985D01*
X59599611Y-49152989D01*
X59644993Y-49107602D01*
X59706985Y-49090985D01*
X64475409Y-49090500D01*
X64484117Y-49090806D01*
G37*
%TD.AperFunction*%
%TA.AperFunction,Conductor*%
G36*
X56602680Y-71711271D02*
G01*
X58920000Y-74028591D01*
X61213012Y-76321603D01*
X61245105Y-76377188D01*
X61245105Y-76441374D01*
X61214073Y-76495124D01*
X61210000Y-76510326D01*
X61210000Y-77570000D01*
X61193387Y-77632000D01*
X61148000Y-77677387D01*
X61086000Y-77694000D01*
X60001327Y-77694000D01*
X59988451Y-77697450D01*
X59985001Y-77710326D01*
X59985001Y-77714165D01*
X59985321Y-77720447D01*
X59994455Y-77809867D01*
X59997274Y-77823036D01*
X60046180Y-77970625D01*
X60052246Y-77983633D01*
X60133632Y-78115580D01*
X60142537Y-78126842D01*
X60146659Y-78130964D01*
X60178752Y-78186547D01*
X60178755Y-78250730D01*
X60146668Y-78306317D01*
X60142144Y-78310841D01*
X60142132Y-78310855D01*
X60137032Y-78315956D01*
X60133242Y-78322099D01*
X60133239Y-78322104D01*
X60051789Y-78454154D01*
X60051786Y-78454159D01*
X60047997Y-78460303D01*
X60045726Y-78467154D01*
X60045725Y-78467158D01*
X60023418Y-78534477D01*
X59994651Y-78621292D01*
X59993963Y-78628022D01*
X59993962Y-78628029D01*
X59984819Y-78717523D01*
X59984818Y-78717541D01*
X59984500Y-78720655D01*
X59984500Y-78723802D01*
X59984500Y-78723803D01*
X59984500Y-79264194D01*
X59984500Y-79264213D01*
X59984501Y-79267344D01*
X59984820Y-79270476D01*
X59984821Y-79270477D01*
X59993962Y-79359972D01*
X59993963Y-79359980D01*
X59994651Y-79366708D01*
X59996779Y-79373132D01*
X59996781Y-79373138D01*
X60037766Y-79496825D01*
X60042176Y-79557362D01*
X60017326Y-79612739D01*
X59969171Y-79649688D01*
X59909248Y-79659356D01*
X59851917Y-79639426D01*
X59848747Y-79637341D01*
X59843214Y-79632698D01*
X59836760Y-79629456D01*
X59833859Y-79627548D01*
X59833588Y-79627352D01*
X59833292Y-79627187D01*
X59830339Y-79625366D01*
X59824677Y-79620889D01*
X59818134Y-79617838D01*
X59818131Y-79617836D01*
X59756692Y-79589186D01*
X59753446Y-79587615D01*
X59692884Y-79557200D01*
X59692885Y-79557200D01*
X59686433Y-79553960D01*
X59679409Y-79552295D01*
X59676151Y-79551109D01*
X59675832Y-79550977D01*
X59675504Y-79550884D01*
X59672218Y-79549795D01*
X59665673Y-79546743D01*
X59658604Y-79545283D01*
X59658600Y-79545282D01*
X59592212Y-79531574D01*
X59588691Y-79530794D01*
X59522741Y-79515163D01*
X59522734Y-79515162D01*
X59515721Y-79513500D01*
X59508510Y-79513500D01*
X59505061Y-79513097D01*
X59504542Y-79513013D01*
X59502920Y-79512848D01*
X59502176Y-79512761D01*
X59501607Y-79512542D01*
X59494565Y-79511411D01*
X59494038Y-79511303D01*
X59494355Y-79509752D01*
X59444714Y-79490652D01*
X59404968Y-79443630D01*
X59392739Y-79383288D01*
X59411040Y-79324502D01*
X59454755Y-79253629D01*
X59460819Y-79240625D01*
X59509727Y-79093030D01*
X59512543Y-79079874D01*
X59521680Y-78990444D01*
X59522000Y-78984168D01*
X59522000Y-78980326D01*
X59518549Y-78967450D01*
X59505674Y-78964000D01*
X57588327Y-78964000D01*
X57575451Y-78967450D01*
X57572001Y-78980326D01*
X57572001Y-78984165D01*
X57572321Y-78990447D01*
X57581455Y-79079867D01*
X57584274Y-79093036D01*
X57633180Y-79240625D01*
X57639244Y-79253629D01*
X57682898Y-79324402D01*
X57701330Y-79386794D01*
X57685638Y-79449931D01*
X57640139Y-79496433D01*
X57577360Y-79513500D01*
X56722640Y-79513500D01*
X56659861Y-79496433D01*
X56614362Y-79449931D01*
X56598670Y-79386794D01*
X56617102Y-79324402D01*
X56660755Y-79253629D01*
X56666819Y-79240625D01*
X56715727Y-79093030D01*
X56718543Y-79079874D01*
X56727680Y-78990444D01*
X56728000Y-78984168D01*
X56728000Y-78980326D01*
X56724549Y-78967450D01*
X56711674Y-78964000D01*
X54794327Y-78964000D01*
X54781451Y-78967450D01*
X54778001Y-78980326D01*
X54778001Y-78984165D01*
X54778321Y-78990447D01*
X54787455Y-79079867D01*
X54790274Y-79093036D01*
X54839180Y-79240625D01*
X54845246Y-79253633D01*
X54926632Y-79385580D01*
X54935537Y-79396842D01*
X54939659Y-79400964D01*
X54971752Y-79456547D01*
X54971755Y-79520730D01*
X54939668Y-79576317D01*
X54935144Y-79580841D01*
X54935132Y-79580855D01*
X54930032Y-79585956D01*
X54926242Y-79592099D01*
X54926239Y-79592104D01*
X54844789Y-79724154D01*
X54844786Y-79724159D01*
X54840997Y-79730303D01*
X54838726Y-79737154D01*
X54838725Y-79737158D01*
X54808556Y-79828204D01*
X54787651Y-79891292D01*
X54786963Y-79898022D01*
X54786962Y-79898029D01*
X54777819Y-79987523D01*
X54777818Y-79987541D01*
X54777500Y-79990655D01*
X54777500Y-79993802D01*
X54777500Y-79993803D01*
X54777500Y-80534194D01*
X54777500Y-80534213D01*
X54777501Y-80537344D01*
X54777820Y-80540476D01*
X54777821Y-80540477D01*
X54786962Y-80629972D01*
X54786963Y-80629980D01*
X54787651Y-80636708D01*
X54789779Y-80643131D01*
X54789780Y-80643134D01*
X54827009Y-80755485D01*
X54840997Y-80797697D01*
X54844788Y-80803843D01*
X54844789Y-80803845D01*
X54926819Y-80936835D01*
X54944995Y-80993522D01*
X54934658Y-81052147D01*
X54898190Y-81099199D01*
X54843997Y-81123834D01*
X54784567Y-81120372D01*
X54737013Y-81091673D01*
X54736541Y-81092209D01*
X54733621Y-81089635D01*
X54730867Y-81086880D01*
X54727793Y-81084495D01*
X54727787Y-81084490D01*
X54727686Y-81084412D01*
X54718810Y-81076830D01*
X54692665Y-81052278D01*
X54692663Y-81052276D01*
X54686978Y-81046938D01*
X54680145Y-81043182D01*
X54680139Y-81043177D01*
X54669421Y-81037285D01*
X54653162Y-81026606D01*
X54643491Y-81019104D01*
X54643488Y-81019102D01*
X54637332Y-81014327D01*
X54630175Y-81011229D01*
X54630172Y-81011228D01*
X54597245Y-80996978D01*
X54586759Y-80991841D01*
X54555328Y-80974562D01*
X54555319Y-80974558D01*
X54548488Y-80970803D01*
X54540931Y-80968862D01*
X54540927Y-80968861D01*
X54529084Y-80965820D01*
X54510680Y-80959519D01*
X54499450Y-80954659D01*
X54499445Y-80954657D01*
X54492292Y-80951562D01*
X54487759Y-80950844D01*
X54446558Y-80929416D01*
X54415406Y-80892246D01*
X54400893Y-80845972D01*
X54399426Y-80832332D01*
X54395888Y-80817358D01*
X54351452Y-80698222D01*
X54343037Y-80682810D01*
X54267501Y-80581907D01*
X54255092Y-80569498D01*
X54154189Y-80493962D01*
X54138777Y-80485547D01*
X54019641Y-80441111D01*
X54004667Y-80437573D01*
X53956114Y-80432353D01*
X53949518Y-80432000D01*
X53796326Y-80432000D01*
X53783450Y-80435450D01*
X53780000Y-80448326D01*
X53780000Y-80807500D01*
X53763387Y-80869500D01*
X53718000Y-80914887D01*
X53656000Y-80931500D01*
X53654000Y-80931500D01*
X53592000Y-80914887D01*
X53546613Y-80869500D01*
X53530000Y-80807500D01*
X53530000Y-80446969D01*
X53526357Y-80407037D01*
X53533603Y-80378746D01*
X53532179Y-80378284D01*
X53588666Y-80204435D01*
X53590674Y-80198256D01*
X53610460Y-80010000D01*
X53590674Y-79821744D01*
X53532179Y-79641716D01*
X53437533Y-79477784D01*
X53343309Y-79373138D01*
X53319463Y-79346654D01*
X53290952Y-79292264D01*
X53292035Y-79230863D01*
X53322447Y-79177512D01*
X53374726Y-79145295D01*
X53396606Y-79138478D01*
X53542185Y-79050472D01*
X53662472Y-78930185D01*
X53750478Y-78784606D01*
X53801086Y-78622196D01*
X53807500Y-78551616D01*
X53807500Y-78447674D01*
X54778000Y-78447674D01*
X54781450Y-78460549D01*
X54794326Y-78464000D01*
X55486674Y-78464000D01*
X55499549Y-78460549D01*
X55503000Y-78447674D01*
X56003000Y-78447674D01*
X56006450Y-78460549D01*
X56019326Y-78464000D01*
X56711673Y-78464000D01*
X56724548Y-78460549D01*
X56727999Y-78447674D01*
X57572000Y-78447674D01*
X57575450Y-78460549D01*
X57588326Y-78464000D01*
X58280674Y-78464000D01*
X58293549Y-78460549D01*
X58297000Y-78447674D01*
X58797000Y-78447674D01*
X58800450Y-78460549D01*
X58813326Y-78464000D01*
X59505673Y-78464000D01*
X59518548Y-78460549D01*
X59521999Y-78447674D01*
X59521999Y-78443835D01*
X59521678Y-78437552D01*
X59512544Y-78348132D01*
X59509725Y-78334963D01*
X59460819Y-78187374D01*
X59454753Y-78174366D01*
X59373367Y-78042419D01*
X59364462Y-78031157D01*
X59254842Y-77921537D01*
X59243580Y-77912632D01*
X59111633Y-77831246D01*
X59098625Y-77825180D01*
X58951030Y-77776272D01*
X58937874Y-77773456D01*
X58848444Y-77764319D01*
X58842168Y-77764000D01*
X58813326Y-77764000D01*
X58800450Y-77767450D01*
X58797000Y-77780326D01*
X58797000Y-78447674D01*
X58297000Y-78447674D01*
X58297000Y-77780327D01*
X58293549Y-77767451D01*
X58280674Y-77764001D01*
X58251835Y-77764001D01*
X58245552Y-77764321D01*
X58156132Y-77773455D01*
X58142963Y-77776274D01*
X57995374Y-77825180D01*
X57982366Y-77831246D01*
X57850419Y-77912632D01*
X57839157Y-77921537D01*
X57729537Y-78031157D01*
X57720632Y-78042419D01*
X57639246Y-78174366D01*
X57633180Y-78187374D01*
X57584272Y-78334969D01*
X57581456Y-78348125D01*
X57572319Y-78437555D01*
X57572000Y-78443832D01*
X57572000Y-78447674D01*
X56727999Y-78447674D01*
X56727999Y-78443835D01*
X56727678Y-78437552D01*
X56718544Y-78348132D01*
X56715725Y-78334963D01*
X56666819Y-78187374D01*
X56660753Y-78174366D01*
X56579367Y-78042419D01*
X56570462Y-78031157D01*
X56460842Y-77921537D01*
X56449580Y-77912632D01*
X56317633Y-77831246D01*
X56304625Y-77825180D01*
X56157030Y-77776272D01*
X56143874Y-77773456D01*
X56054444Y-77764319D01*
X56048168Y-77764000D01*
X56019326Y-77764000D01*
X56006450Y-77767450D01*
X56003000Y-77780326D01*
X56003000Y-78447674D01*
X55503000Y-78447674D01*
X55503000Y-77780327D01*
X55499549Y-77767451D01*
X55486674Y-77764001D01*
X55457835Y-77764001D01*
X55451552Y-77764321D01*
X55362132Y-77773455D01*
X55348963Y-77776274D01*
X55201374Y-77825180D01*
X55188366Y-77831246D01*
X55056419Y-77912632D01*
X55045157Y-77921537D01*
X54935537Y-78031157D01*
X54926632Y-78042419D01*
X54845246Y-78174366D01*
X54839180Y-78187374D01*
X54790272Y-78334969D01*
X54787456Y-78348125D01*
X54778319Y-78437555D01*
X54778000Y-78443832D01*
X54778000Y-78447674D01*
X53807500Y-78447674D01*
X53807500Y-78255452D01*
X53816939Y-78207999D01*
X53843819Y-78167771D01*
X54293436Y-77718154D01*
X54743311Y-77268278D01*
X54751481Y-77260844D01*
X54757877Y-77256786D01*
X54803918Y-77207756D01*
X54806535Y-77205054D01*
X54826120Y-77185471D01*
X54828585Y-77182292D01*
X54832530Y-77177674D01*
X59985000Y-77177674D01*
X59988450Y-77190549D01*
X60001326Y-77194000D01*
X60693674Y-77194000D01*
X60706549Y-77190549D01*
X60710000Y-77177674D01*
X60710000Y-76510327D01*
X60706549Y-76497451D01*
X60693674Y-76494001D01*
X60664835Y-76494001D01*
X60658552Y-76494321D01*
X60569132Y-76503455D01*
X60555963Y-76506274D01*
X60408374Y-76555180D01*
X60395366Y-76561246D01*
X60263419Y-76642632D01*
X60252157Y-76651537D01*
X60142537Y-76761157D01*
X60133632Y-76772419D01*
X60052246Y-76904366D01*
X60046180Y-76917374D01*
X59997272Y-77064969D01*
X59994456Y-77078125D01*
X59985319Y-77167555D01*
X59985000Y-77173832D01*
X59985000Y-77177674D01*
X54832530Y-77177674D01*
X54836167Y-77173416D01*
X54841671Y-77167555D01*
X54866062Y-77141582D01*
X54875713Y-77124023D01*
X54886390Y-77107770D01*
X54898673Y-77091936D01*
X54916018Y-77051852D01*
X54921151Y-77041371D01*
X54942197Y-77003092D01*
X54947179Y-76983684D01*
X54953482Y-76965276D01*
X54961437Y-76946896D01*
X54968271Y-76903744D01*
X54970633Y-76892338D01*
X54981500Y-76850019D01*
X54981500Y-76829983D01*
X54983027Y-76810585D01*
X54984939Y-76798513D01*
X54984938Y-76798513D01*
X54986160Y-76790804D01*
X54982050Y-76747324D01*
X54981500Y-76735655D01*
X54981500Y-73208452D01*
X54990939Y-73160999D01*
X55017819Y-73120771D01*
X55720691Y-72417899D01*
X56427320Y-71711269D01*
X56482905Y-71679177D01*
X56547093Y-71679177D01*
X56602680Y-71711271D01*
G37*
%TD.AperFunction*%
%TA.AperFunction,Conductor*%
G36*
X60792849Y-67658619D02*
G01*
X60833069Y-67699931D01*
X60883007Y-67783738D01*
X60883013Y-67783746D01*
X60885634Y-67788144D01*
X61046350Y-67977900D01*
X61236106Y-68138616D01*
X61449727Y-68265906D01*
X61681386Y-68356300D01*
X61924763Y-68407331D01*
X62028158Y-68413750D01*
X62941908Y-68413750D01*
X62943842Y-68413750D01*
X63047237Y-68407331D01*
X63290614Y-68356300D01*
X63391426Y-68316962D01*
X63450565Y-68309280D01*
X63506452Y-68330095D01*
X63546159Y-68374593D01*
X63560500Y-68432480D01*
X63560500Y-70659816D01*
X63546904Y-70716269D01*
X63509097Y-70760343D01*
X63455371Y-70782372D01*
X63407993Y-70778403D01*
X63407629Y-70780104D01*
X63387845Y-70775868D01*
X63299273Y-70766819D01*
X63292996Y-70766500D01*
X63258326Y-70766500D01*
X63245450Y-70769950D01*
X63242000Y-70782826D01*
X63242000Y-71830000D01*
X63225387Y-71892000D01*
X63180000Y-71937387D01*
X63118000Y-71954000D01*
X62033327Y-71954000D01*
X62020451Y-71957450D01*
X62017122Y-71969873D01*
X62017321Y-71973775D01*
X62026368Y-72062346D01*
X62029186Y-72075509D01*
X62077635Y-72221720D01*
X62083697Y-72234719D01*
X62164320Y-72365429D01*
X62173224Y-72376690D01*
X62200000Y-72403466D01*
X62232094Y-72459053D01*
X62232094Y-72523241D01*
X62200000Y-72578828D01*
X62172829Y-72605998D01*
X62172825Y-72606002D01*
X62167719Y-72611109D01*
X62163928Y-72617254D01*
X62163924Y-72617260D01*
X62083243Y-72748064D01*
X62083240Y-72748069D01*
X62079451Y-72754213D01*
X62077180Y-72761064D01*
X62077179Y-72761068D01*
X62043245Y-72863475D01*
X62026564Y-72913815D01*
X62025876Y-72920545D01*
X62025875Y-72920552D01*
X62016819Y-73009194D01*
X62016818Y-73009212D01*
X62016500Y-73012326D01*
X62016500Y-73545674D01*
X62016818Y-73548788D01*
X62016819Y-73548805D01*
X62025875Y-73637447D01*
X62025876Y-73637452D01*
X62026564Y-73644185D01*
X62028693Y-73650612D01*
X62028694Y-73650613D01*
X62074464Y-73788739D01*
X62079451Y-73803787D01*
X62083242Y-73809934D01*
X62083243Y-73809935D01*
X62149634Y-73917572D01*
X62167719Y-73946891D01*
X62286609Y-74065781D01*
X62292754Y-74069571D01*
X62292755Y-74069572D01*
X62307596Y-74078726D01*
X62350777Y-74123833D01*
X62366500Y-74184265D01*
X62366500Y-75019398D01*
X62350506Y-75080314D01*
X62306649Y-75125515D01*
X62288234Y-75136646D01*
X62288225Y-75136652D01*
X62281815Y-75140528D01*
X62276515Y-75145827D01*
X62276511Y-75145831D01*
X62166831Y-75255511D01*
X62166827Y-75255515D01*
X62161528Y-75260815D01*
X62157651Y-75267227D01*
X62157644Y-75267237D01*
X62152937Y-75275024D01*
X62114146Y-75315003D01*
X62061767Y-75333966D01*
X62006373Y-75328087D01*
X61959142Y-75298551D01*
X58098716Y-71438125D01*
X62017121Y-71438125D01*
X62020450Y-71450549D01*
X62033326Y-71454000D01*
X62725674Y-71454000D01*
X62738549Y-71450549D01*
X62742000Y-71437674D01*
X62742000Y-70782827D01*
X62738549Y-70769951D01*
X62725674Y-70766501D01*
X62691007Y-70766501D01*
X62684724Y-70766821D01*
X62596153Y-70775868D01*
X62582990Y-70778686D01*
X62436779Y-70827135D01*
X62423780Y-70833197D01*
X62293070Y-70913820D01*
X62281809Y-70922724D01*
X62173224Y-71031309D01*
X62164320Y-71042570D01*
X62083697Y-71173280D01*
X62077635Y-71186279D01*
X62029187Y-71332487D01*
X62026368Y-71345654D01*
X62017319Y-71434226D01*
X62017121Y-71438125D01*
X58098716Y-71438125D01*
X57575659Y-70915068D01*
X57543565Y-70859481D01*
X57543565Y-70795293D01*
X57575656Y-70739710D01*
X60556638Y-67758727D01*
X60570262Y-67746953D01*
X60589530Y-67732610D01*
X60621372Y-67694661D01*
X60628686Y-67686681D01*
X60630032Y-67685335D01*
X60630034Y-67685332D01*
X60632590Y-67682777D01*
X60634139Y-67680816D01*
X60681200Y-67647994D01*
X60738295Y-67639963D01*
X60792849Y-67658619D01*
G37*
%TD.AperFunction*%
%TD*%
M02*
