%TF.GenerationSoftware,KiCad,Pcbnew,(7.0.0)*%
%TF.CreationDate,2023-03-10T16:09:33-06:00*%
%TF.ProjectId,stick-and-slip_v2_2-channel,73746963-6b2d-4616-9e64-2d736c69705f,rev?*%
%TF.SameCoordinates,Original*%
%TF.FileFunction,Copper,L2,Bot*%
%TF.FilePolarity,Positive*%
%FSLAX46Y46*%
G04 Gerber Fmt 4.6, Leading zero omitted, Abs format (unit mm)*
G04 Created by KiCad (PCBNEW (7.0.0)) date 2023-03-10 16:09:33*
%MOMM*%
%LPD*%
G01*
G04 APERTURE LIST*
G04 Aperture macros list*
%AMRoundRect*
0 Rectangle with rounded corners*
0 $1 Rounding radius*
0 $2 $3 $4 $5 $6 $7 $8 $9 X,Y pos of 4 corners*
0 Add a 4 corners polygon primitive as box body*
4,1,4,$2,$3,$4,$5,$6,$7,$8,$9,$2,$3,0*
0 Add four circle primitives for the rounded corners*
1,1,$1+$1,$2,$3*
1,1,$1+$1,$4,$5*
1,1,$1+$1,$6,$7*
1,1,$1+$1,$8,$9*
0 Add four rect primitives between the rounded corners*
20,1,$1+$1,$2,$3,$4,$5,0*
20,1,$1+$1,$4,$5,$6,$7,0*
20,1,$1+$1,$6,$7,$8,$9,0*
20,1,$1+$1,$8,$9,$2,$3,0*%
G04 Aperture macros list end*
%TA.AperFunction,ComponentPad*%
%ADD10C,2.000000*%
%TD*%
%TA.AperFunction,ComponentPad*%
%ADD11RoundRect,0.250000X-0.625000X0.350000X-0.625000X-0.350000X0.625000X-0.350000X0.625000X0.350000X0*%
%TD*%
%TA.AperFunction,ComponentPad*%
%ADD12O,1.750000X1.200000*%
%TD*%
%TA.AperFunction,ViaPad*%
%ADD13C,0.800000*%
%TD*%
%TA.AperFunction,ViaPad*%
%ADD14C,0.600000*%
%TD*%
%TA.AperFunction,Conductor*%
%ADD15C,0.500000*%
%TD*%
%TA.AperFunction,Conductor*%
%ADD16C,0.250000*%
%TD*%
G04 APERTURE END LIST*
D10*
%TO.P,J5,1,Pin_1*%
%TO.N,/motor-2-green-indicator-led*%
X47650000Y-91694000D03*
%TD*%
D11*
%TO.P,J9,1,Pin_1*%
%TO.N,Net-(J9-Pin_1)*%
X46990000Y-81026000D03*
D12*
%TO.P,J9,2,Pin_2*%
%TO.N,GND*%
X46989999Y-83025999D03*
%TD*%
D10*
%TO.P,J2,1,Pin_1*%
%TO.N,/motor-1-red-indicator-led*%
X62509000Y-91694000D03*
%TD*%
%TO.P,J6,1,Pin_1*%
%TO.N,/motor-2-red-indicator-led*%
X51460000Y-91694000D03*
%TD*%
%TO.P,J1,1,Pin_1*%
%TO.N,/motor-1-green-indicator-led*%
X58699000Y-91694000D03*
%TD*%
D13*
%TO.N,+BATT*%
X50927000Y-85089500D03*
D14*
X55753000Y-81788000D03*
D13*
%TO.N,/BLE-indicator-pin*%
X65532000Y-79121000D03*
X62992000Y-79121000D03*
%TO.N,GND*%
X49530000Y-90043000D03*
X50927000Y-72009000D03*
X60325000Y-70866000D03*
X61722000Y-83820000D03*
X60706000Y-90170000D03*
%TO.N,/motor-driver-2a*%
X51562000Y-80010000D03*
X44069000Y-63500000D03*
%TO.N,/motor-driver-2b*%
X52705000Y-80010000D03*
X44069000Y-65786000D03*
%TD*%
D15*
%TO.N,+BATT*%
X52578500Y-85089500D02*
X55753000Y-81915000D01*
X55753000Y-81915000D02*
X55753000Y-81788000D01*
X50927000Y-85089500D02*
X52578500Y-85089500D01*
D16*
%TO.N,/BLE-indicator-pin*%
X62992000Y-79121000D02*
X65532000Y-79121000D01*
D15*
%TO.N,GND*%
X61722000Y-83820000D02*
X61722000Y-89154000D01*
X49530000Y-90043000D02*
X60579000Y-90043000D01*
D16*
X60579000Y-90043000D02*
X60706000Y-90170000D01*
D15*
X61722000Y-89154000D02*
X60706000Y-90170000D01*
D16*
%TO.N,/motor-driver-2a*%
X44069000Y-64516000D02*
X44794000Y-65241000D01*
X52287000Y-80735000D02*
X51562000Y-80010000D01*
X44069000Y-63500000D02*
X44069000Y-64516000D01*
X44794000Y-65241000D02*
X44794000Y-69813000D01*
X44794000Y-69813000D02*
X53430000Y-78449000D01*
X53430000Y-78449000D02*
X53430000Y-80428000D01*
X53430000Y-80428000D02*
X53123000Y-80735000D01*
X53123000Y-80735000D02*
X52287000Y-80735000D01*
%TO.N,/motor-driver-2b*%
X44069000Y-65786000D02*
X44069000Y-69977000D01*
X44069000Y-69977000D02*
X52705000Y-78613000D01*
X52705000Y-78613000D02*
X52705000Y-80010000D01*
%TD*%
%TA.AperFunction,Conductor*%
%TO.N,GND*%
G36*
X64484117Y-49090806D02*
G01*
X64550247Y-49095469D01*
X64712840Y-49108086D01*
X64729222Y-49110467D01*
X64825571Y-49131125D01*
X64828004Y-49131673D01*
X64953180Y-49161293D01*
X64967361Y-49165559D01*
X65065981Y-49201784D01*
X65069958Y-49203325D01*
X65183011Y-49249432D01*
X65194824Y-49254993D01*
X65289566Y-49305874D01*
X65294859Y-49308888D01*
X65397336Y-49370614D01*
X65406746Y-49376886D01*
X65489080Y-49437380D01*
X65494264Y-49441189D01*
X65500441Y-49446036D01*
X65591461Y-49522242D01*
X65598566Y-49528674D01*
X65676414Y-49604840D01*
X65683004Y-49611808D01*
X65761176Y-49701142D01*
X65766158Y-49707213D01*
X65832329Y-49793270D01*
X65838821Y-49802565D01*
X65902800Y-49903719D01*
X65905925Y-49908939D01*
X65943085Y-49974649D01*
X65958819Y-50002472D01*
X65964651Y-50014189D01*
X66013238Y-50126264D01*
X66014904Y-50130299D01*
X66053204Y-50227926D01*
X66057785Y-50242033D01*
X66090170Y-50366692D01*
X66090802Y-50369234D01*
X66113485Y-50464799D01*
X66116226Y-50481146D01*
X66132414Y-50643670D01*
X66132498Y-50644539D01*
X66138373Y-50708053D01*
X66138900Y-50719474D01*
X66138900Y-78214547D01*
X66123873Y-78273715D01*
X66082435Y-78318542D01*
X66024628Y-78338165D01*
X65964464Y-78327826D01*
X65817745Y-78262501D01*
X65817740Y-78262499D01*
X65811803Y-78259856D01*
X65805444Y-78258504D01*
X65805440Y-78258503D01*
X65633008Y-78221852D01*
X65633005Y-78221851D01*
X65626646Y-78220500D01*
X65437354Y-78220500D01*
X65430995Y-78221851D01*
X65430991Y-78221852D01*
X65258559Y-78258503D01*
X65258552Y-78258505D01*
X65252197Y-78259856D01*
X65246262Y-78262498D01*
X65246254Y-78262501D01*
X65085207Y-78334205D01*
X65085202Y-78334207D01*
X65079270Y-78336849D01*
X65074016Y-78340665D01*
X65074011Y-78340669D01*
X64931388Y-78444290D01*
X64931381Y-78444295D01*
X64926129Y-78448112D01*
X64921780Y-78452941D01*
X64921781Y-78452941D01*
X64920399Y-78454476D01*
X64918728Y-78455689D01*
X64916950Y-78457291D01*
X64916781Y-78457104D01*
X64878685Y-78484781D01*
X64828252Y-78495500D01*
X63695748Y-78495500D01*
X63645315Y-78484781D01*
X63607218Y-78457104D01*
X63607050Y-78457291D01*
X63605271Y-78455689D01*
X63603601Y-78454476D01*
X63597871Y-78448112D01*
X63592613Y-78444292D01*
X63592611Y-78444290D01*
X63449988Y-78340669D01*
X63449987Y-78340668D01*
X63444730Y-78336849D01*
X63431910Y-78331141D01*
X63277745Y-78262501D01*
X63277740Y-78262499D01*
X63271803Y-78259856D01*
X63265444Y-78258504D01*
X63265440Y-78258503D01*
X63093008Y-78221852D01*
X63093005Y-78221851D01*
X63086646Y-78220500D01*
X62897354Y-78220500D01*
X62890995Y-78221851D01*
X62890991Y-78221852D01*
X62718559Y-78258503D01*
X62718552Y-78258505D01*
X62712197Y-78259856D01*
X62706262Y-78262498D01*
X62706254Y-78262501D01*
X62545207Y-78334205D01*
X62545202Y-78334207D01*
X62539270Y-78336849D01*
X62534016Y-78340665D01*
X62534011Y-78340669D01*
X62391388Y-78444290D01*
X62391381Y-78444295D01*
X62386129Y-78448112D01*
X62381784Y-78452937D01*
X62381779Y-78452942D01*
X62263813Y-78583956D01*
X62263808Y-78583962D01*
X62259467Y-78588784D01*
X62256222Y-78594404D01*
X62256218Y-78594410D01*
X62168069Y-78747089D01*
X62168066Y-78747094D01*
X62164821Y-78752716D01*
X62162815Y-78758888D01*
X62162813Y-78758894D01*
X62108333Y-78926564D01*
X62108331Y-78926573D01*
X62106326Y-78932744D01*
X62105648Y-78939194D01*
X62105646Y-78939204D01*
X62092558Y-79063743D01*
X62086540Y-79121000D01*
X62087219Y-79127460D01*
X62105646Y-79302795D01*
X62105647Y-79302803D01*
X62106326Y-79309256D01*
X62108331Y-79315428D01*
X62108333Y-79315435D01*
X62161084Y-79477784D01*
X62164821Y-79489284D01*
X62168068Y-79494908D01*
X62168069Y-79494910D01*
X62249578Y-79636089D01*
X62259467Y-79653216D01*
X62263811Y-79658041D01*
X62263813Y-79658043D01*
X62353112Y-79757219D01*
X62386129Y-79793888D01*
X62391387Y-79797708D01*
X62391388Y-79797709D01*
X62424470Y-79821744D01*
X62539270Y-79905151D01*
X62712197Y-79982144D01*
X62897354Y-80021500D01*
X63080143Y-80021500D01*
X63086646Y-80021500D01*
X63271803Y-79982144D01*
X63444730Y-79905151D01*
X63597871Y-79793888D01*
X63603601Y-79787523D01*
X63605271Y-79786310D01*
X63607050Y-79784709D01*
X63607218Y-79784895D01*
X63645315Y-79757219D01*
X63695748Y-79746500D01*
X64828252Y-79746500D01*
X64878685Y-79757219D01*
X64916781Y-79784895D01*
X64916950Y-79784709D01*
X64918728Y-79786310D01*
X64920398Y-79787523D01*
X64926129Y-79793888D01*
X64931387Y-79797708D01*
X64931388Y-79797709D01*
X64964470Y-79821744D01*
X65079270Y-79905151D01*
X65252197Y-79982144D01*
X65437354Y-80021500D01*
X65620143Y-80021500D01*
X65626646Y-80021500D01*
X65811803Y-79982144D01*
X65964464Y-79914173D01*
X66024628Y-79903835D01*
X66082435Y-79923458D01*
X66123873Y-79968285D01*
X66138900Y-80027453D01*
X66138900Y-92186743D01*
X66138584Y-92195589D01*
X66133965Y-92260171D01*
X66133899Y-92261053D01*
X66121396Y-92419927D01*
X66118944Y-92436556D01*
X66098422Y-92530898D01*
X66097830Y-92533489D01*
X66068419Y-92655993D01*
X66064027Y-92670378D01*
X66028053Y-92766830D01*
X66026432Y-92770949D01*
X65980667Y-92881438D01*
X65974939Y-92893412D01*
X65924422Y-92985929D01*
X65921316Y-92991293D01*
X65860077Y-93091226D01*
X65853617Y-93100746D01*
X65789808Y-93185985D01*
X65784832Y-93192206D01*
X65709306Y-93280636D01*
X65702696Y-93287786D01*
X65627186Y-93363296D01*
X65620036Y-93369906D01*
X65531606Y-93445432D01*
X65525385Y-93450408D01*
X65440146Y-93514217D01*
X65430626Y-93520677D01*
X65330693Y-93581916D01*
X65325329Y-93585022D01*
X65232812Y-93635539D01*
X65220838Y-93641267D01*
X65110349Y-93687032D01*
X65106230Y-93688653D01*
X65009778Y-93724627D01*
X64995393Y-93729019D01*
X64872889Y-93758430D01*
X64870298Y-93759022D01*
X64775956Y-93779544D01*
X64759327Y-93781996D01*
X64600453Y-93794499D01*
X64599570Y-93794565D01*
X64534964Y-93799185D01*
X64526172Y-93799501D01*
X44846281Y-93807897D01*
X44837383Y-93807581D01*
X44772763Y-93802960D01*
X44771878Y-93802894D01*
X44615615Y-93790595D01*
X44598990Y-93788144D01*
X44505473Y-93767803D01*
X44502881Y-93767210D01*
X44382034Y-93738197D01*
X44367648Y-93733805D01*
X44272136Y-93698181D01*
X44268018Y-93696561D01*
X44204383Y-93670203D01*
X44158954Y-93651386D01*
X44146988Y-93645661D01*
X44055409Y-93595655D01*
X44050047Y-93592551D01*
X43951381Y-93532089D01*
X43941864Y-93525632D01*
X43857490Y-93462470D01*
X43851270Y-93457494D01*
X43763954Y-93382919D01*
X43756817Y-93376321D01*
X43682077Y-93301581D01*
X43675482Y-93294447D01*
X43600897Y-93207120D01*
X43595928Y-93200908D01*
X43591131Y-93194500D01*
X43532761Y-93116525D01*
X43526309Y-93107017D01*
X43516632Y-93091226D01*
X43465847Y-93008351D01*
X43462743Y-93002989D01*
X43412729Y-92911393D01*
X43407020Y-92899461D01*
X43361831Y-92790365D01*
X43360217Y-92786262D01*
X43348562Y-92755013D01*
X43324590Y-92690741D01*
X43320203Y-92676371D01*
X43291175Y-92555463D01*
X43290612Y-92553003D01*
X43270253Y-92459406D01*
X43267803Y-92442783D01*
X43267313Y-92436556D01*
X43255471Y-92286088D01*
X43255470Y-92286084D01*
X43250816Y-92220988D01*
X43250500Y-92212146D01*
X43250500Y-91694000D01*
X46144357Y-91694000D01*
X46144781Y-91699117D01*
X46164467Y-91936701D01*
X46164468Y-91936709D01*
X46164892Y-91941821D01*
X46166149Y-91946788D01*
X46166151Y-91946795D01*
X46224678Y-92177910D01*
X46225937Y-92182881D01*
X46231511Y-92195589D01*
X46323766Y-92405910D01*
X46323769Y-92405916D01*
X46325827Y-92410607D01*
X46328627Y-92414893D01*
X46328631Y-92414900D01*
X46420466Y-92555463D01*
X46461836Y-92618785D01*
X46465310Y-92622559D01*
X46465311Y-92622560D01*
X46626784Y-92797967D01*
X46626787Y-92797970D01*
X46630256Y-92801738D01*
X46826491Y-92954474D01*
X46884615Y-92985929D01*
X47022790Y-93060706D01*
X47045190Y-93072828D01*
X47280386Y-93153571D01*
X47525665Y-93194500D01*
X47769201Y-93194500D01*
X47774335Y-93194500D01*
X48019614Y-93153571D01*
X48254810Y-93072828D01*
X48473509Y-92954474D01*
X48669744Y-92801738D01*
X48838164Y-92618785D01*
X48974173Y-92410607D01*
X49074063Y-92182881D01*
X49135108Y-91941821D01*
X49155643Y-91694000D01*
X49954357Y-91694000D01*
X49954781Y-91699117D01*
X49974467Y-91936701D01*
X49974468Y-91936709D01*
X49974892Y-91941821D01*
X49976149Y-91946788D01*
X49976151Y-91946795D01*
X50034678Y-92177910D01*
X50035937Y-92182881D01*
X50041511Y-92195589D01*
X50133766Y-92405910D01*
X50133769Y-92405916D01*
X50135827Y-92410607D01*
X50138627Y-92414893D01*
X50138631Y-92414900D01*
X50230466Y-92555463D01*
X50271836Y-92618785D01*
X50275310Y-92622559D01*
X50275311Y-92622560D01*
X50436784Y-92797967D01*
X50436787Y-92797970D01*
X50440256Y-92801738D01*
X50636491Y-92954474D01*
X50694615Y-92985929D01*
X50832790Y-93060706D01*
X50855190Y-93072828D01*
X51090386Y-93153571D01*
X51335665Y-93194500D01*
X51579201Y-93194500D01*
X51584335Y-93194500D01*
X51829614Y-93153571D01*
X52064810Y-93072828D01*
X52283509Y-92954474D01*
X52479744Y-92801738D01*
X52648164Y-92618785D01*
X52784173Y-92410607D01*
X52884063Y-92182881D01*
X52945108Y-91941821D01*
X52965643Y-91694000D01*
X57193357Y-91694000D01*
X57193781Y-91699117D01*
X57213467Y-91936701D01*
X57213468Y-91936709D01*
X57213892Y-91941821D01*
X57215149Y-91946788D01*
X57215151Y-91946795D01*
X57273678Y-92177910D01*
X57274937Y-92182881D01*
X57280511Y-92195589D01*
X57372766Y-92405910D01*
X57372769Y-92405916D01*
X57374827Y-92410607D01*
X57377627Y-92414893D01*
X57377631Y-92414900D01*
X57469466Y-92555463D01*
X57510836Y-92618785D01*
X57514310Y-92622559D01*
X57514311Y-92622560D01*
X57675784Y-92797967D01*
X57675787Y-92797970D01*
X57679256Y-92801738D01*
X57875491Y-92954474D01*
X57933615Y-92985929D01*
X58071790Y-93060706D01*
X58094190Y-93072828D01*
X58329386Y-93153571D01*
X58574665Y-93194500D01*
X58818201Y-93194500D01*
X58823335Y-93194500D01*
X59068614Y-93153571D01*
X59303810Y-93072828D01*
X59522509Y-92954474D01*
X59718744Y-92801738D01*
X59887164Y-92618785D01*
X60023173Y-92410607D01*
X60123063Y-92182881D01*
X60184108Y-91941821D01*
X60204643Y-91694000D01*
X61003357Y-91694000D01*
X61003781Y-91699117D01*
X61023467Y-91936701D01*
X61023468Y-91936709D01*
X61023892Y-91941821D01*
X61025149Y-91946788D01*
X61025151Y-91946795D01*
X61083678Y-92177910D01*
X61084937Y-92182881D01*
X61090511Y-92195589D01*
X61182766Y-92405910D01*
X61182769Y-92405916D01*
X61184827Y-92410607D01*
X61187627Y-92414893D01*
X61187631Y-92414900D01*
X61279466Y-92555463D01*
X61320836Y-92618785D01*
X61324310Y-92622559D01*
X61324311Y-92622560D01*
X61485784Y-92797967D01*
X61485787Y-92797970D01*
X61489256Y-92801738D01*
X61685491Y-92954474D01*
X61743615Y-92985929D01*
X61881790Y-93060706D01*
X61904190Y-93072828D01*
X62139386Y-93153571D01*
X62384665Y-93194500D01*
X62628201Y-93194500D01*
X62633335Y-93194500D01*
X62878614Y-93153571D01*
X63113810Y-93072828D01*
X63332509Y-92954474D01*
X63528744Y-92801738D01*
X63697164Y-92618785D01*
X63833173Y-92410607D01*
X63933063Y-92182881D01*
X63994108Y-91941821D01*
X64014643Y-91694000D01*
X63994108Y-91446179D01*
X63933063Y-91205119D01*
X63833173Y-90977393D01*
X63697164Y-90769215D01*
X63528744Y-90586262D01*
X63332509Y-90433526D01*
X63327997Y-90431084D01*
X63118316Y-90317610D01*
X63118310Y-90317607D01*
X63113810Y-90315172D01*
X63108969Y-90313510D01*
X63108962Y-90313507D01*
X62883465Y-90236094D01*
X62883461Y-90236093D01*
X62878614Y-90234429D01*
X62869768Y-90232952D01*
X62638398Y-90194344D01*
X62638387Y-90194343D01*
X62633335Y-90193500D01*
X62384665Y-90193500D01*
X62379613Y-90194343D01*
X62379601Y-90194344D01*
X62144443Y-90233585D01*
X62144441Y-90233585D01*
X62139386Y-90234429D01*
X62134541Y-90236092D01*
X62134534Y-90236094D01*
X61909037Y-90313507D01*
X61909026Y-90313511D01*
X61904190Y-90315172D01*
X61899693Y-90317605D01*
X61899683Y-90317610D01*
X61690002Y-90431084D01*
X61689995Y-90431088D01*
X61685491Y-90433526D01*
X61681448Y-90436672D01*
X61681440Y-90436678D01*
X61493304Y-90583111D01*
X61489256Y-90586262D01*
X61485793Y-90590023D01*
X61485784Y-90590032D01*
X61324311Y-90765439D01*
X61324305Y-90765446D01*
X61320836Y-90769215D01*
X61318031Y-90773506D01*
X61318028Y-90773512D01*
X61187631Y-90973099D01*
X61187624Y-90973111D01*
X61184827Y-90977393D01*
X61182772Y-90982077D01*
X61182766Y-90982089D01*
X61086997Y-91200422D01*
X61084937Y-91205119D01*
X61083679Y-91210084D01*
X61083678Y-91210089D01*
X61025151Y-91441204D01*
X61025149Y-91441213D01*
X61023892Y-91446179D01*
X61023468Y-91451288D01*
X61023467Y-91451298D01*
X61003781Y-91688883D01*
X61003357Y-91694000D01*
X60204643Y-91694000D01*
X60184108Y-91446179D01*
X60123063Y-91205119D01*
X60023173Y-90977393D01*
X59887164Y-90769215D01*
X59718744Y-90586262D01*
X59522509Y-90433526D01*
X59517997Y-90431084D01*
X59308316Y-90317610D01*
X59308310Y-90317607D01*
X59303810Y-90315172D01*
X59298969Y-90313510D01*
X59298962Y-90313507D01*
X59073465Y-90236094D01*
X59073461Y-90236093D01*
X59068614Y-90234429D01*
X59059768Y-90232952D01*
X58828398Y-90194344D01*
X58828387Y-90194343D01*
X58823335Y-90193500D01*
X58574665Y-90193500D01*
X58569613Y-90194343D01*
X58569601Y-90194344D01*
X58334443Y-90233585D01*
X58334441Y-90233585D01*
X58329386Y-90234429D01*
X58324541Y-90236092D01*
X58324534Y-90236094D01*
X58099037Y-90313507D01*
X58099026Y-90313511D01*
X58094190Y-90315172D01*
X58089693Y-90317605D01*
X58089683Y-90317610D01*
X57880002Y-90431084D01*
X57879995Y-90431088D01*
X57875491Y-90433526D01*
X57871448Y-90436672D01*
X57871440Y-90436678D01*
X57683304Y-90583111D01*
X57679256Y-90586262D01*
X57675793Y-90590023D01*
X57675784Y-90590032D01*
X57514311Y-90765439D01*
X57514305Y-90765446D01*
X57510836Y-90769215D01*
X57508031Y-90773506D01*
X57508028Y-90773512D01*
X57377631Y-90973099D01*
X57377624Y-90973111D01*
X57374827Y-90977393D01*
X57372772Y-90982077D01*
X57372766Y-90982089D01*
X57276997Y-91200422D01*
X57274937Y-91205119D01*
X57273679Y-91210084D01*
X57273678Y-91210089D01*
X57215151Y-91441204D01*
X57215149Y-91441213D01*
X57213892Y-91446179D01*
X57213468Y-91451288D01*
X57213467Y-91451298D01*
X57193781Y-91688883D01*
X57193357Y-91694000D01*
X52965643Y-91694000D01*
X52945108Y-91446179D01*
X52884063Y-91205119D01*
X52784173Y-90977393D01*
X52648164Y-90769215D01*
X52479744Y-90586262D01*
X52283509Y-90433526D01*
X52278997Y-90431084D01*
X52069316Y-90317610D01*
X52069310Y-90317607D01*
X52064810Y-90315172D01*
X52059969Y-90313510D01*
X52059962Y-90313507D01*
X51834465Y-90236094D01*
X51834461Y-90236093D01*
X51829614Y-90234429D01*
X51820768Y-90232952D01*
X51589398Y-90194344D01*
X51589387Y-90194343D01*
X51584335Y-90193500D01*
X51335665Y-90193500D01*
X51330613Y-90194343D01*
X51330601Y-90194344D01*
X51095443Y-90233585D01*
X51095441Y-90233585D01*
X51090386Y-90234429D01*
X51085541Y-90236092D01*
X51085534Y-90236094D01*
X50860037Y-90313507D01*
X50860026Y-90313511D01*
X50855190Y-90315172D01*
X50850693Y-90317605D01*
X50850683Y-90317610D01*
X50641002Y-90431084D01*
X50640995Y-90431088D01*
X50636491Y-90433526D01*
X50632448Y-90436672D01*
X50632440Y-90436678D01*
X50444304Y-90583111D01*
X50440256Y-90586262D01*
X50436793Y-90590023D01*
X50436784Y-90590032D01*
X50275311Y-90765439D01*
X50275305Y-90765446D01*
X50271836Y-90769215D01*
X50269031Y-90773506D01*
X50269028Y-90773512D01*
X50138631Y-90973099D01*
X50138624Y-90973111D01*
X50135827Y-90977393D01*
X50133772Y-90982077D01*
X50133766Y-90982089D01*
X50037997Y-91200422D01*
X50035937Y-91205119D01*
X50034679Y-91210084D01*
X50034678Y-91210089D01*
X49976151Y-91441204D01*
X49976149Y-91441213D01*
X49974892Y-91446179D01*
X49974468Y-91451288D01*
X49974467Y-91451298D01*
X49954781Y-91688883D01*
X49954357Y-91694000D01*
X49155643Y-91694000D01*
X49135108Y-91446179D01*
X49074063Y-91205119D01*
X48974173Y-90977393D01*
X48838164Y-90769215D01*
X48669744Y-90586262D01*
X48473509Y-90433526D01*
X48468997Y-90431084D01*
X48259316Y-90317610D01*
X48259310Y-90317607D01*
X48254810Y-90315172D01*
X48249969Y-90313510D01*
X48249962Y-90313507D01*
X48024465Y-90236094D01*
X48024461Y-90236093D01*
X48019614Y-90234429D01*
X48010768Y-90232952D01*
X47779398Y-90194344D01*
X47779387Y-90194343D01*
X47774335Y-90193500D01*
X47525665Y-90193500D01*
X47520613Y-90194343D01*
X47520601Y-90194344D01*
X47285443Y-90233585D01*
X47285441Y-90233585D01*
X47280386Y-90234429D01*
X47275541Y-90236092D01*
X47275534Y-90236094D01*
X47050037Y-90313507D01*
X47050026Y-90313511D01*
X47045190Y-90315172D01*
X47040693Y-90317605D01*
X47040683Y-90317610D01*
X46831002Y-90431084D01*
X46830995Y-90431088D01*
X46826491Y-90433526D01*
X46822448Y-90436672D01*
X46822440Y-90436678D01*
X46634304Y-90583111D01*
X46630256Y-90586262D01*
X46626793Y-90590023D01*
X46626784Y-90590032D01*
X46465311Y-90765439D01*
X46465305Y-90765446D01*
X46461836Y-90769215D01*
X46459031Y-90773506D01*
X46459028Y-90773512D01*
X46328631Y-90973099D01*
X46328624Y-90973111D01*
X46325827Y-90977393D01*
X46323772Y-90982077D01*
X46323766Y-90982089D01*
X46227997Y-91200422D01*
X46225937Y-91205119D01*
X46224679Y-91210084D01*
X46224678Y-91210089D01*
X46166151Y-91441204D01*
X46166149Y-91441213D01*
X46164892Y-91446179D01*
X46164468Y-91451288D01*
X46164467Y-91451298D01*
X46144781Y-91688883D01*
X46144357Y-91694000D01*
X43250500Y-91694000D01*
X43250500Y-85089500D01*
X50021540Y-85089500D01*
X50022219Y-85095960D01*
X50040646Y-85271295D01*
X50040647Y-85271303D01*
X50041326Y-85277756D01*
X50043331Y-85283928D01*
X50043333Y-85283935D01*
X50097813Y-85451605D01*
X50099821Y-85457784D01*
X50103068Y-85463408D01*
X50103069Y-85463410D01*
X50189891Y-85613791D01*
X50194467Y-85621716D01*
X50198811Y-85626541D01*
X50198813Y-85626543D01*
X50284386Y-85721581D01*
X50321129Y-85762388D01*
X50326387Y-85766208D01*
X50326388Y-85766209D01*
X50330133Y-85768930D01*
X50474270Y-85873651D01*
X50647197Y-85950644D01*
X50832354Y-85990000D01*
X51015143Y-85990000D01*
X51021646Y-85990000D01*
X51206803Y-85950644D01*
X51379730Y-85873651D01*
X51393454Y-85863679D01*
X51428018Y-85846069D01*
X51466336Y-85840000D01*
X52514793Y-85840000D01*
X52532764Y-85841309D01*
X52536660Y-85841879D01*
X52556523Y-85844789D01*
X52605868Y-85840472D01*
X52616676Y-85840000D01*
X52618600Y-85840000D01*
X52622209Y-85840000D01*
X52653050Y-85836394D01*
X52656531Y-85836039D01*
X52731297Y-85829499D01*
X52738153Y-85827226D01*
X52741543Y-85826527D01*
X52741875Y-85826473D01*
X52742228Y-85826373D01*
X52745571Y-85825580D01*
X52752755Y-85824741D01*
X52823260Y-85799079D01*
X52826618Y-85797912D01*
X52897834Y-85774314D01*
X52903986Y-85770518D01*
X52907107Y-85769064D01*
X52907429Y-85768930D01*
X52907738Y-85768758D01*
X52910815Y-85767212D01*
X52917617Y-85764737D01*
X52980337Y-85723484D01*
X52983232Y-85721640D01*
X53047156Y-85682212D01*
X53052263Y-85677103D01*
X53054976Y-85674959D01*
X53055258Y-85674754D01*
X53055529Y-85674507D01*
X53058159Y-85672299D01*
X53064196Y-85668330D01*
X53115685Y-85613753D01*
X53118130Y-85611236D01*
X56238642Y-82490724D01*
X56252266Y-82478950D01*
X56271530Y-82464610D01*
X56303366Y-82426667D01*
X56310680Y-82418688D01*
X56311264Y-82418103D01*
X56314591Y-82414777D01*
X56333833Y-82390439D01*
X56336090Y-82387670D01*
X56379654Y-82335753D01*
X56379653Y-82335753D01*
X56384302Y-82330214D01*
X56387548Y-82323748D01*
X56389436Y-82320879D01*
X56389645Y-82320589D01*
X56389819Y-82320278D01*
X56391624Y-82317350D01*
X56396111Y-82311677D01*
X56427834Y-82243645D01*
X56429349Y-82240514D01*
X56463040Y-82173433D01*
X56464707Y-82166396D01*
X56465788Y-82163427D01*
X56472424Y-82149867D01*
X56472061Y-82149692D01*
X56475078Y-82143426D01*
X56478789Y-82137522D01*
X56538368Y-81967255D01*
X56558565Y-81788000D01*
X56538368Y-81608745D01*
X56478789Y-81438478D01*
X56382816Y-81285738D01*
X56255262Y-81158184D01*
X56245894Y-81152298D01*
X56108412Y-81065912D01*
X56102522Y-81062211D01*
X56095959Y-81059914D01*
X56095956Y-81059913D01*
X55938824Y-81004930D01*
X55938819Y-81004928D01*
X55932255Y-81002632D01*
X55925335Y-81001852D01*
X55925334Y-81001852D01*
X55759923Y-80983215D01*
X55753000Y-80982435D01*
X55746077Y-80983215D01*
X55580665Y-81001852D01*
X55580662Y-81001852D01*
X55573745Y-81002632D01*
X55567182Y-81004928D01*
X55567175Y-81004930D01*
X55410043Y-81059913D01*
X55410036Y-81059915D01*
X55403478Y-81062211D01*
X55397590Y-81065910D01*
X55397587Y-81065912D01*
X55256638Y-81154476D01*
X55256633Y-81154479D01*
X55250738Y-81158184D01*
X55245813Y-81163108D01*
X55245809Y-81163112D01*
X55128112Y-81280809D01*
X55128108Y-81280813D01*
X55123184Y-81285738D01*
X55119479Y-81291633D01*
X55119476Y-81291638D01*
X55030912Y-81432587D01*
X55030910Y-81432590D01*
X55027211Y-81438478D01*
X55024915Y-81445036D01*
X55024913Y-81445043D01*
X54969930Y-81602176D01*
X54969928Y-81602180D01*
X54967632Y-81608745D01*
X54967149Y-81613023D01*
X54934459Y-81672172D01*
X52303951Y-84302681D01*
X52263723Y-84329561D01*
X52216270Y-84339000D01*
X51466336Y-84339000D01*
X51428018Y-84332931D01*
X51393454Y-84315320D01*
X51379730Y-84305349D01*
X51373738Y-84302681D01*
X51212745Y-84231001D01*
X51212740Y-84230999D01*
X51206803Y-84228356D01*
X51200444Y-84227004D01*
X51200440Y-84227003D01*
X51028008Y-84190352D01*
X51028005Y-84190351D01*
X51021646Y-84189000D01*
X50832354Y-84189000D01*
X50825995Y-84190351D01*
X50825991Y-84190352D01*
X50653559Y-84227003D01*
X50653552Y-84227005D01*
X50647197Y-84228356D01*
X50641262Y-84230998D01*
X50641254Y-84231001D01*
X50480207Y-84302705D01*
X50480202Y-84302707D01*
X50474270Y-84305349D01*
X50469016Y-84309165D01*
X50469011Y-84309169D01*
X50326388Y-84412790D01*
X50326381Y-84412795D01*
X50321129Y-84416612D01*
X50316784Y-84421437D01*
X50316779Y-84421442D01*
X50198813Y-84552456D01*
X50198808Y-84552462D01*
X50194467Y-84557284D01*
X50191222Y-84562904D01*
X50191218Y-84562910D01*
X50103069Y-84715589D01*
X50103066Y-84715594D01*
X50099821Y-84721216D01*
X50097815Y-84727388D01*
X50097813Y-84727394D01*
X50043333Y-84895064D01*
X50043331Y-84895073D01*
X50041326Y-84901244D01*
X50040648Y-84907694D01*
X50040646Y-84907704D01*
X50022962Y-85075964D01*
X50021540Y-85089500D01*
X43250500Y-85089500D01*
X43250500Y-83278505D01*
X45646927Y-83278505D01*
X45647060Y-83289679D01*
X45669377Y-83381670D01*
X45673225Y-83392788D01*
X45755580Y-83573121D01*
X45761468Y-83583319D01*
X45876463Y-83744806D01*
X45884172Y-83753703D01*
X46027658Y-83890517D01*
X46036899Y-83897784D01*
X46203685Y-84004971D01*
X46214143Y-84010363D01*
X46398201Y-84084049D01*
X46409484Y-84087362D01*
X46604165Y-84124882D01*
X46615866Y-84126000D01*
X46723674Y-84126000D01*
X46736549Y-84122549D01*
X46740000Y-84109674D01*
X47240000Y-84109674D01*
X47243450Y-84122549D01*
X47256326Y-84126000D01*
X47314450Y-84126000D01*
X47320339Y-84125719D01*
X47468242Y-84111596D01*
X47479793Y-84109369D01*
X47670026Y-84053512D01*
X47680932Y-84049146D01*
X47857159Y-83958295D01*
X47867055Y-83951935D01*
X48022894Y-83829382D01*
X48031408Y-83821264D01*
X48161243Y-83671427D01*
X48168062Y-83661850D01*
X48267191Y-83490153D01*
X48272079Y-83479450D01*
X48336924Y-83292095D01*
X48338279Y-83286511D01*
X48337693Y-83278318D01*
X48327036Y-83276000D01*
X47256326Y-83276000D01*
X47243450Y-83279450D01*
X47240000Y-83292326D01*
X47240000Y-84109674D01*
X46740000Y-84109674D01*
X46740000Y-83292326D01*
X46736549Y-83279450D01*
X46723674Y-83276000D01*
X45657819Y-83276000D01*
X45646927Y-83278505D01*
X43250500Y-83278505D01*
X43250500Y-81422877D01*
X45614500Y-81422877D01*
X45614501Y-81426008D01*
X45614820Y-81429140D01*
X45614821Y-81429141D01*
X45624312Y-81522061D01*
X45624313Y-81522069D01*
X45625001Y-81528797D01*
X45627129Y-81535219D01*
X45627130Y-81535223D01*
X45653786Y-81615665D01*
X45680186Y-81695334D01*
X45683977Y-81701480D01*
X45768497Y-81838511D01*
X45768500Y-81838515D01*
X45772288Y-81844656D01*
X45896344Y-81968712D01*
X45960193Y-82008094D01*
X46001611Y-82050146D01*
X46018896Y-82106584D01*
X46008129Y-82164619D01*
X45971750Y-82211101D01*
X45957103Y-82222619D01*
X45948591Y-82230735D01*
X45818756Y-82380572D01*
X45811937Y-82390149D01*
X45712808Y-82561846D01*
X45707920Y-82572549D01*
X45643075Y-82759904D01*
X45641720Y-82765488D01*
X45642306Y-82773681D01*
X45652964Y-82776000D01*
X48322181Y-82776000D01*
X48333072Y-82773494D01*
X48332939Y-82762320D01*
X48310622Y-82670329D01*
X48306774Y-82659211D01*
X48224419Y-82478878D01*
X48218531Y-82468680D01*
X48103536Y-82307193D01*
X48095828Y-82298297D01*
X47997477Y-82204520D01*
X47966666Y-82157572D01*
X47959723Y-82101847D01*
X47978073Y-82048774D01*
X48017948Y-82009240D01*
X48083656Y-81968712D01*
X48207712Y-81844656D01*
X48299814Y-81695334D01*
X48354999Y-81528797D01*
X48365500Y-81426009D01*
X48365499Y-80625992D01*
X48354999Y-80523203D01*
X48299814Y-80356666D01*
X48207712Y-80207344D01*
X48083656Y-80083288D01*
X48077515Y-80079500D01*
X48077511Y-80079497D01*
X47940480Y-79994977D01*
X47934334Y-79991186D01*
X47911127Y-79983496D01*
X47774225Y-79938131D01*
X47774224Y-79938130D01*
X47767797Y-79936001D01*
X47761064Y-79935313D01*
X47761059Y-79935312D01*
X47668140Y-79925819D01*
X47668123Y-79925818D01*
X47665009Y-79925500D01*
X47661860Y-79925500D01*
X46318140Y-79925500D01*
X46318120Y-79925500D01*
X46314992Y-79925501D01*
X46311860Y-79925820D01*
X46311858Y-79925821D01*
X46218938Y-79935312D01*
X46218928Y-79935313D01*
X46212203Y-79936001D01*
X46205781Y-79938128D01*
X46205776Y-79938130D01*
X46052521Y-79988914D01*
X46052517Y-79988915D01*
X46045666Y-79991186D01*
X46039522Y-79994975D01*
X46039519Y-79994977D01*
X45902488Y-80079497D01*
X45902480Y-80079503D01*
X45896344Y-80083288D01*
X45891242Y-80088389D01*
X45891238Y-80088393D01*
X45777393Y-80202238D01*
X45777389Y-80202242D01*
X45772288Y-80207344D01*
X45768503Y-80213480D01*
X45768497Y-80213488D01*
X45683977Y-80350519D01*
X45680186Y-80356666D01*
X45677915Y-80363517D01*
X45677914Y-80363521D01*
X45627860Y-80514574D01*
X45625001Y-80523203D01*
X45624313Y-80529933D01*
X45624312Y-80529940D01*
X45614819Y-80622859D01*
X45614818Y-80622877D01*
X45614500Y-80625991D01*
X45614500Y-80629138D01*
X45614500Y-80629139D01*
X45614500Y-81422858D01*
X45614500Y-81422877D01*
X43250500Y-81422877D01*
X43250500Y-75154056D01*
X44031500Y-75154056D01*
X44033293Y-75161332D01*
X44033294Y-75161337D01*
X44070415Y-75311944D01*
X44072210Y-75319225D01*
X44075693Y-75325862D01*
X44075695Y-75325866D01*
X44138129Y-75444823D01*
X44151266Y-75469852D01*
X44264071Y-75597183D01*
X44404070Y-75693818D01*
X44563128Y-75754140D01*
X44689628Y-75769500D01*
X44770623Y-75769500D01*
X44774372Y-75769500D01*
X44900872Y-75754140D01*
X45059930Y-75693818D01*
X45199929Y-75597183D01*
X45312734Y-75469852D01*
X45391790Y-75319225D01*
X45432500Y-75154056D01*
X45432500Y-74983944D01*
X45391790Y-74818775D01*
X45312734Y-74668148D01*
X45199929Y-74540817D01*
X45193760Y-74536558D01*
X45193758Y-74536557D01*
X45066106Y-74448445D01*
X45066105Y-74448444D01*
X45059930Y-74444182D01*
X45052915Y-74441521D01*
X45052912Y-74441520D01*
X44907888Y-74386520D01*
X44907882Y-74386518D01*
X44900872Y-74383860D01*
X44893427Y-74382956D01*
X44893423Y-74382955D01*
X44778092Y-74368951D01*
X44778080Y-74368950D01*
X44774372Y-74368500D01*
X44689628Y-74368500D01*
X44685920Y-74368950D01*
X44685907Y-74368951D01*
X44570576Y-74382955D01*
X44570570Y-74382956D01*
X44563128Y-74383860D01*
X44556119Y-74386517D01*
X44556111Y-74386520D01*
X44411087Y-74441520D01*
X44411081Y-74441523D01*
X44404070Y-74444182D01*
X44397897Y-74448442D01*
X44397893Y-74448445D01*
X44270241Y-74536557D01*
X44270235Y-74536562D01*
X44264071Y-74540817D01*
X44259099Y-74546428D01*
X44259098Y-74546430D01*
X44156241Y-74662531D01*
X44156236Y-74662537D01*
X44151266Y-74668148D01*
X44147780Y-74674788D01*
X44147779Y-74674791D01*
X44075695Y-74812133D01*
X44075692Y-74812140D01*
X44072210Y-74818775D01*
X44070416Y-74826050D01*
X44070415Y-74826055D01*
X44033294Y-74976662D01*
X44033293Y-74976668D01*
X44031500Y-74983944D01*
X44031500Y-75154056D01*
X43250500Y-75154056D01*
X43250500Y-70269367D01*
X43268570Y-70204910D01*
X43317512Y-70159238D01*
X43383063Y-70145663D01*
X43446119Y-70168141D01*
X43488252Y-70220060D01*
X43490382Y-70227390D01*
X43494352Y-70234103D01*
X43500581Y-70244637D01*
X43509136Y-70262099D01*
X43513642Y-70273480D01*
X43513643Y-70273483D01*
X43516514Y-70280732D01*
X43538440Y-70310912D01*
X43542181Y-70316060D01*
X43548593Y-70325822D01*
X43566856Y-70356702D01*
X43566859Y-70356707D01*
X43570830Y-70363420D01*
X43576345Y-70368935D01*
X43584990Y-70377580D01*
X43597626Y-70392374D01*
X43604819Y-70402275D01*
X43604823Y-70402279D01*
X43609406Y-70408587D01*
X43615415Y-70413558D01*
X43615416Y-70413559D01*
X43643058Y-70436426D01*
X43651699Y-70444289D01*
X44447917Y-71240507D01*
X44479163Y-71293082D01*
X44481478Y-71354197D01*
X44454299Y-71408985D01*
X44416427Y-71435564D01*
X44417725Y-71438037D01*
X44411085Y-71441521D01*
X44404070Y-71444182D01*
X44397897Y-71448442D01*
X44397893Y-71448445D01*
X44270241Y-71536557D01*
X44270235Y-71536562D01*
X44264071Y-71540817D01*
X44259099Y-71546428D01*
X44259098Y-71546430D01*
X44156241Y-71662531D01*
X44156236Y-71662537D01*
X44151266Y-71668148D01*
X44147780Y-71674788D01*
X44147779Y-71674791D01*
X44075695Y-71812133D01*
X44075692Y-71812140D01*
X44072210Y-71818775D01*
X44070416Y-71826050D01*
X44070415Y-71826055D01*
X44033294Y-71976662D01*
X44033293Y-71976668D01*
X44031500Y-71983944D01*
X44031500Y-72154056D01*
X44033293Y-72161332D01*
X44033294Y-72161337D01*
X44045546Y-72211044D01*
X44072210Y-72319225D01*
X44075693Y-72325862D01*
X44075695Y-72325866D01*
X44138129Y-72444823D01*
X44151266Y-72469852D01*
X44264071Y-72597183D01*
X44404070Y-72693818D01*
X44563128Y-72754140D01*
X44689628Y-72769500D01*
X44770623Y-72769500D01*
X44774372Y-72769500D01*
X44900872Y-72754140D01*
X45059930Y-72693818D01*
X45199929Y-72597183D01*
X45312734Y-72469852D01*
X45359887Y-72380009D01*
X45397710Y-72336661D01*
X45451026Y-72315048D01*
X45508357Y-72319821D01*
X45557364Y-72349955D01*
X52043181Y-78835772D01*
X52070061Y-78876000D01*
X52079500Y-78923453D01*
X52079500Y-79063743D01*
X52064473Y-79122911D01*
X52023035Y-79167738D01*
X51965228Y-79187361D01*
X51905064Y-79177022D01*
X51847745Y-79151501D01*
X51847740Y-79151499D01*
X51841803Y-79148856D01*
X51835444Y-79147504D01*
X51835440Y-79147503D01*
X51663008Y-79110852D01*
X51663005Y-79110851D01*
X51656646Y-79109500D01*
X51467354Y-79109500D01*
X51460995Y-79110851D01*
X51460991Y-79110852D01*
X51288559Y-79147503D01*
X51288552Y-79147505D01*
X51282197Y-79148856D01*
X51276262Y-79151498D01*
X51276254Y-79151501D01*
X51115207Y-79223205D01*
X51115202Y-79223207D01*
X51109270Y-79225849D01*
X51104016Y-79229665D01*
X51104011Y-79229669D01*
X50961388Y-79333290D01*
X50961381Y-79333295D01*
X50956129Y-79337112D01*
X50951784Y-79341937D01*
X50951779Y-79341942D01*
X50833813Y-79472956D01*
X50833808Y-79472962D01*
X50829467Y-79477784D01*
X50826222Y-79483404D01*
X50826218Y-79483410D01*
X50738069Y-79636089D01*
X50738066Y-79636094D01*
X50734821Y-79641716D01*
X50732815Y-79647888D01*
X50732813Y-79647894D01*
X50678333Y-79815564D01*
X50678331Y-79815573D01*
X50676326Y-79821744D01*
X50675648Y-79828194D01*
X50675646Y-79828204D01*
X50660924Y-79968285D01*
X50656540Y-80010000D01*
X50657219Y-80016460D01*
X50675646Y-80191795D01*
X50675647Y-80191803D01*
X50676326Y-80198256D01*
X50678331Y-80204428D01*
X50678333Y-80204435D01*
X50730024Y-80363521D01*
X50734821Y-80378284D01*
X50738068Y-80383908D01*
X50738069Y-80383910D01*
X50791945Y-80477227D01*
X50829467Y-80542216D01*
X50833811Y-80547041D01*
X50833813Y-80547043D01*
X50951779Y-80678057D01*
X50956129Y-80682888D01*
X50961387Y-80686708D01*
X50961388Y-80686709D01*
X50991867Y-80708853D01*
X51109270Y-80794151D01*
X51282197Y-80871144D01*
X51467354Y-80910500D01*
X51526547Y-80910500D01*
X51574000Y-80919939D01*
X51614228Y-80946819D01*
X51789707Y-81122298D01*
X51797159Y-81130487D01*
X51801214Y-81136877D01*
X51829151Y-81163112D01*
X51850223Y-81182900D01*
X51853020Y-81185611D01*
X51872529Y-81205120D01*
X51875709Y-81207587D01*
X51884571Y-81215155D01*
X51897880Y-81227654D01*
X51910732Y-81239723D01*
X51910734Y-81239724D01*
X51916418Y-81245062D01*
X51923251Y-81248818D01*
X51923252Y-81248819D01*
X51933973Y-81254713D01*
X51950234Y-81265394D01*
X51966064Y-81277673D01*
X52006154Y-81295021D01*
X52016631Y-81300154D01*
X52054908Y-81321197D01*
X52071957Y-81325574D01*
X52074305Y-81326177D01*
X52092719Y-81332481D01*
X52111104Y-81340438D01*
X52154265Y-81347273D01*
X52165664Y-81349634D01*
X52207981Y-81360500D01*
X52228017Y-81360500D01*
X52247402Y-81362025D01*
X52267196Y-81365160D01*
X52305276Y-81361560D01*
X52310676Y-81361050D01*
X52322345Y-81360500D01*
X53045225Y-81360500D01*
X53056280Y-81361021D01*
X53063667Y-81362673D01*
X53130872Y-81360561D01*
X53134768Y-81360500D01*
X53158448Y-81360500D01*
X53162350Y-81360500D01*
X53166313Y-81359999D01*
X53177963Y-81359080D01*
X53221627Y-81357709D01*
X53240861Y-81352119D01*
X53259917Y-81348174D01*
X53279792Y-81345664D01*
X53320395Y-81329587D01*
X53331450Y-81325802D01*
X53373390Y-81313618D01*
X53390629Y-81303422D01*
X53408103Y-81294862D01*
X53419474Y-81290360D01*
X53419476Y-81290358D01*
X53426732Y-81287486D01*
X53462069Y-81261811D01*
X53471824Y-81255403D01*
X53509420Y-81233170D01*
X53523584Y-81219005D01*
X53538379Y-81206368D01*
X53554587Y-81194594D01*
X53582428Y-81160938D01*
X53590279Y-81152309D01*
X53817306Y-80925282D01*
X53825482Y-80917843D01*
X53831877Y-80913786D01*
X53877933Y-80864740D01*
X53880550Y-80862038D01*
X53900120Y-80842470D01*
X53902565Y-80839316D01*
X53910155Y-80830428D01*
X53940062Y-80798582D01*
X53944599Y-80790330D01*
X53949710Y-80781032D01*
X53960393Y-80764766D01*
X53972674Y-80748936D01*
X53990018Y-80708851D01*
X53995160Y-80698356D01*
X54006320Y-80678057D01*
X54016197Y-80660092D01*
X54021179Y-80640689D01*
X54027480Y-80622283D01*
X54035438Y-80603895D01*
X54042269Y-80560756D01*
X54044639Y-80549315D01*
X54045223Y-80547043D01*
X54055500Y-80507019D01*
X54055500Y-80486983D01*
X54057025Y-80467597D01*
X54060160Y-80447804D01*
X54056050Y-80404324D01*
X54055500Y-80392655D01*
X54055500Y-78526771D01*
X54056020Y-78515718D01*
X54057672Y-78508332D01*
X54055561Y-78441144D01*
X54055500Y-78437250D01*
X54055500Y-78413545D01*
X54055500Y-78409650D01*
X54054998Y-78405681D01*
X54054080Y-78394024D01*
X54052709Y-78350373D01*
X54047119Y-78331135D01*
X54043175Y-78312091D01*
X54040664Y-78292208D01*
X54024582Y-78251591D01*
X54020798Y-78240539D01*
X54010793Y-78206101D01*
X54008617Y-78198610D01*
X54004645Y-78191894D01*
X54004643Y-78191889D01*
X53998422Y-78181370D01*
X53989860Y-78163892D01*
X53985360Y-78152527D01*
X53985359Y-78152526D01*
X53982486Y-78145268D01*
X53956812Y-78109931D01*
X53950409Y-78100184D01*
X53928170Y-78062579D01*
X53914005Y-78048414D01*
X53901368Y-78033618D01*
X53894184Y-78023729D01*
X53894178Y-78023723D01*
X53889594Y-78017413D01*
X53855946Y-77989577D01*
X53847305Y-77981714D01*
X45455819Y-69590228D01*
X45428939Y-69550000D01*
X45419500Y-69502547D01*
X45419500Y-65318775D01*
X45420021Y-65307719D01*
X45421673Y-65300333D01*
X45419561Y-65233127D01*
X45419500Y-65229232D01*
X45419500Y-65205541D01*
X45419500Y-65201650D01*
X45418998Y-65197677D01*
X45418080Y-65186018D01*
X45416954Y-65150173D01*
X45416709Y-65142373D01*
X45411120Y-65123140D01*
X45407174Y-65104083D01*
X45405641Y-65091944D01*
X45404664Y-65084208D01*
X45388582Y-65043591D01*
X45384803Y-65032551D01*
X45374795Y-64998102D01*
X45374793Y-64998099D01*
X45372618Y-64990610D01*
X45362417Y-64973360D01*
X45353863Y-64955901D01*
X45346486Y-64937268D01*
X45320808Y-64901925D01*
X45314401Y-64892171D01*
X45296142Y-64861296D01*
X45296141Y-64861294D01*
X45292170Y-64854580D01*
X45278004Y-64840414D01*
X45265370Y-64825622D01*
X45253594Y-64809413D01*
X45247583Y-64804440D01*
X45247581Y-64804438D01*
X45219941Y-64781573D01*
X45211300Y-64773710D01*
X44730819Y-64293228D01*
X44703939Y-64253000D01*
X44694500Y-64205547D01*
X44694500Y-64198687D01*
X44702736Y-64154249D01*
X44726350Y-64115715D01*
X44801533Y-64032216D01*
X44896179Y-63868284D01*
X44954674Y-63688256D01*
X44974460Y-63500000D01*
X44954674Y-63311744D01*
X44896179Y-63131716D01*
X44801533Y-62967784D01*
X44674871Y-62827112D01*
X44669613Y-62823292D01*
X44669611Y-62823290D01*
X44526988Y-62719669D01*
X44526987Y-62719668D01*
X44521730Y-62715849D01*
X44515792Y-62713205D01*
X44354745Y-62641501D01*
X44354740Y-62641499D01*
X44348803Y-62638856D01*
X44342444Y-62637504D01*
X44342440Y-62637503D01*
X44170008Y-62600852D01*
X44170005Y-62600851D01*
X44163646Y-62599500D01*
X43974354Y-62599500D01*
X43967995Y-62600851D01*
X43967991Y-62600852D01*
X43795559Y-62637503D01*
X43795552Y-62637505D01*
X43789197Y-62638856D01*
X43783262Y-62641498D01*
X43783254Y-62641501D01*
X43622207Y-62713205D01*
X43622202Y-62713207D01*
X43616270Y-62715849D01*
X43611016Y-62719665D01*
X43611011Y-62719669D01*
X43468388Y-62823290D01*
X43468381Y-62823295D01*
X43463129Y-62827112D01*
X43458779Y-62831942D01*
X43457472Y-62833120D01*
X43407846Y-62860402D01*
X43351265Y-62862774D01*
X43299530Y-62839740D01*
X43263432Y-62796105D01*
X43250500Y-62740970D01*
X43250500Y-50662854D01*
X43250816Y-50654011D01*
X43254913Y-50596710D01*
X43255448Y-50589227D01*
X43255483Y-50588761D01*
X43267504Y-50436006D01*
X43269952Y-50419405D01*
X43290062Y-50326951D01*
X43290596Y-50324616D01*
X43319039Y-50206142D01*
X43323422Y-50191786D01*
X43358569Y-50097550D01*
X43360119Y-50093611D01*
X43404436Y-49986621D01*
X43410157Y-49974663D01*
X43459446Y-49884396D01*
X43462491Y-49879136D01*
X43521820Y-49782322D01*
X43528236Y-49772865D01*
X43590495Y-49689695D01*
X43595380Y-49683590D01*
X43668596Y-49597865D01*
X43675157Y-49590768D01*
X43748768Y-49517157D01*
X43755865Y-49510596D01*
X43841590Y-49437380D01*
X43847695Y-49432495D01*
X43930865Y-49370236D01*
X43940322Y-49363820D01*
X44037136Y-49304491D01*
X44042396Y-49301446D01*
X44132663Y-49252157D01*
X44144621Y-49246437D01*
X44148480Y-49244838D01*
X44251611Y-49202119D01*
X44255550Y-49200569D01*
X44349786Y-49165422D01*
X44364142Y-49161039D01*
X44482616Y-49132596D01*
X44484951Y-49132062D01*
X44577405Y-49111952D01*
X44594006Y-49109504D01*
X44746764Y-49097482D01*
X44747064Y-49097459D01*
X44812036Y-49092814D01*
X44820829Y-49092499D01*
X64475409Y-49090500D01*
X64484117Y-49090806D01*
G37*
%TD.AperFunction*%
%TD*%
M02*
